<svg width="16" height="16" viewBox="0 0 16 16" fill="none" xmlns="http://www.w3.org/2000/svg">
<path d="M9.00002 12.5C9.00002 12.5 11.678 12.822 13.208 11.292C14.738 9.76201 14.5 6.50001 14.5 6.50001C14.5 6.50001 11.39 6.05301 10 7.50001C9.56502 7.95301 9.00002 8.50001 9.00002 10V12.5ZM9.00002 12.5C9.00002 12.5 5.50002 13 3.08802 10.588C0.676023 8.17601 1.50002 3.50001 1.50002 3.50001C1.50002 3.50001 5.15202 3.15201 7.55902 5.55901C8.52602 6.52601 9.00002 8.00001 9.00002 9.70601V12.5ZM11.5 10L9.00002 12M5.00002 8.00001L8.78202 11.972" stroke="black"/>
</svg>
