<svg width="84" height="84" viewBox="0 0 84 84" fill="none" xmlns="http://www.w3.org/2000/svg">
<path d="M23.3349 70.4104C27.5428 72.1993 32.0119 73.1076 36.6161 73.1076C43.0316 73.1076 49.2109 71.3134 54.5921 67.9482C58.5021 73.7205 62.2414 78.3431 62.2821 78.3917C62.5301 78.6988 62.9055 78.8773 63.3006 78.8773C63.6956 78.8773 64.0697 78.6988 64.3191 78.393C65.0121 77.5399 81.3015 57.3786 81.3015 47.8039C81.3015 40.24 76.6211 33.5633 69.5953 30.9461C69.2711 29.6087 68.8892 28.3159 68.4272 27.1241C65.2299 18.631 58.7619 11.9556 50.799 8.27534C50.6231 8.14146 50.4263 8.04302 50.2044 8.01021C45.9887 6.15827 41.3805 5.12402 36.6148 5.12402C18.2451 5.12271 3.24056 19.7768 2.65256 38.0087C2.64075 38.0691 2.65256 38.1282 2.64862 38.1885C2.64075 38.497 2.625 38.8041 2.625 39.1152C2.625 52.7861 10.7546 65.0685 23.3349 70.4104ZM27.8197 69.2226L32.2586 67.6922C33.8034 67.1567 34.8416 65.6946 34.8416 64.054C34.8416 63.2783 34.6185 62.542 34.2103 61.9461C34.0121 61.6455 33.9557 61.2898 34.0489 60.946C34.1434 60.5995 34.3757 60.3212 34.6999 60.1637L38.0271 58.5507C39.0311 58.0624 39.7727 57.166 40.0628 56.095C40.3515 55.0266 40.1625 53.8821 39.5469 52.9607L38.5757 51.496C38.3224 51.1035 38.3001 50.6008 38.5271 50.2071L40.2111 47.2225C40.4998 46.7237 41.0865 46.4835 41.6233 46.6436L45.3036 47.7212C45.3036 47.7501 45.3009 47.7776 45.3009 47.8065C45.3009 51.7178 47.9614 57.7684 53.1523 65.7589C48.2003 68.842 42.5171 70.4852 36.6174 70.4852C33.6079 70.4852 30.6639 70.0573 27.8211 69.2252L27.8197 69.2226ZM78.6778 47.8039C78.6778 55.1749 66.885 70.8553 63.3006 75.4478C61.8187 73.5473 58.9312 69.7476 56.0661 65.4334C50.7386 57.4219 47.9246 51.324 47.9246 47.8026C47.9246 47.4692 47.9351 47.1476 47.9548 46.8248C48.4299 39.2293 54.5094 33.0566 62.0944 32.4673C62.4894 32.4371 62.895 32.4148 63.2993 32.4148C64.9333 32.4148 66.5438 32.6734 68.0872 33.184C74.4201 35.2564 78.6752 41.1325 78.6752 47.8039H78.6778ZM66.3246 29.085C66.4427 29.4328 66.57 29.7715 66.6763 30.1324C65.8324 29.9723 64.9806 29.8712 64.1261 29.8318C64.3073 29.6021 64.5409 29.4184 64.8362 29.362L66.3246 29.085ZM65.3573 26.5939L64.3506 26.7816C63.1089 27.0205 62.0629 27.846 61.5523 28.9866L61.1205 29.9473C53.1418 30.9212 46.7342 37.1608 45.5122 45.045L42.357 44.1223C40.6468 43.6249 38.829 44.3612 37.9299 45.9205L36.2447 48.9077C35.5267 50.1572 35.5753 51.6955 36.3812 52.9345L37.3616 54.415C37.5611 54.7142 37.6202 55.066 37.5283 55.4085C37.4351 55.7537 37.2028 56.032 36.8786 56.1895L33.5514 57.8025C32.5513 58.2908 31.8098 59.1833 31.5171 60.2516C31.2244 61.3174 31.4068 62.4619 32.0302 63.4082C32.1549 63.5893 32.2179 63.8059 32.2179 64.0526C32.2179 64.5842 31.8964 65.0396 31.4016 65.2116L23.9256 67.7893C13.0764 62.9869 5.92987 52.5525 5.313 40.7689L9.82406 43.7876C11.4109 44.8534 13.5069 44.604 14.8785 43.1065C15.2211 42.7337 15.6463 42.7009 15.8484 42.7127C16.2172 42.735 16.5519 42.9175 16.7685 43.218L18.5693 45.7105C19.2386 46.6345 20.2729 47.2133 21.4069 47.2933L25.8234 47.6162C25.9206 47.6241 26.0151 47.628 26.1122 47.628C27.1714 47.628 28.1781 47.1936 28.9091 46.414L34.6172 40.3384C35.7039 39.1808 35.9704 37.5047 35.2957 36.0675L34.3494 34.0581C34.0817 33.4885 34.2864 32.8165 34.8272 32.4923L38.3932 30.3516C38.8316 30.0904 39.3947 30.1271 39.7897 30.4487L41.2269 31.609C42.567 32.6891 44.4832 32.7469 45.8837 31.7428L48.5494 29.8345C50.0259 28.7779 50.5601 26.8735 49.8501 25.2L47.2684 19.1323C46.6423 17.6663 45.1395 16.7095 43.5645 16.7948L38.2554 17.0218C37.9168 17.0376 37.6005 16.9168 37.3577 16.6832C37.1136 16.4496 36.981 16.1372 36.981 15.8012V14.725C36.981 14.1566 37.3682 13.6671 37.9194 13.5358L49.8068 10.7021C56.6423 13.8902 62.2571 19.4867 65.3599 26.5952L65.3573 26.5939ZM36.6161 7.74771C39.648 7.74771 42.6077 8.2084 45.4335 9.04446L37.3091 10.9817C35.5701 11.3978 34.3547 12.9373 34.3547 14.725V15.8012C34.3547 16.8604 34.7747 17.8461 35.5399 18.5771C36.3037 19.3108 37.317 19.6875 38.3657 19.6429L43.6748 19.4158C44.1709 19.4053 44.6526 19.6941 44.8507 20.1587L47.4311 26.2251C47.6582 26.7567 47.4876 27.363 47.019 27.699L44.3533 29.6087C43.9071 29.925 43.2994 29.908 42.8728 29.5654L41.4356 28.4051C40.1848 27.3958 38.4169 27.2725 37.0387 28.1006L33.474 30.2413C31.7704 31.2612 31.1259 33.3848 31.9699 35.1776L32.9149 37.1858C33.1301 37.6425 33.0461 38.1741 32.7009 38.5416L26.9916 44.6171C26.7383 44.8875 26.3813 45.0135 26.0138 44.9991L21.5946 44.6762C21.2349 44.6487 20.9068 44.4662 20.6929 44.1722L18.8921 41.6798C18.2109 40.7387 17.157 40.1599 15.9967 40.093C14.826 40.0182 13.7235 40.4788 12.8612 41.4173C12.4504 41.8661 11.7849 41.9475 11.2809 41.6076L5.28675 37.594C6.08475 21.0026 19.8306 7.74771 36.6161 7.74771Z" fill="black"/>
<path d="M24.0208 14.9783C24.2164 14.9783 24.4172 14.935 24.6049 14.8418C24.954 14.6673 25.3084 14.5019 25.668 14.3431C26.3308 14.0504 26.6314 13.2773 26.34 12.6132C26.0473 11.9517 25.2743 11.6485 24.6102 11.9412C24.2125 12.1158 23.8213 12.2982 23.4342 12.4912C22.7858 12.8153 22.522 13.6028 22.8448 14.2525C23.0758 14.7132 23.5392 14.9797 24.0208 14.9797V14.9783Z" fill="black"/>
<path d="M9.28962 31.2793C9.42743 31.3266 9.57049 31.3489 9.7083 31.3489C10.2556 31.3489 10.7675 31.0037 10.9512 30.4551C12.7481 25.1316 16.2642 20.3882 20.8514 17.0965C21.4394 16.6738 21.5759 15.8548 21.152 15.2642C20.7281 14.6736 19.9091 14.5384 19.3197 14.9636C14.2902 18.5717 10.4328 23.7758 8.46405 29.6164C8.23174 30.3015 8.60187 31.047 9.28962 31.2793Z" fill="black"/>
<path d="M52.5176 47.7999C52.5176 53.7455 57.3555 58.5834 63.3011 58.5834C69.2467 58.5834 74.0846 53.7455 74.0846 47.7999C74.0846 41.8542 69.2467 37.0164 63.3011 37.0164C57.3555 37.0164 52.5176 41.8542 52.5176 47.7999ZM71.4596 47.7999C71.4596 52.2991 67.8003 55.9584 63.3011 55.9584C58.8018 55.9584 55.1426 52.2991 55.1426 47.7999C55.1426 43.3006 58.8018 39.6414 63.3011 39.6414C67.8003 39.6414 71.4596 43.3006 71.4596 47.7999Z" fill="black"/>
</svg>
