<svg width="63" height="63" viewBox="0 0 63 63" fill="none" xmlns="http://www.w3.org/2000/svg">
<path d="M51.9741 40.7395C49.0214 40.7395 46.6191 43.1424 46.6191 46.0945C46.6191 49.0473 49.0214 51.4495 51.9741 51.4495C54.9263 51.4495 57.3291 49.0473 57.3291 46.0945C57.3291 43.1424 54.9263 40.7395 51.9741 40.7395ZM51.9741 47.6695C51.1054 47.6695 50.3991 46.9632 50.3991 46.0945C50.3991 45.2258 51.1054 44.5195 51.9741 44.5195C52.8429 44.5195 53.5491 45.2258 53.5491 46.0945C53.5491 46.9632 52.8429 47.6695 51.9741 47.6695Z" fill="#1782C5"/>
<path d="M51.4614 18.4797H42.2092C41.513 18.4797 40.9492 19.0443 40.9492 19.7397V44.3097C40.9492 45.0052 41.513 45.5697 42.2092 45.5697H43.5455C44.1692 45.5697 44.7217 45.1205 44.8023 44.5019C45.2968 40.7131 48.319 38.3632 51.9748 38.3632C55.6307 38.3632 58.6528 40.7132 59.1474 44.5019C59.228 45.1206 59.7798 45.5697 60.4042 45.5697H61.7391C62.4346 45.5697 62.9991 45.0052 62.9991 44.3097V32.0247C62.9991 31.7287 62.8951 31.4426 62.7055 31.2164L52.4277 18.9314C52.1884 18.6455 51.8343 18.4797 51.4614 18.4797ZM43.4692 28.5597V22.2597C43.4692 21.5643 44.033 20.9997 44.7292 20.9997H50.2795C50.6531 20.9997 51.0078 21.1661 51.2471 21.4533L56.4969 27.7533C57.1805 28.5741 56.5971 29.8197 55.5287 29.8197H44.7292C44.033 29.8197 43.4692 29.2559 43.4692 28.5597Z" fill="#1782C5"/>
<path d="M1.26 45.5703H4.48628C5.11 45.5703 5.66248 45.1211 5.74309 44.5025C6.23762 40.7136 9.25976 38.3638 12.9156 38.3638C16.5715 38.3638 19.5936 40.7137 20.0881 44.5025C20.1687 45.1212 20.7206 45.5703 21.3449 45.5703H37.17C37.8656 45.5703 38.43 45.0058 38.43 44.3103V12.8103C38.43 12.1148 37.8655 11.5503 37.17 11.5503H1.26C0.563809 11.5503 0 12.1148 0 12.8103V44.3103C0 45.0059 0.563809 45.5703 1.26 45.5703Z" fill="#1782C5"/>
<path d="M12.9155 40.7395C9.96278 40.7395 7.56055 43.1424 7.56055 46.0945C7.56055 49.0473 9.96278 51.4495 12.9155 51.4495C15.8677 51.4495 18.2705 49.0473 18.2705 46.0945C18.2705 43.1424 15.8677 40.7395 12.9155 40.7395ZM12.9155 47.6695C12.0468 47.6695 11.3405 46.9632 11.3405 46.0945C11.3405 45.2258 12.0468 44.5195 12.9155 44.5195C13.7843 44.5195 14.4905 45.2258 14.4905 46.0945C14.4905 46.9632 13.7843 47.6695 12.9155 47.6695Z" fill="#1782C5"/>
</svg>
