<svg width="22" height="22" viewBox="0 0 22 22" fill="none" xmlns="http://www.w3.org/2000/svg">
<path d="M18.334 3.6665H3.66732C2.65898 3.6665 1.84315 4.4915 1.84315 5.49984L1.83398 16.4998C1.83398 17.5082 2.65898 18.3332 3.66732 18.3332H18.334C19.3423 18.3332 20.1673 17.5082 20.1673 16.4998V5.49984C20.1673 4.4915 19.3423 3.6665 18.334 3.6665ZM17.9673 7.56234L11.4865 11.614C11.1932 11.7973 10.8082 11.7973 10.5148 11.614L4.03398 7.56234C3.94207 7.51074 3.86158 7.44103 3.79738 7.35742C3.73319 7.27381 3.68662 7.17805 3.66051 7.07593C3.6344 6.9738 3.62928 6.86744 3.64546 6.76329C3.66164 6.65913 3.69879 6.55933 3.75466 6.46995C3.81053 6.38056 3.88395 6.30344 3.97048 6.24325C4.05702 6.18306 4.15487 6.14106 4.25811 6.11978C4.36134 6.0985 4.46783 6.09839 4.57111 6.11946C4.67439 6.14052 4.77233 6.18233 4.85898 6.24234L11.0007 10.0832L17.1423 6.24234C17.229 6.18233 17.3269 6.14052 17.4302 6.11946C17.5335 6.09839 17.64 6.0985 17.7432 6.11978C17.8464 6.14106 17.9443 6.18306 18.0308 6.24325C18.1174 6.30344 18.1908 6.38056 18.2466 6.46995C18.3025 6.55933 18.3397 6.65913 18.3558 6.76329C18.372 6.86744 18.3669 6.9738 18.3408 7.07593C18.3147 7.17805 18.2681 7.27381 18.2039 7.35742C18.1397 7.44103 18.0592 7.51074 17.9673 7.56234Z" fill="#1782C5"/>
</svg>
