<svg width="18" height="25" viewBox="0 0 18 25" fill="none" xmlns="http://www.w3.org/2000/svg">
<path d="M3.43431 0.928136L4.72669 0.514416C5.93627 0.127155 7.22984 0.753748 7.74823 1.97807L8.78022 4.4171C9.23021 5.47906 8.98061 6.72864 8.16343 7.50556L5.89187 9.66797C6.03186 10.9621 6.46546 12.2357 7.19264 13.4889C7.88416 14.701 8.81074 15.7622 9.9178 16.6098L12.6489 15.6958C13.6833 15.3506 14.8101 15.7487 15.4449 16.6832L16.9233 18.86C17.6625 19.9472 17.5293 21.4458 16.6137 22.367L15.6321 23.3544C14.6553 24.337 13.2609 24.6942 11.9698 24.2901C8.92341 23.3376 6.12226 20.5101 3.56631 15.8076C1.00715 11.0972 0.103967 7.10106 0.856754 3.81937C1.17355 2.4387 2.15513 1.33825 3.43671 0.928136" fill="white"/>
</svg>
