<svg width="53" height="53" viewBox="0 0 53 53" fill="none" xmlns="http://www.w3.org/2000/svg">
<rect x="0.508865" y="0.508865" width="51.9823" height="51.9823" rx="12.7411" fill="white" stroke="#1782C5" stroke-width="1.01773"/>
<path d="M35.1715 20.0503H34.381V18.9964C34.381 15.2186 31.3076 12.1455 27.5302 12.1455H25.9492H24.3683C20.5905 12.1455 17.5174 15.2186 17.5174 18.9964V20.0503H16.7269C15.4192 20.0503 14.3555 21.1141 14.3555 22.4218V22.9488C14.3555 24.2564 15.4192 25.3202 16.7269 25.3202H18.0444C18.3354 25.3202 18.5714 25.0842 18.5714 24.7932V20.5773V18.9964C18.5714 15.8 21.1719 13.1995 24.3683 13.1995H25.9492H27.5302C30.7266 13.1995 33.3271 15.8 33.3271 18.9964V20.5773V24.7932V25.3202C33.3271 25.9015 32.8541 26.3742 32.2731 26.3742H31.8852C32.4749 24.8926 32.6927 23.3119 32.7659 22.158L32.7666 22.1555L32.7662 22.1527C32.7923 21.7404 32.8001 21.3829 32.8001 21.1043C32.8001 17.3266 29.7267 14.2535 25.9492 14.2535C22.1715 14.2535 19.0984 17.3266 19.0984 21.1043C19.0984 21.2806 19.1022 21.4916 19.111 21.7251C19.111 21.7261 19.1102 21.727 19.1102 21.7281C19.11 21.7315 19.1116 21.7344 19.1115 21.7379C19.2169 24.4571 20.1054 30.5901 25.9492 30.5901C28.742 30.5901 30.4026 29.1884 31.3875 27.4282H32.2731C33.4357 27.4282 34.381 26.4826 34.381 25.3202H35.1715C36.4792 25.3202 37.543 24.2564 37.543 22.9488V22.4218C37.543 21.1141 36.4792 20.0503 35.1715 20.0503ZM17.5174 24.2662H16.7269C16.0005 24.2662 15.4094 23.6752 15.4094 22.9488V22.4218C15.4094 21.6954 16.0005 21.1043 16.7269 21.1043H17.5174V24.2662ZM25.9492 15.3074C29.1456 15.3074 31.7461 17.9079 31.7461 21.1043C31.7461 21.2354 31.7441 21.3774 31.7405 21.5252C29.4429 21.2103 28.0641 20.2238 27.3138 19.458C28.0494 18.8056 28.4543 18.2904 28.4735 18.2653C28.6516 18.0356 28.6099 17.7051 28.3803 17.5265C28.1503 17.3485 27.8199 17.3904 27.6413 17.6189C27.6362 17.6253 27.1329 18.2658 26.2292 18.9976C24.9132 20.0616 22.8134 21.2785 20.1534 21.2539C20.153 21.2037 20.1523 21.1523 20.1523 21.1043C20.1523 17.9079 22.7528 15.3074 25.9492 15.3074ZM25.9492 29.5361C21.4316 29.5361 20.3944 25.1413 20.1951 22.3086C20.2118 22.3087 20.2291 22.3103 20.2457 22.3103C22.9139 22.3103 25.0471 21.2025 26.4922 20.1257C27.354 21.0297 28.9759 22.2277 31.6821 22.5785C31.5801 23.751 31.329 25.143 30.7607 26.3742H27.433C27.2148 25.7621 26.6353 25.3202 25.9492 25.3202C25.0774 25.3202 24.3682 26.0293 24.3682 26.9011C24.3682 27.7729 25.0774 28.4821 25.9492 28.4821C26.6353 28.4821 27.2148 28.0402 27.433 27.4281H30.1576C29.293 28.6545 27.9704 29.5361 25.9492 29.5361ZM26.4762 26.9012C26.4762 27.1917 26.2397 27.4282 25.9492 27.4282C25.6587 27.4282 25.4222 27.1917 25.4222 26.9012C25.4222 26.6107 25.6587 26.3742 25.9492 26.3742C26.2397 26.3742 26.4762 26.6107 26.4762 26.9012ZM36.489 22.9488C36.489 23.6752 35.8982 24.2662 35.1715 24.2662H34.381V21.1043H35.1715C35.8982 21.1043 36.489 21.6954 36.489 22.4218V22.9488Z" fill="black"/>
<path d="M35.9979 36.5265C35.7041 34.7692 34.4622 33.3797 32.8354 32.9868C32.0017 32.7845 31.1238 32.615 30.2267 32.4822C27.4814 32.0775 24.6992 32.0681 21.9524 32.4463C21.8593 32.4591 21.7659 32.4685 21.673 32.4822C20.7762 32.615 19.8988 32.7845 19.0674 32.9861C18.2736 33.1742 17.551 33.6127 16.9777 34.2546C16.4139 34.8856 16.0421 35.672 15.9024 36.526L15.4287 39.3421C15.3728 39.664 15.4596 39.9898 15.6669 40.2366C15.8625 40.4691 16.1455 40.6027 16.4432 40.6027H35.457C35.7545 40.6027 36.0375 40.4694 36.2331 40.2368C36.4405 39.9905 36.5275 39.6653 36.4719 39.3439L35.9979 36.5265ZM22.51 33.4369C23.0297 33.3732 23.5504 33.3223 24.0718 33.2877C24.1494 33.2825 24.227 33.2794 24.3046 33.2749C25.4007 33.2109 26.499 33.2109 27.595 33.2748C27.6729 33.2793 27.7509 33.2824 27.8289 33.2877C28.3501 33.3224 28.8704 33.3732 29.3898 33.4369C29.4368 33.4426 29.4838 33.449 29.5308 33.455C29.1335 34.8375 27.6609 35.8598 25.9501 35.8598C24.2388 35.8598 22.7665 34.8373 22.3692 33.455C22.4162 33.449 22.4631 33.4427 22.51 33.4369ZM16.4676 39.5201L16.9421 36.6984C17.0497 36.0402 17.3338 35.4378 17.7635 34.9566C18.1925 34.4764 18.7274 34.1496 19.3128 34.011C19.9579 33.8547 20.6352 33.7246 21.3233 33.6107C21.7882 35.5275 23.6747 36.9138 25.9501 36.9138C28.2255 36.9138 30.1117 35.5277 30.577 33.6108C31.2653 33.7247 31.9422 33.8548 32.5874 34.0112C33.8035 34.3051 34.7339 35.3606 34.9583 36.701L35.4328 39.5201L35.457 39.5487L16.4676 39.5201Z" fill="black"/>
</svg>
