<svg width="84" height="84" viewBox="0 0 84 84" fill="none" xmlns="http://www.w3.org/2000/svg">
<path d="M77.6 54.0547C76.8937 52.8755 74 49.3709 66.4188 53.786L53.2528 61.4546C52.7101 61.7706 52.1596 62.0088 51.5907 62.1711C51.7753 61.8214 51.9249 61.4389 52.0355 61.0259C52.7283 58.4396 51.1935 55.7405 48.5414 54.8806C48.4853 54.8624 48.4279 54.848 48.3696 54.8375C44.5977 54.1571 40.8692 52.8092 37.8734 51.7262C36.8297 51.3488 35.8438 50.9925 35.0043 50.7203C31.5798 49.6093 28.4971 50.9768 25.9334 52.4612L16.2641 58.0595L15.4123 56.5544C14.9856 55.8005 14.2889 55.2573 13.4506 55.025C12.6127 54.7927 11.7355 54.8998 10.9816 55.3264L7.28774 57.417C5.72767 58.3 5.17691 60.2875 6.05973 61.8475L16.9202 81.0373C17.3469 81.7911 18.0435 82.3344 18.8819 82.5667C19.1718 82.647 19.4663 82.6868 19.7586 82.6868C20.3118 82.6868 20.8577 82.5445 21.3508 82.2654L25.045 80.1746C26.6051 79.2916 27.156 77.3042 26.2731 75.7441L25.2237 73.8901L27.281 72.7024L44.0863 77.2053C45.0295 77.4581 45.9676 77.5838 46.8906 77.5836C48.7573 77.5836 50.5609 77.0696 52.2094 76.0547L76.1026 61.3422C78.3439 59.9621 79.0577 56.4886 77.6 54.0547ZM23.7519 77.8901L20.0577 79.9809C19.864 80.0906 19.6771 80.0631 19.5827 80.0371C19.4886 80.0111 19.3142 79.9382 19.2046 79.7445L8.34414 60.5547C8.17696 60.2594 8.2854 59.8686 8.58055 59.7016L12.2746 57.611C12.3824 57.5499 12.4882 57.5314 12.577 57.5314C12.6477 57.5314 12.7077 57.5432 12.7495 57.5548C12.8437 57.5809 13.0179 57.6536 13.1277 57.8474L23.9883 77.0369C24.1555 77.3324 24.0471 77.723 23.7519 77.8901ZM46.1991 64.6409L47.8366 64.9071C50.3195 65.3042 52.5232 64.9168 54.5737 63.7229L67.7398 56.0543C71.4526 53.8918 74.2968 53.6483 75.3479 55.4033C76.0677 56.6051 75.7538 58.4741 74.7258 59.1069L50.8327 73.8193C48.9731 74.9642 46.932 75.2505 44.7655 74.6697L27.4349 70.0261C27.0988 69.9363 26.7406 69.9832 26.4391 70.1571L23.9306 71.6053L17.5571 60.3439L27.2486 54.7326C29.4155 53.4781 31.7567 52.4258 34.1943 53.2169C34.9925 53.4757 35.9139 53.8088 36.9808 54.1945C40.0446 55.3023 43.8515 56.6786 47.8076 57.4031C49.1046 57.8616 49.83 59.1134 49.4995 60.3462C49.0644 61.9699 47.7022 62.1711 46.6163 62.0472C44.6859 61.6497 42.8486 61.1255 40.9046 60.5703C39.9795 60.3062 39.0228 60.0328 38.039 59.7692C37.3391 59.582 36.6192 59.9972 36.4315 60.6973C36.2438 61.3975 36.6594 62.1171 37.3596 62.3048C38.3226 62.5628 39.2688 62.8331 40.1837 63.0942C42.1963 63.669 44.0971 64.2118 46.1466 64.6309M13.2755 61.1916C13.3809 61.9123 12.8821 62.582 12.1612 62.6874C11.4405 62.7927 10.7708 62.2939 10.6655 61.5731C10.5601 60.8523 11.0589 60.1826 11.7798 60.0773C12.5005 59.972 13.1702 60.4709 13.2755 61.1916ZM32.6346 21.8132C33.2418 22.9974 33.5466 23.5916 33.6337 24.0858C33.7208 24.5798 33.6377 25.2424 33.4723 26.5628C33.4306 26.895 33.3842 27.265 33.3345 27.6807C33.0611 29.9672 34.2998 32.1127 36.4167 33.0195C36.8016 33.1843 37.1451 33.329 37.4536 33.4591C37.5097 33.4828 37.5632 33.5054 37.6168 33.528L32.7386 44.0057C32.5322 44.449 32.5893 44.9701 32.8867 45.3583C33.1842 45.7463 33.6724 45.9371 34.1543 45.8526L39.5163 44.9158L42.2511 49.6221C42.4867 50.0275 42.9198 50.2751 43.3858 50.2751C43.4056 50.2751 43.4256 50.2746 43.4455 50.2737C43.9339 50.2516 44.3695 49.9597 44.5759 49.5166L49.4185 39.1152L49.3228 39.0707C50.152 38.8199 50.6413 38.6937 51.0424 38.6937C51.5441 38.6937 52.1823 38.8906 53.4538 39.283C53.5872 39.3242 53.7284 39.3677 53.8751 39.4128L57.3699 47.5267C57.5634 47.9757 57.9903 48.2801 58.4779 48.3163C58.5105 48.3188 58.5432 48.3199 58.5756 48.3199C59.0271 48.3199 59.4501 48.0871 59.6906 47.6994L62.5607 43.0745L67.8931 44.1667C68.3721 44.2648 68.866 44.0884 69.1744 43.7093C69.483 43.33 69.5552 42.8107 69.3619 42.3617L65.3897 33.1387C65.48 33.1003 65.5729 33.0606 65.6682 33.0198C67.7851 32.1132 69.0238 29.9676 68.7505 27.681C68.7008 27.2653 68.6545 26.8953 68.6128 26.5633C68.4471 25.2429 68.3641 24.5802 68.4512 24.0861C68.5383 23.5921 68.8432 22.9977 69.4502 21.8137C69.6029 21.5157 69.7731 21.184 69.9621 20.8104C71.0011 18.7552 70.5707 16.3154 68.8917 14.7396C68.5864 14.453 68.3132 14.1995 68.0678 13.9718C67.0923 13.0667 66.6026 12.6125 66.3517 12.1779C66.1009 11.7435 65.9522 11.0923 65.6564 9.7951C65.5819 9.46861 65.4991 9.10505 65.4034 8.69735C64.8783 6.45511 62.9804 4.86272 60.6811 4.73492C60.263 4.71162 59.8908 4.69324 59.5564 4.67651C58.2273 4.61039 57.5603 4.57709 57.0887 4.40548C56.6172 4.23387 56.0848 3.8306 55.0243 3.02703C54.7574 2.8249 54.4603 2.59981 54.1251 2.34879C52.2815 0.968697 49.8042 0.968697 47.9606 2.34879C47.6255 2.59981 47.3283 2.8249 47.0614 3.02703C46.0007 3.8306 45.4685 4.23387 44.997 4.40548C44.5255 4.57709 43.8586 4.61039 42.5294 4.67651C42.195 4.69324 41.8226 4.71162 41.4047 4.73492C39.1054 4.86288 37.2075 6.45528 36.6823 8.69735C36.5868 9.10505 36.504 9.46845 36.4293 9.79493C36.1334 11.0923 35.9849 11.7433 35.7339 12.1779C35.483 12.6124 34.9933 13.0667 34.018 13.9716C33.7725 14.1994 33.4992 14.453 33.1939 14.7394C31.5147 16.3154 31.0845 18.755 32.1234 20.8103C32.3117 21.1837 32.4818 21.5154 32.6346 21.8132ZM43.2575 46.1289L41.3264 42.8058C41.0503 42.3307 40.5078 42.078 39.9657 42.1723L36.1796 42.8338L39.9221 34.7956C40.2318 35.1406 40.5775 35.6755 41.1479 36.5589C41.3296 36.8403 41.5318 37.1535 41.761 37.5041C42.7348 38.993 44.3454 39.8372 46.0442 39.8372C46.0923 39.8372 46.1409 39.8333 46.1891 39.832L43.2575 46.1289ZM62.1911 40.3191C61.6526 40.2088 61.1024 40.4457 60.8126 40.9128L58.7861 44.1785L56.8847 39.7637C58.261 39.5327 59.5133 38.7433 60.3236 37.5041C60.5528 37.1537 60.7549 36.8406 60.9365 36.5593C61.6584 35.4413 62.0206 34.8802 62.405 34.5577C62.555 34.4319 62.741 34.3154 62.9842 34.1897L65.9562 41.0902L62.1911 40.3191ZM34.9897 16.6532C35.2909 16.3706 35.5605 16.1204 35.8028 15.8958C38.1325 13.7346 38.2813 13.4767 38.9882 10.3785C39.0617 10.0564 39.1434 9.69797 39.2378 9.29569C39.499 8.18072 40.4067 7.41914 41.5501 7.35549C41.9625 7.33252 42.3297 7.31431 42.6596 7.29774C45.8336 7.13974 46.1133 7.03786 48.6463 5.11882C48.9094 4.91932 49.2028 4.69718 49.5335 4.44961C49.9919 4.10639 50.5172 3.93495 51.0427 3.93495C51.568 3.93495 52.0934 4.10639 52.5519 4.44961C52.8827 4.69702 53.1759 4.91916 53.439 5.11866C55.972 7.0377 56.2517 7.13942 59.4257 7.29757C59.7556 7.31398 60.1228 7.33219 60.5352 7.35532C61.6787 7.41898 62.5863 8.18056 62.8475 9.29553C62.9417 9.69781 63.0235 10.0564 63.097 10.3785C63.8038 13.4765 63.9526 13.7344 66.2825 15.8956C66.5246 16.1202 66.7942 16.3704 67.0954 16.6531C67.9305 17.4368 68.1362 18.6036 67.6194 19.6257C67.433 19.9944 67.2652 20.3217 67.1146 20.6155C65.6646 23.4433 65.6129 23.7365 66.0083 26.8896C66.0493 27.2172 66.0951 27.5821 66.1442 27.9923C66.2802 29.1294 65.6878 30.1554 64.635 30.6063C64.2553 30.7688 63.9164 30.9117 63.6119 31.04C60.6835 32.2741 60.4555 32.4654 58.7315 35.135C58.5523 35.4125 58.3528 35.7214 58.1268 36.0671C57.5 37.0254 56.3869 37.4306 55.2903 37.0995C54.8949 36.9799 54.5435 36.8716 54.228 36.7742C51.1917 35.8374 50.8939 35.8372 47.8569 36.7742C47.5415 36.8716 47.19 36.9799 46.7946 37.0995C45.6987 37.4308 44.5849 37.0255 43.9582 36.0671C43.7321 35.7214 43.5324 35.4123 43.3533 35.1349C41.6295 32.4654 41.4014 32.274 38.4729 31.04C38.1686 30.9117 37.8298 30.769 37.45 30.6063C36.3972 30.1554 35.8048 29.1294 35.9408 27.9921C35.9898 27.5819 36.0356 27.2169 36.0768 26.8893C36.4722 23.7361 36.4205 23.4431 34.9703 20.6152C34.8197 20.3213 34.6519 19.9942 34.4655 19.6256C33.9489 18.6038 34.1546 17.437 34.9897 16.6532ZM51.0422 32.6093C57.6782 32.6093 63.077 27.2105 63.077 20.5745C63.077 13.9385 57.6782 8.53985 51.0422 8.53985C44.4062 8.53985 39.0076 13.9387 39.0076 20.5745C39.0076 27.2105 44.4064 32.6093 51.0422 32.6093ZM51.0422 11.1647C56.2307 11.1647 60.452 15.3859 60.452 20.5743C60.452 25.7628 56.2309 29.9841 51.0422 29.9841C45.8536 29.9841 41.6326 25.763 41.6326 20.5743C41.6326 15.3857 45.8537 11.1647 51.0422 11.1647ZM47.7011 25.2253L44.3234 21.8475C43.8107 21.3349 43.8108 20.5039 44.3234 19.9914C44.8361 19.4787 45.6672 19.4789 46.1794 19.9914L48.673 22.4852L55.9511 15.88C56.4879 15.3927 57.3179 15.4331 57.8052 15.9699C58.2923 16.5067 58.2521 17.3369 57.7153 17.824L49.5112 25.2693C49.2603 25.4969 48.9445 25.6099 48.6294 25.6099C48.2927 25.6097 47.9567 25.4809 47.7011 25.2253Z" fill="black"/>
</svg>
