<svg width="48" height="48" viewBox="0 0 48 48" fill="none" xmlns="http://www.w3.org/2000/svg">
<g clip-path="url(#clip0_1972_1695)">
<path d="M43.7883 8.94462L24.2883 1.05654C24.1016 0.98107 23.8907 0.98107 23.7039 1.05654L4.20387 8.94462C3.92637 9.05693 3.74609 9.31706 3.74609 9.60515V20.9332C3.74609 32.7331 11.7456 43.3234 23.7755 46.8626C23.9193 46.9048 24.0726 46.9049 24.2166 46.8626C36.0121 43.3924 44.2461 32.9676 44.2461 20.9331V9.60515C44.2461 9.31706 44.0658 9.05693 43.7883 8.94462ZM42.7461 20.9331C42.7461 32.2107 35.2215 42.0255 23.9961 45.4258C12.7707 42.0255 5.24609 32.2108 5.24609 20.9331V10.0803L23.9961 2.49567L42.7461 10.0803V20.9331Z" fill="#1782C5"/>
<path d="M20.9068 29.1768C21.7862 30.0176 23.2094 30.0175 24.0887 29.1768L33.9031 19.793C34.8157 18.9203 34.8157 17.5002 33.9031 16.6275C32.9903 15.755 31.5051 15.755 30.5924 16.6275L22.4977 24.3672L18.9031 20.9301C17.9903 20.0576 16.5052 20.0576 15.5925 20.9301C14.6776 21.8048 14.6775 23.2209 15.5925 24.0956L20.9068 29.1768ZM16.653 21.9444C16.9808 21.6309 17.5144 21.6308 17.8424 21.9444L21.9674 25.8884C22.2602 26.1683 22.7351 26.1683 23.028 25.8884L31.6531 17.6418C31.8118 17.4899 32.023 17.4063 32.2477 17.4063C32.9951 17.4063 33.3687 18.2758 32.8424 18.7789L23.028 28.1627C22.7356 28.4423 22.2598 28.4423 21.9674 28.1627L16.653 23.0814C16.3244 22.7671 16.3243 22.2586 16.653 21.9444Z" fill="#1782C5"/>
<path d="M23.6883 5.36578L8.68831 11.8197C8.41916 11.9354 8.24609 12.1913 8.24609 12.4736V21.6598C8.24609 31.0527 14.476 39.4484 23.7483 42.5513C23.9187 42.6084 24.1056 42.6048 24.2746 42.5403L25.1938 42.1886C33.9875 38.8255 39.7461 30.6927 39.7461 21.6377V12.4736C39.7461 12.1914 39.5729 11.9354 39.3039 11.8197L24.3039 5.36578C24.108 5.28152 23.8839 5.28152 23.6883 5.36578ZM38.2461 12.9372V21.6376C38.2461 30.1512 32.9042 37.6952 24.6368 40.857L23.981 41.1079C15.4547 38.1365 9.74609 30.3552 9.74609 21.6598V12.9372L23.9961 6.80598L38.2461 12.9372Z" fill="#1782C5"/>
</g>
<defs>
<clipPath id="clip0_1972_1695">
<rect width="48" height="45.8942" fill="white" transform="translate(0 1)"/>
</clipPath>
</defs>
</svg>
