<svg width="48" height="48" viewBox="0 0 48 48" fill="none" xmlns="http://www.w3.org/2000/svg">
<g clip-path="url(#clip0_1972_1749)">
<path d="M46.8432 28.32L44.64 27.44C44.3387 26.3654 43.9089 25.331 43.36 24.3592L44.2904 22.1792C44.4209 21.8861 44.4661 21.562 44.4208 21.2444C44.3756 20.9267 44.2416 20.6282 44.0344 20.3832C43.4199 19.6517 42.7432 18.9748 42.012 18.36C41.7674 18.1526 41.4693 18.0184 41.1519 17.9728C40.8345 17.9272 40.5106 17.9721 40.2176 18.1024L38.0368 19.0336C37.065 18.4854 36.0309 18.0557 34.9568 17.7536L34.0768 15.552C33.9703 15.2988 33.8059 15.0741 33.5968 14.896V6.4C33.5968 2.24 24.9416 0 16.7968 0C8.652 0 0 2.24 0 6.4V35.2C0 39.36 8.6552 41.6 16.8 41.6C17.24 41.6 17.6648 41.5848 18.0936 41.5736C18.1586 41.7353 18.2488 41.8857 18.3608 42.0192C18.9757 42.7503 19.6523 43.4272 20.3832 44.0424C20.6279 44.2496 20.926 44.3836 21.2434 44.4292C21.5607 44.4748 21.8845 44.43 22.1776 44.3L24.3584 43.3688C25.3302 43.917 26.3643 44.3467 27.4384 44.6488L28.3184 46.8504C28.4366 47.1454 28.6333 47.4024 28.8871 47.5936C29.1409 47.7849 29.4422 47.903 29.7584 47.9352C30.2568 47.98 30.756 48.0016 31.2416 48.0016C31.7272 48.0016 32.2016 47.98 32.6432 47.9352C32.9595 47.9027 33.2608 47.7842 33.5146 47.5927C33.7685 47.4013 33.9651 47.144 34.0832 46.8488L34.9632 44.6488C36.0373 44.3467 37.0714 43.917 38.0432 43.3688L40.2224 44.2992C40.5158 44.4291 40.8398 44.4739 41.1574 44.4283C41.475 44.3828 41.7734 44.2487 42.0184 44.0416C42.7494 43.4269 43.4261 42.7502 44.0408 42.0192C44.2479 41.7746 44.3818 41.4766 44.4272 41.1593C44.4726 40.8421 44.4277 40.5185 44.2976 40.2256L43.3664 38.0432C43.9133 37.0704 44.3409 36.0352 44.64 34.96L46.844 34.08C47.1372 33.9619 47.3927 33.7662 47.5831 33.514C47.7735 33.2617 47.8916 32.9623 47.9248 32.648C48.0204 31.6861 48.0204 30.7171 47.9248 29.7552C47.8918 29.4403 47.7738 29.1403 47.5832 28.8875C47.3926 28.6346 47.1368 28.4384 46.8432 28.32ZM16.8 1.6C25.76 1.6 32 4.1296 32 6.4C32 8.6704 25.76 11.2 16.8 11.2C7.84 11.2 1.6 8.6704 1.6 6.4C1.6 4.1296 7.84 1.6 16.8 1.6ZM1.6 9.2488C4.4728 11.5712 10.7744 12.8 16.8 12.8C22.8256 12.8 29.1272 11.5712 32 9.2488V14.4376C31.2536 14.3919 30.5049 14.4015 29.76 14.4664C29.4437 14.4989 29.1424 14.6174 28.8886 14.8089C28.6347 15.0004 28.4381 15.2576 28.32 15.5528L27.44 17.7528C26.3659 18.0549 25.3318 18.4846 24.36 19.0328L22.1808 18.1024C21.8875 17.9715 21.5631 17.9262 21.2452 17.9718C20.9273 18.0173 20.6287 18.1519 20.384 18.36C19.6536 18.9751 18.9772 19.6517 18.3624 20.3824C18.2629 20.4994 18.1802 20.6297 18.1168 20.7696C17.68 20.7824 17.244 20.8 16.8 20.8C7.84 20.8 1.6 18.2704 1.6 16V9.2488ZM1.6 18.8488C4.4728 21.1712 10.7744 22.4 16.8 22.4C17.2672 22.4 17.7264 22.3816 18.1856 22.3664L19.0352 24.3568C18.4877 25.3295 18.0596 26.3647 17.76 27.44L15.556 28.32C15.2628 28.4381 15.0073 28.6338 14.8169 28.886C14.6265 29.1383 14.5084 29.4377 14.4752 29.752C14.456 29.944 14.4576 30.1376 14.4464 30.3304C6.7312 29.92 1.6 27.6072 1.6 25.6V18.8488ZM18.212 39.9688C17.7456 39.9848 17.28 40 16.8 40C7.84 40 1.6 37.4704 1.6 35.2V28.3952C3.6896 30.1464 7.8872 31.608 14.436 31.928C14.448 32.168 14.448 32.408 14.472 32.648C14.5041 32.9642 14.6222 33.2655 14.8135 33.5194C15.0047 33.7732 15.2618 33.9699 15.5568 34.088L17.7568 34.968C18.0581 36.0427 18.4879 37.077 19.0368 38.0488L18.212 39.9688ZM46.3352 32.4968C46.3296 32.5187 46.319 32.5389 46.3041 32.5559C46.2892 32.5728 46.2705 32.586 46.2496 32.5944L43.6752 33.6224C43.5572 33.6695 43.452 33.7441 43.3686 33.84C43.2851 33.9358 43.2257 34.0502 43.1952 34.1736C42.8983 35.3704 42.4231 36.5157 41.7856 37.5712C41.7202 37.6798 41.6815 37.8023 41.6728 37.9287C41.664 38.0552 41.6854 38.1819 41.7352 38.2984L42.8248 40.8528C42.8361 40.8737 42.8411 40.8973 42.8394 40.921C42.8377 40.9447 42.8293 40.9674 42.8152 40.9864C42.2559 41.6515 41.6403 42.2671 40.9752 42.8264C40.956 42.8375 40.9342 42.8433 40.912 42.8433C40.8898 42.8433 40.868 42.8375 40.8488 42.8264L38.2984 41.7376C38.182 41.6879 38.0554 41.6666 37.9291 41.6754C37.8029 41.6841 37.6805 41.7227 37.572 41.788C36.5172 42.4263 35.3724 42.9023 34.176 43.2C34.0526 43.2305 33.9382 43.2899 33.8424 43.3734C33.7465 43.4568 33.6719 43.562 33.6248 43.68L32.5976 46.252C32.5894 46.275 32.5752 46.2954 32.5565 46.3111C32.5378 46.3269 32.5153 46.3374 32.4912 46.3416C31.6293 46.4209 30.7619 46.4209 29.9 46.3416C29.8779 46.3362 29.8575 46.3254 29.8406 46.3102C29.8237 46.295 29.8109 46.2758 29.8032 46.2544L28.7752 43.68C28.7281 43.562 28.6535 43.4568 28.5576 43.3734C28.4618 43.2899 28.3474 43.2305 28.224 43.2C27.0272 42.9032 25.8818 42.428 24.8264 41.7904C24.7179 41.7251 24.5955 41.6865 24.4693 41.6778C24.343 41.669 24.2164 41.6903 24.1 41.74L21.548 42.8296C21.5268 42.8412 21.5026 42.8462 21.4786 42.8441C21.4545 42.8419 21.4316 42.8327 21.4128 42.8176C20.7491 42.2582 20.1348 41.6426 19.5768 40.9776C19.5658 40.9585 19.56 40.9369 19.56 40.9148C19.56 40.8928 19.5658 40.8711 19.5768 40.852L20.6656 38.3C20.7154 38.1835 20.7368 38.0568 20.728 37.9303C20.7193 37.8039 20.6806 37.6814 20.6152 37.5728C19.9777 36.5173 19.5025 35.372 19.2056 34.1752C19.1751 34.0518 19.1157 33.9374 19.0322 33.8416C18.9488 33.7457 18.8436 33.6711 18.7256 33.624L16.1552 32.5976C16.1334 32.5894 16.1139 32.5762 16.0983 32.5589C16.0828 32.5416 16.0715 32.5209 16.0656 32.4984V32.4896C15.9796 31.628 15.9796 30.76 16.0656 29.8984C16.0712 29.8765 16.0818 29.8563 16.0967 29.8393C16.1116 29.8224 16.1303 29.8092 16.1512 29.8008L18.7256 28.7728C18.8436 28.7257 18.9488 28.6511 19.0322 28.5552C19.1157 28.4594 19.1751 28.345 19.2056 28.2216C19.5025 27.0248 19.9777 25.8795 20.6152 24.824C20.6806 24.7154 20.7193 24.5929 20.728 24.4665C20.7368 24.34 20.7154 24.2133 20.6656 24.0968L19.5752 21.544C19.5639 21.5231 19.5589 21.4995 19.5606 21.4758C19.5623 21.4521 19.5707 21.4295 19.5848 21.4104C20.1445 20.7457 20.7601 20.1301 21.4248 19.5704C21.4441 19.5595 21.4658 19.5537 21.488 19.5537C21.5102 19.5537 21.5319 19.5595 21.5512 19.5704L24.1016 20.6592C24.2179 20.7094 24.3445 20.731 24.4709 20.7222C24.5973 20.7135 24.7197 20.6746 24.828 20.6088C25.883 19.9716 27.0278 19.4967 28.224 19.2C28.3474 19.1695 28.4618 19.1101 28.5576 19.0266C28.6535 18.9432 28.7281 18.838 28.7752 18.72L29.8024 16.148C29.8106 16.125 29.8248 16.1046 29.8435 16.0889C29.8622 16.0731 29.8847 16.0626 29.9088 16.0584C30.7707 15.9783 31.6381 15.9783 32.5 16.0584C32.5221 16.0638 32.5425 16.0746 32.5594 16.0898C32.5763 16.105 32.5891 16.1242 32.5968 16.1456L33.6248 18.72C33.6719 18.838 33.7465 18.9432 33.8424 19.0266C33.9382 19.1101 34.0526 19.1695 34.176 19.2C35.3728 19.4968 36.5182 19.972 37.5736 20.6096C37.6819 20.6754 37.8043 20.7143 37.9307 20.723C38.057 20.7318 38.1837 20.7102 38.3 20.66L40.852 19.5704C40.8732 19.5589 40.8974 19.554 40.9214 19.5561C40.9454 19.5582 40.9683 19.5674 40.9872 19.5824C41.6525 20.1415 42.2681 20.7571 42.8272 21.4224C42.8382 21.4415 42.844 21.4632 42.844 21.4852C42.844 21.5072 42.8382 21.5289 42.8272 21.548L41.7384 24.1C41.6886 24.2165 41.6672 24.3432 41.676 24.4697C41.6847 24.5961 41.7234 24.7186 41.7888 24.8272C42.4263 25.8827 42.9015 27.028 43.1984 28.2248C43.2289 28.3482 43.2883 28.4626 43.3718 28.5584C43.4552 28.6543 43.5604 28.7289 43.6784 28.776L46.2488 29.8024C46.2718 29.8112 46.2922 29.8258 46.308 29.8447C46.3238 29.8636 46.3346 29.8862 46.3392 29.9104C46.4238 30.7716 46.4224 31.6391 46.3352 32.5V32.4968Z" fill="#1782C5"/>
<path d="M31.1969 20.8C29.14 20.8 27.1292 21.41 25.4189 22.5528C23.7087 23.6955 22.3757 25.3198 21.5885 27.2201C20.8014 29.1205 20.5954 31.2116 20.9967 33.229C21.398 35.2464 22.3885 37.0995 23.843 38.554C25.2974 40.0084 27.1505 40.9989 29.1679 41.4002C31.1853 41.8015 33.2764 41.5955 35.1768 40.8084C37.0771 40.0212 38.7014 38.6882 39.8442 36.978C40.9869 35.2677 41.5969 33.257 41.5969 31.2C41.5937 28.4428 40.497 25.7993 38.5473 23.8496C36.5976 21.9 33.9542 20.8032 31.1969 20.8ZM31.1969 40C29.4564 40 27.755 39.4839 26.3079 38.517C24.8607 37.55 23.7328 36.1757 23.0667 34.5677C22.4007 32.9597 22.2264 31.1903 22.566 29.4833C22.9055 27.7762 23.7436 26.2082 24.9743 24.9775C26.205 23.7468 27.7731 22.9087 29.4801 22.5691C31.1871 22.2296 32.9565 22.4039 34.5645 23.0699C36.1725 23.736 37.5469 24.8639 38.5138 26.311C39.4808 27.7582 39.9969 29.4596 39.9969 31.2C39.9941 33.5331 39.0661 35.7698 37.4164 37.4195C35.7667 39.0693 33.5299 39.9973 31.1969 40Z" fill="#1782C5"/>
<path d="M31.2008 24.8C29.935 24.8 28.6976 25.1753 27.6451 25.8786C26.5927 26.5818 25.7724 27.5813 25.288 28.7508C24.8036 29.9202 24.6768 31.2071 24.9238 32.4485C25.1707 33.69 25.7802 34.8304 26.6753 35.7254C27.5704 36.6205 28.7107 37.23 29.9522 37.477C31.1937 37.7239 32.4805 37.5972 33.65 37.1128C34.8194 36.6284 35.8189 35.8081 36.5222 34.7556C37.2254 33.7031 37.6008 32.4658 37.6008 31.2C37.5989 29.5032 36.924 27.8764 35.7242 26.6766C34.5243 25.4768 32.8976 24.8019 31.2008 24.8ZM31.2008 36C30.2514 36 29.3234 35.7184 28.534 35.191C27.7447 34.6636 27.1295 33.9139 26.7662 33.0368C26.4029 32.1598 26.3078 31.1946 26.493 30.2635C26.6782 29.3324 27.1354 28.4771 27.8067 27.8058C28.478 27.1346 29.3332 26.6774 30.2643 26.4922C31.1955 26.307 32.1606 26.402 33.0377 26.7653C33.9148 27.1286 34.6644 27.7439 35.1918 28.5332C35.7193 29.3226 36.0008 30.2506 36.0008 31.2C35.9995 32.4726 35.4934 33.6928 34.5935 34.5927C33.6936 35.4926 32.4734 35.9987 31.2008 36Z" fill="#1782C5"/>
<path d="M3.66417 15.2848C3.93217 15.4104 4.21537 15.5312 4.50977 15.648C4.70604 15.7209 4.92306 15.7139 5.11425 15.6286C5.30545 15.5433 5.45558 15.3864 5.53244 15.1917C5.60929 14.9969 5.60673 14.7798 5.52532 14.5869C5.44391 14.394 5.29012 14.2408 5.09697 14.16C4.8335 14.056 4.58204 13.9477 4.34257 13.8352C4.15034 13.7452 3.93025 13.7353 3.73071 13.8076C3.53117 13.8799 3.36853 14.0285 3.27857 14.2208C3.18861 14.413 3.17869 14.6331 3.25101 14.8326C3.32332 15.0322 3.47194 15.1948 3.66417 15.2848Z" fill="#1782C5"/>
<path d="M7.81489 16.6561C8.08422 16.7195 8.35889 16.7793 8.63889 16.8353C8.69154 16.8459 8.74517 16.851 8.79889 16.8505C8.99728 16.8507 9.18867 16.7771 9.3359 16.6442C9.48313 16.5112 9.57571 16.3282 9.59564 16.1309C9.61558 15.9335 9.56146 15.7357 9.4438 15.576C9.32613 15.4163 9.15331 15.3059 8.95889 15.2665C8.69489 15.2137 8.43649 15.1569 8.18289 15.0985C8.07947 15.0713 7.97166 15.0651 7.86582 15.0804C7.75999 15.0956 7.65828 15.1319 7.5667 15.1871C7.47513 15.2423 7.39554 15.3153 7.33266 15.4017C7.26978 15.4882 7.22487 15.5864 7.20059 15.6906C7.17631 15.7947 7.17315 15.9026 7.19129 16.008C7.20944 16.1134 7.24853 16.214 7.30624 16.304C7.36396 16.3941 7.43913 16.4716 7.52732 16.532C7.61551 16.5925 7.71493 16.6347 7.81969 16.6561H7.81489Z" fill="#1782C5"/>
</g>
<defs>
<clipPath id="clip0_1972_1749">
<rect width="48" height="48" fill="white"/>
</clipPath>
</defs>
</svg>
