<svg width="84" height="84" viewBox="0 0 84 84" fill="none" xmlns="http://www.w3.org/2000/svg">
<g clip-path="url(#clip0_1756_1685)">
<path d="M61.1496 59.3608L51.6627 56.1985C50.5523 55.8283 49.8063 54.7933 49.8063 53.6228V48.8129C53.2214 46.5972 55.6413 42.9732 56.238 38.7701C59.6786 36.0237 61.6426 31.9531 61.6426 27.5333C61.6426 21.3782 57.7554 16.1145 52.3073 14.0662C51.5163 9.03623 47.1119 5.2605 42 5.2605C36.8882 5.2605 32.4838 9.0364 31.6928 14.0662C26.2448 16.1145 22.3575 21.3782 22.3575 27.5333C22.3575 31.953 24.3216 36.0235 27.762 38.7699C28.3587 42.9731 30.7787 46.597 34.1938 48.8127V53.6227C34.1938 54.7931 33.4478 55.8282 32.3374 56.1983L22.8505 59.3606C20.1956 60.2456 18.4121 62.7203 18.4121 65.5185V77.5087C18.4121 78.1882 18.963 78.7392 19.6426 78.7392C20.3221 78.7392 20.873 78.1882 20.873 77.5087V65.5185C20.873 63.7811 21.9805 62.2447 23.6286 61.6952L26.6827 60.6772L25.706 62.6305C25.1654 63.7117 25.1654 65.0025 25.706 66.0837L31.6936 78.059C31.9092 78.4901 32.3436 78.7395 32.7951 78.7395C32.98 78.7395 33.1677 78.6977 33.3444 78.6094C33.9523 78.3054 34.1987 77.5665 33.8947 76.9586L27.9071 64.9833C27.7112 64.5914 27.7112 64.1233 27.9071 63.7312L29.9813 59.5778L33.0115 58.5677L36.848 77.75C36.965 78.3349 37.4786 78.7395 38.0533 78.7395C38.1332 78.7395 38.2145 78.7316 38.296 78.7154C38.9624 78.5822 39.3946 77.934 39.2613 77.2675L35.8633 60.2772L41.1574 65.2539C41.3941 65.4765 41.6972 65.5879 42.0002 65.5879C42.3032 65.5879 42.6061 65.4765 42.843 65.2539L48.1371 60.2772L44.7391 77.2675C44.6058 77.934 45.038 78.5822 45.7044 78.7154C45.7859 78.7316 45.867 78.7395 45.9471 78.7395C46.5216 78.7395 47.0353 78.3351 47.1524 77.75L50.9889 58.5677L54.0184 59.5775L56.0933 63.7311C56.2892 64.1232 56.2892 64.5912 56.0933 64.9832L50.1057 76.9584C49.8017 77.5663 50.0481 78.3054 50.656 78.6092C50.8327 78.6975 51.0204 78.7393 51.2052 78.7393C51.6566 78.7393 52.0912 78.49 52.3068 78.0588L58.2944 66.0836C58.835 65.0025 58.835 63.7115 58.2944 62.6304L57.3177 60.677L60.3718 61.695C62.0199 62.2445 63.1273 63.7809 63.1273 65.5184V77.5085C63.1273 78.1881 63.6783 78.739 64.3578 78.739C65.0374 78.739 65.5883 78.1881 65.5883 77.5085V65.5184C65.588 62.7203 63.8044 60.2457 61.1496 59.3608ZM42 7.72144C45.5231 7.72144 48.606 10.0675 49.6209 13.3462C48.8526 13.2187 48.0644 13.1512 47.2607 13.1512H36.7395C35.9358 13.1512 35.1475 13.2187 34.3793 13.3462C35.3941 10.0675 38.477 7.72144 42 7.72144ZM30.0791 36.7393V33.8833C30.0791 31.8132 30.8853 29.8671 32.3489 28.4033C32.8294 27.9228 32.8294 27.1436 32.3489 26.6633C31.8684 26.1826 31.0892 26.1827 30.6088 26.6633C28.6803 28.5918 27.6181 31.156 27.6181 33.8835V35.2165C25.8169 33.0907 24.8186 30.4009 24.8186 27.5335C24.8186 23.7577 26.5852 20.3889 29.3328 18.2031C30.4909 20.7155 34.9199 28.5817 46.0319 31.5691C46.1388 31.5978 46.2463 31.6116 46.3521 31.6116C46.895 31.6116 47.3919 31.2495 47.5396 30.7002C47.7161 30.0439 47.3271 29.369 46.6709 29.1925C41.7495 27.8695 37.6742 25.3542 34.558 21.7168C32.6821 19.5269 31.7371 17.5654 31.4324 16.8635C33.0319 16.0647 34.8335 15.6125 36.7395 15.6125H47.2607C53.8339 15.6125 59.1816 20.9603 59.1816 27.5336C59.1816 30.4013 58.1832 33.0912 56.3816 35.217C56.3731 32.5436 54.3758 30.3412 51.7284 30.0907C51.0537 30.0262 50.4515 30.5232 50.3876 31.1998C50.3236 31.8764 50.8202 32.4767 51.4966 32.5406C52.856 32.6693 53.921 33.8523 53.921 35.2341V36.7397C53.921 43.3128 48.5732 48.6606 42 48.6606C35.4269 48.6606 30.0791 43.3125 30.0791 36.7393ZM42 62.6686L35.6446 56.6943C36.2851 55.8255 36.6547 54.7582 36.6547 53.6228V50.0906C38.308 50.7549 40.112 51.1212 42 51.1212C43.8881 51.1212 45.6919 50.7549 47.3454 50.0906V53.6228C47.3454 54.7582 47.715 55.8255 48.3555 56.6943L42 62.6686Z" fill="black"/>
<path d="M14.2972 59.8313V58.5995C15.1551 58.8674 16.0671 59.0121 17.0121 59.0121C22.0416 59.0121 26.1335 54.9204 26.1335 49.8907V49.0496C26.9848 48.0255 27.4486 46.7489 27.4486 45.4007V44.6302C27.4486 40.3259 23.9467 36.824 19.6424 36.824H14.3819C10.0775 36.824 6.57563 40.3257 6.57563 44.6302V45.4007C6.57563 46.7489 7.03943 48.0257 7.89075 49.0496V49.8907C7.89075 52.9992 9.45476 55.7481 11.8361 57.3956V59.8313C11.8361 60.4349 11.4514 60.9684 10.879 61.1592L4.43822 63.3061C1.78369 64.1911 0 66.6658 0 69.4642V77.5089C0 78.1884 0.550922 78.7393 1.23047 78.7393C1.91002 78.7393 2.46094 78.1884 2.46094 77.5089V69.4642C2.46094 67.7268 3.56836 66.1903 5.21653 65.6407L9.81619 64.1076L13.6992 66.6963C13.9091 66.8361 14.1461 66.903 14.3806 66.903C14.7781 66.903 15.1684 66.7106 15.4055 66.3549C15.7825 65.7895 15.6297 65.0255 15.0642 64.6486L12.6151 63.0159C13.6493 62.3093 14.2972 61.1302 14.2972 59.8313ZM9.03673 44.6301C9.03673 41.6827 11.4347 39.2847 14.382 39.2847H19.6425C22.5899 39.2847 24.9879 41.6827 24.9879 44.6301V45.4005C24.9879 46.0259 24.8104 46.6229 24.4837 47.1386L13.4559 43.4628C13.0958 43.3428 12.7002 43.3957 12.3843 43.6063L9.06626 45.8182C9.0487 45.6806 9.03656 45.5416 9.03656 45.4005L9.03673 44.6301ZM10.3519 49.8907V47.9189L13.2487 45.9877L23.6727 49.4624V49.8906C23.6727 53.5631 20.6848 56.551 17.0123 56.551C13.3398 56.551 10.3519 53.5633 10.3519 49.8907Z" fill="black"/>
<path d="M7.80664 71.0178C7.12709 71.0178 6.57617 71.5686 6.57617 72.2483V77.5088C6.57617 78.1883 7.12709 78.7393 7.80664 78.7393C8.48619 78.7393 9.03711 78.1883 9.03711 77.5088V72.2483C9.03711 71.5687 8.48619 71.0178 7.80664 71.0178Z" fill="black"/>
<path d="M79.5612 63.3061L73.1204 61.1592C72.548 60.9684 72.1633 60.4347 72.1633 59.8313V57.3956C74.5447 55.7481 76.1087 52.9994 76.1087 49.8907V49.0496C76.96 48.0255 77.4238 46.7489 77.4238 45.4007V44.6302C77.4238 40.3259 73.9219 36.824 69.6175 36.824H64.357C60.0527 36.824 56.5508 40.3257 56.5508 44.6302V45.4007C56.5508 46.7489 57.0146 48.0257 57.8659 49.0496V49.8907C57.8659 54.9202 61.9578 59.0121 66.9873 59.0121C67.9323 59.0121 68.8443 58.8676 69.7022 58.5995V59.8313C69.7022 61.1302 70.3501 62.3093 71.3842 63.0159L68.935 64.6486C68.3695 65.0257 68.2168 65.7895 68.5938 66.3549C68.8309 66.7106 69.221 66.903 69.6187 66.903C69.8533 66.903 70.0904 66.8361 70.3 66.6963L74.1831 64.1076L78.7827 65.6407C80.4312 66.1902 81.5387 67.7266 81.5387 69.4642V77.5089C81.5387 78.1884 82.0896 78.7393 82.7691 78.7393C83.4487 78.7393 83.9996 78.1884 83.9996 77.5089V69.4642C83.9996 66.6658 82.2159 64.1911 79.5612 63.3061ZM59.0117 44.6301C59.0117 41.6827 61.4097 39.2847 64.357 39.2847H69.6175C72.5649 39.2847 74.9629 41.6827 74.9629 44.6301V45.4005C74.9629 46.0259 74.7853 46.6229 74.4587 47.1386L63.4311 43.4628C63.071 43.3428 62.6754 43.3957 62.3594 43.6063L59.0414 45.8182C59.0239 45.6804 59.0117 45.5414 59.0117 45.4005V44.6301ZM60.3268 49.8907V47.9189L63.2237 45.9877L73.6477 49.4624V49.8906C73.6477 53.5631 70.66 56.551 66.9873 56.551C63.3146 56.551 60.3268 53.5633 60.3268 49.8907Z" fill="black"/>
<path d="M76.1934 71.0178C75.5138 71.0178 74.9629 71.5686 74.9629 72.2483V77.5088C74.9629 78.1883 75.5138 78.7393 76.1934 78.7393C76.8729 78.7393 77.4238 78.1883 77.4238 77.5088V72.2483C77.4238 71.5687 76.8731 71.0178 76.1934 71.0178Z" fill="black"/>
</g>
<defs>
<clipPath id="clip0_1756_1685">
<rect width="84" height="84" fill="white"/>
</clipPath>
</defs>
</svg>
