<svg width="16" height="16" viewBox="0 0 16 16" fill="none" xmlns="http://www.w3.org/2000/svg">
<path d="M15.3143 10.5143C15.4961 10.5143 15.6706 10.5865 15.7992 10.7151C15.9278 10.8437 16 11.0181 16 11.2V12.1143C16 13.0236 15.6388 13.8957 14.9958 14.5386C14.3528 15.1816 13.4807 15.5429 12.5714 15.5429H3.42857C2.51926 15.5429 1.64719 15.1816 1.00421 14.5386C0.361223 13.8957 0 13.0236 0 12.1143V11.2037C0 11.0218 0.0722446 10.8474 0.200841 10.7188C0.329437 10.5902 0.503852 10.5179 0.685714 10.5179C0.867577 10.5179 1.04199 10.5902 1.17059 10.7188C1.29918 10.8474 1.37143 11.0218 1.37143 11.2037V12.1143C1.37143 12.6599 1.58816 13.1831 1.97395 13.5689C2.35974 13.9547 2.88298 14.1714 3.42857 14.1714H12.5714C13.117 14.1714 13.6403 13.9547 14.026 13.5689C14.4118 13.1831 14.6286 12.6599 14.6286 12.1143V11.2C14.6286 11.0181 14.7008 10.8437 14.8294 10.7151C14.958 10.5865 15.1324 10.5143 15.3143 10.5143Z" fill="#FFFFFF"/>
<path d="M8.69582 0.685714C8.69582 0.503852 8.62358 0.329437 8.49498 0.200841C8.36639 0.0722446 8.19197 0 8.01011 0C7.82825 0 7.65383 0.0722446 7.52524 0.200841C7.39664 0.329437 7.3244 0.503852 7.3244 0.685714V7.05829H4.32554C4.19713 7.18686 4.125 7.36114 4.125 7.54286C4.125 7.72457 4.19713 7.89886 4.32554 8.02743L7.52554 11.2274C7.65411 11.3558 7.8284 11.428 8.01011 11.428C8.19182 11.428 8.36611 11.3558 8.49468 11.2274L11.6947 8.02743C11.8231 7.89886 11.8952 7.72457 11.8952 7.54286C11.8952 7.36114 11.8231 7.18686 11.6947 7.05829H8.69582V0.685714Z" fill="#FFFFFF"/>
</svg>
