<svg width="16" height="16" viewBox="0 0 16 16" fill="none" xmlns="http://www.w3.org/2000/svg">
<path d="M9.33917 13.3352L9.10315 13.5712L9.33917 13.8066L9.5752 13.5712L9.33917 13.3352ZM4.00525 2.33398C3.91683 2.33398 3.83204 2.36911 3.76952 2.43163C3.707 2.49415 3.67188 2.57894 3.67188 2.66735C3.67188 2.75577 3.707 2.84056 3.76952 2.90308C3.83204 2.9656 3.91683 3.00073 4.00525 3.00073V2.33398ZM5.76944 10.2375L9.10315 13.5712L9.5752 13.0992L6.24149 9.76548L5.76944 10.2375ZM9.5752 13.5712L12.9089 10.2375L12.4369 9.76548L9.10315 13.0992L9.5752 13.5712ZM9.67254 13.3352V6.6678H9.0058V13.3352H9.67254ZM5.33873 2.33398H4.00525V3.00073H5.33873V2.33398ZM9.67254 6.6678C9.67254 5.5184 9.21595 4.41608 8.4032 3.60333C7.59045 2.79058 6.48813 2.33398 5.33873 2.33398V3.00073C6.3113 3.00073 7.24403 3.38708 7.93174 4.07479C8.61945 4.7625 9.0058 5.69523 9.0058 6.6678H9.67254Z" fill="white"/>
</svg>
