<svg width="48" height="48" viewBox="0 0 48 48" fill="none" xmlns="http://www.w3.org/2000/svg">
<g clip-path="url(#clip0_1972_1784)">
<path d="M1.9888 19.8026C1.00767 19.9618 0.248709 20.7484 0.124795 21.7346C-0.0399501 23.2284 -0.0416086 24.7356 0.119977 26.2298C0.232598 27.2313 0.996221 28.0364 1.99038 28.2018L4.53595 28.6185C5.02465 30.7001 5.84964 32.6881 6.97829 34.5041L5.47995 36.5969C4.88289 37.4064 4.89734 38.5143 5.51518 39.3081C5.99204 39.8915 6.49946 40.4494 7.03516 40.9793C7.52639 41.4713 8.06951 41.9657 8.72154 42.5136C9.50902 43.1192 10.6017 43.1319 11.4031 42.5448L13.5063 41.0361C15.3204 42.1646 17.3064 42.9898 19.3862 43.4792L19.8038 46.0288C19.9626 47.0103 20.7493 47.7696 21.7358 47.8936C22.1918 47.9448 22.655 47.9808 23.1214 48H23.1894C23.6063 47.9997 24.0073 47.8393 24.3094 47.552C24.6235 47.2518 24.8007 46.836 24.7997 46.4016V39.9904C24.795 39.1338 24.1188 38.4315 23.2629 38.3945C15.6059 37.9947 9.60245 31.6696 9.60245 24.0022C9.60245 16.3348 15.6059 10.0097 23.2629 9.60991C24.1201 9.57232 24.7967 8.86801 24.7997 8.00993V1.60202C24.801 1.16709 24.6234 0.750887 24.3085 0.450856C23.9942 0.142453 23.5651 -0.0203177 23.1253 0.0020326C22.6597 0.0204341 22.1981 0.0539991 21.7245 0.102017C20.7385 0.22909 19.9556 0.993108 19.8045 1.97558L19.3877 4.52272C17.3079 5.01254 15.3219 5.838 13.5078 6.96673L11.4046 5.46112C10.5958 4.86967 9.49251 4.88728 8.70306 5.50432C8.12306 5.97913 7.56793 6.48347 7.0399 7.01554C6.49567 7.54752 5.98335 8.11118 5.50554 8.7035C4.89513 9.492 4.87949 10.5891 5.46716 11.3947L6.97514 13.5003C5.84743 15.3161 5.02355 17.3039 4.53595 19.3851L1.9888 19.8026ZM5.98319 20.249C6.44828 17.9895 7.34056 15.8396 8.612 13.9147C8.7942 13.6379 8.78686 13.2774 8.5936 13.0083L6.76885 10.4603C6.60015 10.2377 6.59526 9.93143 6.75684 9.7035C7.19532 9.16006 7.66578 8.64316 8.16563 8.15548C8.65117 7.66504 9.16113 7.19932 9.69358 6.76029C9.92277 6.58559 10.2404 6.58559 10.4696 6.76029L13.0136 8.58591C13.2831 8.77869 13.6435 8.78532 13.92 8.60273C15.8432 7.33081 17.992 6.43822 20.2504 5.97313C20.575 5.90623 20.8248 5.64593 20.8784 5.31873L21.3815 2.23794C21.4177 1.9616 21.6299 1.74125 21.9048 1.69474C22.3279 1.65075 22.7568 1.61955 23.2 1.60194L23.1824 8.01064C14.6653 8.44564 7.98414 15.4806 7.98888 24.0088C7.99354 32.537 14.6824 39.5647 23.2 39.9903L23.1888 46.4014C22.7591 46.3838 22.3336 46.3502 21.9136 46.303C21.6375 46.2627 21.4211 46.045 21.3824 45.7686L20.8784 42.6862C20.8248 42.359 20.5751 42.0988 20.2504 42.0318C17.992 41.5663 15.8432 40.6736 13.92 39.4014C13.6434 39.219 13.283 39.226 13.0136 39.419L10.4672 41.2462C10.2501 41.4151 9.94836 41.4232 9.72241 41.2662C9.13443 40.771 8.6248 40.3063 8.16563 39.8478C7.6751 39.3631 7.2097 38.8537 6.77122 38.3214C6.59865 38.091 6.59865 37.7743 6.77122 37.5438L8.59439 34.9982C8.78741 34.7289 8.79444 34.3685 8.612 34.0918C7.34048 32.1673 6.4482 30.0176 5.98319 27.7583C5.91638 27.4339 5.65647 27.1842 5.32958 27.1303L2.24958 26.6255C1.96289 26.5781 1.74279 26.3456 1.7112 26.0567C1.56138 24.6807 1.56296 23.2924 1.71601 21.9167C1.75582 21.6404 1.97316 21.4234 2.24958 21.384L5.32871 20.8799C5.65686 20.8262 5.9174 20.575 5.98319 20.249Z" fill="#1782C5"/>
<path d="M45.6011 21.6018C44.5877 21.606 43.6862 22.2463 43.3483 23.2018H24.8013V20.8018H37.6012C38.9266 20.8018 40.0011 19.7273 40.0011 18.4018V14.2547C41.1031 13.8651 41.7642 12.7382 41.5665 11.5861C41.3688 10.4341 40.3699 9.59199 39.2011 9.59199C38.0322 9.59199 37.0333 10.4341 36.8357 11.5861C36.638 12.7382 37.299 13.8651 38.401 14.2547V18.4018C38.401 18.8436 38.0429 19.2018 37.601 19.2018H24.8013V16.8018H33.6012C34.043 16.8018 34.4011 16.4437 34.4011 16.0018C34.4011 15.5599 34.043 15.2018 33.6012 15.2018H24.8013V13.6018H29.6013C30.9267 13.6018 32.0013 12.5273 32.0013 11.2018V6.25476C33.1033 5.86517 33.7643 4.73826 33.5667 3.58623C33.369 2.4342 32.3701 1.59207 31.2012 1.59207C30.0324 1.59207 29.0335 2.4342 28.8358 3.58623C28.6381 4.73826 29.2992 5.86517 30.4012 6.25476V11.2019C30.4012 11.6437 30.043 12.002 29.6012 12.002H24.59C24.3148 11.4904 23.7655 11.1875 23.1861 11.2276C16.4446 11.6546 11.1953 17.2469 11.1953 24.0019C11.1953 30.7569 16.4446 36.3491 23.1861 36.7762H23.2797C23.8262 36.7807 24.3304 36.4827 24.59 36.0018H29.6012C30.043 36.0018 30.4012 36.36 30.4012 36.8018V41.749C29.2992 42.1386 28.6381 43.2655 28.8358 44.4175C29.0335 45.5696 30.0324 46.4117 31.2012 46.4117C32.3701 46.4117 33.369 45.5696 33.5667 44.4175C33.7643 43.2655 33.1033 42.1386 32.0013 41.749V36.8018C32.0013 35.4764 30.9268 34.4018 29.6013 34.4018H24.8013V32.8018H33.6012C34.043 32.8018 34.4011 32.4437 34.4011 32.0019C34.4011 31.5601 34.043 31.2019 33.6012 31.2019H24.8013V28.8019H37.6012C38.043 28.8019 38.4012 29.1601 38.4012 29.6019V33.749C37.2992 34.1386 36.6381 35.2655 36.8358 36.4175C37.0335 37.5696 38.0324 38.4117 39.2012 38.4117C40.3701 38.4117 41.369 37.5696 41.5667 36.4175C41.7643 35.2655 41.1033 34.1386 40.0013 33.749V29.6019C40.0013 28.2764 38.9268 27.2019 37.6013 27.2019H24.8013V24.8018H43.3483C43.7571 25.9494 44.962 26.6076 46.1486 26.3313C47.3352 26.055 48.1256 24.9324 47.9855 23.7221C47.8453 22.5121 46.8193 21.5997 45.6011 21.6018ZM39.2012 11.2019C39.643 11.2019 40.0011 11.5601 40.0011 12.002C40.0011 12.4438 39.643 12.802 39.2012 12.802C38.7594 12.802 38.4012 12.4438 38.4012 12.002C38.4012 11.5601 38.7593 11.2019 39.2012 11.2019ZM31.2012 3.20201C31.643 3.20201 32.0013 3.56017 32.0013 4.00204C32.0013 4.44391 31.6431 4.80199 31.2012 4.80199C30.7594 4.80199 30.4013 4.44383 30.4013 4.00204C30.4013 3.56024 30.7594 3.20201 31.2012 3.20201ZM31.2012 44.8016C30.7594 44.8016 30.4013 44.4434 30.4013 44.0016C30.4013 43.5597 30.7594 43.2015 31.2012 43.2015C31.643 43.2015 32.0013 43.5597 32.0013 44.0016C32.0013 44.4434 31.643 44.8016 31.2012 44.8016ZM39.2012 36.8017C38.7594 36.8017 38.4012 36.4435 38.4012 36.0016C38.4012 35.5598 38.7594 35.2017 39.2012 35.2017C39.643 35.2017 40.0011 35.5598 40.0011 36.0016C40.0011 36.4434 39.643 36.8017 39.2012 36.8017ZM12.8014 24.0018C12.8081 18.1294 17.3443 13.2568 23.2013 12.8307V35.1729C17.3443 34.7468 12.8081 29.8742 12.8014 24.0018ZM45.6011 24.8018C45.1593 24.8018 44.8011 24.4436 44.8011 24.0017C44.8011 23.5599 45.1592 23.2018 45.6011 23.2018C46.043 23.2018 46.4011 23.5599 46.4011 24.0017C46.4011 24.4435 46.0429 24.8018 45.6011 24.8018Z" fill="#1782C5"/>
</g>
<defs>
<clipPath id="clip0_1972_1784">
<rect width="48" height="48" fill="white"/>
</clipPath>
</defs>
</svg>
