<svg width="13" height="18" viewBox="0 0 13 18" fill="none" xmlns="http://www.w3.org/2000/svg">
<path d="M2.12572 0.394933L3.09503 0.0853298C4.00224 -0.204474 4.97245 0.264432 5.36126 1.18064L6.13527 3.00586C6.47277 3.80057 6.28557 4.73568 5.67266 5.31709L3.96894 6.93531C4.07394 7.90372 4.39915 8.85683 4.94455 9.79464C5.4632 10.7017 6.15816 11.4958 6.98848 12.1302L9.0369 11.4462C9.81271 11.1879 10.6578 11.4858 11.1339 12.1851L12.2427 13.8141C12.7971 14.6277 12.6972 15.7491 12.0105 16.4385L11.2743 17.1774C10.5417 17.9127 9.49591 18.18 8.52749 17.8776C6.24267 17.1648 4.14174 15.0489 2.22472 11.5299C0.305299 8.00482 -0.372108 5.01439 0.192498 2.55856C0.430101 1.52535 1.16631 0.701837 2.12752 0.394933" fill="white"/>
</svg>
