<svg width="21" height="14" viewBox="0 0 21 14" fill="none" xmlns="http://www.w3.org/2000/svg">
<path d="M10.4971 7.24647L19.5335 0.219008C19.2252 0.080818 18.8857 0 18.526 0H2.4686C2.10876 0 1.76928 0.0808933 1.46094 0.219158L10.4971 7.24647Z" fill="white"/>
<path d="M6.7884 5.92515L0.480007 1.01855C0.181614 1.42687 0 1.92572 0 2.47019V11.1165C0 11.5738 0.132837 11.9967 0.349432 12.3641L6.7884 5.92515Z" fill="white"/>
<path d="M13.227 6.68945L10.8775 8.51683C10.7666 8.60368 10.6327 8.6471 10.4988 8.6471C10.3649 8.6471 10.231 8.60368 10.12 8.51683L7.77079 6.68968L1.22266 13.2378C1.59003 13.4544 2.01297 13.5872 2.47028 13.5872H18.5277C18.985 13.5872 19.408 13.4544 19.7753 13.2378L13.227 6.68945Z" fill="white"/>
<path d="M20.5194 1.01855L14.2109 5.92515L20.6501 12.3644C20.8667 11.997 20.9996 11.574 20.9996 11.1167V2.47041C20.9996 1.9258 20.8179 1.42687 20.5194 1.01855Z" fill="white"/>
</svg>
