<svg width="42" height="42" viewBox="0 0 42 42" fill="none" xmlns="http://www.w3.org/2000/svg">
<path fill-rule="evenodd" clip-rule="evenodd" d="M18.6477 25.3866C18.6649 25.0732 18.933 24.8331 19.2464 24.8503C19.5598 24.8675 19.8 25.1355 19.7827 25.4489C19.7466 26.069 19.7437 26.9752 19.7403 28.0251C19.729 31.5635 19.7125 36.666 18.4127 38.0457C17.2401 39.2904 14.8372 39.159 14.0272 37.3057C13.3658 35.7924 14.4674 33.8627 16.2481 34.0524C16.6158 34.0915 16.9861 34.223 17.3263 34.4467C17.5881 34.6187 17.6609 34.9705 17.4888 35.2323C17.3167 35.494 16.965 35.5668 16.7032 35.3947C16.0756 34.9821 15.321 35.1445 15.0457 35.9278C14.7532 36.7599 15.3432 37.5964 16.2192 37.7103C16.7024 37.7731 17.2498 37.6223 17.5849 37.2667C18.5791 36.2114 18.5946 31.3774 18.6054 28.0251C18.6088 26.9398 18.6119 26.0031 18.6477 25.3866ZM35.4112 21.8708H6.58961C6.54778 21.8708 6.51367 21.9049 6.51367 21.9467V23.4815C6.51367 23.5859 6.60019 23.6724 6.7046 23.6724H35.2962C35.4007 23.6724 35.4871 23.5859 35.4871 23.4815V21.9467C35.4871 21.9049 35.453 21.8708 35.4112 21.8708ZM35.4112 19.4292H6.58961C6.54778 19.4292 6.51367 19.4633 6.51367 19.5051V20.6553C6.51367 20.6972 6.54778 20.7313 6.58961 20.7313H35.4112C35.453 20.7313 35.4871 20.6972 35.4871 20.6553V19.5051C35.4871 19.4633 35.453 19.4292 35.4112 19.4292ZM6.51367 16.679V18.2137C6.51367 18.2555 6.54778 18.2896 6.58961 18.2896H35.4112C35.453 18.2896 35.4871 18.2555 35.4871 18.2137V16.679C35.4871 16.5745 35.4007 16.4881 35.2962 16.4881H6.7046C6.60011 16.4881 6.51367 16.5745 6.51367 16.679ZM15.6963 3.37854C14.5413 3.37854 13.96 4.7815 14.7768 5.59832C15.5937 6.41514 16.9966 5.83394 16.9966 4.67886C16.9966 3.96082 16.4144 3.37854 15.6963 3.37854ZM17.6945 8.30589C16.6436 8.30589 16.1139 9.58236 16.8577 10.3261C17.6014 11.0698 18.8779 10.5403 18.8779 9.48928C18.878 8.83576 18.3481 8.30589 17.6945 8.30589ZM8.68104 5.57178C7.54284 5.57178 6.9692 6.95425 7.77476 7.75981C8.58024 8.56537 9.9628 7.99173 9.9628 6.85353C9.9628 6.14558 9.38891 5.57178 8.68104 5.57178ZM25.4466 3.82105C24.6841 4.5836 25.227 5.89224 26.3045 5.89224C27.3819 5.89224 27.9249 4.5836 27.1624 3.82105C26.6884 3.34704 25.9206 3.34704 25.4466 3.82105ZM23.5762 8.68498C22.8324 9.42872 23.362 10.7052 24.413 10.7052C25.4642 10.7052 25.9932 9.42838 25.2498 8.68498C24.7875 8.22265 24.0385 8.22273 23.5762 8.68498ZM32.4423 8.47944C31.6099 9.31179 32.2025 10.7405 33.3788 10.7405C34.5551 10.7405 35.1477 9.31179 34.3153 8.47944C33.7979 7.962 32.9597 7.96208 32.4423 8.47944ZM29.7461 14.8359C29.5451 15.1826 29.0231 15.2485 28.7591 14.8345C28.7585 14.8335 28.7579 14.8328 28.7572 14.8318L27.5656 13.1303C27.3862 12.8735 27.4489 12.5198 27.7058 12.3402C27.9626 12.1608 28.3164 12.2236 28.4959 12.4804L28.545 12.5506C28.5643 12.5782 28.5979 12.5896 28.6301 12.5794C28.6622 12.5692 28.6832 12.5407 28.6832 12.507V3.70966C28.6832 3.395 28.9383 3.13989 29.253 3.13989C29.5676 3.13989 29.8227 3.395 29.8227 3.70966V12.5071C29.8227 12.5408 29.8437 12.5694 29.8758 12.5795C29.908 12.5896 29.9415 12.5782 29.9609 12.5507L30.0101 12.4805C30.1895 12.2237 30.5433 12.1609 30.8002 12.3403C31.057 12.5198 31.1198 12.8736 30.9404 13.1304L29.7497 14.8305C29.7482 14.8323 29.7472 14.8339 29.7461 14.8359ZM13.5049 12.4804C13.6843 12.2236 14.0381 12.1608 14.295 12.3402C14.5519 12.5197 14.6146 12.8735 14.4352 13.1303L13.2436 14.8319C13.2429 14.8328 13.2424 14.8336 13.2417 14.8346C12.9972 15.2179 12.4985 15.218 12.254 14.8345C12.2534 14.8335 12.2528 14.8328 12.2521 14.8318L11.0606 13.1303C10.8812 12.8735 10.9439 12.5198 11.2008 12.3402C11.4577 12.1608 11.8114 12.2236 11.9909 12.4804L12.04 12.5506C12.0594 12.5782 12.093 12.5896 12.1251 12.5794C12.1572 12.5692 12.1782 12.5407 12.1782 12.507V3.70966C12.1782 3.395 12.4333 3.13989 12.748 3.13989C13.0626 3.13989 13.3178 3.395 13.3178 3.70966V12.5071C13.3178 12.5408 13.3388 12.5694 13.3708 12.5795C13.403 12.5896 13.4365 12.5782 13.4559 12.5507L13.5049 12.4804ZM21.7575 12.4804C21.9369 12.2236 22.2907 12.1608 22.5476 12.3402C22.8045 12.5197 22.8672 12.8735 22.6878 13.1303L21.4962 14.8319C21.4955 14.8328 21.495 14.8336 21.4943 14.8346C21.2498 15.2179 20.7511 15.218 20.5066 14.8345C20.506 14.8335 20.5054 14.8328 20.5047 14.8318L19.3131 13.1303C19.1337 12.8735 19.1964 12.5198 19.4533 12.3402C19.7102 12.1608 20.0639 12.2236 20.2434 12.4804L20.2925 12.5507C20.3118 12.5783 20.3454 12.5896 20.3775 12.5795C20.4097 12.5694 20.4306 12.5408 20.4306 12.5071V3.70966C20.4306 3.395 20.6857 3.13989 21.0004 3.13989C21.3151 3.13989 21.5702 3.395 21.5702 3.70966V12.5071C21.5702 12.5408 21.5912 12.5694 21.6233 12.5795C21.6554 12.5896 21.6889 12.5782 21.7083 12.5507L21.7575 12.4804ZM25.2239 25.4289C25.2178 25.1155 25.4668 24.8564 25.7803 24.8503C26.0937 24.8442 26.3528 25.0932 26.359 25.4066C26.3892 26.9059 26.5028 31.0379 27.3542 31.9415C27.9763 32.6019 29.3924 32.6196 29.8701 31.5264C30.1797 30.8182 29.7288 29.7599 28.8111 29.8577C28.6165 29.8784 28.4189 29.949 28.2357 30.0695C27.974 30.2415 27.6222 30.1687 27.4502 29.907C27.2781 29.6453 27.3509 29.2935 27.6126 29.1214C28.8729 28.2929 30.4501 28.7613 30.966 30.2286C31.4965 31.7376 30.4619 33.3036 28.8667 33.5111C28.0193 33.6214 27.1119 33.342 26.5263 32.7205C26.0018 32.1638 25.6868 31.0599 25.5005 29.7033C25.3263 28.4352 25.2548 26.9145 25.2239 25.4289ZM22.2181 25.4489C22.2542 26.069 22.2571 26.9753 22.2605 28.0252C22.2718 31.5636 22.2884 36.666 23.5882 38.0457C24.1737 38.6673 25.0811 38.9466 25.9286 38.8364C27.5238 38.629 28.5584 37.0629 28.0278 35.5539C27.512 34.0865 25.9347 33.6181 24.6745 34.4467C24.4127 34.6187 24.3399 34.9705 24.512 35.2323C24.684 35.494 25.0358 35.5668 25.2976 35.3947C25.4808 35.2743 25.6784 35.2036 25.8729 35.183C26.7907 35.0852 27.2415 36.1434 26.932 36.8517C26.4542 37.945 25.038 37.9271 24.416 37.2667C23.4218 36.2115 23.4062 31.3776 23.3955 28.0252C23.392 26.9399 23.3889 26.0031 23.3531 25.3866C23.3358 25.0732 23.0678 24.8331 22.7544 24.8503C22.4409 24.8675 22.2008 25.1355 22.2181 25.4489ZM15.6419 25.4066C15.6107 26.9069 15.4988 31.037 14.6466 31.9415C14.3116 32.2971 13.7642 32.4478 13.281 32.385C12.4051 32.2711 11.8151 31.4346 12.1076 30.6026C12.3829 29.8194 13.1376 29.6569 13.7651 30.0695C14.0268 30.2416 14.3786 30.1688 14.5506 29.9071C14.7227 29.6453 14.6499 29.2935 14.3882 29.1215C14.048 28.8978 13.6776 28.7664 13.3099 28.7272C11.5293 28.5375 10.4277 30.4671 11.0891 31.9805C11.899 33.8337 14.3017 33.9653 15.4745 32.7205C15.999 32.1638 16.3141 31.0599 16.5003 29.7033C16.6744 28.4352 16.746 26.9145 16.7768 25.4289C16.7829 25.1155 16.5339 24.8564 16.2205 24.8503C15.9071 24.8442 15.648 25.0932 15.6419 25.4066Z" fill="#1782C5"/>
</svg>
