<svg width="612" height="162" viewBox="0 0 612 162" fill="none" xmlns="http://www.w3.org/2000/svg">
<path d="M136.845 3.88682C139.459 2.94478 142.134 2.15757 144.853 1.52983C145.052 1.47427 145.255 1.43198 145.46 1.40328C145.821 1.33765 146.188 1.30061 146.556 1.29254C146.997 1.25958 147.442 1.29702 147.871 1.40328C148.165 1.44987 148.437 1.58276 148.646 1.78293C148.708 1.88393 148.741 1.9985 148.741 2.11512C148.741 2.23175 148.708 2.34632 148.646 2.44731C147.972 4.1241 147.331 5.86417 146.707 7.62005C146.56 7.97921 146.33 8.30333 146.033 8.56918C145.639 8.9182 145.21 9.23075 144.752 9.50249C144.217 9.83709 143.653 10.1282 143.066 10.3725C142.465 10.6387 141.845 10.8659 141.211 11.0527C137.464 12.1104 133.788 13.3782 130.202 14.8492L129.966 14.9283C129.567 15.0836 129.155 15.2105 128.736 15.308C128.39 15.3617 128.036 15.3617 127.69 15.308C127.576 15.2934 127.466 15.2525 127.372 15.1891C127.278 15.1257 127.202 15.0416 127.151 14.9441C127.061 14.6981 127.061 14.4309 127.151 14.1848C127.893 12.334 128.618 10.4516 129.376 8.56918C129.533 8.2255 129.743 7.90562 130 7.62005C130.319 7.25168 130.675 6.91268 131.062 6.60765C131.49 6.25756 131.946 5.94017 132.428 5.65852C132.923 5.36319 133.441 5.10405 133.979 4.88341C134.721 4.58812 135.462 4.30338 136.204 4.02919L136.845 3.88682ZM123.998 9.89796C124.285 9.78362 124.597 9.73482 124.909 9.75559C125.002 9.75235 125.095 9.77449 125.176 9.81937C125.257 9.86425 125.322 9.92997 125.364 10.0087C125.413 10.1163 125.438 10.2319 125.438 10.3488C125.438 10.4657 125.413 10.5813 125.364 10.6889C124.521 12.603 123.762 14.4696 123.071 16.3362C122.903 16.7009 122.682 17.0417 122.413 17.3486C122.094 17.7551 121.738 18.136 121.351 18.4875C120.931 18.8757 120.486 19.2402 120.02 19.579C119.568 19.9114 119.095 20.2178 118.603 20.4965C115.771 22.0679 112.995 23.7499 110.275 25.5427L110.09 25.6535C109.802 25.8414 109.497 26.0055 109.179 26.1438C108.961 26.2534 108.718 26.3131 108.471 26.3178C108.396 26.314 108.326 26.2845 108.273 26.2349C108.22 26.1852 108.189 26.119 108.184 26.0489C108.173 25.805 108.238 25.5633 108.37 25.3529C109.247 23.5337 110.056 21.6829 110.983 19.7847C111.156 19.4373 111.359 19.104 111.59 18.7881C111.87 18.4022 112.174 18.0325 112.5 17.6808C112.855 17.2925 113.232 16.9229 113.63 16.5735C114 16.2212 114.4 15.8984 114.827 15.6085C117.446 13.7525 120.115 12.0388 122.835 10.4674L123.29 10.2302C123.49 10.124 123.698 10.0341 123.914 9.96123H124.066M156.637 0.422513C157.234 0.237073 157.85 0.109851 158.475 0.042862C159.204 -0.0142873 159.937 -0.0142873 160.667 0.042862C166.082 0.239371 171.438 1.17731 176.565 2.82697L177.627 3.20662C178.2 3.39644 178.74 3.6179 179.313 3.83937C180.04 4.14607 180.749 4.48931 181.437 4.86759C181.911 5.10925 182.357 5.39546 182.769 5.7218C182.886 5.80819 182.983 5.91578 183.055 6.03818C183.055 6.03818 183.055 6.14891 183.055 6.18054C182.214 6.83823 181.472 7.59908 180.847 8.44263C180.746 8.60082 180.425 8.67991 179.953 8.72737C179.481 8.77482 178.858 8.72737 178.149 8.72737L175.722 8.585C174.862 8.585 173.935 8.42681 173.007 8.30026C167.82 7.65847 162.571 7.57356 157.362 8.04716H156.975C156.368 8.04716 155.794 8.04716 155.289 8.04716C154.743 8.05026 154.199 7.98644 153.67 7.85733C153.327 7.7742 153.02 7.59153 152.793 7.33532C152.701 7.23478 152.639 7.11232 152.615 6.98125C152.592 6.85018 152.607 6.71549 152.659 6.59183C153.266 4.89922 153.906 3.26989 154.564 1.68801C154.72 1.39851 154.967 1.16104 155.272 1.00781C155.555 0.825535 155.86 0.676765 156.182 0.564881L156.637 0.422513ZM107.561 21.4298C107.592 21.4228 107.625 21.4224 107.656 21.4285C107.688 21.4347 107.717 21.4472 107.743 21.4654C107.769 21.4835 107.79 21.5067 107.805 21.5334C107.82 21.56 107.829 21.5895 107.83 21.6197C107.824 21.8446 107.767 22.0658 107.662 22.2682C106.751 24.1507 105.858 26.0015 104.964 27.789C104.777 28.1454 104.563 28.489 104.324 28.8172C104.032 29.1758 103.711 29.5554 103.363 29.9562C103.014 30.3491 102.642 30.7241 102.25 31.0793C101.889 31.4325 101.507 31.7653 101.104 32.0759C98.8558 33.8054 96.6641 35.5824 94.5286 37.4068L94.3938 37.5492L93.6857 38.0554C93.548 38.1653 93.377 38.2317 93.1968 38.2452C93.0788 38.2452 93.045 38.2452 93.0619 38.0395C93.1192 37.8052 93.2159 37.5809 93.3485 37.3752C94.3263 35.6667 95.3042 33.895 96.282 32.0759C96.4612 31.7419 96.664 31.4196 96.8889 31.1109C97.1249 30.7629 97.4115 30.3833 97.715 30.0036C98.0185 29.624 98.3556 29.2285 98.676 28.8805C98.9963 28.5325 99.3503 28.1686 99.6706 27.8839C101.761 25.9698 103.852 24.119 106.01 22.3315L106.313 22.0784C106.549 21.9044 106.751 21.762 106.937 21.6513L107.308 21.4773H107.561M140.368 13.8526H140.503C141.053 13.7089 141.619 13.624 142.189 13.5995C142.649 13.5628 143.112 13.6057 143.555 13.7261C143.872 13.8147 144.147 14.005 144.33 14.2639C144.403 14.4016 144.441 14.5532 144.441 14.7069C144.441 14.8605 144.403 15.0121 144.33 15.1498C143.622 17.4593 142.931 19.7847 142.257 22.11C142.104 22.556 141.851 22.9659 141.515 23.3123C141.123 23.757 140.669 24.1507 140.166 24.4829C139.607 24.8701 139.009 25.204 138.379 25.4794C137.84 25.7439 137.275 25.961 136.693 26.128H136.491C132.512 27.1088 128.601 28.2319 124.689 29.5291C124.185 29.71 123.658 29.8322 123.122 29.8929C122.758 29.9351 122.388 29.8972 122.043 29.7822C121.92 29.7389 121.811 29.669 121.723 29.5783C121.635 29.4875 121.571 29.3785 121.537 29.2601C121.457 28.9561 121.499 28.6354 121.655 28.3585C122.532 26.2229 123.341 24.0399 124.335 21.7937C124.503 21.3979 124.736 21.0295 125.027 20.7022C125.363 20.2795 125.748 19.8923 126.173 19.5474C126.63 19.1569 127.121 18.8024 127.64 18.4875C128.176 18.1652 128.74 17.8848 129.326 17.6492L133.018 16.2413C135.462 15.3554 137.924 14.5645 140.453 13.8526M118.705 22.7112C119.004 22.644 119.316 22.644 119.615 22.7112C119.719 22.7327 119.816 22.7789 119.895 22.8453C119.975 22.9118 120.035 22.9963 120.07 23.0908C120.115 23.3596 120.074 23.6348 119.952 23.8817C119.008 26.0964 118.064 28.2635 117.12 30.3358C116.918 30.7482 116.663 31.136 116.361 31.4906C115.998 31.9066 115.597 32.2929 115.164 32.6453C114.707 33.0387 114.223 33.4033 113.714 33.7368C113.252 34.0289 112.773 34.2981 112.281 34.5436H112.18C109.179 35.9146 106.229 37.4173 103.329 39.0519C102.974 39.2646 102.595 39.4396 102.2 39.574C101.976 39.6627 101.731 39.6901 101.491 39.6531C101.413 39.6314 101.345 39.5849 101.299 39.5215C101.253 39.458 101.231 39.3815 101.239 39.305C101.288 39.0313 101.391 38.7685 101.542 38.5299C102.621 36.6 103.717 34.6069 104.796 32.5346C104.982 32.1623 105.214 31.8119 105.487 31.4906C105.803 31.0844 106.14 30.6937 106.499 30.32C106.882 29.926 107.287 29.5511 107.712 29.1969C108.114 28.8516 108.543 28.5344 108.994 28.2477C111.747 26.476 114.557 24.8151 117.423 23.2648L117.592 23.1699C117.838 23.0362 118.098 22.925 118.367 22.8377L118.705 22.727M154.26 11.0211C154.975 10.809 155.709 10.6555 156.452 10.5623C161.637 9.96745 166.873 9.86675 172.08 10.2618H172.417C173.174 10.3338 173.924 10.4608 174.66 10.6414C175.372 10.7928 176.067 11.0101 176.733 11.29C177.201 11.4693 177.634 11.7206 178.015 12.0335C178.134 12.1183 178.224 12.2336 178.275 12.3655C178.326 12.4974 178.335 12.6403 178.301 12.777C177.58 14.5055 176.978 16.2756 176.497 18.0763C176.358 18.4699 176.071 18.802 175.688 19.0096C175.172 19.3681 174.605 19.6558 174.002 19.8638C173.247 20.1465 172.469 20.3739 171.676 20.544C170.893 20.711 170.098 20.8273 169.298 20.892H169.029C163.651 21.2717 158.374 21.8886 153.198 22.6953C152.485 22.7998 151.762 22.8369 151.04 22.8061C150.495 22.7711 149.96 22.6536 149.455 22.4581C149.063 22.3132 148.731 22.0522 148.511 21.7146C148.321 21.397 148.272 21.0216 148.376 20.6705C149 18.3452 149.641 16.004 150.315 13.7419C150.453 13.3431 150.697 12.9838 151.023 12.6979C151.431 12.3206 151.89 11.9961 152.389 11.7329C152.803 11.5181 153.231 11.3279 153.67 11.1635L154.26 11.0211ZM93.77 33.7685C93.8711 33.7685 93.9049 33.7685 93.888 33.9583C93.8363 34.1722 93.757 34.3793 93.652 34.5752C92.7247 36.3311 91.6457 38.1186 90.6511 39.8113C90.4825 40.096 90.2464 40.4282 89.9936 40.7762C89.7407 41.1242 89.4372 41.5039 89.1169 41.8677C88.8077 42.244 88.4756 42.6031 88.1222 42.9434C87.7963 43.2914 87.4759 43.6078 87.1612 43.8925C85.3405 45.5482 83.5253 47.2144 81.7158 48.8912L81.1088 49.3974C81.0032 49.4876 80.876 49.5527 80.7379 49.5872C80.7379 49.5872 80.7379 49.5082 80.7379 49.3658C80.8396 49.1623 80.9579 48.9667 81.092 48.7805C82.171 47.1986 83.2331 45.6167 84.2952 43.845C84.4638 43.5919 84.6661 43.2756 84.9021 42.9434L85.6945 41.9151C85.9867 41.5566 86.2733 41.2086 86.5543 40.8711L87.4141 39.922C89.1562 38.1397 90.9039 36.368 92.6573 34.6069L92.8596 34.4012L93.3991 33.9425C93.5155 33.8504 93.6462 33.7757 93.7868 33.721M101.306 33.8476C101.458 33.8476 101.542 33.9425 101.525 34.1165C101.508 34.368 101.427 34.6121 101.289 34.8283C100.176 36.869 99.0637 38.8305 97.9173 40.7287C97.6849 41.0932 97.4258 41.4421 97.1418 41.7728C96.8383 42.1366 96.4674 42.5321 96.0797 42.9117C95.6919 43.2914 95.2704 43.6552 94.849 44.0032C94.4275 44.3512 94.0734 44.6202 93.7025 44.8733C91.376 46.4551 89.0832 48.037 86.7903 49.7138C86.5095 49.9186 86.2168 50.1087 85.9137 50.2833C85.7736 50.3694 85.609 50.4135 85.4416 50.4098C85.3405 50.4098 85.3236 50.2833 85.4416 50.1251C85.5456 49.8864 85.6755 49.6585 85.8294 49.4449C86.9533 47.7681 88.1278 45.9806 89.3529 44.0823C89.5657 43.7411 89.8022 43.4135 90.061 43.1016C90.3476 42.7377 90.6511 42.3739 91.0051 41.9942C91.3591 41.6146 91.6963 41.2349 92.0504 40.8869C92.4044 40.5389 92.7584 40.2067 93.0956 39.922C95.2873 38.1186 97.5014 36.3628 99.7381 34.6543C100.013 34.4386 100.312 34.2528 100.632 34.1007L100.868 33.9899C100.988 33.9547 101.118 33.9547 101.239 33.9899M0.0842952 73.5369C0.34351 73.6035 0.597092 73.6881 0.842952 73.79L2.20853 74.2962C5.3936 75.5289 8.65299 76.5853 11.9699 77.4599L13.521 77.8712L15.2069 78.2983L16.6736 78.678L17.3985 78.8678L17.82 78.9785C19.7672 79.5601 21.7486 80.0355 23.7544 80.4022C23.9728 80.4358 24.1873 80.4887 24.395 80.5604C24.5299 80.5604 24.5299 80.5604 24.395 80.6553C24.2099 80.6693 24.0238 80.6693 23.8387 80.6553H22.7428C19.623 80.3811 16.5293 79.8894 13.4872 79.1842C12.9815 79.0734 12.3914 78.9311 11.8013 78.7729C11.2113 78.6147 10.6043 78.4249 10.0143 78.235L8.32837 77.6656L7.78888 77.4599C7.55856 77.377 7.33342 77.2819 7.11451 77.1752C5.05771 76.1944 2.89976 75.1346 0.674362 73.9482C0.434042 73.8476 0.207601 73.7202 0 73.5685H0.151731M82.2721 45.4269C82.2721 45.4269 82.2721 45.4269 82.2721 45.6009C82.182 45.8037 82.0749 45.9994 81.9518 46.1862C80.8728 47.8472 79.7938 49.4607 78.698 51.0109L78.0236 51.881L77.1807 52.8617L76.2703 53.8109C75.9668 54.1272 75.6802 54.3962 75.4105 54.6334C73.8257 56.0571 72.241 57.4808 70.6394 58.857L70.1336 59.2683C69.9819 59.3632 69.8976 59.3949 69.8807 59.3791C69.8639 59.3632 69.8807 59.3791 69.8807 59.1892L70.2853 58.6514C71.4655 57.2594 72.6119 55.804 73.7752 54.2854C73.9437 54.0481 74.1629 53.7792 74.3989 53.4945C74.635 53.2097 74.9047 52.8934 75.1745 52.577C75.4442 52.2606 75.714 51.9442 75.9837 51.6595L76.7424 50.8527C78.2765 49.2709 79.7938 47.689 81.3111 46.1071L81.4966 45.9331C81.6341 45.7881 81.7804 45.6508 81.9349 45.5218C82.0162 45.4414 82.1136 45.3769 82.2215 45.332M86.7735 45.4111C86.8746 45.4111 86.8915 45.506 86.7735 45.6484C86.6864 45.8783 86.5674 46.0963 86.4194 46.2969C85.2056 48.1636 83.958 49.9511 82.7273 51.6595C82.5081 51.9442 82.2384 52.2606 81.9349 52.6086C81.6315 52.9566 81.2943 53.3047 80.9402 53.6685C80.5862 54.0323 80.2153 54.3487 79.8444 54.6651C79.4735 54.9814 79.1869 55.2345 78.8835 55.4718L73.1682 60.0593C72.8648 60.2807 72.6287 60.4547 72.4602 60.5497C72.2916 60.6446 72.1735 60.6762 72.123 60.6604C72.0724 60.6446 72.123 60.5497 72.123 60.4231C72.2641 60.212 72.4219 60.011 72.595 59.822C73.91 58.2401 75.2419 56.6582 76.54 54.9814C76.7424 54.7283 76.9952 54.4278 77.2818 54.1114C77.5684 53.795 77.855 53.447 78.1754 53.1148C78.4957 52.7826 78.7992 52.4504 79.1195 52.1341C79.406 51.8288 79.7099 51.5384 80.0299 51.264L85.5596 46.3602C85.8294 46.1388 86.0823 45.9489 86.2508 45.8382L86.5543 45.68H86.6892M123.206 33.025C127.117 31.807 131.096 30.7629 135.142 29.8612C135.752 29.7109 136.383 29.647 137.013 29.6714C137.51 29.6878 137.998 29.801 138.446 30.0036C138.819 30.1723 139.113 30.4638 139.272 30.8227C139.43 31.1815 139.443 31.5825 139.306 31.9493C138.463 34.9074 137.62 37.8023 136.761 40.6022C136.586 41.1195 136.292 41.5947 135.901 41.9942C135.454 42.4733 134.931 42.8842 134.35 43.2123C133.724 43.5911 133.05 43.8941 132.343 44.114C131.873 44.254 131.394 44.3702 130.91 44.462C130.658 44.462 130.405 44.462 130.135 44.5569C125.768 44.9524 121.453 45.506 117.221 46.2811C116.667 46.3929 116.1 46.4302 115.535 46.3919C115.192 46.2738 114.885 46.0782 114.641 45.8224C114.513 45.7497 114.404 45.6507 114.323 45.533C114.241 45.4152 114.188 45.2816 114.169 45.1422C114.128 44.7864 114.205 44.4274 114.389 44.114C115.586 41.8519 116.749 39.3683 117.912 36.9322C118.127 36.5024 118.405 36.103 118.738 35.7458C119.133 35.3153 119.567 34.9183 120.036 34.5594C120.568 34.1743 121.132 33.8305 121.722 33.5312C122.193 33.2654 122.69 33.0429 123.206 32.8668L123.425 32.7877M111.927 37.1221C112.23 37.0407 112.551 37.0407 112.854 37.1221C112.965 37.1648 113.063 37.234 113.137 37.3228C113.211 37.4115 113.259 37.5168 113.276 37.6283C113.296 37.9524 113.22 38.2755 113.057 38.5616C111.843 40.9818 110.595 43.3072 109.348 45.4744C109.102 45.8964 108.795 46.2849 108.437 46.6291C108.001 47.035 107.533 47.4103 107.038 47.7523C106.502 48.1072 105.938 48.4245 105.352 48.7014C104.982 48.8978 104.599 49.0722 104.206 49.2234L103.683 49.3974C100.48 50.4415 97.3104 51.6437 94.2252 52.9725C93.8463 53.1564 93.4441 53.2946 93.0282 53.3838C92.8111 53.4616 92.5709 53.4616 92.3538 53.3838C92.2021 53.3838 92.1684 53.1623 92.2189 52.9566C92.3192 52.6548 92.4923 52.3788 92.7247 52.1499C94.1296 50.2305 95.5289 48.1899 96.9226 46.028C97.1774 45.657 97.4591 45.3029 97.7656 44.9682C98.1218 44.5564 98.5107 44.1703 98.9288 43.8134C99.3528 43.4336 99.7974 43.0746 100.261 42.7377C100.642 42.4441 101.048 42.1796 101.475 41.9468L101.626 41.8519C104.577 40.27 107.561 38.8305 110.612 37.5017L111.034 37.3277C111.336 37.2272 111.646 37.1479 111.961 37.0904M93.4159 46.993C93.5508 46.993 93.6014 47.167 93.5677 47.3568C93.4938 47.6239 93.368 47.8759 93.1968 48.1003C91.7806 50.22 90.3307 52.1973 88.8977 54.0798C88.614 54.4466 88.2982 54.7905 87.9536 55.108C87.5572 55.4859 87.1409 55.845 86.706 56.1837C86.2677 56.5317 85.7957 56.8797 85.3405 57.1803C85.0321 57.3969 84.7113 57.5976 84.3795 57.7814L84.0255 57.987C81.5809 59.3 79.1363 60.6762 76.7086 62.0841C76.4247 62.2552 76.1258 62.4034 75.8151 62.527C75.5959 62.6061 75.4442 62.6219 75.3936 62.527C75.3431 62.4321 75.3936 62.3688 75.3936 62.2106C75.5812 61.9966 75.7964 61.8053 76.0343 61.6412C77.5628 59.9644 79.097 58.1768 80.6368 56.2786C80.9063 55.9489 81.1932 55.6321 81.4966 55.3295C81.8169 54.9814 82.1878 54.6176 82.5587 54.2696C82.9296 53.9216 83.3342 53.5578 83.722 53.2414C84.1097 52.925 84.3964 52.6877 84.7167 52.4663L84.8516 52.3713C87.1669 50.7367 89.5046 49.1549 91.8649 47.6257C92.1848 47.4237 92.5233 47.249 92.8764 47.1037C93.0586 47.0573 93.2506 47.0573 93.4328 47.1037M151.951 26.5868L152.355 26.5077C157.615 25.7325 162.926 25.0998 168.338 24.5778C169.189 24.4905 170.048 24.4905 170.9 24.5778C171.609 24.646 172.303 24.8167 172.957 25.084C173.478 25.2695 173.937 25.5805 174.289 25.9856C174.434 26.155 174.54 26.3505 174.601 26.5601C174.662 26.7696 174.676 26.9887 174.643 27.2037C174.171 30.3674 173.783 33.5312 173.463 36.9639C173.385 37.5977 173.135 38.2022 172.738 38.7198C172.272 39.3306 171.703 39.865 171.052 40.3016C170.33 40.8093 169.535 41.2193 168.692 41.5197C168.148 41.7337 167.583 41.8979 167.006 42.0101L165.91 42.1524C160.262 42.6586 154.53 42.9275 148.781 43.1648C147.988 43.2133 147.191 43.1439 146.421 42.9592C145.812 42.8169 145.24 42.5644 144.735 42.2157C144.297 41.9365 143.953 41.5472 143.74 41.0926C143.545 40.6459 143.509 40.1519 143.639 39.6847C144.381 36.7108 145.128 33.6841 145.881 30.6047C146.028 30.1058 146.287 29.642 146.64 29.2443C147.061 28.7712 147.555 28.3605 148.107 28.0263C148.71 27.6465 149.361 27.3383 150.045 27.1088L150.248 27.0297C150.797 26.8415 151.36 26.6934 151.934 26.5868M72.1904 55.5509C72.1904 55.5509 72.1904 55.5509 72.1904 55.7249C72.0789 55.9062 71.955 56.0806 71.8195 56.2469C70.6394 57.7339 69.4761 59.1418 68.2791 60.4864L67.571 61.2299C67.3182 61.4988 67.0315 61.7835 66.7449 62.0366L65.8514 62.8434C65.6006 63.0686 65.3361 63.2799 65.059 63.4761C63.626 64.5993 62.1593 65.6908 60.6757 66.6399L60.2205 66.9246C60.1025 66.9246 60.035 66.9246 60.035 66.9246C60.035 66.9246 60.035 66.8297 60.1699 66.7348L60.642 66.2919C61.9064 65.1529 63.1708 63.9349 64.4184 62.6535C64.6038 62.4479 64.8399 62.2423 65.0759 61.9892L65.8514 61.2299L66.6438 60.4706C66.9135 60.2333 67.1496 60.0118 67.3856 59.822C68.768 58.5723 70.1505 57.291 71.5329 55.9939L71.6846 55.8515C71.8364 55.7091 71.9544 55.5826 72.0555 55.5035C72.1195 55.4488 72.1938 55.4059 72.2747 55.3769M74.7867 55.9464C74.7867 55.9464 74.7867 56.0413 74.7867 56.1679C74.609 56.4276 74.4058 56.6712 74.1798 56.8955C72.8479 58.5565 71.4992 60.0593 70.1505 61.6412C69.9313 61.8784 69.6447 62.1632 69.3412 62.4479C69.0378 62.7326 68.7006 63.0332 68.3634 63.3338C68.0262 63.6343 67.6722 63.9191 67.3519 64.1721L66.4752 64.8207C64.7893 65.9913 63.1034 67.1303 61.4175 68.2059L60.8106 68.5539C60.6757 68.5539 60.5914 68.6489 60.5745 68.5539C60.5577 68.459 60.5745 68.4432 60.7431 68.3325C60.9044 68.1573 61.079 67.9934 61.2658 67.8421C62.7156 66.6082 64.1486 65.2795 65.5648 63.8558L66.3235 63.1123L67.217 62.2897L68.1274 61.4671L68.9535 60.7711C70.5944 59.4423 72.2129 58.0819 73.8089 56.6899C73.9881 56.5244 74.1796 56.3711 74.3821 56.2311L74.6181 56.0888M14.5999 79.9277C14.8183 79.9022 15.0391 79.9022 15.2574 79.9277L16.5219 80.1333C19.505 80.6499 22.526 80.9514 25.5583 81.035H27.025H28.5592H30.0091H30.6835H31.1724C33.2497 81.1541 35.3329 81.1541 37.4102 81.035C37.6516 81.0207 37.8937 81.0207 38.1352 81.035C38.27 81.035 38.3206 81.035 38.27 81.035C38.1447 81.1243 38.0013 81.1889 37.8485 81.2248C37.5957 81.2248 37.2753 81.383 36.8539 81.4621C34.0781 82.0118 31.2587 82.3451 28.4243 82.4586C27.9354 82.4586 27.4128 82.4586 26.8396 82.4586L25.1537 82.3637C24.5805 82.3637 24.0241 82.2688 23.4678 82.1897L22.8777 82.0948L22.1191 82.2056C19.8382 81.6997 17.5873 81.082 15.3754 80.3548C15.1226 80.2803 14.8794 80.1795 14.6505 80.0542C14.5662 80.0542 14.5325 79.9751 14.6505 79.9593M78.1922 57.3701C78.1922 57.3701 78.1922 57.4966 78.1922 57.6548C78.0603 57.8864 77.902 58.1038 77.7202 58.3034C76.1691 60.1384 74.6069 61.8679 73.0334 63.4919C72.7636 63.7609 72.4433 64.0614 72.0893 64.3778C71.7352 64.6942 71.3137 65.0106 70.9091 65.3111C70.5045 65.6117 70.0999 65.928 69.6953 66.197L68.8692 66.719L68.5657 66.893C66.5426 68.0794 64.5027 69.2342 62.429 70.3257C62.1946 70.4643 61.9461 70.5808 61.6872 70.6737C61.5186 70.6737 61.4343 70.6737 61.4006 70.6737C61.4298 70.5676 61.4949 70.4732 61.5861 70.4047C61.7841 70.2156 61.9923 70.0361 62.2099 69.8669C63.8958 68.5065 65.5817 67.0512 67.2676 65.4693C67.5205 65.2162 67.8239 64.9473 68.1442 64.6625C68.4646 64.3778 68.8186 64.0614 69.1726 63.7767L70.2685 62.8908L71.1789 62.1948C73.1345 60.8028 75.0845 59.3949 77.029 57.9712C77.2768 57.7934 77.5358 57.6296 77.8045 57.4808L78.0068 57.3859C78.072 57.3628 78.1439 57.3628 78.2091 57.3859M20.9726 79.2158C21.1517 79.1932 21.3331 79.1932 21.5121 79.2158L22.5405 79.2949C25.0437 79.539 27.5631 79.6025 30.0765 79.4847H31.3072H32.6054H33.8361H34.6116H34.8476C36.6318 79.4245 38.4107 79.266 40.1751 79.0102C40.3807 78.9695 40.5892 78.943 40.7989 78.9311C40.9169 78.9311 40.9675 78.9311 40.9169 78.9311C40.8187 79.007 40.7034 79.0611 40.5797 79.0892C40.3036 79.1873 40.0222 79.2718 39.7368 79.3424C37.4215 79.9425 35.0596 80.3709 32.6728 80.6237C32.2682 80.6237 31.813 80.6237 31.3578 80.7186C30.9026 80.8135 30.3968 80.7186 29.9079 80.7186H28.5255H27.8006H27.4128C25.4616 80.4868 23.5254 80.1541 21.6133 79.722L20.9895 79.5638C20.9895 79.5638 20.8884 79.5638 20.9895 79.4847M64.0644 64.8049C64.0644 64.8049 64.0644 64.8049 63.9463 65.0106C63.7946 65.1836 63.6313 65.3474 63.4574 65.5009C62.0244 66.8613 60.5577 68.1268 59.0909 69.2974L58.248 69.9302L57.2533 70.6104C56.9161 70.816 56.5789 71.0375 56.2586 71.2115L55.4325 71.6702C53.8815 72.477 52.2799 73.2521 50.6783 73.8849C50.4943 73.9696 50.3024 74.0385 50.1051 74.0905C49.9871 74.0905 49.9533 74.0905 49.9533 74.0905C50.02 74.0195 50.1 73.9605 50.1894 73.9165L50.7963 73.5527C52.4107 72.6437 53.9698 71.6509 55.4662 70.5788L56.2755 70.0251L57.1859 69.4082L58.0794 68.7912C58.366 68.6014 58.6357 68.4116 58.8718 68.285C60.3891 67.3201 61.8558 66.2919 63.3226 65.232L63.8283 64.884H63.9801M101.694 52.6245C102.151 52.4824 102.628 52.4025 103.11 52.3872C103.435 52.3754 103.757 52.4523 104.037 52.6086C104.147 52.681 104.236 52.7785 104.295 52.892C104.354 53.0054 104.381 53.1311 104.374 53.2572C104.35 53.6003 104.221 53.9296 104.003 54.2063C102.318 56.6741 100.632 58.952 98.9457 61.0084C98.5964 61.408 98.1941 61.7642 97.7487 62.0683C97.218 62.4266 96.6538 62.739 96.0628 63.0016C95.4611 63.3 94.8354 63.5539 94.1915 63.7609C93.905 63.8618 93.6122 63.9463 93.3148 64.014C93.0042 64.1026 92.6891 64.1765 92.3707 64.2354C88.9866 64.8479 85.6474 65.6616 82.3733 66.6715C81.9791 66.7987 81.5725 66.8888 81.1594 66.9404C80.856 66.9404 80.6536 66.9404 80.5525 66.8139C80.4513 66.6873 80.4513 66.5766 80.5525 66.371C80.7135 66.0868 80.9243 65.8301 81.1763 65.6117C83.0195 63.8083 84.8684 61.8573 86.7229 59.7587C87.0482 59.3959 87.3973 59.0525 87.7682 58.7305C88.1728 58.3825 88.628 58.0187 89.1 57.6865C89.5871 57.3397 90.0936 57.0176 90.6173 56.7215C90.9321 56.5297 91.2586 56.3554 91.5952 56.1995L92.1009 55.978C93.3316 55.4718 94.5455 55.0131 95.7931 54.5543C97.7319 53.8425 99.7044 53.2097 101.694 52.6245ZM65.3288 66.3868C65.3288 66.3868 65.3288 66.4975 65.1939 66.6241C65.059 66.7506 64.9073 66.9404 64.6544 67.1777C62.9685 68.7596 61.2826 70.0726 59.5967 71.3381C59.2932 71.5595 58.9729 71.7968 58.602 72.0341C58.2311 72.2714 57.8434 72.5086 57.4556 72.7459L56.2755 73.3945L55.4662 73.7741L55.2471 73.8849C53.4432 74.6916 51.5887 75.4668 49.7173 76.0679C49.5032 76.1455 49.2835 76.209 49.0598 76.2577C48.9249 76.2577 48.8744 76.2577 48.8912 76.2577C48.9646 76.172 49.0565 76.1019 49.161 76.052L49.869 75.6724C51.7365 74.7166 53.5434 73.6602 55.2808 72.5086L56.208 71.9075L57.3207 71.1324L58.366 70.4838L59.1752 70.0093H59.2932C60.9791 68.9969 62.7662 67.937 64.4858 66.8455C64.6975 66.703 64.9169 66.571 65.1433 66.4501H65.2782C65.2782 66.4501 65.3962 66.4501 65.4131 66.4501M82.8285 60.2175C82.9149 60.1771 83.0101 60.156 83.1066 60.156C83.2032 60.156 83.2984 60.1771 83.3848 60.2175C83.3848 60.2175 83.5028 60.4073 83.3848 60.6129C83.2436 60.8836 83.062 61.134 82.8453 61.3564C80.974 63.397 79.0858 65.2795 77.2144 67.0195C76.8516 67.357 76.4628 67.6689 76.0511 67.9528C75.6128 68.2692 75.107 68.5856 74.6012 68.8861C74.0955 69.1867 73.556 69.4873 73.0671 69.7245L72.3084 70.0884L71.6341 70.3731C69.0715 71.3697 66.5763 72.4137 63.9463 73.4419C63.656 73.5741 63.3506 73.675 63.0359 73.7425C62.8336 73.7425 62.7156 73.7425 62.6819 73.7425C62.6482 73.7425 62.6819 73.5685 62.8842 73.4261C63.1125 73.2071 63.3546 73.0011 63.6092 72.8092C65.5873 71.3539 67.5654 69.772 69.5435 68.0636C69.8301 67.7947 70.201 67.5099 70.5888 67.1935L71.8364 66.2602L73.1514 65.3586L73.9943 64.8365L74.3652 64.6309C76.8266 63.2863 79.2881 61.9575 81.7663 60.7078C81.9992 60.581 82.2415 60.47 82.4913 60.3756H82.7947M114.827 49.8562C115.076 49.7935 115.33 49.746 115.586 49.7138C119.961 49.0982 124.367 48.6917 128.786 48.4958C129.479 48.4534 130.175 48.5229 130.843 48.7014C131.411 48.8247 131.942 49.0682 132.394 49.4132C132.768 49.7004 133.043 50.085 133.184 50.5186C133.325 50.9522 133.326 51.4153 133.186 51.8493C131.973 55.2767 130.736 58.4827 129.477 61.4671C129.23 62.0074 128.841 62.4806 128.348 62.8434C127.777 63.2614 127.132 63.5826 126.443 63.7925C125.667 64.0324 124.863 64.1812 124.049 64.2354C123.712 64.2354 123.358 64.2354 123.02 64.2354C122.512 64.2247 122.005 64.1824 121.503 64.1089C116.743 63.3667 111.93 62.9595 107.105 62.8908C106.497 62.8967 105.891 62.8276 105.302 62.6852C104.897 62.5885 104.521 62.4043 104.206 62.1474C104.088 62.0417 103.995 61.9137 103.934 61.7719C103.873 61.6301 103.845 61.4776 103.852 61.3248C103.884 60.9483 104.036 60.5898 104.29 60.2966C105.942 58.1136 107.583 55.7249 109.213 53.1306C109.499 52.7045 109.845 52.3162 110.241 51.9759C111.534 50.8631 113.106 50.0742 114.81 49.6822M37.5114 78.5831C37.6968 78.5831 37.9666 78.4565 38.3037 78.3932C40.3074 77.9345 42.2736 77.3424 44.1875 76.6215L45.1822 76.2577L46.2443 75.8622L47.2896 75.4668L48.1157 75.1662C49.8016 74.5809 51.3695 73.9165 52.9542 73.1889C53.1458 73.099 53.3428 73.0197 53.5443 72.9516C53.6623 72.9516 53.7298 72.9516 53.7298 72.9516C53.7298 72.9516 53.6455 73.0623 53.5106 73.173C53.3112 73.3163 53.1029 73.4484 52.8868 73.5685C51.1221 74.6465 49.2864 75.6187 47.3908 76.4792C47.0704 76.6215 46.6995 76.7797 46.3118 76.9221L45.1485 77.3492L43.9852 77.6972L43.2266 77.887H43.0074C41.2786 78.2584 39.5278 78.5331 37.7642 78.7096C37.568 78.7277 37.3704 78.7277 37.1742 78.7096C37.073 78.7096 37.0393 78.7096 37.0899 78.7096H37.1742H37.4439M67.1833 68.7912C67.1833 68.7912 67.1833 68.9494 67.0484 69.0918C66.8536 69.3139 66.6393 69.5203 66.4078 69.7087C64.4072 71.3855 62.4009 72.9094 60.3891 74.2803C60.0519 74.5018 59.6473 74.7549 59.2089 75.008L57.8434 75.7515C57.3545 75.973 56.8824 76.2102 56.4272 76.4001L55.7191 76.6848L55.1965 76.8904C53.0217 77.6339 50.83 78.3141 48.5709 78.9152C48.3215 78.9816 48.0682 79.0344 47.8122 79.0734C47.6605 79.0734 47.5931 79.0734 47.6099 79.0734C47.6268 79.0734 47.7448 78.9469 47.9471 78.8362C48.2473 78.6212 48.5627 78.4257 48.8912 78.2509C51.0954 77.2448 53.2295 76.1088 55.2808 74.8498L56.3766 74.1854L57.5905 73.5052L58.8212 72.825L59.6136 72.4296L59.917 72.2714C62.0244 71.259 64.0981 70.1833 66.1549 69.1076C66.4176 68.9682 66.6877 68.8415 66.9641 68.728C67.1496 68.728 67.2676 68.6489 67.3013 68.728M34.3924 80.6237L35.3534 80.4497C37.7029 80.0898 40.0194 79.561 42.2825 78.8678L43.4289 78.504L44.6933 78.1243L45.9072 77.7447L46.6658 77.5074L46.9356 77.4283C48.8509 76.891 50.736 76.2627 52.5833 75.5459C52.8084 75.458 53.0393 75.3841 53.2746 75.3244C53.4263 75.3244 53.4937 75.3244 53.4937 75.3244C53.4324 75.4267 53.3457 75.5135 53.2408 75.5775L52.4991 76.0046C50.4113 77.2005 48.2368 78.2577 45.9915 79.1684C45.6374 79.3107 45.2159 79.4689 44.7607 79.6113C44.3056 79.7536 43.8504 79.896 43.3615 80.0226C42.8725 80.1491 42.4342 80.2598 41.9959 80.3389L41.3046 80.4655H40.8326C38.8099 80.7327 36.7719 80.8859 34.7296 80.9242C34.5053 80.9427 34.2796 80.9427 34.0553 80.9242C33.9204 80.9242 33.9035 80.9242 33.971 80.9242L34.3924 80.6237ZM30.4306 83.1072C30.7003 83.1072 31.0881 83.0123 31.5433 82.9807C34.3532 82.6956 37.1332 82.193 39.8548 81.4779L41.2204 81.1457L42.7039 80.766L44.1538 80.4339L44.8282 80.2757L45.3677 80.1649C47.6605 79.7062 49.9028 79.1367 52.1113 78.5831C52.3794 78.4911 52.6559 78.4223 52.9374 78.3774C53.1228 78.3774 53.2071 78.3774 53.2071 78.3774C53.2071 78.3774 53.106 78.5356 52.9205 78.678L52.027 79.1684C49.5188 80.3931 46.9217 81.4503 44.255 82.3321C43.8166 82.4745 43.3277 82.6327 42.7714 82.775C42.215 82.9174 41.6755 83.0439 41.0855 83.1547C40.4954 83.2654 39.9728 83.3445 39.3996 83.4078H38.8432C38.5624 83.4216 38.2811 83.4216 38.0003 83.4078C35.5788 83.5229 33.152 83.4965 30.734 83.3287C30.4667 83.3156 30.2014 83.2785 29.9417 83.2179C29.7899 83.2179 29.7562 83.123 29.8236 83.0756H29.9079L30.3631 82.9807M69.6784 72.3346C69.9313 72.3346 70.083 72.3346 70.1336 72.3346C70.1842 72.3346 70.1336 72.5403 70.0156 72.7301C69.7801 72.9789 69.5205 73.2066 69.2401 73.4103C66.7618 75.2295 64.3172 76.8272 61.9233 78.2667C61.5018 78.504 61.0129 78.7571 60.4734 79.0102C59.9339 79.2633 59.3607 79.5005 58.7875 79.7378C58.2143 79.9751 57.6242 80.1649 57.1016 80.3231L56.5958 80.4813C56.2635 80.582 55.9259 80.6665 55.5843 80.7344C52.9374 81.3197 50.2399 81.8734 47.4751 82.3163C47.1701 82.3768 46.8595 82.4086 46.5478 82.4112C46.3455 82.4112 46.2612 82.4112 46.2781 82.3005C46.3856 82.182 46.5174 82.0852 46.6658 82.0157C46.9019 81.905 47.239 81.7468 47.6774 81.5728C50.302 80.5177 52.8528 79.3078 55.3145 77.9503L56.6295 77.2701L58.1131 76.5583L59.5967 75.878L60.2879 75.5933L60.9286 75.356L65.1096 73.7741L68.7006 72.7143C69.0371 72.5844 69.3875 72.4889 69.7458 72.4296M79.4904 69.2658C82.8088 68.3273 86.1874 67.5876 89.6058 67.0512C90.092 66.9827 90.5863 66.9827 91.0725 67.0512C91.394 67.0803 91.6963 67.2082 91.9323 67.415C92.0267 67.5015 92.0927 67.6115 92.1226 67.732C92.1524 67.8525 92.1449 67.9786 92.1009 68.0952C91.9797 68.4414 91.7648 68.7521 91.4771 68.9969C89.2431 71.0823 86.8847 73.047 84.4132 74.8815C83.945 75.2212 83.4357 75.508 82.8959 75.7357C82.2655 76.0094 81.6181 76.2472 80.9571 76.4475C80.2828 76.6532 79.5747 76.8113 78.8835 76.9537L78.3945 77.0486C77.8888 77.0486 77.3999 77.191 76.9447 77.2226C73.4953 77.5141 70.067 77.9947 66.6775 78.6621C66.2893 78.7395 65.8941 78.7818 65.4974 78.7887C65.2276 78.7887 65.059 78.7887 65.0085 78.6305C64.9579 78.4723 65.0085 78.3932 65.2108 78.2034C65.4799 77.9564 65.7734 77.7339 66.0874 77.539C68.4646 76.0362 70.8923 74.3753 73.3368 72.477C73.7583 72.1554 74.1972 71.8544 74.6518 71.5753C75.1407 71.2748 75.6802 70.9742 76.2366 70.6737C76.7929 70.3731 77.3493 70.12 77.9225 69.8827L78.6474 69.598C78.934 69.4873 79.2038 69.4082 79.4735 69.3291M145.224 48.559C145.7 48.4428 146.185 48.3582 146.674 48.3059C147.05 48.2818 147.427 48.2818 147.803 48.3059C153.721 48.3059 159.605 48.3059 165.387 48.0212C166.316 47.9555 167.249 48.0302 168.152 48.2427C168.954 48.4068 169.715 48.7128 170.394 49.1443C171.021 49.5528 171.535 50.095 171.895 50.7262C172.256 51.3622 172.425 52.0788 172.384 52.7985C172.131 58.0187 171.945 63.3179 171.777 68.6172C171.748 69.5174 171.5 70.3994 171.052 71.1957C170.592 71.9722 169.952 72.6423 169.18 73.1572C168.063 73.8753 166.741 74.2612 165.387 74.2645C164.645 74.2801 163.903 74.2111 163.179 74.0589C156.604 72.651 149.691 70.7844 142.948 69.0285C141.983 68.792 141.058 68.4299 140.2 67.9528C139.449 67.4672 138.788 66.8686 138.244 66.1811C137.768 65.6926 137.406 65.1161 137.182 64.4885C137.005 63.915 137.005 63.3062 137.182 62.7326C138.306 59.4107 139.374 55.8726 140.385 52.1183C140.557 51.5296 140.874 50.9875 141.312 50.5364C141.8 50.0343 142.369 49.6072 142.998 49.2709C143.399 49.058 143.816 48.873 144.246 48.7172L145.224 48.4167M100.193 66.8772C100.88 66.6601 101.585 66.4961 102.301 66.3868C102.579 66.3354 102.861 66.2985 103.144 66.276C103.587 66.2369 104.033 66.2369 104.475 66.276C109.419 66.511 114.332 67.1461 119.16 68.1743C119.97 68.3192 120.75 68.5863 121.469 68.9652C122.115 69.278 122.688 69.7082 123.155 70.2307C123.568 70.6805 123.842 71.2275 123.948 71.8126C124.062 72.3532 123.966 72.9143 123.678 73.3945C121.905 76.4682 119.882 79.4087 117.626 82.1897C117.189 82.6734 116.598 83.0118 115.94 83.1547C115.149 83.3833 114.322 83.4849 113.495 83.4552C112.535 83.4222 111.581 83.3004 110.646 83.0914L110.14 82.9807C109.324 82.7824 108.523 82.5286 107.746 82.2214C102.76 80.2352 97.5514 78.7813 92.2189 77.887C91.5882 77.7991 90.9712 77.6397 90.3813 77.4125C89.9911 77.2809 89.6469 77.051 89.3866 76.7481C89.2956 76.6373 89.2356 76.5069 89.212 76.3687C89.1885 76.2306 89.2021 76.0891 89.2518 75.9571C89.4011 75.5957 89.6588 75.2826 89.9936 75.0555C92.4572 73.1344 94.7885 71.0685 96.9732 68.8703C97.3763 68.4841 97.8362 68.1538 98.3388 67.8896C98.8788 67.5867 99.4424 67.3223 100.025 67.0986H100.143M136.558 72.5561C140.189 73.2854 143.752 74.2851 147.213 75.5459C153.535 77.713 159.756 79.0576 165.893 83.0281C166.909 83.7122 167.817 84.527 168.59 85.4484C169.372 86.382 169.998 87.4222 170.445 88.5331C170.871 89.5882 171.071 90.7115 171.035 91.8392C170.748 99.5271 170.361 106.772 169.821 113.432C169.792 114.456 169.387 115.44 168.675 116.216C168.326 116.545 167.906 116.801 167.444 116.968C166.982 117.134 166.488 117.207 165.994 117.181C164.683 117.13 163.4 116.812 162.235 116.248L161.897 116.089C160.459 115.387 159.108 114.538 157.868 113.558C149.439 107.073 140.874 100.714 132.579 95.2719C131.433 94.5438 130.361 93.7177 129.376 92.8041C128.567 92.0708 127.848 91.2536 127.235 90.368C126.755 89.706 126.428 88.957 126.274 88.1692C126.158 87.5496 126.278 86.9115 126.611 86.3659C128.704 83.0837 130.552 79.6692 132.141 76.147C132.55 74.7172 133.528 73.4888 134.872 72.7143C135.404 72.5033 135.992 72.4482 136.558 72.5561Z" fill="white"/>
<path d="M290.565 80.4228H243.006L230.631 112.804H214.11L258.685 1.58203H276.859L319.782 112.835H302.282L290.565 80.4228ZM247.963 67.0876H284.783L267.283 18.1285H266.946L247.963 67.0876ZM340.687 112.804H326.155V31.7642H340.687V112.804ZM340.687 17.0528H326.155V1.58203H340.687V17.0528ZM372.079 65.6955V112.804H357.546V31.7642H371.253V45.2418H371.59C377.356 35.7506 384.959 29.4231 395.85 29.4231C397.139 29.3816 398.427 29.542 399.66 29.8976V43.9921H394.198C380.711 43.9921 372.079 53.9105 372.079 65.6797M421.172 14.4111V48.6587H450.136C465.495 48.6587 474.902 44.3243 474.902 30.6886C474.902 20.3115 468.159 14.4111 450.305 14.4111H421.172ZM405.156 112.804V1.58203H457.335C479.471 1.58203 490.851 14.4427 490.851 29.6287C491.011 34.549 489.583 39.3999 486.756 43.5463C483.928 47.6926 479.832 50.9412 475.003 52.8665C482.758 55.8088 496.465 60.9341 496.465 79.9799C496.465 97.8076 482.438 112.835 456.189 112.835L405.156 112.804ZM421.172 60.9024V99.9431H455.363C472.036 99.9431 480.449 92.0337 480.449 79.6477C480.449 63.9871 465.765 60.9024 452.716 60.9024H421.172ZM521.787 112.804H507.255V31.7642H521.787V112.804ZM521.787 17.0528H507.255V1.58203H521.787V17.0528ZM531.751 72.2128C531.751 51.2846 544.311 29.5022 571.875 29.5022C599.44 29.5022 612 51.3479 612 72.2128C612 93.0778 599.457 114.924 571.875 114.924C544.294 114.924 531.751 93.0778 531.751 72.2128ZM546.789 72.2128C546.789 83.0487 551.071 103.186 571.875 103.186C592.679 103.186 596.978 83.0487 596.978 72.2128C596.978 61.377 592.679 41.2239 571.875 41.2239C551.071 41.2239 546.789 61.3612 546.789 72.2128Z" fill="white"/>
<path d="M288.745 150.277H283.232V153.837H288.155V156.004H283.232V159.547H288.796V161.762H280.552V148.126H288.796L288.745 150.277ZM303.918 148.079H306.565V161.762H303.463L296.551 151.543V161.762H293.938V148.126H296.888L303.817 158.266L303.918 148.079ZM318.822 161.952C317.842 161.995 316.863 161.845 315.949 161.512C315.035 161.178 314.206 160.668 313.515 160.016C312.824 159.363 312.286 158.581 311.937 157.721C311.588 156.861 311.435 155.942 311.488 155.023C311.425 154.092 311.572 153.159 311.92 152.285C312.267 151.411 312.806 150.615 313.503 149.95C314.199 149.284 315.037 148.764 315.962 148.422C316.888 148.081 317.879 147.926 318.872 147.968C320.134 147.91 321.39 148.174 322.506 148.731C323.622 149.288 324.556 150.117 325.211 151.132L322.885 152.286C322.51 151.599 321.932 151.028 321.221 150.641C320.509 150.254 319.694 150.067 318.872 150.103C318.218 150.087 317.567 150.202 316.963 150.439C316.359 150.676 315.815 151.03 315.368 151.478C314.92 151.927 314.579 152.459 314.367 153.04C314.154 153.621 314.075 154.237 314.135 154.849C314.057 155.48 314.125 156.12 314.335 156.725C314.544 157.329 314.891 157.884 315.35 158.351C315.81 158.818 316.371 159.187 316.997 159.431C317.622 159.676 318.296 159.791 318.973 159.769C319.98 159.844 320.981 159.56 321.775 158.974C322.569 158.387 323.097 157.541 323.255 156.605H318.973V154.517H325.717V161.809H323.694V159.769C323.154 160.517 322.413 161.118 321.545 161.51C320.677 161.901 319.714 162.07 318.754 161.999L318.822 161.952ZM331.179 148.079H333.809V161.762H331.112L331.179 148.079ZM349.724 148.079H352.354V161.762H349.353L342.441 151.543V161.762H339.828V148.126H342.778L349.724 158.266V148.079ZM366.583 150.277H361.02V153.837H365.841V156.004H360.952V159.547H366.516V161.762H358.272V148.126H366.516L366.583 150.277ZM380.07 150.277H374.524V153.837H379.329V156.004H374.423V159.547H379.969V161.762H371.742V148.126H379.969L380.07 150.277ZM393.052 161.762L389.292 155.687H387.96V161.762H385.297V148.126H390.439C391.033 148.055 391.636 148.108 392.206 148.281C392.776 148.454 393.298 148.742 393.736 149.126C394.174 149.509 394.516 149.979 394.739 150.5C394.961 151.022 395.059 151.583 395.024 152.144C395.064 152.983 394.762 153.804 394.18 154.442C393.597 155.079 392.778 155.485 391.889 155.577L396.171 161.809L393.052 161.762ZM387.994 150.167V153.758H390.068C391.754 153.758 392.529 153.046 392.529 152.002C392.529 150.958 391.669 150.277 389.933 150.277L387.994 150.167ZM400.706 148.079H403.336V161.762H400.571L400.706 148.079ZM419.251 148.079H421.881V161.762H418.897L411.985 151.543V161.762H409.355V148.126H412.322L419.251 158.266V148.079ZM434.137 161.952C433.158 161.987 432.182 161.829 431.271 161.487C430.361 161.146 429.538 160.629 428.854 159.969C428.171 159.31 427.643 158.524 427.304 157.661C426.965 156.798 426.824 155.877 426.888 154.96C426.872 153.443 427.383 151.962 428.342 150.741C429.302 149.52 430.659 148.626 432.208 148.192C433.757 147.758 435.415 147.808 436.93 148.336C438.446 148.863 439.738 149.839 440.611 151.116L438.285 152.271C437.91 151.584 437.332 151.012 436.621 150.625C435.909 150.238 435.094 150.051 434.272 150.088C433.618 150.072 432.967 150.186 432.363 150.423C431.759 150.66 431.216 151.014 430.768 151.462C430.32 151.911 429.979 152.443 429.767 153.024C429.554 153.605 429.475 154.222 429.535 154.833C429.462 155.46 429.534 156.094 429.745 156.693C429.956 157.292 430.302 157.841 430.76 158.303C431.217 158.765 431.775 159.129 432.395 159.371C433.016 159.613 433.685 159.727 434.357 159.705C435.331 159.747 436.288 159.456 437.05 158.886C437.813 158.315 438.329 157.505 438.504 156.605H434.205V154.517H440.948V161.809H438.841V159.769C438.31 160.506 437.582 161.1 436.73 161.491C435.878 161.883 434.932 162.058 433.986 161.999L434.137 161.952ZM453.879 148.079H456.526V161.762H453.879V148.079ZM472.424 148.079H475.054V161.762H472.07L465.158 151.543V161.762H462.528V148.126H465.31L472.239 158.266L472.424 148.079ZM496.634 150.277H490.952V153.821H495.875V156.004H490.952V161.762H488.289V148.126H496.634V150.277ZM504.001 159.547H508.739V161.762H501.371V148.126H504.086L504.001 159.547ZM519.579 161.952C518.09 161.97 516.629 161.572 515.383 160.808C514.136 160.043 513.161 158.947 512.582 157.66C512.003 156.373 511.846 154.953 512.132 153.582C512.418 152.21 513.133 150.95 514.186 149.962C515.238 148.974 516.581 148.304 518.043 148.036C519.504 147.768 521.018 147.915 522.389 148.458C523.761 149.001 524.929 149.916 525.744 151.086C526.559 152.255 526.983 153.626 526.963 155.023C527.023 155.953 526.874 156.884 526.526 157.756C526.178 158.628 525.638 159.422 524.942 160.086C524.246 160.749 523.408 161.268 522.484 161.609C521.561 161.95 520.571 162.104 519.579 162.062M519.579 159.769C520.59 159.826 521.596 159.597 522.467 159.111C523.337 158.625 524.033 157.906 524.462 157.045C524.892 156.185 525.037 155.223 524.877 154.284C524.717 153.346 524.261 152.474 523.568 151.781C522.874 151.089 521.975 150.608 520.986 150.4C519.998 150.193 518.966 150.269 518.024 150.618C517.082 150.967 516.273 151.574 515.703 152.359C515.132 153.145 514.827 154.073 514.825 155.023C514.768 155.636 514.849 156.253 515.063 156.834C515.278 157.415 515.621 157.946 516.07 158.394C516.519 158.842 517.063 159.196 517.668 159.433C518.273 159.67 518.924 159.784 519.579 159.769ZM534.415 161.873L530.487 148.189H533.235L536.269 158.851L539.641 148.189H541.9L545.272 158.851L548.34 148.189H551.072L547.144 161.873H543.772L540.737 152.745L537.702 161.873H534.415Z" fill="white"/>
</svg>
