<svg width="18" height="18" viewBox="0 0 18 18" fill="none" xmlns="http://www.w3.org/2000/svg">
<path d="M3 1.5H4.5V3C4.5 4.08 5.01 4.9575 5.91 5.835C6.555 6.4575 7.4175 7.0575 8.3175 7.65L6.945 8.5425C6.2025 8.04 5.4825 7.5 4.875 6.9075C3.8025 5.865 3 4.575 3 3V1.5ZM13.5 1.5H15V3C15 4.575 14.1975 5.865 13.125 6.9075C12.0675 7.9425 10.7175 8.7975 9.405 9.63C8.0925 10.47 6.8175 11.2875 5.91 12.165C5.01 13.0425 4.5 13.92 4.5 15V16.5H3V15C3 13.425 3.8025 12.135 4.875 11.0925C5.9325 10.0575 7.2825 9.2025 8.595 8.37C9.9075 7.53 11.1825 6.7125 12.09 5.835C12.99 4.9575 13.5 4.08 13.5 3V1.5ZM11.055 9.4575C11.7975 9.96 12.5175 10.5 13.125 11.0925C14.1975 12.135 15 13.425 15 15V16.5H13.5V15C13.5 13.92 12.99 13.0425 12.09 12.165C11.445 11.5425 10.5825 10.9425 9.6825 10.35L11.055 9.4575ZM5.25 2.25H12.75V3L12.705 3.375H5.295L5.25 3V2.25ZM5.76 4.5H12.24C12.06 4.755 11.85 5.0175 11.565 5.295L11.1825 5.625H6.8025L6.435 5.295C6.15 5.0175 5.94 4.755 5.76 4.5ZM6.8175 12.375H11.1975L11.565 12.705C11.85 12.9825 12.06 13.245 12.24 13.5H5.76C5.94 13.245 6.15 12.9825 6.435 12.705L6.8175 12.375ZM5.295 14.625H12.705L12.75 15V15.75H5.25V15L5.295 14.625Z" fill="black"/>
</svg>
