<svg width="16" height="16" viewBox="0 0 16 16" fill="none" xmlns="http://www.w3.org/2000/svg">
<path d="M8.03088 0.69983C7.50588 0.69983 7.01557 0.938892 6.59763 1.33036C6.17976 1.72192 5.822 2.26724 5.52379 2.92777C5.46129 3.06614 5.4016 3.20995 5.34454 3.3583C5.19065 3.33388 5.03611 3.31381 4.8811 3.29811C4.70079 3.28014 4.52485 3.26899 4.35391 3.26499C3.84079 3.2528 3.37182 3.30483 2.96079 3.42942C2.41279 3.59558 1.9606 3.90077 1.6981 4.35536C1.4356 4.81005 1.39747 5.35424 1.52757 5.91192C1.65772 6.46958 1.95107 7.05205 2.37404 7.64061C2.46279 7.76405 2.5576 7.88786 2.65766 8.01164C2.55977 8.13249 2.46532 8.25608 2.37441 8.38227C1.95141 8.9708 1.65807 9.55327 1.52794 10.111C1.39782 10.6686 1.43597 11.2128 1.69847 11.6674C1.96097 12.1221 2.41316 12.4273 2.96116 12.5934C3.50919 12.7595 4.16032 12.7967 4.88147 12.7247C5.03266 12.7095 5.1871 12.6894 5.34422 12.6646C5.39999 12.81 5.45987 12.9539 5.52379 13.0959C5.822 13.7565 6.17972 14.3018 6.59763 14.6933C7.01554 15.0848 7.50591 15.3239 8.03088 15.3239C8.55585 15.3239 9.04619 15.0848 9.4641 14.6933C9.88197 14.3017 10.2397 13.7565 10.5379 13.0959C10.6019 12.9539 10.6617 12.8101 10.7175 12.6647C10.8744 12.6894 11.0288 12.7096 11.1798 12.7247C11.901 12.7967 12.5522 12.7595 13.1001 12.5934C13.6482 12.4272 14.1004 12.122 14.3629 11.6674C14.6254 11.2127 14.6635 10.6686 14.5334 10.111C14.4033 9.5533 14.1099 8.97083 13.6869 8.38227C13.596 8.2561 13.5015 8.13251 13.4037 8.01164C13.5017 7.89069 13.5963 7.76697 13.6873 7.64064C14.1103 7.05208 14.4036 6.46961 14.5337 5.91195C14.6638 5.35427 14.6257 4.81008 14.3632 4.35539C14.1007 3.9008 13.6485 3.59561 13.1005 3.42945C12.6895 3.30486 12.2205 3.25283 11.7074 3.26499C11.5364 3.26899 11.3604 3.28014 11.1801 3.29811C11.0289 3.31324 10.8743 3.33352 10.7171 3.35827C10.6614 3.21311 10.6016 3.06956 10.5378 2.92777C10.2396 2.26714 9.88188 1.72183 9.46397 1.33033C9.04607 0.93883 8.55569 0.699799 8.03075 0.699799L8.03088 0.69983ZM8.03088 1.2838C8.38104 1.2838 8.72438 1.43764 9.06482 1.75661C9.40522 2.07552 9.73035 2.55827 10.0057 3.16808C10.0504 3.26758 10.093 3.36805 10.1333 3.46942C9.46407 3.61824 8.75522 3.84655 8.03069 4.15161C7.30632 3.84661 6.59757 3.61836 5.92841 3.46955C5.96972 3.36611 6.01216 3.2653 6.0561 3.16805C6.33141 2.5582 6.65654 2.07545 6.99697 1.75649C7.33741 1.43758 7.68072 1.28374 8.03094 1.28374L8.03088 1.2838ZM4.16869 3.84808C4.22507 3.84752 4.28234 3.84789 4.3405 3.84921C4.4955 3.85264 4.65666 3.86264 4.8231 3.8793C4.92954 3.88992 5.03832 3.90352 5.14885 3.91955C4.94304 4.57352 4.78635 5.30149 4.68816 6.08142C4.06166 6.55642 3.50947 7.05624 3.04597 7.56152C2.97814 7.47572 2.91222 7.38842 2.84826 7.29971C2.45779 6.75639 2.20232 6.23345 2.09629 5.77914C1.99025 5.32483 2.02879 4.95061 2.20385 4.64736C2.37891 4.34411 2.68385 4.1237 3.13022 3.98836C3.42319 3.89952 3.77397 3.85164 4.16866 3.84805L4.16869 3.84808ZM11.8927 3.84808C12.2874 3.85167 12.6382 3.89955 12.9311 3.98839C13.3776 4.1237 13.6824 4.34411 13.8575 4.64736C14.0325 4.95061 14.0711 5.32486 13.9651 5.77914C13.8591 6.23342 13.6035 6.75639 13.2131 7.29971C13.1491 7.38844 13.0832 7.47575 13.0154 7.56158C12.552 7.05636 12 6.55667 11.3737 6.08174C11.2755 5.30167 11.1187 4.57361 10.9128 3.91955C11.0233 3.90352 11.1319 3.88986 11.2383 3.8793C11.3987 3.86303 11.5597 3.85299 11.7209 3.84917C11.7781 3.84787 11.8354 3.84749 11.8927 3.84802V3.84808ZM10.3327 4.02433C10.488 4.50677 10.6166 5.03908 10.7126 5.60871C10.4025 5.39927 10.0852 5.20087 9.76113 5.01386C9.43733 4.8268 9.10702 4.65125 8.77082 4.48752C9.31207 4.2858 9.83729 4.13105 10.3327 4.02439V4.02433ZM5.72904 4.02442C6.22435 4.13111 6.7495 4.28586 7.2906 4.48755C6.95441 4.65129 6.6241 4.82684 6.30029 5.01386C5.97638 5.20079 5.65916 5.39908 5.34922 5.60836C5.44516 5.03889 5.57372 4.50674 5.72904 4.02442ZM8.03069 4.7888C8.50591 4.99842 8.98829 5.24205 9.46913 5.51967C9.95016 5.79742 10.4026 6.09342 10.8218 6.4003C10.8779 6.91677 10.9081 7.45649 10.9081 8.01186C10.9081 8.56692 10.878 9.10642 10.8219 9.62267C10.4027 9.92949 9.95035 10.2254 9.46947 10.5031C8.98854 10.7808 8.50604 11.0245 8.03072 11.2341C7.55535 11.0245 7.07285 10.7808 6.59191 10.5031C6.11113 10.2255 5.65897 9.92967 5.23991 9.62299C5.18382 9.10664 5.15366 8.56705 5.15366 8.01183C5.15366 7.45636 5.18382 6.91658 5.23997 6.40005C5.65913 6.09327 6.11138 5.7973 6.59225 5.51967C7.07313 5.24208 7.55551 4.99842 8.03069 4.78886V4.7888ZM8.07019 5.66742L6.39825 6.6992L8.07019 7.73108L9.74213 6.6992L8.07019 5.66739V5.66742ZM4.60894 6.89036C4.58266 7.26359 4.56956 7.63762 4.56966 8.01177C4.56966 8.39296 4.5831 8.76714 4.60897 9.13252C4.16366 8.7647 3.767 8.38721 3.42688 8.01149C3.767 7.6358 4.16363 7.25824 4.60894 6.89036ZM11.4528 6.89067C11.8979 7.25849 12.2945 7.63589 12.6345 8.01152C12.2945 8.38714 11.8979 8.76455 11.4528 9.13227C11.4791 8.75935 11.4922 8.38563 11.4921 8.0118C11.4921 7.63042 11.4787 7.25617 11.4528 6.89067H11.4528ZM6.0216 7.15299V9.19042L7.77754 10.2741V8.23674L6.0216 7.15299ZM10.1172 7.15405L8.36163 8.23749V10.2739L10.1172 9.19042L10.1172 7.15405ZM3.04591 8.46155C3.50947 8.96686 4.0616 9.46655 4.68804 9.94155C4.78616 10.7214 4.94291 11.4493 5.14866 12.1033C5.03835 12.1192 4.92972 12.1329 4.82347 12.1435C4.15772 12.21 3.577 12.1697 3.1306 12.0344C2.68416 11.8991 2.37935 11.6786 2.20425 11.3754C2.02919 11.0721 1.99066 10.6979 2.09666 10.2436C2.20266 9.7893 2.45816 9.26633 2.84863 8.72302C2.91246 8.63441 2.97821 8.54723 3.04591 8.46155ZM13.0154 8.46164C13.0844 8.54914 13.1504 8.63633 13.2127 8.72302C13.6031 9.2663 13.8586 9.78927 13.9646 10.2435C14.0706 10.6978 14.0322 11.072 13.8571 11.3753C13.682 11.6786 13.3771 11.8991 12.9307 12.0344C12.4843 12.1697 11.9037 12.2099 11.2379 12.1435C11.1294 12.1324 11.0211 12.1191 10.9131 12.1033C11.1189 11.4492 11.2756 10.7211 11.3737 9.94111C12 9.46624 12.552 8.96667 13.0154 8.46158L13.0154 8.46164ZM10.7127 10.4142C10.6168 10.9838 10.4882 11.5161 10.3329 11.9985C9.83744 11.8919 9.31216 11.737 8.77088 11.5353C9.10716 11.3715 9.43758 11.1959 9.76151 11.0088C10.0855 10.8219 10.4028 10.6236 10.7128 10.4142H10.7127ZM5.3491 10.4145C5.65892 10.6238 5.97603 10.822 6.29985 11.0088C6.62378 11.1959 6.95419 11.3715 7.29047 11.5353C6.74935 11.737 6.22422 11.8918 5.72882 11.9985C5.5735 11.5161 5.44504 10.984 5.3491 10.4145ZM8.04816 10.4411L8.06941 10.4542L8.09057 10.4411H8.04819H8.04816ZM8.03066 11.8713C8.75535 12.1763 9.46422 12.4046 10.1336 12.5534C10.0932 12.6551 10.0505 12.7558 10.0057 12.8556C9.73035 13.4654 9.40522 13.9481 9.06479 14.267C8.72438 14.586 8.38104 14.7399 8.03088 14.7399C7.68072 14.7399 7.33735 14.586 6.99694 14.267C6.65654 13.9481 6.33141 13.4654 6.0561 12.8555C6.01123 12.7558 5.96857 12.655 5.92813 12.5534C6.59738 12.4045 7.30619 12.1763 8.03072 11.8713H8.03066Z" fill="black"/>
</svg>
