<svg width="18" height="18" viewBox="0 0 18 18" fill="none" xmlns="http://www.w3.org/2000/svg">
<g clip-path="url(#clip0_1754_1677)">
<path d="M0.75 16.5C0.75 16.905 1.0875 17.25 1.5 17.25H11.25C11.67 17.25 12 16.905 12 16.5V15.75H0.75V16.5ZM6.375 6.75C3.5625 6.75 0.75 8.25 0.75 11.25H12C12 8.25 9.1875 6.75 6.375 6.75ZM2.715 9.75C3.5475 8.5875 5.3175 8.25 6.375 8.25C7.4325 8.25 9.2025 8.5875 10.035 9.75H2.715ZM0.75 12.75H12V14.25H0.75V12.75ZM13.5 3.75V0.75H12V3.75H8.25L8.4225 5.25H15.5925L14.5425 15.75H13.5V17.25H14.79C15.42 17.25 15.9375 16.7625 16.0125 16.1475L17.25 3.75H13.5Z" fill="black"/>
</g>
<defs>
<clipPath id="clip0_1754_1677">
<rect width="18" height="18" fill="white"/>
</clipPath>
</defs>
</svg>
