<svg width="18" height="18" viewBox="0 0 18 18" fill="none" xmlns="http://www.w3.org/2000/svg">
<path d="M15 6H3C2.37868 6 1.875 6.50368 1.875 7.125V14.625C1.875 15.2463 2.37868 15.75 3 15.75H15C15.6213 15.75 16.125 15.2463 16.125 14.625V7.125C16.125 6.50368 15.6213 6 15 6Z" stroke="black" stroke-linejoin="round"/>
<path d="M7.125 3H10.875V1.5H7.125V3ZM11.25 3.375V6H12.75V3.375H11.25ZM6.75 6V3.375H5.25V6H6.75ZM10.875 3C10.9745 3 11.0698 3.03951 11.1402 3.10984C11.2105 3.18016 11.25 3.27554 11.25 3.375H12.75C12.75 2.87772 12.5525 2.40081 12.2008 2.04917C11.8492 1.69754 11.3723 1.5 10.875 1.5V3ZM7.125 1.5C6.62772 1.5 6.15081 1.69754 5.79917 2.04917C5.44754 2.40081 5.25 2.87772 5.25 3.375H6.75C6.75 3.27554 6.78951 3.18016 6.85983 3.10984C6.93016 3.03951 7.02554 3 7.125 3V1.5Z" fill="black"/>
<path d="M6.75 10.875H11.25M9 8.625V13.125" stroke="black" stroke-linecap="round" stroke-linejoin="round"/>
</svg>
