<svg width="24" height="24" viewBox="0 0 24 24" fill="none" xmlns="http://www.w3.org/2000/svg">
<path fill-rule="evenodd" clip-rule="evenodd" d="M20.97 3.7285L20.4765 3.65L20.347 3.167L21.0915 2.967L20.97 3.7285ZM14.36 10.6435L13.9345 10.9055L13.9335 10.9045L13.932 10.902L13.927 10.894L13.91 10.8655L13.85 10.762C13.78 10.6395 13.7125 10.5157 13.6475 10.3905C13.4416 9.99703 13.2622 9.5903 13.1105 9.173C12.9415 8.701 12.7965 8.16049 12.774 7.6375C12.752 7.1165 12.849 6.551 13.237 6.1075C13.5855 5.7095 14.2425 5.343 14.933 5.026C15.6485 4.6965 16.4905 4.3805 17.288 4.107C18.2758 3.7697 19.2736 3.46223 20.28 3.185L20.33 3.171L20.3475 3.166L20.4775 3.6495L20.971 3.728L20.968 3.7465L20.9595 3.7995C20.9095 4.10624 20.8572 4.41258 20.8025 4.7185C20.6692 5.47079 20.5239 6.22089 20.3665 6.9685C20.1885 7.809 19.9815 8.68999 19.762 9.4275C19.6642 9.7647 19.5495 10.0968 19.4185 10.4225C19.3045 10.6975 19.1695 10.9645 19.0055 11.1525C18.6545 11.5535 18.108 11.679 17.6305 11.711C17.1325 11.7445 16.5805 11.684 16.084 11.596C15.6412 11.5163 15.2026 11.4145 14.77 11.291C14.5929 11.2411 14.4169 11.1878 14.242 11.131L14.2105 11.12L14.202 11.117L14.1995 11.1165H14.1985L14.36 10.6435ZM14.36 10.6435L13.9345 10.9055L14.0285 11.058L14.1985 11.1165L14.36 10.6435ZM14.696 10.227C15.208 10.3862 15.7291 10.5148 16.2565 10.612C16.7185 10.6935 17.1805 10.7395 17.5635 10.7135C17.968 10.6865 18.171 10.5875 18.2525 10.4945C18.3045 10.4345 18.3895 10.2925 18.4945 10.0395C18.6122 9.74598 18.7151 9.44678 18.803 9.14299C19.0115 8.443 19.212 7.5915 19.388 6.762C19.5569 5.95946 19.7116 5.154 19.852 4.346L19.6975 4.391C19.143 4.55449 18.394 4.785 17.6125 5.053C16.8295 5.3215 16.023 5.625 15.3505 5.9345C14.6525 6.2555 14.1815 6.547 13.9895 6.7665C13.836 6.9415 13.757 7.211 13.7735 7.5945C13.7895 7.976 13.899 8.4095 14.052 8.835C14.2266 9.31647 14.4421 9.78217 14.696 10.227ZM5.13146 4.987L5.00196 5.47L4.50796 5.5485L4.38696 4.7875L5.13146 4.987ZM9.97246 11.1535L10.398 11.415L10.399 11.414L10.4 11.412L10.404 11.4055L10.4185 11.3815L10.4685 11.2965C10.7076 10.879 10.9108 10.4419 11.076 9.99C11.215 9.60199 11.336 9.1525 11.3545 8.7145C11.3735 8.278 11.2925 7.791 10.9555 7.406C10.6575 7.065 10.106 6.76099 9.54596 6.503C8.96046 6.23349 8.27296 5.9755 7.62346 5.753C6.81898 5.47852 6.00645 5.22824 5.18696 5.0025L5.14596 4.991L5.13146 4.987L5.00196 5.47L4.50796 5.5485L4.51046 5.5635L4.51746 5.607L4.54446 5.77C4.67934 6.57876 4.83121 7.38461 4.99996 8.187C5.14496 8.871 5.31396 9.5895 5.49296 10.192C5.58296 10.493 5.67696 10.7735 5.77546 11.01C5.86896 11.235 5.98346 11.4645 6.12746 11.6285C6.43746 11.9835 6.91396 12.0885 7.30846 12.1145C7.72446 12.1425 8.18096 12.092 8.58846 12.0205C9.10019 11.929 9.60479 11.8013 10.0985 11.6385L10.124 11.63L10.1315 11.6275L10.134 11.6265L9.97246 11.1535ZM9.97246 11.1535L10.398 11.415L10.304 11.568L10.134 11.6265L9.97246 11.1535ZM9.63596 10.7365C9.66763 10.6798 9.70463 10.611 9.74696 10.53C9.86596 10.301 10.014 9.989 10.1345 9.652C10.257 9.311 10.343 8.9685 10.3555 8.672C10.3685 8.3725 10.3055 8.182 10.203 8.064C10.0615 7.903 9.69646 7.673 9.12796 7.4115C8.58596 7.162 7.93396 6.9165 7.29896 6.699C6.74581 6.5101 6.18868 6.33306 5.62796 6.168L5.62996 6.1805C5.71496 6.6605 5.83596 7.3085 5.97846 7.98C6.12096 8.653 6.28346 9.34149 6.45146 9.90699C6.53596 10.19 6.61896 10.4345 6.69896 10.6265C6.78396 10.83 6.84796 10.9335 6.87996 10.9705C6.92096 11.017 7.05346 11.0955 7.37546 11.117C7.67596 11.137 8.04296 11.101 8.41496 11.0355C8.82784 10.9614 9.23565 10.8618 9.63596 10.7365ZM8.54096 15.503C8.41396 15.51 8.35196 15.528 8.33596 15.535C8.10946 15.6375 7.42146 15.8775 6.82746 16.08C6.52246 16.1845 6.22996 16.2825 6.01396 16.355L5.99996 16.36V19.0615C6.08796 19.0575 6.18246 19.054 6.27896 19.0505C6.69296 19.0355 7.18546 19.0205 7.39896 19.0295C8.29496 19.065 8.96796 19.277 9.59096 19.4735L9.60446 19.478C10.1885 19.662 10.7295 19.831 11.438 19.8845C11.638 19.8995 11.8325 19.919 12.014 19.937H12.0165C12.7135 20.007 13.1725 20.042 13.528 19.913C13.8045 19.8125 14.817 19.343 15.838 18.8295C16.343 18.5755 16.838 18.317 17.2315 18.0955C17.429 17.9845 17.5965 17.8855 17.725 17.8025C17.7886 17.7612 17.84 17.7262 17.879 17.6975L17.924 17.6625L17.938 17.6505C17.988 17.6 18.041 17.424 17.955 17.2585C17.9145 17.1811 17.8476 17.1208 17.7665 17.0885C17.6665 17.045 17.4965 17.0115 17.2265 17.056C16.6175 17.156 15.89 17.449 15.1635 17.7445L15.1535 17.749C14.7965 17.894 14.4385 18.0395 14.121 18.1455C13.816 18.247 13.4775 18.338 13.1825 18.3205C12.7775 18.2955 12.067 18.1905 11.481 18.0955C11.1442 18.041 10.8079 17.984 10.472 17.9245L10.407 17.913L10.384 17.9085L10.479 16.9165L12.764 16.944H12.769C12.7957 16.9411 12.8221 16.9361 12.848 16.929C12.927 16.909 13.0625 16.8595 13.233 16.739C13.2855 16.7015 13.3545 16.6325 13.419 16.54C13.4456 16.5013 13.4683 16.4637 13.487 16.427C13.2084 16.4091 12.9316 16.37 12.659 16.31C12.5105 16.2777 12.3633 16.2401 12.2175 16.1975L12.2005 16.1925L9.40196 15.5695L9.37546 15.565L9.27046 15.549C9.15611 15.5322 9.04121 15.5193 8.92596 15.5105C8.79792 15.4998 8.66932 15.4972 8.54096 15.503ZM9.49996 15.08L9.59046 14.5885L9.59946 14.59L12.4585 15.226L12.4795 15.2325L12.4835 15.234L12.5025 15.2395L12.5815 15.262C12.651 15.281 12.751 15.307 12.87 15.333C13.113 15.3855 13.417 15.434 13.698 15.434C13.9795 15.434 14.2855 15.539 14.4505 15.838C14.5915 16.094 14.5565 16.371 14.507 16.554C14.4609 16.7158 14.3924 16.8703 14.3035 17.013C14.4558 16.953 14.6168 16.8883 14.7865 16.819L14.8175 16.806C15.5065 16.526 16.3325 16.19 17.064 16.0695C17.914 15.9305 18.5515 16.2355 18.843 16.7995C19.1 17.297 19.043 17.953 18.6505 18.352C18.552 18.452 18.4055 18.5535 18.2655 18.644C18.0871 18.7568 17.9057 18.8647 17.7215 18.9675C17.309 19.1995 16.7985 19.466 16.2865 19.7235C15.2755 20.232 14.2105 20.7295 13.8685 20.8535C13.2755 21.0685 12.5895 21 11.98 20.939L11.9165 20.9325C11.732 20.9136 11.5473 20.8969 11.3625 20.8825C10.5325 20.8195 9.89646 20.619 9.31546 20.436L9.30296 20.432C8.67796 20.235 8.11496 20.0595 7.35896 20.029C7.19296 20.0225 6.74596 20.0345 6.31496 20.0505C6.07226 20.0593 5.82959 20.0691 5.58696 20.08L5.52246 20.083L4.99946 20.107V15.639L5.43796 15.4935C5.79377 15.3753 6.14911 15.2556 6.50396 15.1345C7.12596 14.922 7.75296 14.7015 7.92396 14.6245C8.10746 14.5415 8.31596 14.5145 8.48296 14.5045C8.66046 14.4945 8.84296 14.502 9.00246 14.514C9.19443 14.5293 9.38562 14.5532 9.57546 14.5855L9.58596 14.5875H9.58896L9.58996 14.588H9.59096L9.49996 15.08Z" fill="black"/>
<path fill-rule="evenodd" clip-rule="evenodd" d="M17.575 6.61999C17.6249 6.66267 17.6659 6.71476 17.6957 6.77329C17.7254 6.83181 17.7434 6.89563 17.7485 6.9611C17.7536 7.02656 17.7458 7.0924 17.7254 7.15483C17.7051 7.21727 17.6727 7.27509 17.63 7.32499C16.1395 9.06399 14.284 11.6125 13.465 13.684C13.4408 13.7451 13.4049 13.8008 13.3592 13.8479C13.3135 13.8951 13.2589 13.9328 13.1987 13.9589C13.1384 13.985 13.0736 13.999 13.0079 14C12.9423 14.0011 12.877 13.9892 12.816 13.965C12.7549 13.9408 12.6992 13.9049 12.652 13.8592C12.6049 13.8135 12.5672 13.759 12.5411 13.6987C12.515 13.6384 12.501 13.5736 12.5 13.5079C12.4989 13.4423 12.5108 13.3771 12.535 13.316C13.4165 11.0865 15.3605 8.43599 16.87 6.67449C16.9563 6.57385 17.0791 6.51162 17.2113 6.50149C17.3435 6.49137 17.4743 6.53417 17.575 6.62049M7.68998 8.22399C7.63841 8.26469 7.59538 8.31515 7.56332 8.37248C7.53127 8.42982 7.51083 8.49291 7.50317 8.55815C7.49551 8.62338 7.50078 8.68949 7.51867 8.7527C7.53657 8.8159 7.56675 8.87495 7.60748 8.92649C8.72848 10.349 9.95248 12.1695 10.5335 13.6795C10.5834 13.8 10.6784 13.8963 10.7982 13.9477C10.9181 13.9992 11.0533 14.0018 11.175 13.9549C11.2968 13.9081 11.3954 13.8155 11.4498 13.697C11.5043 13.5785 11.5102 13.4434 11.4665 13.3205C10.831 11.6685 9.53247 9.75299 8.39248 8.30749C8.31044 8.20335 8.1904 8.13606 8.05876 8.1204C7.92712 8.10474 7.79415 8.142 7.68998 8.22399Z" fill="black"/>
<path d="M3 14.5H6V21H3V14.5Z" fill="black"/>
</svg>
