<svg width="84" height="84" viewBox="0 0 84 84" fill="none" xmlns="http://www.w3.org/2000/svg">
<g clip-path="url(#clip0_1756_1703)">
<path d="M80.2284 69.5014H77.8511V50.9807C77.8511 50.2998 77.2992 49.7477 76.6182 49.7477C75.9371 49.7477 75.3852 50.2998 75.3852 50.9807V69.5014H32.3955V51.2927C32.3955 50.6119 31.8435 50.0598 31.1625 50.0598H14.9622C14.2811 50.0598 13.7292 50.6119 13.7292 51.2927V69.5014H7.88714V45.2659L75.3852 27.8861V46.0491C75.3852 46.73 75.9371 47.2821 76.6182 47.2821C77.2992 47.2821 77.8511 46.73 77.8511 46.0491V26.2955C77.8511 25.9144 77.6749 25.5546 77.3735 25.3211C77.0721 25.0875 76.6797 25.007 76.3109 25.1016L70.2816 26.654L69.1353 13.945C69.1353 13.9447 69.1351 13.9442 69.1351 13.9439L68.606 8.07751C68.5488 7.4421 68.016 6.95532 67.3782 6.95532H59.2384C58.6005 6.95532 58.0678 7.4421 58.0105 8.07751L57.4814 13.9442V13.9444L56.0036 30.3305L48.9973 32.1345L47.7642 18.4625C47.7642 18.4622 47.7642 18.462 47.7642 18.4618L47.2351 12.5953C47.1778 11.9599 46.6451 11.4731 46.0072 11.4731H37.8673C37.2294 11.4731 36.6967 11.9599 36.6394 12.5953L36.1103 18.4617C36.1103 18.462 36.1103 18.4623 36.1102 18.4628L34.5414 35.8569L27.7128 37.6152L26.3927 22.9805C26.3927 22.9801 26.3927 22.98 26.3927 22.9796L25.8636 17.1133C25.8064 16.4778 25.2737 15.9911 24.6358 15.9911H16.4962C15.8583 15.9911 15.3256 16.4778 15.2683 17.1133L14.1346 29.6814C14.0734 30.3597 14.5737 30.959 15.2517 31.0202C15.9303 31.0815 16.5293 30.5811 16.5905 29.9031L17.0924 24.3391H24.0399L25.2935 38.2384L15.614 40.7307L16.1472 34.8199C16.2084 34.1416 15.7082 33.5423 15.0301 33.4811C14.3517 33.4207 13.7525 33.9203 13.6913 34.5982L13.0794 41.3832L6.34758 43.1165C5.80289 43.2568 5.4221 43.748 5.4221 44.3104V69.5015H3.77163C1.69198 69.5014 0 71.1933 0 73.273C0 75.3526 1.69198 77.0446 3.77163 77.0446H39.9904C40.6714 77.0446 41.2233 76.4926 41.2233 75.8117C41.2233 75.1308 40.6714 74.5788 39.9904 74.5788H3.77163C3.05156 74.5788 2.4657 73.9931 2.4657 73.273C2.4657 72.5529 3.0514 71.9671 3.77163 71.9671H80.2284C80.9391 71.9671 81.5343 72.5623 81.5343 73.273C81.5343 73.9837 80.9391 74.5788 80.2284 74.5788H44.922C44.2409 74.5788 43.689 75.1308 43.689 75.8117C43.689 76.4926 44.2409 77.0446 44.922 77.0446H80.2284C82.308 77.0446 84 75.3526 84 73.273C84 71.1933 82.308 69.5014 80.2284 69.5014ZM17.3142 21.8729L17.6223 18.4566H23.5088L23.817 21.8729H17.3142ZM66.2516 9.42118L66.5597 12.8375H60.0569L60.365 9.42118H66.2516ZM59.8346 15.3032H66.7821L67.862 27.2769L58.5382 29.6777L59.8346 15.3032ZM44.8803 13.9388L45.1884 17.3551H38.6854L38.9936 13.9388H44.8803ZM38.463 19.8209H45.4107L46.5775 32.7574L37.0757 35.2041L38.463 19.8209ZM16.1949 52.5257H29.9296V69.5015H16.1949V52.5257Z" fill="black"/>
<path d="M46.6846 44.3989C46.6846 43.7181 46.1327 43.166 45.4517 43.166H40.5279C39.8468 43.166 39.2949 43.7181 39.2949 44.3989V50.5477C39.2949 51.2285 39.8468 51.7806 40.5279 51.7806H45.4517C46.1327 51.7806 46.6846 51.2285 46.6846 50.5477V44.3989ZM44.2189 49.3149H41.7609V45.6319H44.2189V49.3149Z" fill="black"/>
<path d="M45.4517 55.7517H40.5279C39.8468 55.7517 39.2949 56.3038 39.2949 56.9846V63.1334C39.2949 63.8142 39.8468 64.3663 40.5279 64.3663H45.4517C46.1327 64.3663 46.6846 63.8142 46.6846 63.1334V56.9846C46.6846 56.3038 46.1327 55.7517 45.4517 55.7517ZM44.2189 61.9006H41.7609V58.2176H44.2189V61.9006Z" fill="black"/>
<path d="M59.1653 44.3989C59.1653 43.7181 58.6134 43.166 57.9323 43.166H53.0083C52.3273 43.166 51.7754 43.7181 51.7754 44.3989V50.5477C51.7754 51.2285 52.3273 51.7806 53.0083 51.7806H57.9323C58.6134 51.7806 59.1653 51.2285 59.1653 50.5477V44.3989ZM56.6996 49.3149H54.2414V45.6319H56.6996V49.3149Z" fill="black"/>
<path d="M57.9323 55.7517H53.0083C52.3273 55.7517 51.7754 56.3038 51.7754 56.9846V63.1334C51.7754 63.8142 52.3273 64.3663 53.0083 64.3663H57.9323C58.6134 64.3663 59.1653 63.8142 59.1653 63.1334V56.9846C59.1651 56.3038 58.6132 55.7517 57.9323 55.7517ZM56.6994 61.9006H54.2412V58.2176H56.6994V61.9006Z" fill="black"/>
<path d="M71.6456 44.3989C71.6456 43.7181 71.0937 43.166 70.4126 43.166H65.4888C64.8078 43.166 64.2559 43.7181 64.2559 44.3989V50.5477C64.2559 51.2285 64.8078 51.7806 65.4888 51.7806H70.4126C71.0937 51.7806 71.6456 51.2285 71.6456 50.5477V44.3989ZM69.1797 49.3149H66.7217V45.6319H69.1797V49.3149Z" fill="black"/>
<path d="M70.4126 55.7517H65.4888C64.8078 55.7517 64.2559 56.3038 64.2559 56.9846V63.1334C64.2559 63.8142 64.8078 64.3663 65.4888 64.3663H70.4126C71.0937 64.3663 71.6456 63.8142 71.6456 63.1334V56.9846C71.6456 56.3038 71.0937 55.7517 70.4126 55.7517ZM69.1797 61.9006H66.7217V58.2176H69.1797V61.9006Z" fill="black"/>
</g>
<defs>
<clipPath id="clip0_1756_1703">
<rect width="84" height="84" fill="white"/>
</clipPath>
</defs>
</svg>
