<svg width="48" height="48" viewBox="0 0 48 48" fill="none" xmlns="http://www.w3.org/2000/svg">
<rect x="0.460859" y="0.460859" width="47.0783" height="47.0783" rx="11.5391" fill="white" stroke="#1782C5" stroke-width="0.921718"/>
<path d="M23.5125 33.7391C23.6211 33.9021 23.8041 34 24 34C24.1959 34 24.3789 33.9021 24.4875 33.7391C25.8742 31.6591 27.9167 29.0903 29.34 26.4778C30.478 24.3889 31.0312 22.6073 31.0312 21.0312C31.0312 17.1542 27.877 14 24 14C20.123 14 16.9688 17.1542 16.9688 21.0312C16.9688 22.6073 17.522 24.3889 18.66 26.4778C20.0823 29.0883 22.1286 31.6634 23.5125 33.7391ZM24 15.1719C27.2309 15.1719 29.8594 17.8004 29.8594 21.0312C29.8594 22.4064 29.3529 24.0046 28.3109 25.9171C27.0841 28.1691 25.3334 30.4534 24 32.3738C22.6668 30.4537 20.916 28.1692 19.6891 25.9171C18.6471 24.0046 18.1406 22.4064 18.1406 21.0312C18.1406 17.8004 20.7691 15.1719 24 15.1719Z" fill="black"/>
<path d="M24 24.5469C25.9385 24.5469 27.5156 22.9698 27.5156 21.0312C27.5156 19.0927 25.9385 17.5156 24 17.5156C22.0615 17.5156 20.4844 19.0927 20.4844 21.0312C20.4844 22.9698 22.0615 24.5469 24 24.5469ZM24 18.6875C25.2923 18.6875 26.3438 19.7389 26.3438 21.0312C26.3438 22.3236 25.2923 23.375 24 23.375C22.7077 23.375 21.6562 22.3236 21.6562 21.0312C21.6562 19.7389 22.7077 18.6875 24 18.6875Z" fill="black"/>
</svg>
