<svg width="193" height="54" viewBox="0 0 193 54" fill="none" xmlns="http://www.w3.org/2000/svg">
<path d="M43.1553 1.29561C43.9797 0.981593 44.8232 0.719189 45.6807 0.509942C45.7434 0.491423 45.8074 0.477326 45.8721 0.467759C45.9861 0.445884 46.1017 0.433538 46.2177 0.430848C46.3571 0.419859 46.4973 0.432339 46.6324 0.467759C46.7254 0.48329 46.811 0.527587 46.877 0.594309C46.8966 0.627975 46.9069 0.666165 46.9069 0.70504C46.9069 0.743915 46.8966 0.782105 46.877 0.815772C46.6643 1.3747 46.4623 1.95472 46.2656 2.54002C46.2191 2.65974 46.1464 2.76778 46.0529 2.85639C45.9286 2.97273 45.7933 3.07692 45.6488 3.1675C45.4803 3.27903 45.3024 3.37606 45.1172 3.45751C44.9277 3.54623 44.7323 3.62198 44.5323 3.68424C43.3506 4.0368 42.1912 4.45939 41.0606 4.94974L40.9861 4.97611C40.8601 5.02787 40.7304 5.07018 40.598 5.10266C40.4889 5.12056 40.3775 5.12056 40.2684 5.10266C40.2322 5.09779 40.1977 5.08418 40.1681 5.06304C40.1384 5.04189 40.1144 5.01385 40.0982 4.98138C40.0699 4.89936 40.0699 4.8103 40.0982 4.72828C40.3322 4.11135 40.5608 3.48387 40.8 2.85639C40.8494 2.74183 40.9157 2.63521 40.9967 2.54002C41.0973 2.41723 41.2095 2.30423 41.3317 2.20255C41.4665 2.08585 41.6105 1.98006 41.7624 1.88617C41.9185 1.78773 42.082 1.70135 42.2515 1.6278C42.4854 1.52937 42.7193 1.43446 42.9533 1.34306L43.1553 1.29561ZM39.104 3.29932C39.1946 3.2612 39.293 3.24494 39.3911 3.25186C39.4207 3.25078 39.4499 3.25816 39.4754 3.27312C39.5008 3.28808 39.5214 3.30999 39.5347 3.33623C39.55 3.37208 39.5579 3.41064 39.5579 3.4496C39.5579 3.48855 39.55 3.52711 39.5347 3.56296C39.2688 4.20099 39.0296 4.82319 38.8116 5.4454C38.7588 5.56696 38.689 5.68056 38.6043 5.78287C38.5034 5.91836 38.3913 6.04535 38.2693 6.16252C38.1367 6.2919 37.9964 6.41339 37.8493 6.52635C37.7068 6.63712 37.5576 6.73925 37.4027 6.83218C36.5095 7.35595 35.634 7.91664 34.7763 8.51424L34.7178 8.55115C34.627 8.6138 34.531 8.6685 34.4307 8.71461C34.3619 8.75115 34.2854 8.77102 34.2074 8.77261C34.1838 8.77135 34.1616 8.7615 34.1449 8.74495C34.1282 8.72841 34.1183 8.70634 34.117 8.68297C34.1135 8.60166 34.1338 8.52109 34.1755 8.45096C34.4519 7.84458 34.7071 7.22765 34.9996 6.5949C35.054 6.47912 35.118 6.368 35.191 6.2627C35.2791 6.13408 35.375 6.01082 35.4781 5.8936C35.5899 5.76418 35.7088 5.64096 35.8343 5.52449C35.9509 5.40705 36.0771 5.29946 36.2118 5.20284C37.0376 4.58415 37.8794 4.01292 38.7372 3.48914L38.8807 3.41005C38.9436 3.37467 39.0094 3.34469 39.0774 3.32041H39.1253M49.3971 0.140838C49.5853 0.0790244 49.7795 0.036617 49.9766 0.0142873C50.2066 -0.00476244 50.4378 -0.00476244 50.6678 0.0142873C52.3756 0.0797905 54.0647 0.392438 55.6814 0.942322L56.0163 1.06887C56.1971 1.13215 56.3672 1.20597 56.548 1.27979C56.7773 1.38202 57.0009 1.49644 57.2179 1.62253C57.3672 1.70308 57.508 1.79849 57.6379 1.90727C57.6748 1.93606 57.7056 1.97193 57.7283 2.01273C57.7283 2.01273 57.7283 2.04964 57.7283 2.06018C57.4631 2.27941 57.2288 2.53303 57.0318 2.81421C56.9999 2.86694 56.8989 2.8933 56.75 2.90912C56.6011 2.92494 56.4044 2.90912 56.1811 2.90912L55.4155 2.86167C55.1444 2.86167 54.852 2.80894 54.5595 2.76675C52.9235 2.55282 51.2682 2.52452 49.6257 2.68239H49.5034C49.312 2.68239 49.1312 2.68239 48.9717 2.68239C48.7996 2.68342 48.628 2.66215 48.4613 2.61911C48.353 2.5914 48.2563 2.53051 48.1849 2.44511C48.1556 2.41159 48.1362 2.37077 48.1287 2.32708C48.1212 2.28339 48.1259 2.2385 48.1423 2.19728C48.3337 1.63307 48.5358 1.08996 48.7431 0.562671C48.7923 0.46617 48.8703 0.387015 48.9664 0.335936C49.0556 0.275178 49.1521 0.225588 49.2535 0.188294L49.3971 0.140838ZM33.9203 7.14328C33.9302 7.14094 33.9404 7.14079 33.9504 7.14284C33.9603 7.14489 33.9697 7.14908 33.9778 7.15512C33.9859 7.16116 33.9926 7.1689 33.9973 7.17779C34.0021 7.18668 34.0048 7.1965 34.0053 7.20655C34.0033 7.28155 33.9852 7.35525 33.9522 7.42274C33.6651 8.05022 33.3833 8.66715 33.1015 9.26299C33.0424 9.38181 32.9749 9.49634 32.8995 9.60573C32.8073 9.72525 32.7063 9.8518 32.5964 9.98538C32.4864 10.1164 32.3692 10.2414 32.2455 10.3598C32.1318 10.4775 32.011 10.5884 31.884 10.692C31.1751 11.2685 30.4839 11.8608 29.8105 12.4689L29.768 12.5164L29.5447 12.6851C29.5013 12.7218 29.4473 12.7439 29.3905 12.7484C29.3533 12.7484 29.3426 12.7484 29.348 12.6798C29.366 12.6017 29.3965 12.527 29.4383 12.4584C29.7467 11.8889 30.0551 11.2983 30.3634 10.692C30.42 10.5806 30.4839 10.4732 30.5548 10.3703C30.6293 10.2543 30.7197 10.1278 30.8153 10.0012C30.911 9.87465 31.0174 9.74283 31.1184 9.62683C31.2194 9.51082 31.3311 9.38954 31.4321 9.29463C32.0913 8.65661 32.7506 8.03968 33.4311 7.44384L33.5268 7.35947C33.6013 7.30147 33.6651 7.25401 33.7236 7.2171L33.8405 7.1591H33.9203M44.2665 4.61755H44.309C44.4825 4.56963 44.6608 4.54133 44.8407 4.53318C44.9856 4.52092 45.1316 4.53522 45.2713 4.57537C45.3715 4.60491 45.458 4.66835 45.5159 4.75465C45.5389 4.80053 45.5508 4.85106 45.5508 4.90229C45.5508 4.95351 45.5389 5.00404 45.5159 5.04993C45.2926 5.81978 45.0746 6.5949 44.862 7.37002C44.8138 7.51865 44.734 7.65531 44.628 7.77076C44.5044 7.91901 44.3613 8.05024 44.2027 8.16095C44.0265 8.29004 43.8377 8.40133 43.6391 8.49315C43.469 8.5813 43.291 8.65367 43.1075 8.70934H43.0437C41.7889 9.03626 40.5555 9.41064 39.322 9.84302C39.1628 9.90334 38.9967 9.94407 38.8276 9.96429C38.7128 9.97837 38.5963 9.96574 38.4873 9.92738C38.4487 9.91296 38.4141 9.88967 38.3864 9.85942C38.3587 9.82917 38.3386 9.79283 38.3278 9.75338C38.3028 9.65205 38.316 9.54513 38.365 9.45282C38.6415 8.74098 38.8967 8.01331 39.2104 7.26456C39.2632 7.13263 39.3368 7.00983 39.4283 6.90072C39.5345 6.75982 39.6557 6.63076 39.7899 6.5158C39.934 6.38563 40.0887 6.26747 40.2524 6.16252C40.4216 6.05506 40.5994 5.96159 40.7841 5.88305L41.9484 5.41376C42.7193 5.11848 43.4956 4.85483 44.2931 4.61755M37.4346 7.57039C37.529 7.54799 37.6273 7.54799 37.7217 7.57039C37.7545 7.57755 37.785 7.59295 37.8101 7.61511C37.8352 7.63726 37.8542 7.66543 37.8652 7.69694C37.8794 7.78653 37.8664 7.87828 37.828 7.96058C37.5303 8.69879 37.2326 9.42118 36.9348 10.1119C36.8711 10.2494 36.7908 10.3787 36.6956 10.4969C36.581 10.6355 36.4547 10.7643 36.3181 10.8818C36.1739 11.0129 36.0212 11.1344 35.8609 11.2456C35.715 11.343 35.5642 11.4327 35.4089 11.5145H35.377C34.4307 11.9715 33.5003 12.4724 32.5858 13.0173C32.4739 13.0882 32.3544 13.1465 32.2296 13.1913C32.1592 13.2209 32.0817 13.23 32.0063 13.2177C31.9815 13.2105 31.96 13.195 31.9455 13.1738C31.931 13.1527 31.9243 13.1272 31.9265 13.1017C31.9421 13.0104 31.9745 12.9228 32.0222 12.8433C32.3625 12.2 32.7081 11.5356 33.0483 10.8449C33.107 10.7208 33.1801 10.604 33.2663 10.4969C33.3659 10.3615 33.4723 10.2312 33.5853 10.1067C33.7062 9.97533 33.834 9.85036 33.9681 9.73228C34.0949 9.61721 34.2299 9.51147 34.3722 9.41591C35.2406 8.82534 36.1267 8.27168 37.0305 7.75494L37.0837 7.7233C37.1615 7.67874 37.2434 7.64166 37.3283 7.61257L37.4346 7.57566M48.6474 3.6737C48.8729 3.60299 49.1042 3.55183 49.3386 3.52078C50.9738 3.32248 52.6251 3.28892 54.2671 3.4206H54.3735C54.6121 3.44461 54.8485 3.48692 55.0806 3.54715C55.3052 3.59762 55.5243 3.67003 55.7345 3.76334C55.8822 3.82311 56.0187 3.90687 56.1386 4.01116C56.1761 4.03944 56.2046 4.07787 56.2207 4.12184C56.2367 4.16581 56.2396 4.21344 56.229 4.25899C56.0016 4.83518 55.8116 5.42519 55.6601 6.02542C55.6163 6.15662 55.5255 6.26732 55.4049 6.33652C55.2422 6.45605 55.0632 6.55193 54.8732 6.62126C54.6349 6.7155 54.3896 6.79131 54.1395 6.848C53.8926 6.90367 53.6422 6.94243 53.3899 6.964H53.3048C51.6088 7.09055 49.9447 7.29619 48.3125 7.56511C48.0874 7.59994 47.8595 7.6123 47.6319 7.60202C47.4601 7.59037 47.2914 7.55119 47.1322 7.48602C47.0084 7.43773 46.9039 7.35072 46.8344 7.23819C46.7744 7.13235 46.7591 7.00719 46.7919 6.89018C46.9886 6.11506 47.1907 5.33467 47.4033 4.58064C47.4467 4.44771 47.5236 4.32794 47.6266 4.23263C47.7551 4.10686 47.8999 3.99868 48.0573 3.91098C48.1878 3.83937 48.3228 3.77597 48.4613 3.72115L48.6474 3.6737ZM29.5713 11.2562C29.6032 11.2562 29.6138 11.2562 29.6085 11.3194C29.5922 11.3907 29.5672 11.4598 29.534 11.5251C29.2416 12.1104 28.9014 12.7062 28.5877 13.2704C28.5345 13.3653 28.4601 13.4761 28.3803 13.5921C28.3006 13.7081 28.2049 13.8346 28.1039 13.9559C28.0064 14.0813 27.9016 14.201 27.7902 14.3145C27.6874 14.4305 27.5864 14.5359 27.4871 14.6308C26.9129 15.1827 26.3405 15.7381 25.7698 16.2971L25.5784 16.4658C25.5451 16.4959 25.505 16.5176 25.4615 16.5291C25.4615 16.5291 25.4615 16.5027 25.4615 16.4553C25.4935 16.3874 25.5308 16.3222 25.5731 16.2602C25.9134 15.7329 26.2483 15.2056 26.5833 14.615C26.6365 14.5306 26.7003 14.4252 26.7747 14.3145L27.0246 13.9717C27.1167 13.8522 27.2071 13.7362 27.2957 13.6237L27.5669 13.3073C28.1163 12.7132 28.6674 12.1227 29.2204 11.5356L29.2842 11.4671L29.4543 11.3142C29.491 11.2835 29.5322 11.2586 29.5766 11.2403M31.9478 11.2825C31.9956 11.2825 32.0222 11.3142 32.0169 11.3722C32.0115 11.456 31.986 11.5374 31.9425 11.6094C31.5916 12.2897 31.2407 12.9435 30.8792 13.5762C30.8059 13.6977 30.7241 13.814 30.6346 13.9243C30.5389 14.0455 30.4219 14.1774 30.2996 14.3039C30.1774 14.4305 30.0444 14.5517 29.9115 14.6677C29.7786 14.7837 29.667 14.8734 29.55 14.9578C28.8163 15.485 28.0932 16.0123 27.3702 16.5713C27.2816 16.6395 27.1893 16.7029 27.0937 16.7611C27.0495 16.7898 26.9976 16.8045 26.9448 16.8033C26.9129 16.8033 26.9076 16.7611 26.9448 16.7084C26.9776 16.6288 27.0186 16.5528 27.0671 16.4816C27.4215 15.9227 27.7919 15.3269 28.1783 14.6941C28.2454 14.5804 28.32 14.4712 28.4016 14.3672C28.492 14.2459 28.5877 14.1246 28.6993 13.9981C28.811 13.8715 28.9173 13.745 29.029 13.629C29.1406 13.513 29.2523 13.4022 29.3586 13.3073C30.0498 12.7062 30.748 12.1209 31.4533 11.5514C31.5399 11.4795 31.6344 11.4176 31.7351 11.3669L31.8096 11.33C31.8477 11.3182 31.8884 11.3182 31.9265 11.33M0.0265833 24.5123C0.108329 24.5345 0.188299 24.5627 0.265833 24.5967L0.696482 24.7654C1.70092 25.1763 2.7288 25.5284 3.77483 25.82L4.26396 25.9571L4.79563 26.0994L5.25817 26.226L5.48679 26.2893L5.61971 26.3262C6.23377 26.52 6.85864 26.6785 7.49117 26.8007C7.56005 26.8119 7.6277 26.8296 7.6932 26.8535C7.73574 26.8535 7.73574 26.8535 7.6932 26.8851C7.63482 26.8898 7.57614 26.8898 7.51775 26.8851H7.17217C6.1883 26.7937 5.21266 26.6298 4.25333 26.3947C4.09383 26.3578 3.90774 26.3104 3.72166 26.2576C3.53558 26.2049 3.34418 26.1416 3.15809 26.0783L2.62643 25.8885L2.4563 25.82C2.38366 25.7923 2.31266 25.7606 2.24363 25.7251C1.595 25.3981 0.914465 25.0449 0.212666 24.6494C0.136879 24.6159 0.065469 24.5734 0 24.5228H0.0478499M25.9453 15.1423C25.9453 15.1423 25.9453 15.1423 25.9453 15.2003C25.9169 15.2679 25.8831 15.3331 25.8443 15.3954C25.504 15.9491 25.1637 16.4869 24.8182 17.0036L24.6055 17.2937L24.3397 17.6206L24.0526 17.937C23.9569 18.0424 23.8665 18.132 23.7814 18.2111C23.2816 18.6857 22.7819 19.1603 22.2768 19.619L22.1173 19.7561C22.0694 19.7877 22.0429 19.7983 22.0375 19.793C22.0322 19.7877 22.0375 19.793 22.0375 19.7297L22.1651 19.5505C22.5373 19.0865 22.8988 18.6013 23.2657 18.0951C23.3189 18.016 23.388 17.9264 23.4624 17.8315C23.5368 17.7366 23.6219 17.6311 23.707 17.5257C23.792 17.4202 23.8771 17.3147 23.9622 17.2198L24.2014 16.9509C24.6852 16.4236 25.1637 15.8963 25.6422 15.369L25.7007 15.311C25.7441 15.2627 25.7902 15.2169 25.839 15.1739C25.8646 15.1471 25.8953 15.1256 25.9293 15.1107M27.3648 15.137C27.3967 15.137 27.4021 15.1687 27.3648 15.2161C27.3374 15.2928 27.2998 15.3654 27.2532 15.4323C26.8704 16.0545 26.477 16.6504 26.0888 17.2198C26.0197 17.3147 25.9347 17.4202 25.839 17.5362C25.7433 17.6522 25.6369 17.7682 25.5253 17.8895C25.4136 18.0108 25.2967 18.1162 25.1797 18.2217C25.0627 18.3271 24.9723 18.4115 24.8766 18.4906L23.0743 20.0198C22.9786 20.0936 22.9042 20.1516 22.851 20.1832C22.7978 20.2149 22.7606 20.2254 22.7447 20.2201C22.7287 20.2149 22.7447 20.1832 22.7447 20.141C22.7892 20.0707 22.8389 20.0037 22.8935 19.9407C23.3082 19.4134 23.7282 18.8861 24.1376 18.3271C24.2014 18.2428 24.2812 18.1426 24.3716 18.0371C24.4619 17.9317 24.5523 17.8157 24.6533 17.7049C24.7544 17.5942 24.8501 17.4835 24.9511 17.378C25.0414 17.2763 25.1373 17.1795 25.2382 17.088L26.982 15.4534C27.0671 15.3796 27.1469 15.3163 27.2 15.2794L27.2957 15.2267H27.3383M38.8541 11.0083C40.0876 10.6023 41.3423 10.2543 42.6183 9.95375C42.8108 9.90365 43.0097 9.88232 43.2085 9.89047C43.3652 9.89595 43.5191 9.93365 43.6604 10.0012C43.778 10.0574 43.8706 10.1546 43.9206 10.2742C43.9706 10.3938 43.9745 10.5275 43.9315 10.6498C43.6657 11.6358 43.3999 12.6008 43.1287 13.5341C43.0736 13.7065 42.981 13.8649 42.8576 13.9981C42.7167 14.1578 42.5517 14.2947 42.3685 14.4041C42.1712 14.5304 41.9586 14.6314 41.7358 14.7047C41.5873 14.7513 41.4365 14.7901 41.2839 14.8207C41.2041 14.8207 41.1244 14.8207 41.0393 14.8523C39.6623 14.9841 38.3012 15.1687 36.9667 15.427C36.7922 15.4643 36.6131 15.4767 36.4351 15.464C36.3268 15.4246 36.2301 15.3594 36.1533 15.2741C36.1128 15.2499 36.0785 15.2169 36.0527 15.1777C36.0269 15.1384 36.0104 15.0939 36.0044 15.0474C35.9914 14.9288 36.0155 14.8091 36.0735 14.7047C36.451 13.9506 36.8179 13.1228 37.1847 12.3107C37.2524 12.1675 37.3401 12.0343 37.4452 11.9153C37.5697 11.7718 37.7067 11.6394 37.8546 11.5198C38.0222 11.3914 38.2 11.2768 38.3863 11.1771C38.5347 11.0885 38.6914 11.0143 38.8541 10.9556L38.9233 10.9292M35.2973 12.374C35.3928 12.3469 35.4942 12.3469 35.5897 12.374C35.6247 12.3883 35.6554 12.4113 35.6787 12.4409C35.702 12.4705 35.7172 12.5056 35.7226 12.5428C35.729 12.6508 35.7051 12.7585 35.6535 12.8539C35.2707 13.6606 34.8773 14.4357 34.4838 15.1581C34.4063 15.2988 34.3097 15.4283 34.1967 15.543C34.059 15.6783 33.9115 15.8034 33.7555 15.9174C33.5864 16.0357 33.4086 16.1415 33.2238 16.2338C33.1071 16.2993 32.9863 16.3574 32.8623 16.4078L32.6974 16.4658C31.6873 16.8138 30.6877 17.2146 29.7148 17.6575C29.5953 17.7188 29.4685 17.7649 29.3373 17.7946C29.2688 17.8205 29.1931 17.8205 29.1247 17.7946C29.0768 17.7946 29.0662 17.7208 29.0821 17.6522C29.1137 17.5516 29.1683 17.4596 29.2416 17.3833C29.6847 16.7435 30.126 16.0633 30.5655 15.3427C30.6458 15.219 30.7346 15.101 30.8313 14.9894C30.9437 14.8521 31.0663 14.7234 31.1981 14.6045C31.3319 14.4779 31.472 14.3582 31.6182 14.2459C31.7385 14.148 31.8665 14.0599 32.001 13.9823L32.0488 13.9506C32.9792 13.4233 33.9203 12.9435 34.8826 12.5006L35.0155 12.4426C35.1109 12.4091 35.2086 12.3826 35.3079 12.3635M29.4596 15.6643C29.5021 15.6643 29.5181 15.7223 29.5075 15.7856C29.4841 15.8746 29.4445 15.9586 29.3905 16.0334C28.9439 16.74 28.4867 17.3991 28.0347 18.0266C27.9453 18.1489 27.8457 18.2635 27.737 18.3693C27.612 18.4953 27.4807 18.615 27.3436 18.7279C27.2053 18.8439 27.0565 18.9599 26.9129 19.0601C26.8157 19.1323 26.7145 19.1992 26.6099 19.2605L26.4982 19.329C25.7273 19.7667 24.9564 20.2254 24.1908 20.6947C24.1013 20.7517 24.007 20.8011 23.909 20.8423C23.8399 20.8687 23.792 20.874 23.7761 20.8423C23.7601 20.8107 23.7761 20.7896 23.7761 20.7369C23.8352 20.6655 23.9031 20.6018 23.9781 20.547C24.4602 19.9881 24.944 19.3923 25.4296 18.7595C25.5146 18.6496 25.6051 18.544 25.7007 18.4432C25.8017 18.3271 25.9187 18.2059 26.0357 18.0899C26.1526 17.9739 26.2802 17.8526 26.4025 17.7471C26.5248 17.6417 26.6152 17.5626 26.7162 17.4888L26.7587 17.4571C27.4889 16.9122 28.2261 16.385 28.9705 15.8752C29.0714 15.8079 29.1781 15.7497 29.2895 15.7012C29.3469 15.6858 29.4075 15.6858 29.4649 15.7012M47.919 8.86225L48.0466 8.83589C49.7054 8.57752 51.3802 8.3666 53.0868 8.19259C53.3554 8.1635 53.6264 8.1635 53.895 8.19259C54.1187 8.21532 54.3375 8.27224 54.5436 8.36132C54.7078 8.42317 54.8527 8.52684 54.9636 8.66188C55.0093 8.71833 55.0428 8.78351 55.062 8.85336C55.0813 8.92322 55.0858 8.99624 55.0753 9.0679C54.9264 10.1225 54.8041 11.1771 54.7031 12.3213C54.6786 12.5326 54.5999 12.7341 54.4745 12.9066C54.3277 13.1102 54.1481 13.2883 53.9428 13.4339C53.7151 13.6031 53.4645 13.7398 53.1985 13.8399C53.027 13.9112 52.8489 13.966 52.6668 14.0034L52.3212 14.0508C50.5402 14.2195 48.7325 14.3092 46.9195 14.3883C46.6693 14.4044 46.4181 14.3813 46.1752 14.3197C45.9833 14.2723 45.8027 14.1881 45.6435 14.0719C45.5056 13.9788 45.3968 13.8491 45.3298 13.6975C45.2683 13.5486 45.2571 13.384 45.2979 13.2282C45.5319 12.2369 45.7676 11.228 46.005 10.2016C46.0514 10.0353 46.1329 9.88066 46.2443 9.7481C46.3769 9.5904 46.5329 9.45351 46.7068 9.34209C46.8971 9.2155 47.1025 9.11278 47.3183 9.03626L47.3821 9.0099C47.5552 8.94715 47.7329 8.89779 47.9137 8.86225M22.7659 18.517C22.7659 18.517 22.7659 18.517 22.7659 18.575C22.7308 18.6354 22.6917 18.6935 22.649 18.749C22.2768 19.2446 21.9099 19.7139 21.5325 20.1621L21.3092 20.41C21.2294 20.4996 21.139 20.5945 21.0486 20.6789L20.7669 20.9478C20.6878 21.0229 20.6043 21.0933 20.517 21.1587C20.0651 21.5331 19.6025 21.8969 19.1347 22.2133L18.9911 22.3082C18.9539 22.3082 18.9326 22.3082 18.9326 22.3082C18.9326 22.3082 18.9326 22.2766 18.9752 22.2449L19.124 22.0973C19.5228 21.7176 19.9215 21.3116 20.3149 20.8845C20.3734 20.816 20.4479 20.7474 20.5223 20.6631L20.7669 20.41L21.0167 20.1569C21.1018 20.0778 21.1763 20.0039 21.2507 19.9407C21.6866 19.5241 22.1226 19.097 22.5586 18.6646L22.6064 18.6172C22.6543 18.5697 22.6915 18.5275 22.7234 18.5012C22.7436 18.4829 22.767 18.4686 22.7925 18.459M23.5847 18.6488C23.5847 18.6488 23.5847 18.6804 23.5847 18.7226C23.5287 18.8092 23.4646 18.8904 23.3933 18.9652C22.9733 19.5188 22.5479 20.0198 22.1226 20.547C22.0535 20.6261 21.9631 20.7211 21.8674 20.816C21.7717 20.9109 21.6654 21.0111 21.559 21.1113C21.4527 21.2114 21.3411 21.3063 21.24 21.3907L20.9636 21.6069C20.4319 21.9971 19.9003 22.3768 19.3686 22.7353L19.1772 22.8513C19.1347 22.8513 19.1081 22.883 19.1028 22.8513C19.0974 22.8197 19.1028 22.8144 19.1559 22.7775C19.2068 22.7191 19.2619 22.6645 19.3207 22.614C19.778 22.2027 20.2299 21.7598 20.6765 21.2853L20.9157 21.0374L21.1975 20.7632L21.4846 20.489L21.7451 20.257C22.2626 19.8141 22.773 19.3606 23.2763 18.8966C23.3328 18.8415 23.3933 18.7904 23.4571 18.7437L23.5315 18.6963M4.60423 26.6425C4.67308 26.6341 4.74272 26.6341 4.81158 26.6425L5.21032 26.7111C6.1511 26.8833 7.1038 26.9838 8.06005 27.0117H8.5226H9.00642H9.46365H9.67632H9.8305C10.4856 27.0514 11.1426 27.0514 11.7977 27.0117C11.8738 27.0069 11.9502 27.0069 12.0263 27.0117C12.0688 27.0117 12.0848 27.0117 12.0688 27.0117C12.0293 27.0414 11.9841 27.063 11.9359 27.0749C11.8561 27.0749 11.7551 27.1277 11.6222 27.154C10.7469 27.3373 9.85772 27.4484 8.96389 27.4862C8.8097 27.4862 8.64489 27.4862 8.46412 27.4862L7.93245 27.4546C7.75169 27.4546 7.57624 27.4229 7.40079 27.3966L7.2147 27.3649L6.97546 27.4018C6.25617 27.2332 5.54631 27.0273 4.84879 26.7849C4.76905 26.7601 4.69236 26.7265 4.62018 26.6847C4.59359 26.6847 4.58296 26.6584 4.62018 26.6531M24.6587 19.1234C24.6587 19.1234 24.6587 19.1655 24.6587 19.2183C24.617 19.2955 24.5671 19.3679 24.5098 19.4345C24.0207 20.0461 23.528 20.6226 23.0318 21.164C22.9467 21.2536 22.8457 21.3538 22.734 21.4593C22.6224 21.5647 22.4895 21.6702 22.3619 21.7704C22.2343 21.8706 22.1067 21.976 21.9791 22.0657L21.7185 22.2397L21.6228 22.2977C20.9848 22.6931 20.3415 23.0781 19.6876 23.4419C19.6136 23.4881 19.5353 23.5269 19.4537 23.5579C19.4005 23.5579 19.3739 23.5579 19.3633 23.5579C19.3725 23.5225 19.393 23.4911 19.4218 23.4682C19.4842 23.4052 19.5499 23.3454 19.6185 23.289C20.1501 22.8355 20.6818 22.3504 21.2135 21.8231C21.2932 21.7387 21.3889 21.6491 21.4899 21.5542C21.5909 21.4593 21.7026 21.3538 21.8142 21.2589L22.1598 20.9636L22.4469 20.7316C23.0637 20.2676 23.6786 19.7983 24.2918 19.3237C24.37 19.2645 24.4516 19.2099 24.5364 19.1603L24.6002 19.1286C24.6207 19.1209 24.6434 19.1209 24.664 19.1286M6.61392 26.4053C6.67038 26.3977 6.7276 26.3977 6.78406 26.4053L7.10837 26.4316C7.89775 26.513 8.69227 26.5342 9.48492 26.4949H9.87303H10.2824H10.6705H10.9151H10.9895C11.5522 26.4748 12.1132 26.422 12.6696 26.3367C12.7344 26.3232 12.8002 26.3143 12.8663 26.3104C12.9035 26.3104 12.9195 26.3104 12.9035 26.3104C12.8726 26.3357 12.8362 26.3537 12.7972 26.3631C12.7101 26.3958 12.6214 26.4239 12.5314 26.4474C11.8012 26.6475 11.0564 26.7903 10.3037 26.8746C10.1761 26.8746 10.0325 26.8746 9.88898 26.9062C9.74543 26.9378 9.58593 26.9062 9.43175 26.9062H8.99579H8.76717H8.64489C8.02954 26.8289 7.41897 26.718 6.81596 26.574L6.61924 26.5213C6.61924 26.5213 6.58734 26.5213 6.61924 26.4949M20.2033 21.6016C20.2033 21.6016 20.2033 21.6016 20.1661 21.6702C20.1182 21.7279 20.0667 21.7825 20.0119 21.8336C19.56 22.2871 19.0974 22.7089 18.6349 23.0991L18.3691 23.3101L18.0554 23.5368C17.949 23.6053 17.8427 23.6792 17.7417 23.7372L17.4812 23.8901C16.992 24.159 16.487 24.4174 15.9819 24.6283C15.9238 24.6565 15.8633 24.6795 15.8011 24.6968C15.7639 24.6968 15.7533 24.6968 15.7533 24.6968C15.7743 24.6732 15.7995 24.6535 15.8277 24.6388L16.0191 24.5176C16.5282 24.2146 17.0199 23.8836 17.4918 23.5263L17.747 23.3417L18.0341 23.1361L18.3159 22.9304C18.4063 22.8671 18.4913 22.8039 18.5658 22.7617C19.0443 22.44 19.5068 22.0973 19.9694 21.744L20.1289 21.628H20.1767M32.0701 17.5415C32.2144 17.4941 32.3648 17.4675 32.5167 17.4624C32.6193 17.4585 32.7209 17.4841 32.8091 17.5362C32.8439 17.5603 32.8719 17.5928 32.8905 17.6307C32.9091 17.6685 32.9177 17.7104 32.9154 17.7524C32.9077 17.8668 32.8671 17.9765 32.7985 18.0688C32.2668 18.8914 31.7351 19.6507 31.2035 20.3361C31.0933 20.4693 30.9665 20.5881 30.826 20.6894C30.6586 20.8089 30.4807 20.913 30.2943 21.0005C30.1045 21.1 29.9072 21.1846 29.7042 21.2536C29.6138 21.2873 29.5215 21.3154 29.4277 21.338C29.3298 21.3675 29.2304 21.3922 29.13 21.4118C28.0628 21.616 27.0097 21.8872 25.9772 22.2238C25.8529 22.2662 25.7247 22.2963 25.5944 22.3135C25.4987 22.3135 25.4349 22.3135 25.403 22.2713C25.3711 22.2291 25.3711 22.1922 25.403 22.1237C25.4538 22.0289 25.5203 21.9434 25.5997 21.8706C26.181 21.2694 26.7641 20.6191 27.3489 19.9196C27.4515 19.7986 27.5616 19.6842 27.6785 19.5768C27.8061 19.4608 27.9497 19.3396 28.0985 19.2288C28.2521 19.1132 28.4119 19.0059 28.577 18.9072C28.6763 18.8432 28.7793 18.7851 28.8854 18.7332L29.0449 18.6593C29.433 18.4906 29.8158 18.3377 30.2093 18.1848C30.8207 17.9475 31.4427 17.7366 32.0701 17.5415ZM20.6021 22.1289C20.6021 22.1289 20.602 22.1658 20.5595 22.208C20.517 22.2502 20.4691 22.3135 20.3894 22.3926C19.8577 22.9199 19.3261 23.3575 18.7944 23.7794C18.6987 23.8532 18.5977 23.9323 18.4807 24.0114C18.3637 24.0905 18.2415 24.1695 18.1192 24.2486L17.747 24.4648L17.4918 24.5914L17.4227 24.6283C16.8538 24.8972 16.269 25.1556 15.6788 25.356C15.6113 25.3818 15.542 25.403 15.4715 25.4192C15.4289 25.4192 15.413 25.4192 15.4183 25.4192C15.4414 25.3907 15.4704 25.3673 15.5034 25.3507L15.7267 25.2241C16.3156 24.9055 16.8854 24.5534 17.4333 24.1695L17.7257 23.9692L18.0766 23.7108L18.4063 23.4946L18.6615 23.3364H18.6987C19.2304 22.999 19.7939 22.6457 20.3362 22.2818C20.403 22.2343 20.4722 22.1903 20.5436 22.15H20.5861C20.5861 22.15 20.6233 22.15 20.6286 22.15M26.1207 20.0725C26.148 20.059 26.178 20.052 26.2085 20.052C26.2389 20.052 26.2689 20.059 26.2962 20.0725C26.2962 20.0725 26.3334 20.1358 26.2962 20.2043C26.2517 20.2945 26.1944 20.378 26.1261 20.4521C25.5359 21.1323 24.9404 21.7598 24.3503 22.3398C24.2359 22.4523 24.1133 22.5563 23.9834 22.6509C23.8452 22.7564 23.6857 22.8619 23.5262 22.962C23.3667 23.0622 23.1966 23.1624 23.0424 23.2415L22.8031 23.3628L22.5905 23.4577C21.7823 23.7899 20.9955 24.1379 20.1661 24.4806C20.0745 24.5247 19.9782 24.5583 19.879 24.5808C19.8152 24.5808 19.778 24.5808 19.7673 24.5808C19.7567 24.5808 19.7673 24.5228 19.8311 24.4754C19.9031 24.4024 19.9795 24.3337 20.0597 24.2697C20.6836 23.7846 21.3074 23.2573 21.9312 22.6879C22.0216 22.5982 22.1386 22.5033 22.2608 22.3978L22.6543 22.0867L23.069 21.7862L23.3348 21.6122L23.4518 21.5436C24.228 21.0954 25.0042 20.6525 25.7858 20.2359C25.8592 20.1937 25.9356 20.1567 26.0144 20.1252H26.1101M36.2118 16.6187C36.2904 16.5978 36.3703 16.582 36.451 16.5713C37.8308 16.3661 39.2203 16.2306 40.6139 16.1653C40.8325 16.1511 41.0519 16.1743 41.2626 16.2338C41.4417 16.2749 41.609 16.3561 41.7517 16.4711C41.8696 16.5668 41.9563 16.695 42.0007 16.8395C42.0452 16.9841 42.0455 17.1384 42.0016 17.2831C41.6188 18.4256 41.2289 19.4942 40.8319 20.489C40.7538 20.6691 40.6313 20.8269 40.4757 20.9478C40.2956 21.0871 40.0922 21.1942 39.8749 21.2642C39.6304 21.3441 39.3768 21.3937 39.12 21.4118C39.0136 21.4118 38.902 21.4118 38.7957 21.4118C38.6354 21.4082 38.4755 21.3941 38.3172 21.3696C36.816 21.1222 35.2983 20.9865 33.7767 20.9636C33.5849 20.9656 33.3936 20.9425 33.2078 20.8951C33.0801 20.8628 32.9618 20.8014 32.8623 20.7158C32.8251 20.6806 32.7959 20.6379 32.7766 20.5906C32.7574 20.5434 32.7485 20.4925 32.7506 20.4416C32.7607 20.3161 32.8089 20.1966 32.8888 20.0989C33.4099 19.3712 33.9274 18.575 34.4413 17.7102C34.5317 17.5682 34.6407 17.4387 34.7656 17.3253C35.1734 16.9544 35.669 16.6914 36.2064 16.5607M11.8296 26.1943C11.888 26.1943 11.9731 26.1522 12.0794 26.1311C12.7113 25.9782 13.3314 25.7808 13.935 25.5405L14.2486 25.4192L14.5836 25.2874L14.9132 25.1556L15.1737 25.0554C15.7054 24.8603 16.1999 24.6388 16.6996 24.3963C16.76 24.3663 16.8222 24.3399 16.8857 24.3172C16.9229 24.3172 16.9442 24.3172 16.9442 24.3172C16.9442 24.3172 16.9176 24.3541 16.8751 24.391C16.8122 24.4388 16.7465 24.4828 16.6784 24.5228C16.1218 24.8822 15.5429 25.2062 14.9451 25.4931C14.8441 25.5405 14.7271 25.5932 14.6049 25.6407L14.238 25.7831L13.8712 25.8991L13.6319 25.9623H13.5628C13.0176 26.0861 12.4655 26.1777 11.9093 26.2365C11.8474 26.2426 11.7851 26.2426 11.7232 26.2365C11.6913 26.2365 11.6807 26.2365 11.6966 26.2365H11.7232H11.8083M21.1869 22.9304C21.1869 22.9304 21.1869 22.9831 21.1444 23.0306C21.0829 23.1046 21.0153 23.1734 20.9423 23.2362C20.3114 23.7952 19.6787 24.3031 19.0443 24.7601C18.9379 24.8339 18.8103 24.9183 18.6721 25.0027L18.2415 25.2505C18.0873 25.3243 17.9384 25.4034 17.7949 25.4667L17.5716 25.5616L17.4067 25.6301C16.7209 25.878 16.0297 26.1047 15.3173 26.3051C15.2386 26.3272 15.1587 26.3448 15.078 26.3578C15.0302 26.3578 15.0089 26.3578 15.0142 26.3578C15.0196 26.3578 15.0568 26.3156 15.1206 26.2787C15.2152 26.2071 15.3147 26.1419 15.4183 26.0836C16.1134 25.7483 16.7864 25.3696 17.4333 24.9499L17.7789 24.7285L18.1617 24.5017L18.5498 24.275L18.7997 24.1432L18.8954 24.0905C19.56 23.753 20.2139 23.3944 20.8626 23.0359C20.9454 22.9894 21.0306 22.9472 21.1178 22.9093C21.1763 22.9093 21.2135 22.883 21.2241 22.9093M10.846 26.8746L11.149 26.8166C11.89 26.6966 12.6205 26.5203 13.3342 26.2893L13.6957 26.168L14.0945 26.0414L14.4773 25.9149L14.7165 25.8358L14.8016 25.8094C15.4056 25.6303 16.0001 25.4209 16.5827 25.1819C16.6536 25.1527 16.7264 25.128 16.8006 25.1081C16.8485 25.1081 16.8698 25.1081 16.8698 25.1081C16.8504 25.1422 16.8231 25.1712 16.79 25.1925L16.5561 25.3349C15.8977 25.7335 15.2119 26.0859 14.5038 26.3894C14.3922 26.4369 14.2593 26.4896 14.1157 26.5371C13.9722 26.5845 13.8286 26.632 13.6744 26.6742C13.5203 26.7164 13.382 26.7533 13.2438 26.7796L13.0258 26.8218H12.8769C12.2391 26.9109 11.5964 26.962 10.9523 26.9747C10.8816 26.9809 10.8104 26.9809 10.7396 26.9747C10.6971 26.9747 10.6918 26.9747 10.7131 26.9747L10.846 26.8746ZM9.59657 27.7024C9.68163 27.7024 9.80392 27.6708 9.94747 27.6602C10.8336 27.5652 11.7103 27.3977 12.5686 27.1593L12.9992 27.0486L13.4671 26.922L13.9243 26.8113L14.137 26.7586L14.3071 26.7216C15.0302 26.5687 15.7373 26.3789 16.4338 26.1943C16.5184 26.1637 16.6055 26.1408 16.6943 26.1258C16.7528 26.1258 16.7794 26.1258 16.7794 26.1258C16.7794 26.1258 16.7475 26.1785 16.689 26.226L16.4072 26.3894C15.6162 26.7977 14.7972 27.1501 13.9562 27.444C13.818 27.4915 13.6638 27.5442 13.4884 27.5917C13.3129 27.6391 13.1428 27.6813 12.9567 27.7182C12.7706 27.7551 12.6058 27.7815 12.425 27.8026H12.2496C12.161 27.8072 12.0723 27.8072 11.9837 27.8026C11.2201 27.841 10.4548 27.8322 9.69227 27.7762C9.60798 27.7719 9.5243 27.7595 9.44238 27.7393C9.39454 27.7393 9.3839 27.7077 9.40517 27.6919H9.43175L9.5753 27.6602M21.9737 24.1115C22.0535 24.1115 22.1013 24.1115 22.1173 24.1115C22.1332 24.1115 22.1173 24.1801 22.0801 24.2434C22.0058 24.3263 21.924 24.4022 21.8355 24.4701C21.054 25.0765 20.2831 25.6091 19.5281 26.0889C19.3952 26.168 19.241 26.2524 19.0709 26.3367C18.9007 26.4211 18.72 26.5002 18.5392 26.5793C18.3584 26.6584 18.1723 26.7216 18.0075 26.7744L17.848 26.8271C17.7432 26.8607 17.6368 26.8888 17.529 26.9115C16.6943 27.1066 15.8436 27.2911 14.9717 27.4388C14.8755 27.4589 14.7776 27.4695 14.6793 27.4704C14.6155 27.4704 14.5889 27.4704 14.5942 27.4335C14.6281 27.394 14.6697 27.3617 14.7165 27.3386C14.7909 27.3017 14.8973 27.2489 15.0355 27.1909C15.8632 26.8392 16.6676 26.4359 17.444 25.9834L17.8587 25.7567L18.3265 25.5194L18.7944 25.2927L19.0124 25.1978L19.2144 25.1187L20.5329 24.5914L21.6654 24.2381C21.7715 24.1948 21.882 24.163 21.995 24.1432M25.068 23.0886C26.1145 22.7758 27.18 22.5292 28.258 22.3504C28.4114 22.3276 28.5673 22.3276 28.7206 22.3504C28.822 22.3601 28.9173 22.4027 28.9917 22.4717C29.0215 22.5005 29.0423 22.5372 29.0517 22.5773C29.0611 22.6175 29.0588 22.6595 29.0449 22.6984C29.0067 22.8138 28.9389 22.9174 28.8482 22.999C28.1437 23.6941 27.3999 24.349 26.6205 24.9605C26.4729 25.0737 26.3123 25.1693 26.142 25.2452C25.9432 25.3365 25.739 25.4157 25.5306 25.4825C25.3179 25.5511 25.0946 25.6038 24.8766 25.6512L24.7225 25.6829C24.563 25.6829 24.4088 25.7303 24.2652 25.7409C23.1774 25.838 22.0963 25.9982 21.0274 26.2207C20.905 26.2465 20.7803 26.2606 20.6552 26.2629C20.5701 26.2629 20.517 26.2629 20.501 26.2102C20.4851 26.1574 20.501 26.1311 20.5648 26.0678C20.6497 25.9854 20.7423 25.9113 20.8413 25.8463C21.5909 25.3454 22.3565 24.7918 23.1275 24.159C23.2604 24.0518 23.3988 23.9515 23.5422 23.8584C23.6963 23.7583 23.8665 23.6581 24.0419 23.5579C24.2174 23.4577 24.3928 23.3733 24.5736 23.2942L24.8022 23.1993C24.8926 23.1624 24.9777 23.1361 25.0627 23.1097M45.7977 16.1863C45.9479 16.1476 46.1007 16.1194 46.2549 16.102C46.3735 16.0939 46.4925 16.0939 46.6111 16.102C48.4773 16.102 50.3328 16.102 52.1564 16.0071C52.4492 15.9851 52.7436 16.0101 53.0283 16.0809C53.2812 16.1356 53.5212 16.2376 53.7355 16.3814C53.933 16.5176 54.0952 16.6983 54.2086 16.9087C54.3225 17.1207 54.3759 17.3596 54.3628 17.5995C54.2831 19.3396 54.2246 21.106 54.1714 22.8724C54.1624 23.1725 54.0842 23.4665 53.9428 23.7319C53.7977 23.9907 53.596 24.2141 53.3527 24.3857C53.0003 24.6251 52.5835 24.7537 52.1564 24.7548C51.9223 24.76 51.6884 24.737 51.4599 24.6863C49.3864 24.217 47.2066 23.5948 45.0799 23.0095C44.7756 22.9307 44.4839 22.81 44.2133 22.6509C43.9764 22.4891 43.768 22.2895 43.5966 22.0604C43.4465 21.8975 43.3324 21.7054 43.2616 21.4962C43.206 21.305 43.206 21.1021 43.2616 20.9109C43.6161 19.8036 43.9528 18.6242 44.2718 17.3727C44.3259 17.1765 44.4261 16.9958 44.5642 16.8455C44.7181 16.6781 44.8975 16.5357 45.0959 16.4236C45.2223 16.3527 45.3538 16.291 45.4893 16.2391L45.7977 16.1389M31.5969 22.2924C31.8136 22.22 32.0358 22.1654 32.2615 22.1289C32.3493 22.1118 32.4381 22.0995 32.5273 22.092C32.667 22.079 32.8076 22.079 32.9473 22.092C34.5064 22.1703 36.0558 22.382 37.5781 22.7248C37.8337 22.7731 38.0797 22.8621 38.3065 22.9884C38.5102 23.0927 38.6909 23.2361 38.8382 23.4102C38.9683 23.5602 39.0547 23.7425 39.0881 23.9375C39.1241 24.1177 39.0939 24.3048 39.003 24.4648C38.4439 25.4894 37.8058 26.4696 37.0943 27.3966C36.9567 27.5578 36.7702 27.6706 36.5627 27.7182C36.3132 27.7944 36.0526 27.8283 35.7917 27.8184C35.4889 27.8074 35.188 27.7668 34.8932 27.6971L34.7337 27.6602C34.4762 27.5941 34.2239 27.5095 33.9788 27.4071C32.4063 26.7451 30.7638 26.2604 29.0821 25.9623C28.8832 25.933 28.6886 25.8799 28.5026 25.8042C28.3795 25.7603 28.271 25.6837 28.1889 25.5827C28.1602 25.5458 28.1413 25.5023 28.1339 25.4562C28.1264 25.4102 28.1307 25.363 28.1464 25.319C28.1935 25.1986 28.2747 25.0942 28.3803 25.0185C29.1573 24.3781 29.8924 23.6895 30.5814 22.9568C30.7085 22.828 30.8536 22.7179 31.0121 22.6299C31.1824 22.5289 31.3601 22.4408 31.5437 22.3662H31.5809M43.0649 24.1854C44.2099 24.4285 45.3335 24.7617 46.4251 25.1819C48.4188 25.9043 50.3807 26.3525 52.3159 27.676C52.6362 27.9041 52.9226 28.1757 53.1666 28.4828C53.4132 28.794 53.6104 29.1407 53.7514 29.511C53.8857 29.8627 53.9489 30.2372 53.9375 30.6131C53.8471 33.1757 53.7248 35.5907 53.5547 37.8106C53.5456 38.152 53.4179 38.4799 53.1932 38.7386C53.0831 38.8484 52.9509 38.9338 52.8052 38.9892C52.6595 39.0446 52.5036 39.0689 52.3478 39.0603C51.9345 39.0435 51.5298 38.9373 51.1622 38.7492L51.0559 38.6964C50.6024 38.4623 50.1763 38.1794 49.7852 37.8528C47.1269 35.6909 44.426 33.5712 41.8102 31.7573C41.4486 31.5146 41.1104 31.2392 40.8 30.9347C40.5447 30.6903 40.3181 30.4179 40.1248 30.1227C39.9734 29.902 39.8701 29.6523 39.8218 29.3897C39.7852 29.1832 39.8229 28.9705 39.9281 28.7886C40.5881 27.6946 41.1708 26.5564 41.672 25.3823C41.801 24.9057 42.1092 24.4963 42.5333 24.2381C42.7011 24.1678 42.8864 24.1494 43.0649 24.1854Z" fill="#1782C5"/>
<path d="M91.6325 26.8076H76.6342L72.7318 37.6013H67.5215L81.5787 0.527344H87.3101L100.846 37.6118H95.3276L91.6325 26.8076ZM78.1973 22.3625H89.8089L84.2902 6.04282H84.1839L78.1973 22.3625ZM107.439 37.6013H102.856V10.5881H107.439V37.6013ZM107.439 5.68426H102.856V0.527344H107.439V5.68426ZM117.339 21.8985V37.6013H112.756V10.5881H117.078V15.0806H117.184C119.003 11.9169 121.4 9.80769 124.835 9.80769C125.242 9.79388 125.648 9.84734 126.037 9.96588V14.6641H124.314C120.061 14.6641 117.339 17.9702 117.339 21.8932M132.821 4.80368V16.2196H141.955C146.798 16.2196 149.765 14.7748 149.765 10.2295C149.765 6.77048 147.638 4.80368 142.008 4.80368H132.821ZM127.77 37.6013V0.527344H144.225C151.206 0.527344 154.794 4.81423 154.794 9.87624C154.845 11.5163 154.395 13.1333 153.503 14.5154C152.611 15.8975 151.319 16.9804 149.797 17.6222C152.242 18.6029 156.565 20.3114 156.565 26.66C156.565 32.6025 152.141 37.6118 143.863 37.6118L127.77 37.6013ZM132.821 20.3008V33.3144H143.603C148.861 33.3144 151.514 30.6779 151.514 26.5492C151.514 21.329 146.883 20.3008 142.768 20.3008H132.821ZM164.55 37.6013H159.968V10.5881H164.55V37.6013ZM164.55 5.68426H159.968V0.527344H164.55V5.68426ZM167.693 24.0709C167.693 17.0949 171.654 9.83405 180.346 9.83405C189.039 9.83405 193 17.116 193 24.0709C193 31.0259 189.044 38.3078 180.346 38.3078C171.648 38.3078 167.693 31.0259 167.693 24.0709ZM172.435 24.0709C172.435 27.6829 173.786 34.3953 180.346 34.3953C186.907 34.3953 188.263 27.6829 188.263 24.0709C188.263 20.459 186.907 13.7413 180.346 13.7413C173.786 13.7413 172.435 20.4537 172.435 24.0709Z" fill="#1782C5"/>
<path d="M91.0585 50.093H89.32V51.2794H90.8724V52.0018H89.32V53.1829H91.0745V53.9211H88.4746V49.3758H91.0745L91.0585 50.093ZM95.8435 49.36H96.6782V53.9211H95.6999L93.5201 50.5148V53.9211H92.696V49.3758H93.6265L95.8116 52.7558L95.8435 49.36ZM100.543 53.9844C100.234 53.9988 99.9259 53.9489 99.6376 53.8377C99.3494 53.7265 99.0878 53.5566 98.8699 53.339C98.6519 53.1214 98.4824 52.8608 98.3723 52.5741C98.2622 52.2875 98.214 51.9811 98.2307 51.6748C98.2109 51.3645 98.2573 51.0536 98.3668 50.7622C98.4763 50.4708 98.6464 50.2056 98.8661 49.9838C99.0857 49.7619 99.35 49.5884 99.6418 49.4746C99.9335 49.3608 100.246 49.3092 100.559 49.3231C100.957 49.3039 101.353 49.3918 101.705 49.5775C102.057 49.7631 102.352 50.0396 102.558 50.3777L101.825 50.7626C101.707 50.5336 101.524 50.3432 101.3 50.2142C101.076 50.0851 100.818 50.0229 100.559 50.035C100.353 50.0296 100.148 50.0677 99.9573 50.1467C99.7669 50.2257 99.5954 50.3438 99.4543 50.4932C99.3131 50.6427 99.2055 50.8201 99.1385 51.0137C99.0715 51.2074 99.0466 51.4129 99.0654 51.6168C99.0408 51.8273 99.0622 52.0406 99.1284 52.2421C99.1946 52.4435 99.3038 52.6285 99.4487 52.7842C99.5936 52.9399 99.7707 53.0628 99.9679 53.1443C100.165 53.2259 100.378 53.2642 100.591 53.2567C100.909 53.2819 101.224 53.1872 101.475 52.9917C101.725 52.7962 101.892 52.5143 101.942 52.2021H100.591V51.5061H102.718V53.9369H102.08V53.2567C101.91 53.5062 101.676 53.7064 101.402 53.837C101.129 53.9677 100.825 54.024 100.522 54.0002L100.543 53.9844ZM104.441 49.36H105.27V53.9211H104.419L104.441 49.36ZM110.289 49.36H111.118V53.9211H110.172L107.992 50.5148V53.9211H107.168V49.3758H108.098L110.289 52.7558V49.36ZM115.606 50.093H113.851V51.2794H115.372V52.0018H113.83V53.1829H115.584V53.9211H112.984V49.3758H115.584L115.606 50.093ZM119.859 50.093H118.11V51.2794H119.625V52.0018H118.078V53.1829H119.827V53.9211H117.232V49.3758H119.827L119.859 50.093ZM123.953 53.9211L122.767 51.8963H122.347V53.9211H121.507V49.3758H123.129C123.316 49.3523 123.506 49.37 123.686 49.4276C123.866 49.4852 124.03 49.5813 124.168 49.7092C124.306 49.837 124.414 49.9934 124.485 50.1672C124.555 50.3411 124.586 50.5282 124.575 50.7152C124.587 50.9948 124.492 51.2686 124.308 51.4811C124.125 51.6936 123.866 51.8289 123.586 51.8594L124.936 53.9369L123.953 53.9211ZM122.358 50.0561V51.253H123.012C123.543 51.253 123.788 51.0157 123.788 50.6677C123.788 50.3197 123.517 50.093 122.969 50.093L122.358 50.0561ZM126.366 49.36H127.196V53.9211H126.324L126.366 49.36ZM132.215 49.36H133.044V53.9211H132.103L129.923 50.5148V53.9211H129.094V49.3758H130.03L132.215 52.7558V49.36ZM136.909 53.9844C136.6 53.9961 136.293 53.9434 136.006 53.8295C135.719 53.7157 135.459 53.5434 135.243 53.3236C135.028 53.1039 134.861 52.8417 134.754 52.554C134.648 52.2664 134.603 51.9596 134.623 51.6537C134.618 51.1481 134.779 50.6546 135.082 50.2476C135.384 49.8406 135.812 49.5423 136.301 49.3977C136.789 49.253 137.312 49.2699 137.79 49.4457C138.268 49.6216 138.676 49.9468 138.951 50.3724L138.217 50.7574C138.099 50.5283 137.917 50.3379 137.693 50.2089C137.468 50.0799 137.211 50.0176 136.952 50.0297C136.746 50.0244 136.54 50.0625 136.35 50.1414C136.159 50.2204 135.988 50.3385 135.847 50.488C135.706 50.6374 135.598 50.8148 135.531 51.0085C135.464 51.2021 135.439 51.4077 135.458 51.6116C135.435 51.8205 135.457 52.032 135.524 52.2315C135.591 52.431 135.7 52.614 135.844 52.7681C135.988 52.9221 136.164 53.0436 136.36 53.1243C136.556 53.2049 136.767 53.2429 136.978 53.2356C137.286 53.2495 137.587 53.1524 137.828 52.9623C138.069 52.7723 138.231 52.5022 138.286 52.2021H136.931V51.5061H139.057V53.9369H138.393V53.2567C138.225 53.5025 137.996 53.7005 137.727 53.8309C137.458 53.9614 137.16 54.0197 136.862 54.0002L136.909 53.9844ZM143.135 49.36H143.97V53.9211H143.135V49.36ZM148.983 49.36H149.813V53.9211H148.872L146.692 50.5148V53.9211H145.863V49.3758H146.74L148.925 52.7558L148.983 49.36ZM156.618 50.093H154.826V51.2741H156.379V52.0018H154.826V53.9211H153.986V49.3758H156.618V50.093ZM158.942 53.1829H160.436V53.9211H158.112V49.3758H158.968L158.942 53.1829ZM163.854 53.9844C163.385 53.9906 162.924 53.8579 162.531 53.603C162.138 53.3482 161.83 52.9829 161.648 52.5538C161.465 52.1248 161.416 51.6515 161.506 51.1944C161.596 50.7373 161.821 50.3173 162.153 49.9879C162.485 49.6586 162.909 49.435 163.37 49.3457C163.831 49.2564 164.308 49.3054 164.74 49.4865C165.173 49.6676 165.541 49.9726 165.798 50.3624C166.055 50.7522 166.189 51.2092 166.183 51.6748C166.202 51.9847 166.155 52.2951 166.045 52.5858C165.935 52.8766 165.765 53.1411 165.545 53.3624C165.326 53.5836 165.062 53.7566 164.77 53.8702C164.479 53.9837 164.167 54.0352 163.854 54.0213M163.854 53.2567C164.173 53.2757 164.49 53.1993 164.765 53.0375C165.039 52.8756 165.259 52.6357 165.394 52.3489C165.53 52.062 165.575 51.7414 165.525 51.4286C165.475 51.1157 165.331 50.8251 165.112 50.5942C164.893 50.3634 164.61 50.2031 164.298 50.1339C163.986 50.0648 163.661 50.0901 163.364 50.2065C163.067 50.3229 162.812 50.5251 162.632 50.7869C162.452 51.0487 162.355 51.358 162.355 51.6748C162.337 51.879 162.362 52.0847 162.43 52.2783C162.498 52.472 162.606 52.6493 162.747 52.7986C162.889 52.948 163.061 53.066 163.252 53.1449C163.442 53.2239 163.648 53.262 163.854 53.2567ZM168.533 53.958L167.294 49.3969H168.161L169.118 52.9509L170.181 49.3969H170.893L171.957 52.9509L172.924 49.3969H173.786L172.547 53.958H171.484L170.527 50.9155L169.57 53.958H168.533Z" fill="#1782C5"/>
</svg>
