<svg width="66" height="66" viewBox="0 0 66 66" fill="none" xmlns="http://www.w3.org/2000/svg">
<rect x="0.460859" y="0.460859" width="65.0783" height="65.0783" rx="14.2866" fill="white" stroke="#CDCDCD" stroke-width="0.921718"/>
<g clip-path="url(#clip0_1067_4343)">
<path d="M18.25 21.458V13.208C18.25 12.7313 18.305 12.273 18.4333 11.833H13.2083C11.4483 11.833 10 13.2813 10 15.0413V23.2913C10 25.0513 11.4483 26.4997 13.2083 26.4997H13.8867L16.2333 29.6164C16.49 29.9464 16.875 30.148 17.2783 30.1664H17.3333C17.7367 30.1664 18.1033 30.0014 18.36 29.6897L21.11 26.5547C19.405 25.4914 18.25 23.603 18.25 21.458Z" fill="black"/>
<path d="M50.7923 11.833H45.5673C45.6956 12.273 45.7506 12.7313 45.7506 13.208V21.458C45.7506 23.603 44.5956 25.4914 42.8906 26.5547L45.6406 29.6897C45.8973 30.0014 46.264 30.1664 46.6673 30.1664H46.7223C47.1256 30.148 47.5106 29.9464 47.7673 29.6164L50.0956 26.4997H50.7923C52.5523 26.4997 54.0006 25.0513 54.0006 23.2913V15.0413C54.0006 13.2813 52.5523 11.833 50.7923 11.833Z" fill="black"/>
<path d="M32 28.3333C31.9835 28.3333 31.9652 28.3333 31.9487 28.3333C31.5343 28.3168 31.1493 28.1152 30.9 27.7833L28.5625 24.6667H24.2083C22.4392 24.6667 21 23.2275 21 21.4583V13.2083C21 11.4392 22.4392 10 24.2083 10H39.7917C41.5608 10 43 11.4392 43 13.2083V21.4583C43 23.2275 41.5608 24.6667 39.7917 24.6667H35.8317L33.034 27.864C32.7737 28.1628 32.396 28.3333 32 28.3333Z" fill="black"/>
<path d="M17.3327 41.1663C19.3577 41.1663 20.9993 39.5247 20.9993 37.4997C20.9993 35.4746 19.3577 33.833 17.3327 33.833C15.3076 33.833 13.666 35.4746 13.666 37.4997C13.666 39.5247 15.3076 41.1663 17.3327 41.1663Z" fill="black"/>
<path d="M22.2283 43.7333C20.3767 45.1267 19.1667 47.3633 19.1667 49.875V50.3333H11.375C10.6233 50.3333 10 49.71 10 48.9583V48.0417C10 45.255 12.255 43 15.0417 43H19.625C20.5783 43 21.4767 43.275 22.2283 43.7333Z" fill="black"/>
<path d="M46.6667 41.1663C48.6917 41.1663 50.3333 39.5247 50.3333 37.4997C50.3333 35.4746 48.6917 33.833 46.6667 33.833C44.6416 33.833 43 35.4746 43 37.4997C43 39.5247 44.6416 41.1663 46.6667 41.1663Z" fill="black"/>
<path d="M53.9998 48.0417V48.9583C53.9998 49.71 53.3765 50.3333 52.6248 50.3333H44.8332V49.875C44.8332 47.3633 43.6232 45.1267 41.7715 43.7333C42.5232 43.275 43.4215 43 44.3748 43H48.9582C51.7448 43 53.9998 45.255 53.9998 48.0417Z" fill="black"/>
<path d="M32 42.083C35.0376 42.083 37.5 39.6206 37.5 36.583C37.5 33.5454 35.0376 31.083 32 31.083C28.9624 31.083 26.5 33.5454 26.5 36.583C26.5 39.6206 28.9624 42.083 32 42.083Z" fill="black"/>
<path d="M37.041 44.833H26.9577C24.1765 44.833 21.916 47.0935 21.916 49.8747V52.6247C21.916 53.3837 22.532 53.9997 23.291 53.9997H40.7077C41.4667 53.9997 42.0827 53.3837 42.0827 52.6247V49.8747C42.0827 47.0935 39.8222 44.833 37.041 44.833Z" fill="black"/>
</g>
<defs>
<clipPath id="clip0_1067_4343">
<rect width="44" height="44" fill="white" transform="translate(10 10)"/>
</clipPath>
</defs>
</svg>
