<svg width="20" height="20" viewBox="0 0 20 20" fill="none" xmlns="http://www.w3.org/2000/svg">
<path d="M20 3.75V11.25C19.9219 11.1003 19.8372 10.9408 19.7461 10.7715C19.6549 10.6022 19.554 10.4362 19.4434 10.2734C19.3327 10.1107 19.2188 9.94792 19.1016 9.78516C18.9844 9.6224 18.8672 9.48568 18.75 9.375V6.25L10 10.625L1.25 6.25V15H10.625L11.25 16.25H0V3.75H20ZM18.6035 5H1.39648L10 9.30664L18.6035 5ZM17.6562 15.498C18.0143 15.6868 18.3366 15.918 18.623 16.1914C18.9095 16.4648 19.1569 16.7708 19.3652 17.1094C19.5736 17.4479 19.7298 17.806 19.834 18.1836C19.9382 18.5612 19.9935 18.9583 20 19.375V20H18.75V19.375C18.75 18.9453 18.6686 18.5417 18.5059 18.1641C18.3431 17.7865 18.1185 17.4577 17.832 17.1777C17.5456 16.8978 17.2135 16.6732 16.8359 16.5039C16.4583 16.3346 16.0547 16.25 15.625 16.25C15.1953 16.25 14.7917 16.3314 14.4141 16.4941C14.0365 16.6569 13.7044 16.8815 13.418 17.168C13.1315 17.4544 12.9069 17.7865 12.7441 18.1641C12.5814 18.5417 12.5 18.9453 12.5 19.375V20H11.25V19.375C11.25 18.9648 11.3021 18.571 11.4062 18.1934C11.5104 17.8158 11.6667 17.4577 11.875 17.1191C12.0833 16.7806 12.3307 16.4746 12.6172 16.2012C12.9036 15.9277 13.2292 15.6934 13.5938 15.498C13.2422 15.1986 12.972 14.8438 12.7832 14.4336C12.5944 14.0234 12.5 13.5872 12.5 13.125C12.5 12.6953 12.5814 12.2917 12.7441 11.9141C12.9069 11.5365 13.1283 11.2077 13.4082 10.9277C13.6882 10.6478 14.0202 10.4232 14.4043 10.2539C14.7884 10.0846 15.1953 10 15.625 10C16.0547 10 16.4583 10.0814 16.8359 10.2441C17.2135 10.4069 17.5423 10.6315 17.8223 10.918C18.1022 11.2044 18.3268 11.5365 18.4961 11.9141C18.6654 12.2917 18.75 12.6953 18.75 13.125C18.75 13.5807 18.6556 14.0137 18.4668 14.4238C18.278 14.834 18.0078 15.1921 17.6562 15.498ZM13.75 13.125C13.75 13.3854 13.7988 13.6296 13.8965 13.8574C13.9941 14.0853 14.1276 14.2839 14.2969 14.4531C14.4661 14.6224 14.6647 14.7559 14.8926 14.8535C15.1204 14.9512 15.3646 15 15.625 15C15.8854 15 16.1296 14.9512 16.3574 14.8535C16.5853 14.7559 16.7839 14.6224 16.9531 14.4531C17.1224 14.2839 17.2559 14.0853 17.3535 13.8574C17.4512 13.6296 17.5 13.3854 17.5 13.125C17.5 12.8646 17.4512 12.6204 17.3535 12.3926C17.2559 12.1647 17.1224 11.9661 16.9531 11.7969C16.7839 11.6276 16.5853 11.4941 16.3574 11.3965C16.1296 11.2988 15.8854 11.25 15.625 11.25C15.3646 11.25 15.1204 11.2988 14.8926 11.3965C14.6647 11.4941 14.4661 11.6276 14.2969 11.7969C14.1276 11.9661 13.9941 12.1647 13.8965 12.3926C13.7988 12.6204 13.75 12.8646 13.75 13.125Z" fill="white"/>
</svg>
