<svg width="12" height="12" viewBox="0 0 12 12" fill="none" xmlns="http://www.w3.org/2000/svg">
<path fill-rule="evenodd" clip-rule="evenodd" d="M4.23095 1.29477L8.57675 5.64837C8.61587 5.68576 8.64691 5.73076 8.66796 5.7806C8.68902 5.83044 8.69963 5.88407 8.69915 5.93818C8.69939 5.99349 8.6887 6.04831 8.6677 6.09948C8.64669 6.15066 8.61579 6.19718 8.57675 6.23638C7.00475 7.76998 5.48975 9.25018 4.03175 10.677C3.95675 10.7472 3.65675 10.9218 3.42515 10.6626C3.19355 10.4028 3.33395 10.1766 3.42515 10.083L7.66595 5.93818L3.61775 1.88277C3.47015 1.67917 3.48215 1.49137 3.65375 1.31937C3.82575 1.14737 4.01815 1.13877 4.23095 1.29477Z" fill="#CDCDCD"/>
</svg>
