<svg width="53" height="53" viewBox="0 0 53 53" fill="none" xmlns="http://www.w3.org/2000/svg">
<rect x="0.508865" y="0.508865" width="51.9823" height="51.9823" rx="12.7411" fill="white" stroke="#1782C5" stroke-width="1.01773"/>
<mask id="path-2-outside-1_1347_1747" maskUnits="userSpaceOnUse" x="14" y="13" width="26" height="27" fill="black">
<rect fill="white" x="14" y="13" width="26" height="27"/>
<path d="M15.6553 28.5994C15.663 28.5994 15.6706 28.5994 15.6783 28.5983C15.8789 28.5863 16.0313 28.4131 16.0193 28.2124C15.9732 27.4703 16.0039 26.7171 16.1102 25.9716C16.7779 21.2816 20.2948 17.6056 24.9146 16.7199C25.1623 17.6397 26.0032 18.3194 26.9997 18.3194C28.1903 18.3194 29.1594 17.3503 29.1594 16.1597C29.1594 14.9691 28.1903 14 26.9997 14C25.8651 14 24.9332 14.8792 24.8477 15.992C22.5389 16.4239 20.3637 17.5707 18.6952 19.2414C16.8929 21.0459 15.7506 23.3372 15.39 25.8684C15.276 26.6621 15.2431 27.4657 15.2924 28.2572C15.3045 28.4502 15.4646 28.5982 15.6553 28.5982L15.6553 28.5994ZM26.9998 14.7291C27.7891 14.7291 28.4316 15.3715 28.4316 16.1608C28.4316 16.9502 27.7891 17.5926 26.9998 17.5926C26.2499 17.5926 25.6338 17.0138 25.5735 16.2803V16.277C25.5702 16.2387 25.5681 16.2003 25.5681 16.1619C25.5681 15.3726 26.2105 14.7302 26.9998 14.7302L26.9998 14.7291ZM16.1751 29.6595C16.2902 29.825 16.2474 30.0508 16.0819 30.1649C15.9152 30.2778 15.6905 30.2372 15.5754 30.0717C15.4625 29.905 15.5041 29.6781 15.6697 29.5652C15.8352 29.4523 16.061 29.4939 16.1751 29.6595ZM15.2871 34.288C15.5754 34.7879 16.0413 35.1453 16.5982 35.2944C16.7846 35.3448 16.9732 35.3689 17.1606 35.3689C17.4807 35.3689 17.7965 35.2965 18.0892 35.1562C19.6185 36.9399 21.6981 38.2499 23.9795 38.8605C24.9793 39.128 25.9956 39.2607 27.0075 39.2607C28.4886 39.2607 29.9619 38.9757 31.3708 38.41C32.1097 38.114 32.8223 37.7402 33.4888 37.3005C33.6566 37.1898 33.7026 36.964 33.5919 36.7962C33.4811 36.6285 33.2553 36.5825 33.0876 36.6932C32.4627 37.1065 31.7939 37.4562 31.1011 37.7347C26.7061 39.5008 21.7638 38.2916 18.6867 34.7351C18.952 34.4708 19.145 34.1398 19.2447 33.7681C19.3938 33.2112 19.3182 32.6291 19.0299 32.1292C18.7416 31.6293 18.2756 31.2719 17.7176 31.1228C17.1596 30.9737 16.5775 31.0504 16.0786 31.3388C15.0481 31.934 14.694 33.2573 15.2882 34.2878L15.2871 34.288ZM16.4415 31.9682C16.7725 31.7764 17.1584 31.7259 17.5279 31.8246C17.8973 31.9233 18.2065 32.1601 18.3984 32.4922C18.5891 32.8233 18.6395 33.2092 18.5409 33.5787C18.4422 33.9481 18.2043 34.2562 17.8732 34.448C17.5422 34.6399 17.1563 34.6903 16.7868 34.5917C16.4174 34.493 16.1093 34.2562 15.9174 33.9251C15.5239 33.241 15.7585 32.364 16.4415 31.9693L16.4415 31.9682ZM34.4327 36.3161C34.2518 36.2306 34.1728 36.0124 34.2605 35.8315C34.3471 35.6506 34.5642 35.5739 34.7451 35.6605C34.926 35.746 35.0027 35.9641 34.9172 36.145C34.8306 36.3259 34.6136 36.4027 34.4327 36.3161ZM31.8958 17.6701C32.5635 18.0034 33.2015 18.4068 33.7913 18.8695C37.5175 21.7933 38.9418 26.6783 37.4002 31.1216C36.4804 30.876 35.4718 31.2641 34.9719 32.128C34.3777 33.1607 34.7318 34.4839 35.7624 35.0771C36.0956 35.27 36.4651 35.3676 36.8389 35.3676C37.0264 35.3676 37.216 35.3424 37.4013 35.2931C37.9582 35.144 38.4241 34.7866 38.7114 34.2867C39.2782 33.3055 38.9833 32.0579 38.0624 31.4274C38.8418 29.2118 38.9372 26.7551 38.3244 24.4737C37.6633 22.0114 36.2502 19.8746 34.2384 18.296C33.6102 17.8026 32.9305 17.3729 32.219 17.0177C32.0392 16.9278 31.821 17.0012 31.7311 17.181C31.6413 17.3608 31.7147 17.579 31.8945 17.6689L31.8958 17.6701ZM38.0811 33.9227C37.8903 34.2538 37.5823 34.4905 37.2128 34.5903C36.8434 34.689 36.4575 34.6386 36.1253 34.4467C35.4423 34.0531 35.2077 33.1761 35.6013 32.4909C35.8666 32.0315 36.3489 31.775 36.8445 31.775C37.0867 31.775 37.3323 31.8364 37.5571 31.9669C38.2412 32.3615 38.4758 33.2397 38.0811 33.9227ZM30.1723 16.7493C30.1559 16.5487 30.3061 16.3733 30.5067 16.359C30.7073 16.3426 30.8827 16.4928 30.897 16.6934C30.9134 16.894 30.7643 17.0672 30.5637 17.0837C30.3631 17.1001 30.1877 16.9499 30.1723 16.7493ZM26.9996 20.8022C23.2919 20.8022 20.2771 23.8181 20.2771 27.5246C20.2771 31.2323 23.293 34.2471 26.9996 34.2471C30.7072 34.2471 33.722 31.2312 33.722 27.5246C33.722 23.817 30.7061 20.8022 26.9996 20.8022ZM22.9629 31.9547V30.8321C22.9629 29.8104 23.8707 28.9794 24.9856 28.9794H29.0144C30.1293 28.9794 31.037 29.8104 31.037 30.8321V31.9526C29.9703 32.9261 28.5528 33.5202 26.9993 33.5202C25.4458 33.5202 24.0297 32.926 22.9629 31.9547ZM31.7639 31.1588V30.8321C31.7639 29.4091 30.5306 28.2515 29.0133 28.2515H24.9845C23.4684 28.2515 22.2339 29.4091 22.2339 30.8321V31.161C21.4621 30.1513 21.0028 28.8917 21.0028 27.5257C21.0028 24.2205 23.692 21.5302 26.9984 21.5302C30.3047 21.5302 32.9939 24.2194 32.9939 27.5257C32.9939 28.8906 32.5346 30.1503 31.7639 31.1599L31.7639 31.1588ZM26.9993 22.6834C25.5708 22.6834 24.4098 23.8455 24.4098 25.2729C24.4098 26.7014 25.5719 27.8624 26.9993 27.8624C28.4277 27.8624 29.5898 26.7003 29.5898 25.2729C29.5898 23.8444 28.4278 22.6834 26.9993 22.6834ZM26.9993 27.1343C25.9732 27.1343 25.1367 26.2989 25.1367 25.2717C25.1367 24.2445 25.9721 23.4091 26.9993 23.4091C28.0265 23.4091 28.863 24.2445 28.863 25.2717C28.863 26.2989 28.0265 27.1343 26.9993 27.1343Z"/>
</mask>
<path d="M15.6553 28.5994C15.663 28.5994 15.6706 28.5994 15.6783 28.5983C15.8789 28.5863 16.0313 28.4131 16.0193 28.2124C15.9732 27.4703 16.0039 26.7171 16.1102 25.9716C16.7779 21.2816 20.2948 17.6056 24.9146 16.7199C25.1623 17.6397 26.0032 18.3194 26.9997 18.3194C28.1903 18.3194 29.1594 17.3503 29.1594 16.1597C29.1594 14.9691 28.1903 14 26.9997 14C25.8651 14 24.9332 14.8792 24.8477 15.992C22.5389 16.4239 20.3637 17.5707 18.6952 19.2414C16.8929 21.0459 15.7506 23.3372 15.39 25.8684C15.276 26.6621 15.2431 27.4657 15.2924 28.2572C15.3045 28.4502 15.4646 28.5982 15.6553 28.5982L15.6553 28.5994ZM26.9998 14.7291C27.7891 14.7291 28.4316 15.3715 28.4316 16.1608C28.4316 16.9502 27.7891 17.5926 26.9998 17.5926C26.2499 17.5926 25.6338 17.0138 25.5735 16.2803V16.277C25.5702 16.2387 25.5681 16.2003 25.5681 16.1619C25.5681 15.3726 26.2105 14.7302 26.9998 14.7302L26.9998 14.7291ZM16.1751 29.6595C16.2902 29.825 16.2474 30.0508 16.0819 30.1649C15.9152 30.2778 15.6905 30.2372 15.5754 30.0717C15.4625 29.905 15.5041 29.6781 15.6697 29.5652C15.8352 29.4523 16.061 29.4939 16.1751 29.6595ZM15.2871 34.288C15.5754 34.7879 16.0413 35.1453 16.5982 35.2944C16.7846 35.3448 16.9732 35.3689 17.1606 35.3689C17.4807 35.3689 17.7965 35.2965 18.0892 35.1562C19.6185 36.9399 21.6981 38.2499 23.9795 38.8605C24.9793 39.128 25.9956 39.2607 27.0075 39.2607C28.4886 39.2607 29.9619 38.9757 31.3708 38.41C32.1097 38.114 32.8223 37.7402 33.4888 37.3005C33.6566 37.1898 33.7026 36.964 33.5919 36.7962C33.4811 36.6285 33.2553 36.5825 33.0876 36.6932C32.4627 37.1065 31.7939 37.4562 31.1011 37.7347C26.7061 39.5008 21.7638 38.2916 18.6867 34.7351C18.952 34.4708 19.145 34.1398 19.2447 33.7681C19.3938 33.2112 19.3182 32.6291 19.0299 32.1292C18.7416 31.6293 18.2756 31.2719 17.7176 31.1228C17.1596 30.9737 16.5775 31.0504 16.0786 31.3388C15.0481 31.934 14.694 33.2573 15.2882 34.2878L15.2871 34.288ZM16.4415 31.9682C16.7725 31.7764 17.1584 31.7259 17.5279 31.8246C17.8973 31.9233 18.2065 32.1601 18.3984 32.4922C18.5891 32.8233 18.6395 33.2092 18.5409 33.5787C18.4422 33.9481 18.2043 34.2562 17.8732 34.448C17.5422 34.6399 17.1563 34.6903 16.7868 34.5917C16.4174 34.493 16.1093 34.2562 15.9174 33.9251C15.5239 33.241 15.7585 32.364 16.4415 31.9693L16.4415 31.9682ZM34.4327 36.3161C34.2518 36.2306 34.1728 36.0124 34.2605 35.8315C34.3471 35.6506 34.5642 35.5739 34.7451 35.6605C34.926 35.746 35.0027 35.9641 34.9172 36.145C34.8306 36.3259 34.6136 36.4027 34.4327 36.3161ZM31.8958 17.6701C32.5635 18.0034 33.2015 18.4068 33.7913 18.8695C37.5175 21.7933 38.9418 26.6783 37.4002 31.1216C36.4804 30.876 35.4718 31.2641 34.9719 32.128C34.3777 33.1607 34.7318 34.4839 35.7624 35.0771C36.0956 35.27 36.4651 35.3676 36.8389 35.3676C37.0264 35.3676 37.216 35.3424 37.4013 35.2931C37.9582 35.144 38.4241 34.7866 38.7114 34.2867C39.2782 33.3055 38.9833 32.0579 38.0624 31.4274C38.8418 29.2118 38.9372 26.7551 38.3244 24.4737C37.6633 22.0114 36.2502 19.8746 34.2384 18.296C33.6102 17.8026 32.9305 17.3729 32.219 17.0177C32.0392 16.9278 31.821 17.0012 31.7311 17.181C31.6413 17.3608 31.7147 17.579 31.8945 17.6689L31.8958 17.6701ZM38.0811 33.9227C37.8903 34.2538 37.5823 34.4905 37.2128 34.5903C36.8434 34.689 36.4575 34.6386 36.1253 34.4467C35.4423 34.0531 35.2077 33.1761 35.6013 32.4909C35.8666 32.0315 36.3489 31.775 36.8445 31.775C37.0867 31.775 37.3323 31.8364 37.5571 31.9669C38.2412 32.3615 38.4758 33.2397 38.0811 33.9227ZM30.1723 16.7493C30.1559 16.5487 30.3061 16.3733 30.5067 16.359C30.7073 16.3426 30.8827 16.4928 30.897 16.6934C30.9134 16.894 30.7643 17.0672 30.5637 17.0837C30.3631 17.1001 30.1877 16.9499 30.1723 16.7493ZM26.9996 20.8022C23.2919 20.8022 20.2771 23.8181 20.2771 27.5246C20.2771 31.2323 23.293 34.2471 26.9996 34.2471C30.7072 34.2471 33.722 31.2312 33.722 27.5246C33.722 23.817 30.7061 20.8022 26.9996 20.8022ZM22.9629 31.9547V30.8321C22.9629 29.8104 23.8707 28.9794 24.9856 28.9794H29.0144C30.1293 28.9794 31.037 29.8104 31.037 30.8321V31.9526C29.9703 32.9261 28.5528 33.5202 26.9993 33.5202C25.4458 33.5202 24.0297 32.926 22.9629 31.9547ZM31.7639 31.1588V30.8321C31.7639 29.4091 30.5306 28.2515 29.0133 28.2515H24.9845C23.4684 28.2515 22.2339 29.4091 22.2339 30.8321V31.161C21.4621 30.1513 21.0028 28.8917 21.0028 27.5257C21.0028 24.2205 23.692 21.5302 26.9984 21.5302C30.3047 21.5302 32.9939 24.2194 32.9939 27.5257C32.9939 28.8906 32.5346 30.1503 31.7639 31.1599L31.7639 31.1588ZM26.9993 22.6834C25.5708 22.6834 24.4098 23.8455 24.4098 25.2729C24.4098 26.7014 25.5719 27.8624 26.9993 27.8624C28.4277 27.8624 29.5898 26.7003 29.5898 25.2729C29.5898 23.8444 28.4278 22.6834 26.9993 22.6834ZM26.9993 27.1343C25.9732 27.1343 25.1367 26.2989 25.1367 25.2717C25.1367 24.2445 25.9721 23.4091 26.9993 23.4091C28.0265 23.4091 28.863 24.2445 28.863 25.2717C28.863 26.2989 28.0265 27.1343 26.9993 27.1343Z" fill="black"/>
<path d="M15.6553 28.5994C15.663 28.5994 15.6706 28.5994 15.6783 28.5983C15.8789 28.5863 16.0313 28.4131 16.0193 28.2124C15.9732 27.4703 16.0039 26.7171 16.1102 25.9716C16.7779 21.2816 20.2948 17.6056 24.9146 16.7199C25.1623 17.6397 26.0032 18.3194 26.9997 18.3194C28.1903 18.3194 29.1594 17.3503 29.1594 16.1597C29.1594 14.9691 28.1903 14 26.9997 14C25.8651 14 24.9332 14.8792 24.8477 15.992C22.5389 16.4239 20.3637 17.5707 18.6952 19.2414C16.8929 21.0459 15.7506 23.3372 15.39 25.8684C15.276 26.6621 15.2431 27.4657 15.2924 28.2572C15.3045 28.4502 15.4646 28.5982 15.6553 28.5982L15.6553 28.5994ZM26.9998 14.7291C27.7891 14.7291 28.4316 15.3715 28.4316 16.1608C28.4316 16.9502 27.7891 17.5926 26.9998 17.5926C26.2499 17.5926 25.6338 17.0138 25.5735 16.2803V16.277C25.5702 16.2387 25.5681 16.2003 25.5681 16.1619C25.5681 15.3726 26.2105 14.7302 26.9998 14.7302L26.9998 14.7291ZM16.1751 29.6595C16.2902 29.825 16.2474 30.0508 16.0819 30.1649C15.9152 30.2778 15.6905 30.2372 15.5754 30.0717C15.4625 29.905 15.5041 29.6781 15.6697 29.5652C15.8352 29.4523 16.061 29.4939 16.1751 29.6595ZM15.2871 34.288C15.5754 34.7879 16.0413 35.1453 16.5982 35.2944C16.7846 35.3448 16.9732 35.3689 17.1606 35.3689C17.4807 35.3689 17.7965 35.2965 18.0892 35.1562C19.6185 36.9399 21.6981 38.2499 23.9795 38.8605C24.9793 39.128 25.9956 39.2607 27.0075 39.2607C28.4886 39.2607 29.9619 38.9757 31.3708 38.41C32.1097 38.114 32.8223 37.7402 33.4888 37.3005C33.6566 37.1898 33.7026 36.964 33.5919 36.7962C33.4811 36.6285 33.2553 36.5825 33.0876 36.6932C32.4627 37.1065 31.7939 37.4562 31.1011 37.7347C26.7061 39.5008 21.7638 38.2916 18.6867 34.7351C18.952 34.4708 19.145 34.1398 19.2447 33.7681C19.3938 33.2112 19.3182 32.6291 19.0299 32.1292C18.7416 31.6293 18.2756 31.2719 17.7176 31.1228C17.1596 30.9737 16.5775 31.0504 16.0786 31.3388C15.0481 31.934 14.694 33.2573 15.2882 34.2878L15.2871 34.288ZM16.4415 31.9682C16.7725 31.7764 17.1584 31.7259 17.5279 31.8246C17.8973 31.9233 18.2065 32.1601 18.3984 32.4922C18.5891 32.8233 18.6395 33.2092 18.5409 33.5787C18.4422 33.9481 18.2043 34.2562 17.8732 34.448C17.5422 34.6399 17.1563 34.6903 16.7868 34.5917C16.4174 34.493 16.1093 34.2562 15.9174 33.9251C15.5239 33.241 15.7585 32.364 16.4415 31.9693L16.4415 31.9682ZM34.4327 36.3161C34.2518 36.2306 34.1728 36.0124 34.2605 35.8315C34.3471 35.6506 34.5642 35.5739 34.7451 35.6605C34.926 35.746 35.0027 35.9641 34.9172 36.145C34.8306 36.3259 34.6136 36.4027 34.4327 36.3161ZM31.8958 17.6701C32.5635 18.0034 33.2015 18.4068 33.7913 18.8695C37.5175 21.7933 38.9418 26.6783 37.4002 31.1216C36.4804 30.876 35.4718 31.2641 34.9719 32.128C34.3777 33.1607 34.7318 34.4839 35.7624 35.0771C36.0956 35.27 36.4651 35.3676 36.8389 35.3676C37.0264 35.3676 37.216 35.3424 37.4013 35.2931C37.9582 35.144 38.4241 34.7866 38.7114 34.2867C39.2782 33.3055 38.9833 32.0579 38.0624 31.4274C38.8418 29.2118 38.9372 26.7551 38.3244 24.4737C37.6633 22.0114 36.2502 19.8746 34.2384 18.296C33.6102 17.8026 32.9305 17.3729 32.219 17.0177C32.0392 16.9278 31.821 17.0012 31.7311 17.181C31.6413 17.3608 31.7147 17.579 31.8945 17.6689L31.8958 17.6701ZM38.0811 33.9227C37.8903 34.2538 37.5823 34.4905 37.2128 34.5903C36.8434 34.689 36.4575 34.6386 36.1253 34.4467C35.4423 34.0531 35.2077 33.1761 35.6013 32.4909C35.8666 32.0315 36.3489 31.775 36.8445 31.775C37.0867 31.775 37.3323 31.8364 37.5571 31.9669C38.2412 32.3615 38.4758 33.2397 38.0811 33.9227ZM30.1723 16.7493C30.1559 16.5487 30.3061 16.3733 30.5067 16.359C30.7073 16.3426 30.8827 16.4928 30.897 16.6934C30.9134 16.894 30.7643 17.0672 30.5637 17.0837C30.3631 17.1001 30.1877 16.9499 30.1723 16.7493ZM26.9996 20.8022C23.2919 20.8022 20.2771 23.8181 20.2771 27.5246C20.2771 31.2323 23.293 34.2471 26.9996 34.2471C30.7072 34.2471 33.722 31.2312 33.722 27.5246C33.722 23.817 30.7061 20.8022 26.9996 20.8022ZM22.9629 31.9547V30.8321C22.9629 29.8104 23.8707 28.9794 24.9856 28.9794H29.0144C30.1293 28.9794 31.037 29.8104 31.037 30.8321V31.9526C29.9703 32.9261 28.5528 33.5202 26.9993 33.5202C25.4458 33.5202 24.0297 32.926 22.9629 31.9547ZM31.7639 31.1588V30.8321C31.7639 29.4091 30.5306 28.2515 29.0133 28.2515H24.9845C23.4684 28.2515 22.2339 29.4091 22.2339 30.8321V31.161C21.4621 30.1513 21.0028 28.8917 21.0028 27.5257C21.0028 24.2205 23.692 21.5302 26.9984 21.5302C30.3047 21.5302 32.9939 24.2194 32.9939 27.5257C32.9939 28.8906 32.5346 30.1503 31.7639 31.1599L31.7639 31.1588ZM26.9993 22.6834C25.5708 22.6834 24.4098 23.8455 24.4098 25.2729C24.4098 26.7014 25.5719 27.8624 26.9993 27.8624C28.4277 27.8624 29.5898 26.7003 29.5898 25.2729C29.5898 23.8444 28.4278 22.6834 26.9993 22.6834ZM26.9993 27.1343C25.9732 27.1343 25.1367 26.2989 25.1367 25.2717C25.1367 24.2445 25.9721 23.4091 26.9993 23.4091C28.0265 23.4091 28.863 24.2445 28.863 25.2717C28.863 26.2989 28.0265 27.1343 26.9993 27.1343Z" stroke="black" stroke-width="0.4" mask="url(#path-2-outside-1_1347_1747)"/>
</svg>
