<svg width="22" height="21" viewBox="0 0 22 21" fill="none" xmlns="http://www.w3.org/2000/svg">
<g clip-path="url(#clip0_1347_1776)">
<path d="M16.8613 0H5.70508C2.9868 0 0.783203 2.2036 0.783203 4.92188V16.0781C0.783203 18.7964 2.9868 21 5.70508 21H16.8613C19.5796 21 21.7832 18.7964 21.7832 16.0781V4.92188C21.7832 2.2036 19.5796 0 16.8613 0Z" fill="white"/>
<path d="M16.8613 0H5.70508C2.9868 0 0.783203 2.2036 0.783203 4.92188V16.0781C0.783203 18.7964 2.9868 21 5.70508 21H16.8613C19.5796 21 21.7832 18.7964 21.7832 16.0781V4.92188C21.7832 2.2036 19.5796 0 16.8613 0Z" fill="#0A66C2"/>
<path d="M15.9356 17.857H18.3367C18.4237 17.857 18.5071 17.8224 18.5687 17.7609C18.6302 17.6994 18.6648 17.6159 18.6648 17.5289L18.666 12.456C18.666 9.80446 18.0947 7.76639 14.9961 7.76639C13.8182 7.72259 12.7074 8.32978 12.108 9.34369C12.1051 9.34861 12.1006 9.35244 12.0953 9.3546C12.09 9.35675 12.0841 9.3571 12.0786 9.3556C12.0731 9.35411 12.0682 9.35084 12.0647 9.34631C12.0612 9.34177 12.0593 9.33621 12.0592 9.33048V8.3393C12.0592 8.25227 12.0246 8.16881 11.9631 8.10728C11.9016 8.04574 11.8181 8.01117 11.7311 8.01117H9.45251C9.36549 8.01117 9.28203 8.04574 9.22049 8.10728C9.15896 8.16881 9.12439 8.25227 9.12439 8.3393V17.5284C9.12439 17.6155 9.15896 17.6989 9.22049 17.7605C9.28203 17.822 9.36549 17.8566 9.45251 17.8566H11.8534C11.9404 17.8566 12.0239 17.822 12.0854 17.7605C12.147 17.6989 12.1815 17.6155 12.1815 17.5284V12.9861C12.1815 11.7018 12.4252 10.4579 14.0175 10.4579C15.5871 10.4579 15.6075 11.9276 15.6075 13.0693V17.5288C15.6075 17.6159 15.642 17.6993 15.7036 17.7609C15.7651 17.8224 15.8486 17.857 15.9356 17.857ZM3.90039 4.89136C3.90039 5.86458 4.70159 6.66537 5.67489 6.66537C6.64795 6.66528 7.44865 5.864 7.44865 4.89095C7.44849 3.91789 6.6477 3.11719 5.67456 3.11719C4.70118 3.11719 3.90039 3.91814 3.90039 4.89136ZM4.47125 17.857H6.87534C6.96236 17.857 7.04582 17.8224 7.10736 17.7609C7.16889 17.6993 7.20346 17.6159 7.20346 17.5288V8.3393C7.20346 8.25227 7.16889 8.16881 7.10736 8.10728C7.04582 8.04574 6.96236 8.01117 6.87534 8.01117H4.47125C4.38422 8.01117 4.30076 8.04574 4.23923 8.10728C4.17769 8.16881 4.14312 8.25227 4.14312 8.3393V17.5288C4.14312 17.6159 4.17769 17.6993 4.23923 17.7609C4.30076 17.8224 4.38422 17.857 4.47125 17.857Z" fill="white"/>
</g>
<defs>
<clipPath id="clip0_1347_1776">
<rect width="21" height="21" fill="white" transform="translate(0.783203)"/>
</clipPath>
</defs>
</svg>
