<svg width="28" height="28" viewBox="0 0 28 28" fill="none" xmlns="http://www.w3.org/2000/svg">
<g clip-path="url(#clip0_1342_1725)">
<path d="M0.592252 13.8324C0.591601 16.185 1.2063 18.4821 2.37514 20.5067L0.480469 27.4245L7.55991 25.5682C9.518 26.6342 11.7119 27.1927 13.9413 27.1929H13.9472C21.3069 27.1929 27.298 21.204 27.3011 13.843C27.3025 10.276 25.9147 6.92185 23.3932 4.39838C20.8721 1.87512 17.5191 0.484782 13.9466 0.483154C6.58599 0.483154 0.595399 6.47168 0.59236 13.8324" fill="url(#paint0_linear_1342_1725)"/>
<path d="M0.116124 13.8281C0.115364 16.2653 0.752093 18.6445 1.9626 20.7417L0 27.9074L7.33329 25.9846C9.35384 27.0863 11.6288 27.6671 13.9437 27.668H13.9496C21.5735 27.668 27.7797 21.4637 27.7829 13.8392C27.7842 10.144 26.3465 6.66932 23.7349 4.05544C21.123 1.44189 17.6501 0.00151938 13.9496 0C6.32453 0 0.119163 6.20341 0.116124 13.8281ZM4.48336 20.3805L4.20955 19.9459C3.05851 18.1157 2.45098 16.0007 2.45184 13.829C2.45423 7.49152 7.61188 2.3355 13.954 2.3355C17.0253 2.33681 19.9117 3.53408 22.0827 5.70636C24.2535 7.87885 25.4481 10.7668 25.4473 13.8383C25.4445 20.1757 20.2868 25.3324 13.9496 25.3324H13.9451C11.8817 25.3313 9.85795 24.7772 8.09309 23.73L7.67309 23.4809L3.32136 24.6219L4.48336 20.3805Z" fill="url(#paint1_linear_1342_1725)"/>
<path d="M10.4915 8.04716C10.2326 7.47164 9.96009 7.46003 9.71384 7.44994C9.5122 7.44125 9.28169 7.44191 9.05139 7.44191C8.82088 7.44191 8.44636 7.52862 8.12978 7.87428C7.81288 8.22026 6.91992 9.05636 6.91992 10.7569C6.91992 12.4574 8.15854 14.1009 8.33121 14.3318C8.50409 14.5622 10.7224 18.1635 14.2356 19.549C17.1554 20.7003 17.7496 20.4713 18.3833 20.4136C19.0171 20.3561 20.4284 19.5777 20.7163 18.7706C21.0045 17.9636 21.0045 17.2719 20.9181 17.1273C20.8317 16.9833 20.6012 16.8968 20.2555 16.724C19.9099 16.5512 18.2104 15.7149 17.8936 15.5996C17.5767 15.4843 17.3463 15.4268 17.1158 15.7729C16.8853 16.1184 16.2234 16.8968 16.0217 17.1273C15.8201 17.3584 15.6184 17.3871 15.2728 17.2142C14.9269 17.0408 13.8138 16.6763 12.4931 15.4989C11.4656 14.5827 10.7719 13.4513 10.5702 13.1052C10.3686 12.7596 10.5486 12.5723 10.722 12.4001C10.8773 12.2452 11.0677 11.9965 11.2407 11.7947C11.4131 11.5929 11.4706 11.4488 11.5858 11.2183C11.7012 10.9876 11.6435 10.7857 11.5572 10.6129C11.4706 10.44 10.7989 8.73056 10.4915 8.04716Z" fill="white"/>
</g>
<defs>
<linearGradient id="paint0_linear_1342_1725" x1="1341.51" y1="2694.62" x2="1341.51" y2="0.483154" gradientUnits="userSpaceOnUse">
<stop stop-color="#1FAF38"/>
<stop offset="1" stop-color="#60D669"/>
</linearGradient>
<linearGradient id="paint1_linear_1342_1725" x1="1389.15" y1="2790.74" x2="1389.15" y2="0" gradientUnits="userSpaceOnUse">
<stop stop-color="#F9F9F9"/>
<stop offset="1" stop-color="white"/>
</linearGradient>
<clipPath id="clip0_1342_1725">
<rect width="27.7829" height="28" fill="white"/>
</clipPath>
</defs>
</svg>
