<svg width="16" height="10" viewBox="0 0 16 10" fill="none" xmlns="http://www.w3.org/2000/svg">
<path d="M11.6968 0.376459C11.9119 0.297525 12.1319 0.231564 12.3557 0.178966C12.372 0.17431 12.3887 0.170767 12.4056 0.168362C12.4353 0.162863 12.4655 0.15976 12.4958 0.159084C12.5321 0.156321 12.5687 0.159458 12.604 0.168362C12.6282 0.172266 12.6505 0.183401 12.6678 0.200173C12.6729 0.208636 12.6756 0.218236 12.6756 0.228008C12.6756 0.23778 12.6729 0.247379 12.6678 0.255842C12.6123 0.396341 12.5596 0.542141 12.5082 0.689267C12.4961 0.719361 12.4772 0.746518 12.4528 0.768794C12.4203 0.798039 12.385 0.824228 12.3473 0.846996C12.3034 0.875033 12.257 0.899422 12.2086 0.919897C12.1592 0.942198 12.1082 0.961241 12.056 0.976891C11.7477 1.06551 11.4452 1.17174 11.1502 1.295L11.1308 1.30163C11.098 1.31464 11.0641 1.32527 11.0296 1.33344C11.0011 1.33794 10.972 1.33794 10.9436 1.33344C10.9341 1.33221 10.9251 1.32879 10.9174 1.32348C10.9097 1.31816 10.9034 1.31112 10.8992 1.30295C10.8918 1.28234 10.8918 1.25995 10.8992 1.23933C10.9602 1.08425 11.0199 0.926524 11.0823 0.768794C11.0952 0.739998 11.1125 0.713195 11.1336 0.689267C11.1598 0.658401 11.1891 0.629996 11.221 0.604438C11.2562 0.575103 11.2937 0.548509 11.3333 0.52491C11.3741 0.500164 11.4167 0.478451 11.461 0.459963C11.522 0.435221 11.583 0.411363 11.6441 0.388388L11.6968 0.376459ZM10.6398 0.880133C10.6634 0.870552 10.6891 0.866464 10.7147 0.868204C10.7224 0.867932 10.73 0.869787 10.7367 0.873548C10.7433 0.877308 10.7487 0.882815 10.7521 0.889411C10.7561 0.898424 10.7582 0.908116 10.7582 0.917908C10.7582 0.927701 10.7561 0.937393 10.7521 0.946406C10.6828 1.10679 10.6204 1.26319 10.5635 1.41959C10.5497 1.45015 10.5315 1.47871 10.5094 1.50442C10.4831 1.53848 10.4538 1.5704 10.422 1.59986C10.3874 1.63238 10.3508 1.66292 10.3124 1.69131C10.2752 1.71916 10.2363 1.74483 10.1959 1.76819C9.96287 1.89985 9.73446 2.04079 9.51067 2.19101L9.49541 2.20029C9.47174 2.21604 9.44668 2.22979 9.42051 2.24138C9.40256 2.25056 9.3826 2.25556 9.36225 2.25596C9.3561 2.25564 9.3503 2.25316 9.34594 2.249C9.34159 2.24485 9.339 2.2393 9.33867 2.23343C9.33776 2.21299 9.34306 2.19273 9.35392 2.1751C9.42605 2.02268 9.49264 1.8676 9.56893 1.70854C9.58313 1.67944 9.59984 1.65151 9.61886 1.62504C9.64187 1.59271 9.66688 1.56173 9.69377 1.53226C9.72295 1.49973 9.75397 1.46875 9.78671 1.43948C9.81712 1.40995 9.85007 1.38291 9.88519 1.35862C10.1007 1.2031 10.3203 1.05951 10.5441 0.927849L10.5815 0.907967C10.5979 0.899075 10.6151 0.891537 10.6329 0.885435H10.6453M13.3253 0.0861837C13.3744 0.0706457 13.425 0.0599857 13.4765 0.0543727C13.5365 0.0495841 13.5968 0.0495841 13.6568 0.0543727C14.1024 0.0708382 14.543 0.149429 14.9648 0.287653L15.0522 0.319464C15.0994 0.33537 15.1438 0.353926 15.1909 0.372483C15.2508 0.398181 15.3091 0.426941 15.3657 0.458637C15.4047 0.478887 15.4414 0.502868 15.4753 0.530212C15.4849 0.537451 15.493 0.546465 15.4989 0.556721C15.4989 0.556721 15.4989 0.565999 15.4989 0.56865C15.4297 0.623758 15.3686 0.68751 15.3172 0.758191C15.3088 0.771445 15.2825 0.778073 15.2436 0.782049C15.2048 0.786025 15.1535 0.782049 15.0952 0.782049L14.8955 0.77012C14.8247 0.77012 14.7484 0.756865 14.6722 0.746262C14.2453 0.692486 13.8134 0.685371 13.3849 0.725054H13.353C13.3031 0.725054 13.2559 0.725054 13.2143 0.725054C13.1694 0.725314 13.1246 0.719967 13.0811 0.709149C13.0529 0.702183 13.0276 0.686877 13.009 0.665409C13.0014 0.656985 12.9963 0.646724 12.9943 0.635741C12.9924 0.624759 12.9936 0.613474 12.9979 0.603112C13.0478 0.461288 13.1005 0.324766 13.1546 0.19222C13.1675 0.167963 13.1878 0.148065 13.2129 0.135226C13.2362 0.119953 13.2613 0.107487 13.2878 0.0981128L13.3253 0.0861837ZM9.28734 1.84639C9.28992 1.8458 9.2926 1.84577 9.29519 1.84628C9.29778 1.8468 9.30023 1.84785 9.30235 1.84937C9.30446 1.85089 9.30621 1.85283 9.30745 1.85507C9.30869 1.8573 9.3094 1.85977 9.30954 1.8623C9.30901 1.88115 9.30428 1.89968 9.29566 1.91664C9.22076 2.07437 9.14724 2.22945 9.07373 2.37923C9.0583 2.40909 9.04068 2.43788 9.02101 2.46538C8.99697 2.49542 8.97062 2.52724 8.94195 2.56081C8.91324 2.59374 8.88267 2.62516 8.8504 2.65492C8.82071 2.68452 8.78922 2.7124 8.75607 2.73842C8.57113 2.88334 8.3908 3.03223 8.2151 3.1851L8.204 3.19703L8.14574 3.23945C8.13441 3.24866 8.12034 3.25422 8.10551 3.25535C8.0958 3.25535 8.09303 3.25535 8.09442 3.23812C8.09913 3.21849 8.10709 3.19969 8.118 3.18245C8.19845 3.0393 8.2789 2.89085 8.35936 2.73842C8.3741 2.71044 8.39079 2.68343 8.40929 2.65757C8.42871 2.62841 8.45229 2.5966 8.47726 2.56479C8.50223 2.53298 8.52997 2.49984 8.55633 2.47068C8.58268 2.44152 8.61181 2.41104 8.63817 2.38718C8.81017 2.2268 8.98218 2.07172 9.15973 1.92194L9.1847 1.90074C9.20411 1.88616 9.22076 1.87423 9.23602 1.86495L9.26653 1.85037H9.28734M11.9867 1.2115H11.9978C12.043 1.19945 12.0896 1.19234 12.1365 1.19029C12.1743 1.18721 12.2124 1.1908 12.2488 1.20089C12.275 1.20832 12.2976 1.22427 12.3127 1.24596C12.3186 1.25749 12.3218 1.2702 12.3218 1.28307C12.3218 1.29595 12.3186 1.30865 12.3127 1.32018C12.2544 1.5137 12.1975 1.70854 12.142 1.90339C12.1295 1.94075 12.1087 1.9751 12.081 2.00412C12.0487 2.04139 12.0114 2.07437 11.97 2.1022C11.9241 2.13465 11.8748 2.16263 11.823 2.18571C11.7786 2.20787 11.7322 2.22606 11.6843 2.24005H11.6676C11.3403 2.32223 11.0185 2.41634 10.6967 2.52503C10.6551 2.54019 10.6118 2.55043 10.5677 2.55551C10.5377 2.55905 10.5073 2.55587 10.4789 2.54623C10.4688 2.54261 10.4598 2.53675 10.4526 2.52915C10.4453 2.52155 10.4401 2.51241 10.4373 2.50249C10.4307 2.47702 10.4342 2.45015 10.447 2.42694C10.5191 2.24801 10.5857 2.06509 10.6675 1.87688C10.6813 1.84371 10.7005 1.81285 10.7244 1.78542C10.7521 1.75 10.7837 1.71756 10.8187 1.68866C10.8563 1.65594 10.8967 1.62624 10.9394 1.59986C10.9835 1.57284 11.0299 1.54935 11.0781 1.52961L11.3819 1.41164C11.583 1.33742 11.7856 1.27114 11.9936 1.2115M10.2042 1.95375C10.2289 1.94812 10.2545 1.94812 10.2791 1.95375C10.2877 1.95556 10.2956 1.95943 10.3022 1.96499C10.3088 1.97056 10.3137 1.97765 10.3166 1.98556C10.3203 2.00809 10.3169 2.03115 10.3069 2.05184C10.2292 2.2374 10.1515 2.41899 10.0738 2.59262C10.0572 2.62718 10.0363 2.65967 10.0114 2.68938C9.98152 2.72424 9.94857 2.75661 9.91293 2.78614C9.87531 2.8191 9.83546 2.84965 9.79364 2.8776C9.75559 2.90207 9.71624 2.92463 9.67574 2.9452H9.66741C9.42051 3.06007 9.17776 3.18599 8.93917 3.32295C8.90998 3.34077 8.87881 3.35544 8.84624 3.36669C8.82786 3.37412 8.80766 3.37642 8.78798 3.37332C8.78152 3.37151 8.77591 3.36761 8.77212 3.36229C8.76833 3.35698 8.76658 3.35057 8.76717 3.34416C8.77122 3.32122 8.77969 3.2992 8.79214 3.27921C8.88091 3.11751 8.97108 2.9505 9.05985 2.77686C9.07515 2.74567 9.09424 2.71631 9.11673 2.68938C9.14269 2.65535 9.17047 2.62261 9.19995 2.5913C9.2315 2.55828 9.26484 2.52687 9.29983 2.49719C9.33289 2.46827 9.36813 2.44169 9.40525 2.41766C9.63181 2.26921 9.863 2.13004 10.0988 2.00014L10.1127 1.99219C10.133 1.98099 10.1543 1.97167 10.1765 1.96436L10.2042 1.95508M13.1297 0.97424C13.1885 0.956468 13.2488 0.943607 13.31 0.935802C13.7366 0.885956 14.1674 0.877518 14.5959 0.910618H14.6236C14.6859 0.916656 14.7475 0.927292 14.8081 0.942429C14.8667 0.955116 14.9239 0.973319 14.9787 0.996773C15.0172 1.0118 15.0529 1.03285 15.0841 1.05907C15.0939 1.06618 15.1014 1.07584 15.1055 1.08689C15.1097 1.09794 15.1105 1.10992 15.1077 1.12137C15.0484 1.2662 14.9988 1.41451 14.9593 1.56539C14.9479 1.59837 14.9242 1.6262 14.8927 1.6436C14.8503 1.67364 14.8036 1.69774 14.754 1.71517C14.6918 1.73886 14.6278 1.75792 14.5626 1.77217C14.4982 1.78616 14.4328 1.7959 14.367 1.80133H14.3448C13.9023 1.83314 13.4681 1.88483 13.0423 1.95243C12.9836 1.96118 12.9241 1.96429 12.8647 1.96171C12.8199 1.95878 12.7759 1.94893 12.7343 1.93255C12.702 1.92041 12.6748 1.89854 12.6567 1.87025C12.641 1.84364 12.637 1.81218 12.6456 1.78277C12.6969 1.58793 12.7496 1.39176 12.8051 1.20222C12.8164 1.1688 12.8365 1.1387 12.8633 1.11474C12.8969 1.08312 12.9346 1.05593 12.9757 1.03389C13.0098 1.01589 13.045 0.99995 13.0811 0.986169L13.1297 0.97424ZM8.15268 2.88025C8.161 2.88025 8.16377 2.88025 8.16239 2.89615C8.15813 2.91407 8.15161 2.93143 8.14297 2.94785C8.06667 3.09497 7.9779 3.24475 7.89606 3.38657C7.88219 3.41043 7.86277 3.43827 7.84196 3.46743C7.82115 3.49659 7.79619 3.5284 7.76983 3.55888C7.74439 3.59041 7.71707 3.6205 7.68799 3.64901C7.66117 3.67817 7.63482 3.70468 7.60892 3.72854C7.45912 3.86727 7.30977 4.00689 7.16088 4.14739L7.11095 4.1898C7.10225 4.19736 7.09179 4.20281 7.08043 4.20571C7.08043 4.20571 7.08043 4.19908 7.08043 4.18715C7.08879 4.1701 7.09853 4.15371 7.10956 4.13811C7.19834 4.00556 7.28572 3.87302 7.37311 3.72456C7.38698 3.70336 7.40363 3.67685 7.42305 3.64901L7.48824 3.56286C7.51229 3.53282 7.53587 3.50366 7.55899 3.47538L7.62973 3.39585C7.77307 3.24652 7.91687 3.09807 8.06113 2.9505L8.07777 2.93327L8.12216 2.89483C8.13174 2.88712 8.1425 2.88086 8.15406 2.87627M8.77272 2.88688C8.7852 2.88688 8.79214 2.89483 8.79075 2.90941C8.78934 2.93049 8.78269 2.95093 8.77133 2.96905C8.67978 3.14004 8.58823 3.30439 8.49391 3.46345C8.47479 3.49399 8.45347 3.52322 8.4301 3.55093C8.40513 3.58142 8.37462 3.61455 8.34271 3.64636C8.31081 3.67817 8.27613 3.70866 8.24145 3.73782C8.20677 3.76698 8.17764 3.78951 8.14713 3.81072C7.9557 3.94327 7.76706 4.07581 7.57841 4.21631C7.5553 4.23347 7.53122 4.2494 7.50628 4.26403C7.49475 4.27124 7.48121 4.27494 7.46744 4.27463C7.45912 4.27463 7.45773 4.26403 7.46744 4.25077C7.47599 4.23078 7.48668 4.21168 7.49934 4.19378C7.59182 4.05328 7.68845 3.9035 7.78925 3.74445C7.80676 3.71586 7.82622 3.68841 7.84751 3.66227C7.87109 3.63178 7.89606 3.6013 7.92519 3.56949C7.95432 3.53768 7.98206 3.50586 8.01119 3.4767C8.04032 3.44754 8.06945 3.41971 8.09719 3.39585C8.27752 3.24475 8.45969 3.09762 8.64372 2.95447C8.6663 2.9364 8.69097 2.92083 8.71723 2.90808L8.73666 2.8988C8.74659 2.89585 8.75723 2.89585 8.76717 2.8988M0.444436 6.21245C0.465763 6.21803 0.486627 6.22512 0.506856 6.23366L0.619213 6.27607C0.881273 6.37936 1.14945 6.46788 1.42236 6.54116L1.54997 6.57562L1.68868 6.61141L1.80936 6.64322L1.86901 6.65913L1.90369 6.66841C2.0639 6.71714 2.22693 6.75697 2.39196 6.7877C2.40993 6.79051 2.42758 6.79495 2.44467 6.80095C2.45576 6.80095 2.45576 6.80095 2.44467 6.80891C2.42943 6.81007 2.41413 6.81007 2.39889 6.80891H2.30873C2.05204 6.78593 1.79749 6.74473 1.5472 6.68564C1.50558 6.67636 1.45704 6.66443 1.40849 6.65118C1.35994 6.63792 1.31 6.62202 1.26145 6.60611L1.12274 6.55839L1.07835 6.54116C1.0594 6.53421 1.04088 6.52625 1.02287 6.5173C0.853637 6.43513 0.676085 6.34632 0.492985 6.24691C0.473212 6.23849 0.454581 6.22781 0.4375 6.2151H0.449984M7.20666 3.85711C7.20666 3.85711 7.20666 3.85711 7.20666 3.87169C7.19925 3.88868 7.19043 3.90508 7.1803 3.92073C7.09153 4.05991 7.00275 4.1951 6.91259 4.325L6.8571 4.3979L6.78775 4.48008L6.71284 4.5596C6.68787 4.58611 6.66429 4.60864 6.6421 4.62853C6.51171 4.74782 6.38132 4.86711 6.24954 4.98242L6.20793 5.01689C6.19545 5.02484 6.18851 5.02749 6.18712 5.02616C6.18574 5.02484 6.18712 5.02616 6.18712 5.01026L6.22041 4.96519C6.31751 4.84855 6.41184 4.72661 6.50755 4.59937C6.52142 4.57948 6.53945 4.55695 6.55887 4.53309C6.57829 4.50924 6.60049 4.48273 6.62268 4.45622C6.64487 4.42971 6.66707 4.4032 6.68926 4.37934L6.75168 4.31174C6.87791 4.1792 7.00275 4.04665 7.12759 3.91411L7.14285 3.89953C7.15416 3.88738 7.1662 3.87587 7.17892 3.86506C7.1856 3.85832 7.19361 3.85292 7.2025 3.84916M7.57702 3.85579C7.58534 3.85579 7.58673 3.86374 7.57702 3.87567C7.56986 3.89493 7.56006 3.9132 7.54789 3.93001C7.44802 4.08641 7.34537 4.23619 7.24411 4.37934C7.22608 4.4032 7.20388 4.42971 7.17892 4.45887C7.15395 4.48803 7.12621 4.51719 7.09708 4.54767C7.06795 4.57816 7.03743 4.60467 7.00691 4.63118C6.9764 4.65769 6.95282 4.67889 6.92785 4.69878L6.45761 5.08316C6.43264 5.10172 6.41322 5.1163 6.39935 5.12425C6.38548 5.1322 6.37577 5.13485 6.37161 5.13353C6.36745 5.1322 6.37161 5.12425 6.37161 5.11364C6.38322 5.09595 6.39621 5.07912 6.41045 5.06328C6.51865 4.93073 6.62823 4.79819 6.73504 4.65769C6.75168 4.63648 6.77249 4.6113 6.79607 4.58479C6.81965 4.55828 6.84323 4.52912 6.86959 4.50128C6.89594 4.47345 6.92091 4.44561 6.94727 4.4191C6.97084 4.39353 6.99584 4.36919 7.02217 4.3462L7.47715 3.93531C7.49934 3.91676 7.52015 3.90085 7.53402 3.89157L7.55899 3.87832H7.57008M10.5746 2.81795C10.8964 2.71589 11.2238 2.62841 11.5567 2.55286C11.6069 2.54027 11.6588 2.53491 11.7106 2.53696C11.7515 2.53833 11.7917 2.54781 11.8286 2.56479C11.8592 2.57892 11.8834 2.60335 11.8964 2.63342C11.9095 2.66348 11.9105 2.69709 11.8993 2.72782C11.8299 2.97568 11.7606 3.21824 11.6898 3.45285C11.6755 3.49619 11.6513 3.53601 11.6191 3.56949C11.5824 3.60962 11.5393 3.64405 11.4915 3.67155C11.44 3.70329 11.3846 3.72867 11.3264 3.7471C11.2877 3.75884 11.2483 3.76857 11.2085 3.77626C11.1877 3.77626 11.1669 3.77626 11.1447 3.78421C10.7854 3.81735 10.4303 3.86374 10.0822 3.92869C10.0366 3.93805 9.98991 3.94117 9.94345 3.93796C9.91522 3.92807 9.88997 3.91168 9.86993 3.89025C9.85939 3.88415 9.85042 3.87586 9.84369 3.866C9.83696 3.85613 9.83266 3.84493 9.83109 3.83325C9.82769 3.80345 9.83399 3.77336 9.84913 3.7471C9.94761 3.55756 10.0433 3.34946 10.139 3.14534C10.1567 3.10932 10.1796 3.07586 10.207 3.04593C10.2395 3.00986 10.2752 2.97659 10.3138 2.94652C10.3575 2.91425 10.4039 2.88544 10.4525 2.86037C10.4912 2.8381 10.5321 2.81946 10.5746 2.8047L10.5926 2.79807M9.64661 3.16125C9.67154 3.15443 9.69797 3.15443 9.7229 3.16125C9.73204 3.16483 9.74004 3.17062 9.74612 3.17806C9.7522 3.1855 9.75615 3.19432 9.75758 3.20366C9.75925 3.23082 9.75301 3.25789 9.73954 3.28186C9.63967 3.48466 9.53702 3.6795 9.43438 3.86109C9.41413 3.89645 9.38894 3.929 9.35947 3.95785C9.32354 3.99185 9.28506 4.0233 9.24434 4.05195C9.20022 4.0817 9.15386 4.10828 9.10563 4.13148C9.07518 4.14794 9.04368 4.16255 9.0113 4.17522L8.9683 4.1898C8.70475 4.27728 8.44397 4.37802 8.19013 4.48935C8.15895 4.50476 8.12586 4.51634 8.09164 4.52382C8.07378 4.53034 8.05402 4.53034 8.03616 4.52382C8.02367 4.52382 8.0209 4.50526 8.02506 4.48803C8.03331 4.46274 8.04755 4.43961 8.06667 4.42043C8.18227 4.25961 8.2974 4.08862 8.41207 3.90748C8.43303 3.87639 8.4562 3.84672 8.48142 3.81867C8.51074 3.78417 8.54273 3.75182 8.57714 3.72191C8.61202 3.69009 8.6486 3.66001 8.68672 3.63178C8.7181 3.60718 8.7515 3.58502 8.78659 3.56551L8.79907 3.55756C9.04182 3.42501 9.28734 3.30439 9.53841 3.19306L9.57309 3.17848C9.59797 3.17006 9.62347 3.16341 9.64938 3.15859M8.12355 3.98833C8.13464 3.98833 8.1388 4.00291 8.13603 4.01882C8.12995 4.0412 8.1196 4.06232 8.10551 4.08111C7.989 4.25872 7.8697 4.42441 7.7518 4.58214C7.72846 4.61287 7.70247 4.64169 7.67412 4.66829C7.64151 4.69996 7.60725 4.73004 7.57147 4.75842C7.53541 4.78758 7.49657 4.81674 7.45911 4.84193C7.43374 4.86008 7.40734 4.87689 7.38005 4.89229L7.35092 4.90952C7.14979 5.01954 6.94865 5.13485 6.74891 5.25282C6.72555 5.26716 6.70095 5.27957 6.67539 5.28993C6.65736 5.29656 6.64487 5.29788 6.64071 5.28993C6.63655 5.28198 6.64071 5.27668 6.64071 5.26342C6.65614 5.24549 6.67385 5.22946 6.69342 5.2157C6.81919 5.07521 6.94542 4.92543 7.07211 4.76637C7.09428 4.73875 7.11789 4.71221 7.14285 4.68685C7.16921 4.65769 7.19972 4.6272 7.23024 4.59804C7.26076 4.56888 7.29405 4.5384 7.32595 4.51189C7.35785 4.48538 7.38144 4.4655 7.40779 4.44694L7.41889 4.43899C7.60939 4.30202 7.80173 4.16948 7.99593 4.04135C8.02225 4.02442 8.05011 4.00979 8.07916 3.99761C8.09415 3.99372 8.10995 3.99372 8.12493 3.99761M12.9396 2.27849L12.9729 2.27186C13.4057 2.20692 13.8427 2.1539 14.2879 2.11016C14.358 2.10284 14.4287 2.10284 14.4988 2.11016C14.5571 2.11587 14.6142 2.13018 14.668 2.15257C14.7108 2.16812 14.7486 2.19418 14.7776 2.22812C14.7895 2.24231 14.7982 2.2587 14.8033 2.27626C14.8083 2.29381 14.8094 2.31217 14.8067 2.33018C14.7679 2.59527 14.736 2.86037 14.7096 3.14799C14.7032 3.2011 14.6827 3.25175 14.65 3.29512C14.6117 3.3463 14.5648 3.39108 14.5112 3.42766C14.4518 3.4702 14.3865 3.50455 14.317 3.52972C14.2723 3.54766 14.2259 3.56142 14.1783 3.57081L14.0882 3.58274C13.6235 3.62516 13.1519 3.64769 12.6789 3.66757C12.6136 3.67163 12.548 3.66581 12.4847 3.65034C12.4346 3.63842 12.3875 3.61726 12.3459 3.58804C12.31 3.56464 12.2816 3.53203 12.2641 3.49394C12.248 3.45651 12.2451 3.41512 12.2558 3.37597C12.3168 3.12678 12.3783 2.87318 12.4403 2.61516C12.4524 2.57335 12.4736 2.53449 12.5027 2.50117C12.5373 2.46152 12.578 2.42711 12.6234 2.39911C12.673 2.36729 12.7266 2.34147 12.7829 2.32223L12.7995 2.3156C12.8447 2.29983 12.8911 2.28742 12.9382 2.27849M6.37716 4.7054C6.37716 4.7054 6.37716 4.7054 6.37716 4.71998C6.36798 4.73517 6.35779 4.74979 6.34664 4.76372C6.24954 4.88832 6.15383 5.00628 6.05535 5.11895L5.99709 5.18124C5.97628 5.20378 5.9527 5.22763 5.92912 5.24884L5.8556 5.31644C5.83497 5.33531 5.8132 5.35301 5.79041 5.36946C5.6725 5.46357 5.55182 5.55502 5.42975 5.63455L5.3923 5.65841C5.38259 5.65841 5.37704 5.65841 5.37704 5.65841C5.37704 5.65841 5.37704 5.65045 5.38814 5.6425L5.42698 5.60539C5.53101 5.50996 5.63505 5.4079 5.7377 5.30053C5.75295 5.2833 5.77237 5.26607 5.79179 5.24486L5.8556 5.18124L5.9208 5.11762C5.94299 5.09774 5.96241 5.07918 5.98183 5.06328C6.09557 4.95857 6.20932 4.8512 6.32306 4.74252L6.33555 4.73059C6.34803 4.71866 6.35774 4.70805 6.36606 4.70143C6.37133 4.69685 6.37744 4.69325 6.38409 4.69082M6.59078 4.73854C6.59078 4.73854 6.59078 4.74649 6.59078 4.7571C6.57616 4.77886 6.55944 4.79928 6.54084 4.81807C6.43126 4.95724 6.32029 5.08316 6.20932 5.2157C6.19128 5.23559 6.1677 5.25944 6.14274 5.2833C6.11777 5.30716 6.09002 5.33235 6.06228 5.35753C6.03454 5.38271 6.00541 5.40657 5.97905 5.42778L5.90692 5.48212C5.76821 5.5802 5.6295 5.67564 5.49079 5.76577L5.44085 5.79493C5.42975 5.79493 5.42282 5.80288 5.42143 5.79493C5.42004 5.78698 5.42143 5.78565 5.4353 5.77637C5.44857 5.76169 5.46294 5.74796 5.4783 5.73528C5.5976 5.6319 5.7155 5.52056 5.83202 5.40127L5.89444 5.33897L5.96796 5.27005L6.04286 5.20112L6.11083 5.1428C6.24584 5.03147 6.37901 4.91748 6.51032 4.80084C6.52507 4.78697 6.54083 4.77412 6.55748 4.7624L6.5769 4.75047M1.63875 6.74793C1.65671 6.7458 1.67488 6.7458 1.69285 6.74793L1.79688 6.76516C2.04233 6.80845 2.29089 6.83371 2.54038 6.84072H2.66106H2.78729H2.90658H2.96206H3.00229C3.17321 6.8507 3.34461 6.8507 3.51553 6.84072C3.53539 6.83952 3.55531 6.83952 3.57517 6.84072C3.58627 6.84072 3.59043 6.84072 3.58627 6.84072C3.57595 6.84821 3.56416 6.85362 3.55159 6.85662C3.53078 6.85662 3.50443 6.86988 3.46975 6.8765C3.24137 6.92257 3.00939 6.9505 2.77619 6.96001C2.73596 6.96001 2.69296 6.96001 2.6458 6.96001L2.50709 6.95205C2.45992 6.95205 2.41415 6.9441 2.36837 6.93747L2.31983 6.92952L2.2574 6.9388C2.06974 6.89642 1.88454 6.84465 1.70256 6.78372C1.68175 6.77749 1.66174 6.76904 1.64291 6.75854C1.63597 6.75854 1.6332 6.75191 1.64291 6.75059M6.87098 4.85783C6.87098 4.85783 6.87098 4.86843 6.87098 4.88169C6.86012 4.90109 6.8471 4.91931 6.83214 4.93603C6.70452 5.08979 6.57598 5.2347 6.44652 5.37078C6.42432 5.39332 6.39797 5.4185 6.36884 5.44501C6.33971 5.47152 6.30503 5.49803 6.27174 5.52321C6.23845 5.54839 6.20516 5.5749 6.17186 5.59744L6.1039 5.64118L6.07893 5.65576C5.91247 5.75517 5.74463 5.85192 5.57402 5.94338C5.55472 5.95499 5.53428 5.96476 5.51298 5.97254C5.49911 5.97254 5.49217 5.97254 5.4894 5.97254C5.4918 5.96365 5.49715 5.95574 5.50466 5.95001C5.52095 5.93416 5.53808 5.91912 5.55598 5.90494C5.69469 5.79095 5.83341 5.66901 5.97212 5.53646C5.99293 5.51526 6.01789 5.49273 6.04425 5.46887C6.0706 5.44501 6.09973 5.4185 6.12886 5.39464L6.21903 5.32042L6.29393 5.2621C6.45484 5.14545 6.61528 5.02749 6.77526 4.9082C6.79566 4.8933 6.81696 4.87958 6.83907 4.86711L6.85572 4.85916C6.86108 4.85722 6.867 4.85722 6.87236 4.85916M2.16308 6.68829C2.17781 6.68639 2.19274 6.68639 2.20747 6.68829L2.29208 6.69492C2.49803 6.71537 2.70532 6.72069 2.91213 6.71082H3.01339H3.1202H3.22145H3.28526H3.30468C3.45148 6.70577 3.59784 6.6925 3.74301 6.67106C3.75993 6.66765 3.77708 6.66543 3.79434 6.66443C3.80405 6.66443 3.80821 6.66443 3.80405 6.66443C3.79596 6.67079 3.78648 6.67532 3.7763 6.67768C3.75359 6.6859 3.73044 6.69298 3.70695 6.69889C3.51646 6.74917 3.32212 6.78507 3.12574 6.80625C3.09245 6.80625 3.055 6.80625 3.01755 6.81421C2.9801 6.82216 2.93848 6.81421 2.89826 6.81421H2.78451H2.72487H2.69296C2.53242 6.79479 2.37312 6.76691 2.21579 6.7307L2.16447 6.71745C2.16447 6.71745 2.15614 6.71745 2.16447 6.71082M5.70857 5.4808C5.70857 5.4808 5.70857 5.4808 5.69886 5.49803C5.68637 5.51252 5.67294 5.52625 5.65863 5.53912C5.54072 5.65311 5.42004 5.75914 5.29937 5.85723L5.23001 5.91024L5.14817 5.96724C5.12043 5.98447 5.09268 6.00303 5.06633 6.01761L4.99836 6.05604C4.87074 6.12364 4.73897 6.18859 4.60719 6.24161C4.59205 6.24871 4.57626 6.25448 4.56003 6.25884C4.55032 6.25884 4.54754 6.25884 4.54754 6.25884C4.55303 6.25289 4.55961 6.24795 4.56696 6.24426L4.6169 6.21377C4.74973 6.13761 4.87801 6.05442 5.00113 5.96459L5.06772 5.9182L5.14262 5.8665L5.21614 5.81481C5.23972 5.79891 5.26191 5.783 5.28133 5.7724C5.40617 5.69154 5.52685 5.60539 5.64753 5.51658L5.68915 5.48742H5.70163M8.80462 4.46019C8.84227 4.4483 8.88151 4.4416 8.92114 4.44031C8.94791 4.43933 8.97441 4.44577 8.99743 4.45887C9.00651 4.46493 9.01381 4.4731 9.01867 4.48261C9.02352 4.49212 9.02576 4.50265 9.02518 4.51321C9.02315 4.54196 9.01256 4.56955 8.99466 4.59274C8.85595 4.79951 8.71723 4.99038 8.57852 5.16269C8.54978 5.19617 8.51669 5.22601 8.48004 5.25149C8.43637 5.28152 8.38995 5.3077 8.34132 5.32969C8.29181 5.3547 8.24033 5.37597 8.18735 5.39332C8.16378 5.40177 8.13969 5.40886 8.11522 5.41452C8.08967 5.42195 8.06375 5.42814 8.03754 5.43308C7.75911 5.4844 7.48437 5.55258 7.21498 5.6372C7.18255 5.64785 7.1491 5.6554 7.11511 5.65973C7.09014 5.65973 7.07349 5.65973 7.06517 5.64913C7.05685 5.63853 7.05685 5.62925 7.06517 5.61202C7.07842 5.5882 7.09577 5.56669 7.1165 5.54839C7.26815 5.39729 7.42027 5.23382 7.57286 5.05798C7.59962 5.02758 7.62835 4.9988 7.65886 4.97182C7.69215 4.94266 7.7296 4.91218 7.76844 4.88434C7.80852 4.85528 7.85019 4.82829 7.89328 4.80349C7.91918 4.78742 7.94605 4.77281 7.97374 4.75975L8.01535 4.74119C8.11661 4.69878 8.21648 4.66034 8.31913 4.6219C8.47865 4.56225 8.64094 4.50924 8.80462 4.46019ZM5.8126 5.61334C5.8126 5.61334 5.8126 5.62262 5.8015 5.63322C5.79041 5.64383 5.77792 5.65973 5.75711 5.67961C5.6184 5.81216 5.47969 5.92217 5.34098 6.02821C5.31601 6.04677 5.28965 6.06665 5.25914 6.08653C5.22862 6.10641 5.19672 6.12629 5.16481 6.14618L5.06772 6.20052L5.00113 6.23233L4.9831 6.24161C4.83468 6.30921 4.6821 6.37415 4.52812 6.42452C4.51051 6.43103 4.49243 6.43635 4.47403 6.44043C4.46293 6.44043 4.45877 6.44043 4.46016 6.44043C4.46619 6.43325 4.47376 6.42737 4.48235 6.4232L4.54061 6.39139C4.69426 6.3113 4.84293 6.22279 4.98588 6.12629L5.06217 6.07593L5.15372 6.01098L5.23972 5.95664L5.3063 5.91687H5.31601C5.45472 5.83204 5.60176 5.74324 5.74324 5.65178C5.76066 5.63984 5.77871 5.62878 5.79734 5.61864H5.80844C5.80844 5.61864 5.81815 5.61864 5.81954 5.61864M7.25243 5.09641C7.25954 5.09303 7.26738 5.09127 7.27532 5.09127C7.28326 5.09127 7.2911 5.09303 7.29821 5.09641C7.29821 5.09641 7.30792 5.11232 7.29821 5.12955C7.28659 5.15223 7.27165 5.17321 7.25382 5.19185C7.09985 5.36283 6.94449 5.52056 6.79052 5.66636C6.76067 5.69463 6.72868 5.72077 6.69481 5.74456C6.65874 5.77107 6.61713 5.79758 6.57552 5.82276C6.5339 5.84795 6.48952 5.87313 6.44929 5.89301L6.38687 5.9235L6.33138 5.94736C6.12054 6.03086 5.91525 6.11834 5.69886 6.2045C5.67496 6.21557 5.64984 6.22402 5.62395 6.22968C5.60731 6.22968 5.5976 6.22968 5.59482 6.22968C5.59205 6.22968 5.59482 6.2151 5.61147 6.20317C5.63025 6.18481 5.65017 6.16755 5.67111 6.15148C5.83387 6.02954 5.99663 5.89699 6.15938 5.75384C6.18296 5.73131 6.21348 5.70745 6.24538 5.68094L6.34803 5.60274L6.45623 5.52719L6.52558 5.48345L6.5561 5.46622C6.75862 5.35355 6.96114 5.24221 7.16504 5.1375C7.1842 5.12687 7.20414 5.11757 7.22469 5.10967H7.24966M9.88519 4.22824C9.90571 4.22299 9.92656 4.21901 9.94761 4.21631C10.3076 4.16473 10.6701 4.13066 11.0337 4.11425C11.0908 4.1107 11.148 4.11653 11.203 4.13148C11.2497 4.14181 11.2933 4.16221 11.3306 4.19113C11.3613 4.21519 11.3839 4.24742 11.3955 4.28374C11.4072 4.32007 11.4072 4.35887 11.3958 4.39525C11.2959 4.68243 11.1942 4.95105 11.0906 5.20112C11.0702 5.24639 11.0383 5.28604 10.9977 5.31644C10.9507 5.35147 10.8976 5.37838 10.8409 5.39597C10.7771 5.41607 10.711 5.42853 10.6439 5.43308C10.6162 5.43308 10.5871 5.43308 10.5593 5.43308C10.5175 5.43218 10.4758 5.42864 10.4345 5.42248C10.0428 5.36029 9.64687 5.32617 9.24989 5.32042C9.19984 5.32091 9.14994 5.31511 9.10147 5.30318C9.06815 5.29508 9.03727 5.27965 9.0113 5.25812C9.0016 5.24927 8.99398 5.23855 8.98896 5.22666C8.98394 5.21478 8.98162 5.202 8.98218 5.1892C8.9848 5.15765 8.99738 5.12761 9.01824 5.10304C9.15418 4.92013 9.28919 4.71998 9.42328 4.50261C9.44685 4.4669 9.47531 4.43436 9.5079 4.40585C9.6143 4.31261 9.74358 4.24651 9.88381 4.21366M3.52385 6.63527C3.53911 6.63527 3.5613 6.62467 3.58904 6.61936C3.7539 6.58093 3.91567 6.53132 4.07315 6.47091L4.15499 6.44043L4.24238 6.40729L4.32838 6.37416L4.39635 6.34897C4.53506 6.29993 4.66406 6.24426 4.79445 6.18329C4.81021 6.17576 4.82642 6.16912 4.843 6.16341C4.85271 6.16341 4.85826 6.16341 4.85826 6.16341C4.85826 6.16341 4.85132 6.17269 4.84023 6.18196C4.82382 6.19397 4.80668 6.20504 4.7889 6.2151C4.6437 6.30543 4.49267 6.38688 4.3367 6.45898C4.31035 6.47091 4.27983 6.48417 4.24793 6.4961L4.15221 6.53188L4.0565 6.56104L3.99408 6.57695H3.97605C3.83381 6.60807 3.68975 6.63109 3.54465 6.64587C3.52851 6.64739 3.51225 6.64739 3.49611 6.64587C3.48778 6.64587 3.48501 6.64587 3.48917 6.64587H3.49611H3.5183M5.96518 5.81481C5.96518 5.81481 5.96518 5.82807 5.95409 5.83999C5.93806 5.8586 5.92043 5.8759 5.90138 5.89169C5.73677 6.03219 5.5717 6.15987 5.40617 6.27475C5.37843 6.2933 5.34514 6.31451 5.30907 6.33572L5.19672 6.39801C5.15649 6.41657 5.11765 6.43645 5.0802 6.45236L5.02194 6.47621L4.97894 6.49345C4.8 6.55574 4.61967 6.61274 4.4338 6.6631C4.41328 6.66867 4.39244 6.67309 4.37138 6.67636C4.3589 6.67636 4.35335 6.67636 4.35473 6.67636C4.35612 6.67636 4.36583 6.66576 4.38248 6.65648C4.40718 6.63847 4.43313 6.62208 4.46016 6.60744C4.64151 6.52314 4.8171 6.42795 4.98588 6.32246L5.07604 6.26679L5.17591 6.2098L5.27717 6.1528L5.34237 6.11967L5.36733 6.10641C5.54072 6.02158 5.71134 5.93145 5.88057 5.84132C5.90218 5.82964 5.92441 5.81903 5.94715 5.80951C5.96241 5.80951 5.97212 5.80288 5.97489 5.80951M3.26723 6.80625L3.3463 6.79167C3.53961 6.76152 3.7302 6.71721 3.9164 6.65913L4.01073 6.62864L4.11476 6.59683L4.21463 6.56502L4.27706 6.54514L4.29925 6.53851C4.45684 6.49349 4.61194 6.44085 4.76394 6.38078C4.78245 6.37342 4.80145 6.36722 4.82081 6.36223C4.83329 6.36223 4.83884 6.36223 4.83884 6.36223C4.8338 6.37079 4.82666 6.37807 4.81803 6.38343L4.757 6.41922C4.58522 6.51943 4.40631 6.60801 4.22157 6.68431C4.19244 6.69624 4.15776 6.7095 4.12031 6.72142C4.08286 6.73335 4.04541 6.74528 4.00518 6.75589C3.96495 6.76649 3.92889 6.77577 3.89282 6.7824L3.83595 6.793H3.79711C3.63069 6.81539 3.46301 6.82823 3.29497 6.83144C3.27651 6.83298 3.25795 6.83298 3.23949 6.83144C3.22839 6.83144 3.227 6.83144 3.23255 6.83144L3.26723 6.80625ZM2.94126 7.01435C2.96345 7.01435 2.99535 7.0064 3.03281 7.00375C3.264 6.97986 3.49273 6.93775 3.71666 6.87783L3.82901 6.84999L3.95108 6.81818L4.07037 6.79035L4.12586 6.77709L4.17025 6.76782C4.3589 6.72938 4.54338 6.68166 4.7251 6.63527C4.74716 6.62757 4.76991 6.6218 4.79306 6.61804C4.80832 6.61804 4.81526 6.61804 4.81526 6.61804C4.81526 6.61804 4.80694 6.63129 4.79168 6.64322L4.71816 6.68431C4.51179 6.78693 4.29811 6.87551 4.0787 6.9494C4.04263 6.96133 4.00241 6.97459 3.95663 6.98652C3.91086 6.99845 3.86647 7.00905 3.81792 7.01833C3.76937 7.0276 3.72637 7.03423 3.67921 7.03953H3.63343C3.61033 7.04069 3.58718 7.04069 3.56407 7.03953C3.36484 7.04918 3.16517 7.04697 2.96622 7.03291C2.94423 7.03181 2.9224 7.0287 2.90103 7.02363C2.88855 7.02363 2.88577 7.01568 2.89132 7.0117H2.89826L2.93571 7.00375M6.17048 6.11171C6.19128 6.11171 6.20377 6.11171 6.20793 6.11171C6.21209 6.11171 6.20793 6.12894 6.19822 6.14485C6.17885 6.1657 6.15749 6.18478 6.13441 6.20184C5.93051 6.35427 5.72937 6.48814 5.5324 6.60876C5.49772 6.62864 5.4575 6.64985 5.41311 6.67106C5.36872 6.69226 5.32156 6.71215 5.2744 6.73203C5.22723 6.75191 5.17869 6.76782 5.13568 6.78107L5.09407 6.79432C5.06673 6.80276 5.03895 6.80984 5.01084 6.81553C4.79307 6.86457 4.57113 6.91096 4.34364 6.94808C4.31855 6.95315 4.29299 6.95581 4.26735 6.95603C4.2507 6.95603 4.24376 6.95603 4.24515 6.94675C4.254 6.93683 4.26485 6.92871 4.27706 6.92289C4.29648 6.91362 4.32422 6.90036 4.36028 6.88578C4.57623 6.79737 4.78611 6.69599 4.98865 6.58225L5.09684 6.52526L5.21891 6.46561L5.34098 6.40862L5.39785 6.38476L5.45056 6.36488L5.79457 6.23233L6.09002 6.14353C6.11771 6.13264 6.14654 6.12464 6.17603 6.11967M6.97778 5.85458C7.25081 5.77594 7.5288 5.71396 7.81006 5.66901C7.85006 5.66327 7.89073 5.66327 7.93074 5.66901C7.95719 5.67145 7.98205 5.68217 8.00148 5.6995C8.00924 5.70674 8.01467 5.71596 8.01713 5.72606C8.01959 5.73616 8.01897 5.74672 8.01535 5.75649C8.00538 5.7855 7.98769 5.81153 7.96403 5.83204C7.78021 6.00678 7.58617 6.1714 7.38282 6.32511C7.3443 6.35358 7.3024 6.37761 7.25798 6.39669C7.20612 6.41963 7.15285 6.43955 7.09846 6.45633C7.04298 6.47356 6.98472 6.48682 6.92785 6.49875L6.88762 6.5067C6.84601 6.5067 6.80578 6.51863 6.76833 6.52128C6.48452 6.5457 6.20245 6.58598 5.92357 6.6419C5.89163 6.64837 5.85912 6.65193 5.82647 6.6525C5.80428 6.6525 5.79041 6.6525 5.78624 6.63925C5.78208 6.62599 5.78624 6.61936 5.80289 6.60346C5.82503 6.58276 5.84918 6.56412 5.87502 6.54779C6.07061 6.42187 6.27035 6.2827 6.47148 6.12364C6.50616 6.09669 6.54227 6.07148 6.57968 6.04809C6.6199 6.02291 6.66429 5.99773 6.71007 5.97254C6.75584 5.94736 6.80162 5.92615 6.84878 5.90627L6.90843 5.88241C6.93201 5.87313 6.9542 5.8665 6.9764 5.85988M12.3862 4.11955C12.4254 4.10981 12.4652 4.10273 12.5055 4.09834C12.5364 4.09633 12.5675 4.09633 12.5984 4.09834C13.0853 4.09834 13.5694 4.09834 14.0452 4.07449C14.1216 4.06898 14.1984 4.07524 14.2727 4.09304C14.3386 4.1068 14.4012 4.13244 14.4571 4.16859C14.5087 4.20282 14.551 4.24825 14.5806 4.30114C14.6103 4.35443 14.6242 4.41447 14.6208 4.47477C14.6 4.91217 14.5848 5.3562 14.5709 5.80023C14.5685 5.87565 14.5481 5.94956 14.5112 6.01628C14.4734 6.08134 14.4208 6.1375 14.3573 6.18064C14.2654 6.24081 14.1566 6.27314 14.0452 6.27342C13.9841 6.27473 13.9231 6.26894 13.8635 6.25619C13.3225 6.13822 12.7538 5.98182 12.1989 5.83469C12.1195 5.81488 12.0434 5.78454 11.9728 5.74456C11.911 5.70387 11.8566 5.65371 11.8119 5.59611C11.7727 5.55518 11.743 5.50687 11.7245 5.45429C11.71 5.40623 11.71 5.35522 11.7245 5.30716C11.817 5.02881 11.9048 4.73235 11.9881 4.41778C12.0022 4.36845 12.0283 4.32303 12.0644 4.28523C12.1045 4.24316 12.1513 4.20738 12.2031 4.1792C12.2361 4.16136 12.2704 4.14586 12.3057 4.13281L12.3862 4.10762M8.68117 5.65443C8.7377 5.63624 8.79569 5.6225 8.85456 5.61334C8.87748 5.60904 8.90064 5.60594 8.92392 5.60406C8.96036 5.60078 8.99705 5.60078 9.0335 5.60406C9.44027 5.62375 9.8445 5.67697 10.2417 5.76312C10.3084 5.77526 10.3725 5.79764 10.4317 5.82939C10.4849 5.8556 10.532 5.89164 10.5704 5.93543C10.6044 5.97311 10.6269 6.01894 10.6356 6.06797C10.645 6.11327 10.6371 6.16028 10.6134 6.20052C10.4676 6.45807 10.3011 6.70445 10.1155 6.93747C10.0795 6.978 10.0309 7.00635 9.97674 7.01833C9.91166 7.03748 9.84366 7.046 9.77561 7.04351C9.69661 7.04074 9.61809 7.03053 9.54119 7.01303L9.49957 7.00375C9.43239 6.98713 9.36656 6.96587 9.3026 6.94012C8.89234 6.7737 8.46381 6.65188 8.02506 6.57695C7.97317 6.56958 7.9224 6.55623 7.87386 6.53719C7.84175 6.52616 7.81344 6.5069 7.79202 6.48152C7.78453 6.47223 7.7796 6.4613 7.77766 6.44973C7.77572 6.43815 7.77684 6.4263 7.78093 6.41524C7.79322 6.38496 7.81441 6.35872 7.84196 6.33969C8.04467 6.17873 8.23647 6.00563 8.41623 5.82144C8.4494 5.78908 8.48723 5.7614 8.52859 5.73926C8.57302 5.71388 8.61939 5.69173 8.6673 5.67299H8.67701M11.6732 6.13027C11.9719 6.19138 12.2651 6.27515 12.5499 6.38078C13.07 6.56237 13.5819 6.67503 14.0868 7.00772C14.1704 7.06505 14.2451 7.13331 14.3087 7.21052C14.3731 7.28875 14.4245 7.37591 14.4613 7.46898C14.4963 7.55739 14.5128 7.65152 14.5099 7.746C14.4863 8.39018 14.4544 8.99723 14.41 9.55525C14.4076 9.64108 14.3743 9.72349 14.3157 9.78853C14.287 9.81612 14.2525 9.83758 14.2144 9.85152C14.1764 9.86545 14.1358 9.87154 14.0951 9.86939C13.9873 9.86517 13.8817 9.83847 13.7858 9.79118L13.758 9.77793C13.6397 9.71907 13.5285 9.64795 13.4265 9.56586C12.733 9.02242 12.0283 8.48958 11.3458 8.03363C11.2515 7.97262 11.1633 7.9034 11.0823 7.82686C11.0157 7.76541 10.9566 7.69693 10.9061 7.62274C10.8666 7.56726 10.8397 7.50451 10.827 7.4385C10.8175 7.38658 10.8273 7.33311 10.8548 7.2874C11.027 7.01238 11.179 6.72628 11.3098 6.43115C11.3434 6.31135 11.4238 6.20842 11.5345 6.14353C11.5783 6.12585 11.6266 6.12123 11.6732 6.13027Z" fill="#1782C5"/>
</svg>
