<svg width="48" height="48" viewBox="0 0 48 48" fill="none" xmlns="http://www.w3.org/2000/svg">
<path d="M41.561 42.7514C41.3645 42.7514 41.1725 42.6749 41.03 42.5324L38.6735 40.1744C38.381 39.8819 38.381 39.4064 38.6735 39.1139C38.966 38.8214 39.4415 38.8214 39.734 39.1139L41.1545 40.5344L42.887 33.6029L35.954 35.3354L37.3745 36.7574C37.667 37.0499 37.667 37.5254 37.3745 37.8179C37.082 38.1104 36.6064 38.1104 36.3139 37.8179L33.9575 35.4599C33.767 35.2694 33.6935 34.9904 33.7655 34.7294C33.8375 34.4699 34.0445 34.2674 34.307 34.2029L43.736 31.8464C43.9895 31.7804 44.2624 31.8569 44.4485 32.0429C44.6344 32.2289 44.7095 32.4989 44.645 32.7554L42.2885 42.1829C42.224 42.4454 42.0215 42.6524 41.7605 42.7244C41.6945 42.7424 41.627 42.7514 41.561 42.7514Z" fill="#1782C5"/>
<path d="M23.9727 43.5C23.5587 43.5 23.2227 43.164 23.2227 42.75C23.2227 42.336 23.5587 42 23.9727 42C28.6572 42 33.0927 40.2105 36.4632 36.9615C36.7632 36.675 37.2357 36.6824 37.5237 36.9809C37.8117 37.2794 37.8027 37.755 37.5042 38.0415C33.8517 41.562 29.0472 43.5 23.9727 43.5Z" fill="#1782C5"/>
<path d="M23.9961 46.4998C11.5896 46.4998 1.49609 36.4063 1.49609 23.9998C1.49609 23.4793 1.51409 22.9618 1.54859 22.4473C1.57709 22.0348 1.95059 21.7393 2.34809 21.7498C2.76209 21.7783 3.07409 22.1353 3.04559 22.5493C3.01259 23.0293 2.99609 23.5123 2.99609 23.9998C2.99609 35.5798 12.4161 44.9998 23.9961 44.9998C29.4141 44.9998 34.5576 42.9418 38.4786 39.2068C38.7771 38.9218 39.2526 38.9308 39.5391 39.2323C39.8241 39.5323 39.8136 40.0063 39.5136 40.2928C35.3121 44.2948 29.8011 46.4998 23.9961 46.4998Z" fill="#1782C5"/>
<path d="M4.11351 16.1774C3.91701 16.1774 3.72501 16.0994 3.58251 15.9584C3.39651 15.7724 3.32151 15.5024 3.38601 15.2459L5.74251 5.8169C5.80701 5.5544 6.00951 5.3474 6.27051 5.2754C6.52851 5.2034 6.81051 5.2754 7.00101 5.4674L9.35751 7.8269C9.65001 8.1194 9.65001 8.5949 9.35751 8.8874C9.06501 9.1799 8.58951 9.1799 8.29701 8.8874L6.87651 7.4669L5.14401 14.3969L12.077 12.6644L10.655 11.2424C10.3625 10.9499 10.3625 10.4744 10.655 10.1819C10.9475 9.8894 11.423 9.8894 11.7155 10.1819L14.0735 12.5399C14.264 12.7319 14.3375 13.0109 14.2655 13.2719C14.1935 13.5314 13.9865 13.7324 13.724 13.7984L4.29501 16.1549C4.23501 16.1699 4.17351 16.1774 4.11351 16.1774Z" fill="#1782C5"/>
<path d="M11.0198 11.2487C10.8233 11.2487 10.6268 11.1722 10.4798 11.0192C10.1918 10.7207 10.2008 10.2467 10.4993 9.95865C14.1518 6.43815 18.9563 4.50015 24.0308 4.50015C24.4448 4.50015 24.7808 4.83615 24.7808 5.25015C24.7808 5.66415 24.4448 6.00015 24.0308 6.00015C19.3463 6.00015 14.9108 7.78965 11.5403 11.0387C11.3948 11.1797 11.2073 11.2487 11.0198 11.2487Z" fill="#1782C5"/>
<path d="M45.7535 26.247C45.737 26.247 45.719 26.247 45.701 26.2455C45.2885 26.217 44.9765 25.86 45.0035 25.446C45.038 24.9675 45.0545 24.486 45.0545 24C45.0545 12.42 35.6345 3 24.0545 3C18.6365 3 13.493 5.058 9.57202 8.793C9.27352 9.078 8.79802 9.069 8.51152 8.7675C8.22652 8.4675 8.23702 7.9935 8.53702 7.707C12.7385 3.705 18.2495 1.5 24.0545 1.5C36.461 1.5 46.5545 11.5935 46.5545 24C46.5545 24.519 46.5365 25.0365 46.502 25.548C46.475 25.944 46.145 26.247 45.7535 26.247Z" fill="#1782C5"/>
<path d="M20.9993 43.5144C21.4175 43.5144 21.7565 43.1755 21.7565 42.7573C21.7565 42.3391 21.4175 42.0002 20.9993 42.0002C20.5812 42.0002 20.2422 42.3391 20.2422 42.7573C20.2422 43.1755 20.5812 43.5144 20.9993 43.5144Z" fill="#1782C5"/>
<path d="M27.1048 6.01473C27.523 6.01473 27.8619 5.67574 27.8619 5.25759C27.8619 4.83943 27.523 4.50044 27.1048 4.50044C26.6866 4.50044 26.3477 4.83943 26.3477 5.25759C26.3477 5.67574 26.6866 6.01473 27.1048 6.01473Z" fill="#1782C5"/>
<path d="M20.6616 38.9998C20.5626 38.9998 20.4636 38.9803 20.3676 38.9398C20.0391 38.8003 19.8546 38.4463 19.9281 38.0968L21.9306 28.4998H14.9496C14.6706 28.4998 14.4171 28.3453 14.2866 28.0993C14.1561 27.8533 14.1726 27.5563 14.3301 27.3268L26.6181 9.32682C26.8206 9.02982 27.2031 8.91882 27.5316 9.05982C27.8601 9.19932 28.0446 9.55332 27.9711 9.90282L25.7796 20.4028C25.6956 20.8078 25.2936 21.0703 24.8931 20.9833C24.4866 20.8993 24.2271 20.5018 24.3126 20.0968L25.7346 13.2823L16.3701 26.9998H22.8531C23.0781 26.9998 23.2926 27.1018 23.4351 27.2773C23.5776 27.4528 23.6331 27.6823 23.5866 27.9028L22.1646 34.7173L32.3301 19.8268C32.5641 19.4833 33.0321 19.3963 33.3726 19.6303C33.7146 19.8643 33.8031 20.3308 33.5691 20.6728L21.2811 38.6728C21.1371 38.8828 20.9031 38.9998 20.6616 38.9998Z" fill="#1782C5"/>
</svg>
