<svg width="48" height="48" viewBox="0 0 48 48" fill="none" xmlns="http://www.w3.org/2000/svg">
<path d="M15.4805 30.2288C16.8702 28.8391 16.8702 26.5773 15.4805 25.1876C14.807 24.5145 13.912 24.1435 12.9598 24.1435C12.4094 24.1435 11.8784 24.268 11.3983 24.5028C9.70532 22.0807 8.8136 19.2462 8.8136 16.2649C8.8136 8.63487 14.774 2.31408 22.3828 1.87463C22.9002 1.8446 23.295 1.40112 23.2654 0.884028C23.2353 0.366573 22.7918 -0.0271033 22.2748 0.00146104C13.6743 0.498408 6.9375 7.64207 6.9375 16.2649C6.9375 19.705 7.98889 22.9727 9.98217 25.7482C9.07141 27.1311 9.22375 29.0134 10.4392 30.2288C11.1127 30.9019 12.0077 31.2729 12.9598 31.2729C13.912 31.2729 14.807 30.9019 15.4805 30.2288ZM11.7656 26.5144C12.0948 26.1851 12.5273 26.0203 12.9598 26.0203C13.392 26.0203 13.8245 26.1851 14.1537 26.5144C14.8121 27.1724 14.8121 28.244 14.1537 28.9021C13.4952 29.5605 12.4241 29.5605 11.7656 28.9021C11.1075 28.244 11.1075 27.1728 11.7656 26.5144Z" fill="#1782C5"/>
<path d="M37.6914 32.5001C37.0985 32.5001 36.5411 32.6546 36.0573 32.9256C35.6285 31.5659 34.3555 30.5771 32.8559 30.5771C31.9071 30.5771 31.049 30.973 30.4382 31.608C30.2686 31.4322 30.08 31.2751 29.8761 31.1392C32.0382 30.1713 33.9838 28.7336 35.5582 26.9124C38.1121 23.9571 39.5188 20.1756 39.5188 16.2649C39.5188 12.8265 38.4674 9.557 36.4744 6.78112C37.3852 5.39831 37.2329 3.51635 36.017 2.30054C34.6273 0.910767 32.3659 0.910767 30.9758 2.30054C29.586 3.6903 29.586 5.95202 30.9758 7.34179C31.6709 8.03686 32.5835 8.38439 33.4964 8.38439C34.0315 8.38439 34.5658 8.26391 35.0568 8.02514C36.7506 10.448 37.6427 13.2847 37.6427 16.2649C37.6427 23.0508 33.0361 28.7867 26.5406 30.2977V25.2484C30.2606 23.8751 32.8021 20.2793 32.8021 16.2649C32.8021 10.9859 28.5072 6.69103 23.2279 6.69103C17.949 6.69103 13.654 10.9856 13.654 16.2649C13.654 18.3482 14.3121 20.3294 15.5565 21.9935C16.642 23.4448 18.1438 24.572 19.8287 25.2151V39.0135L18.6502 37.0803C17.66 35.4547 15.5928 34.9273 13.9444 35.8787C12.3767 36.784 11.7651 38.7703 12.5565 40.4088L16.0556 47.4777C16.2193 47.8084 16.5519 47.9999 16.8972 47.9999C17.0371 47.9999 17.1788 47.9688 17.3125 47.9025C17.7768 47.6725 17.9669 47.1097 17.7373 46.6457L14.2418 39.5848C13.8796 38.8344 14.1609 37.9204 14.8827 37.5036C15.6286 37.0729 16.6002 37.3209 17.0484 38.0566L19.9657 42.8433C20.1847 43.2022 20.6157 43.3718 21.0204 43.2582C21.425 43.1447 21.7048 42.7756 21.7048 42.3548V20.8319C21.7048 20.016 22.3687 19.3524 23.1847 19.3524C24.0006 19.3524 24.6645 20.016 24.6645 20.8319V24.5423C24.6642 24.5489 24.6645 24.5555 24.6645 24.5625V38.6477C24.6645 39.1658 25.0842 39.5855 25.6024 39.5855C26.1206 39.5855 26.5406 39.1658 26.5406 38.6477V33.9331C26.5406 33.1171 27.2042 32.4532 28.0201 32.4532C28.836 32.4532 29.5 33.1171 29.5 33.9331V38.989C29.5 39.5071 29.92 39.9272 30.4378 39.9272C30.956 39.9272 31.3761 39.5071 31.3761 38.989V33.9331C31.3761 33.1171 32.04 32.4532 32.8559 32.4532C33.6718 32.4532 34.3354 33.1171 34.3354 33.9331V39.0523C34.3354 39.5705 34.7554 39.9905 35.2736 39.9905C35.7918 39.9905 36.2115 39.5705 36.2115 39.0523V35.856C36.2115 35.0401 36.8754 34.3762 37.6914 34.3762C38.5073 34.3762 39.1712 35.0401 39.1712 35.856V47.0613C39.1712 47.5795 39.5909 47.9996 40.1091 47.9996C40.6273 47.9996 41.0473 47.5795 41.0473 47.0613V35.856C41.0473 34.0056 39.5418 32.5001 37.6914 32.5001ZM32.3026 6.01537C31.6441 5.35693 31.6441 4.28576 32.3026 3.62732C32.6318 3.29809 33.0639 3.13366 33.4964 3.13366C33.9289 3.13366 34.3614 3.29809 34.6906 3.62732C35.3487 4.28576 35.3487 5.35693 34.6906 6.01537C34.0322 6.67345 32.9607 6.67345 32.3026 6.01537ZM15.5301 16.2649C15.5301 12.0201 18.9835 8.56676 23.2282 8.56676C27.4726 8.56676 30.926 12.0201 30.926 16.2649C30.926 19.2539 29.1744 21.9547 26.5406 23.2148V20.8319C26.5406 20.3053 26.4183 19.8065 26.2008 19.3623C27.0328 18.5603 27.5246 17.4422 27.5246 16.2649C27.5246 13.8955 25.5973 11.9681 23.2282 11.9681C20.8589 11.9681 18.9315 13.8955 18.9315 16.2649C18.9315 17.4078 19.397 18.5061 20.1971 19.3066C19.9624 19.7644 19.8287 20.2829 19.8287 20.8319V23.1753C17.2165 21.8987 15.5301 19.2513 15.5301 16.2649ZM21.4825 17.9414C21.05 17.4939 20.8076 16.901 20.8076 16.2649C20.8076 14.93 21.8934 13.8442 23.2279 13.8442C24.5627 13.8442 25.6485 14.93 25.6485 16.2649C25.6485 16.9101 25.3863 17.5246 24.9403 17.9736C24.429 17.6583 23.8277 17.4763 23.1847 17.4763C22.5636 17.4763 21.982 17.6462 21.4825 17.9414Z" fill="#1782C5"/>
<path d="M26.5511 2.21037C26.798 2.21037 27.04 2.11003 27.2144 1.93535C27.389 1.76103 27.4894 1.51896 27.4894 1.27214C27.4894 1.02568 27.389 0.783615 27.2144 0.608932C27.04 0.434616 26.798 0.334274 26.5511 0.334274C26.3047 0.334274 26.0626 0.434616 25.8883 0.608932C25.7136 0.783615 25.6133 1.02568 25.6133 1.27214C25.6133 1.51896 25.7136 1.76103 25.8883 1.93535C26.0626 2.11003 26.3047 2.21037 26.5511 2.21037Z" fill="#1782C5"/>
</svg>
