<svg width="48" height="48" viewBox="0 0 48 48" fill="none" xmlns="http://www.w3.org/2000/svg">
<path d="M21.9 4.108L21.89 4.094L21.864 4.114C11.824 5.18 4 13.674 4 24C4 28.624 5.57 32.882 8.206 36.27V36.274H8.21C9.87743 38.4196 11.9646 40.2029 14.3441 41.5151C16.7237 42.8273 19.3456 43.6408 22.05 43.906C22.144 42.954 22.376 41.958 22.724 40.952C18.4095 40.6312 14.3806 38.6737 11.462 35.48C11.572 35 11.622 34.442 11.662 33.958L11.68 33.722C11.716 33.282 11.75 32.858 11.806 32.43C11.946 31.376 12.186 30.672 12.56 30.274C13.04 29.76 13.532 29.674 14.562 29.492L14.748 29.458C15.276 29.366 15.982 29.224 16.662 28.854C17.388 28.458 18.002 27.854 18.464 26.964C18.93 26.068 18.896 25.144 18.768 24.414C18.6516 23.8295 18.4979 23.253 18.308 22.688L18.216 22.392C17.806 21.056 17.756 20.406 18.094 19.892C18.462 19.332 18.966 19.204 20.278 18.864L20.448 18.822C21.78 18.478 23.584 17.902 24.628 15.676C25.76 13.266 25.122 10.548 24.428 8.704C24.2087 8.12488 23.9597 7.55746 23.682 7.004C23.7873 7.00133 23.8933 7 24 7C27.2107 6.9951 30.3565 7.90381 33.07 9.62C32.686 10.13 32.172 10.802 31.598 11.52C30.338 13.094 28.918 14.714 27.95 15.44C27.5054 15.7668 27.1672 16.2177 26.978 16.736C26.8166 17.2079 26.7787 17.7133 26.868 18.204C27.008 19.036 27.45 19.816 27.842 20.412C28.168 20.91 28.552 21.412 28.874 21.836L29.094 22.122C29.2807 22.3687 29.432 22.58 29.548 22.756C29.6053 22.8427 29.648 22.912 29.676 22.964L29.716 23.042C29.7947 23.262 29.8833 23.622 29.982 24.122L30.026 24.334C30.914 23.938 31.876 23.634 32.906 23.444C32.8166 22.9553 32.6909 22.474 32.53 22.004C32.31 21.41 31.832 20.772 31.488 20.316L31.228 19.976C30.9217 19.5827 30.6289 19.1792 30.35 18.766C30.04 18.294 29.89 17.968 29.84 17.77C31.14 16.766 32.736 14.898 33.94 13.396C34.532 12.656 35.06 11.966 35.454 11.438C38.7524 14.44 40.7355 18.6204 40.974 23.074C42.134 23.166 43.134 23.318 43.994 23.496C43.726 12.684 34.878 4 24 4C23.2907 4 22.5907 4.036 21.9 4.108ZM8.872 31.762C7.68007 29.4379 7.0395 26.8705 6.99997 24.2588C6.96044 21.6472 7.52302 19.0616 8.64407 16.7024C9.76512 14.3433 11.4145 12.2741 13.4643 10.6554C15.5141 9.03657 17.9093 7.91171 20.464 7.368C20.5307 7.48 20.608 7.61533 20.696 7.774C20.974 8.274 21.322 8.968 21.62 9.76C22.25 11.43 22.504 13.142 21.914 14.4C21.464 15.356 20.824 15.626 19.698 15.916L19.374 15.996C18.31 16.254 16.632 16.658 15.588 18.242C14.386 20.066 14.978 22.064 15.348 23.272L15.468 23.656C15.628 24.166 15.748 24.556 15.812 24.928C15.888 25.362 15.832 25.522 15.804 25.578C15.604 25.964 15.404 26.122 15.228 26.218C15.008 26.338 14.72 26.418 14.224 26.504C14.144 26.52 14.0573 26.5347 13.964 26.548C13.038 26.7 11.566 26.942 10.368 28.228C9.396 29.268 9.042 30.648 8.872 31.762ZM24.014 44.41C24.134 42.48 25.004 40.126 26.48 37.908C26.958 37.096 27.548 36.274 28.252 35.472C30.6253 32.7729 33.7601 30.8555 37.244 29.972C37.5015 29.9076 37.7229 29.7434 37.8594 29.5158C37.996 29.2881 38.0364 29.0155 37.972 28.758C37.9076 28.5005 37.7434 28.2791 37.5158 28.1426C37.2881 28.006 37.0155 27.9656 36.758 28.03C32.8794 29.0124 29.3895 31.1468 26.748 34.152C26.214 34.762 25.728 35.396 25.296 36.038C25.1002 35.3764 25.0005 34.69 25 34C25 32.166 25.934 30.174 27.414 28.594C29.1022 26.7988 31.3603 25.644 33.804 25.326C39.404 24.586 42.88 25.206 44.93 25.78C45.2069 25.8576 45.4556 26.0131 45.6466 26.2281C45.8376 26.443 45.9628 26.7083 46.0073 26.9924C46.0517 27.2765 46.0136 27.5674 45.8974 27.8304C45.7813 28.0934 45.5919 28.3175 45.352 28.476C45.238 28.552 45.054 28.736 44.832 29.156C44.5703 29.686 44.3562 30.2382 44.192 30.806C44.018 31.374 43.852 31.988 43.672 32.656L43.556 33.08C43.334 33.9 43.088 34.78 42.792 35.652C42.208 37.376 41.384 39.216 39.998 40.628C38.56 42.094 36.608 43.008 34 43.008C31.342 43.008 29.486 41.93 28.3 40.69C27.492 42.17 27.072 43.564 27.008 44.592C26.9772 44.984 26.7937 45.3482 26.497 45.6063C26.2002 45.8643 25.8141 45.9955 25.4216 45.9716C25.0291 45.9478 24.6617 45.7708 24.3984 45.4787C24.1352 45.1866 23.9971 44.8028 24.014 44.41Z" fill="white"/>
</svg>
