<svg width="52" height="52" viewBox="0 0 52 52" fill="none" xmlns="http://www.w3.org/2000/svg">
<path fill-rule="evenodd" clip-rule="evenodd" d="M25.2416 16.25C24.9827 16.2499 24.7324 16.3426 24.5359 16.5112C24.3395 16.6797 24.2099 16.9131 24.1706 17.1689C24.1313 17.4248 24.1849 17.6863 24.3218 17.906C24.4586 18.1258 24.6696 18.2892 24.9166 18.3668V19.3873C24.1797 19.5317 23.4792 19.822 22.8561 20.241L22.2234 19.6083C22.42 19.4031 22.528 19.1288 22.5243 18.8446C22.5205 18.5605 22.4052 18.2892 22.2032 18.0892C22.0013 17.8893 21.7289 17.7767 21.4447 17.7757C21.1605 17.7747 20.8873 17.8855 20.684 18.0841L19.1673 19.6008C18.9687 19.804 18.858 20.0772 18.859 20.3614C18.8599 20.6456 18.9725 20.918 19.1725 21.12C19.3724 21.3219 19.6437 21.4372 19.9279 21.441C20.2121 21.4448 20.4863 21.3367 20.6916 21.1402L21.3243 21.7728C20.9052 22.3959 20.615 23.0965 20.4706 23.8333H19.4501C19.3725 23.5864 19.209 23.3754 18.9893 23.2385C18.7695 23.1017 18.5081 23.0481 18.2522 23.0873C17.9963 23.1266 17.763 23.2562 17.5944 23.4527C17.4258 23.6491 17.3332 23.8995 17.3333 24.1583V25.675C17.3332 25.9339 17.4258 26.1842 17.5944 26.3806C17.763 26.5771 17.9963 26.7067 18.2522 26.746C18.5081 26.7853 18.7695 26.7316 18.9893 26.5948C19.209 26.458 19.3725 26.247 19.4501 26H20.4706C20.615 26.7369 20.9052 27.4374 21.3243 28.0605L20.6916 28.6932C20.4863 28.4966 20.2121 28.3886 19.9279 28.3923C19.6437 28.3961 19.3724 28.5114 19.1725 28.7133C18.9725 28.9153 18.8599 29.1877 18.859 29.4719C18.858 29.7561 18.9687 30.0293 19.1673 30.2326L20.684 31.7492C20.8873 31.9478 21.1605 32.0586 21.4447 32.0576C21.7289 32.0567 22.0013 31.9441 22.2032 31.7441C22.4052 31.5442 22.5205 31.2729 22.5243 30.9887C22.528 30.7045 22.42 30.4302 22.2234 30.225L22.8561 29.5923C23.4792 30.0114 24.1797 30.3016 24.9166 30.446V31.4665C24.6696 31.5441 24.4586 31.7076 24.3218 31.9273C24.1849 32.1471 24.1313 32.4085 24.1706 32.6644C24.2099 32.9203 24.3395 33.1536 24.5359 33.3222C24.7324 33.4907 24.9827 33.5834 25.2416 33.5833H26.7583C27.0171 33.5834 27.2674 33.4907 27.4639 33.3222C27.6604 33.1536 27.79 32.9203 27.8292 32.6644C27.8685 32.4085 27.8149 32.1471 27.6781 31.9273C27.5412 31.7076 27.3302 31.5441 27.0833 31.4665V30.446C27.9996 30.2663 28.857 29.8617 29.5782 29.2684L30.5348 30.225C30.3382 30.4302 30.2301 30.7045 30.2339 30.9887C30.2377 31.2729 30.353 31.5442 30.5549 31.7441C30.7569 31.9441 31.0293 32.0567 31.3135 32.0576C31.5977 32.0586 31.8709 31.9478 32.0742 31.7492L33.5908 30.2326C33.7894 30.0293 33.9002 29.7561 33.8992 29.4719C33.8983 29.1877 33.7857 28.9153 33.5857 28.7133C33.3857 28.5114 33.1144 28.3961 32.8303 28.3923C32.5461 28.3886 32.2718 28.4966 32.0666 28.6932L30.9616 27.5882C31.2259 27.0974 31.4198 26.5633 31.5293 26H32.5498C32.6274 26.247 32.7908 26.458 33.0106 26.5948C33.2303 26.7316 33.4918 26.7853 33.7477 26.746C34.0035 26.7067 34.2369 26.5771 34.4054 26.3806C34.574 26.1842 34.6666 25.9339 34.6666 25.675V24.1583C34.6666 23.8995 34.574 23.6491 34.4054 23.4527C34.2369 23.2562 34.0035 23.1266 33.7477 23.0873C33.4918 23.0481 33.2303 23.1017 33.0106 23.2385C32.7908 23.3754 32.6274 23.5864 32.5498 23.8333H31.5293C31.3849 23.0965 31.0946 22.3959 30.6756 21.7728L31.3083 21.1402C31.5135 21.3367 31.7878 21.4448 32.0719 21.441C32.3561 21.4372 32.6274 21.3219 32.8274 21.12C33.0273 20.918 33.1399 20.6456 33.1409 20.3614C33.1418 20.0772 33.0311 19.804 32.8325 19.6008L31.3158 18.0841C31.1125 17.8855 30.8394 17.7747 30.5552 17.7757C30.271 17.7767 29.9985 17.8893 29.7966 18.0892C29.5946 18.2892 29.4794 18.5605 29.4756 18.8446C29.4718 19.1288 29.5799 19.4031 29.7764 19.6083L29.1438 20.241C28.5207 19.822 27.8201 19.5317 27.0833 19.3873V18.3668C27.3302 18.2892 27.5412 18.1258 27.6781 17.906C27.8149 17.6863 27.8685 17.4248 27.8292 17.1689C27.79 16.9131 27.6604 16.6797 27.4639 16.5112C27.2674 16.3426 27.0171 16.2499 26.7583 16.25H25.2416ZM25.9999 28.3833C25.5447 28.3833 25.0939 28.2937 24.6733 28.1195C24.2527 27.9452 23.8705 27.6899 23.5486 27.368C23.2267 27.0461 22.9714 26.6639 22.7971 26.2433C22.6229 25.8227 22.5333 25.3719 22.5333 24.9167C22.5333 24.4614 22.6229 24.0106 22.7971 23.59C22.9714 23.1694 23.2267 22.7873 23.5486 22.4654C23.8705 22.1435 24.2527 21.8881 24.6733 21.7139C25.0939 21.5397 25.5447 21.45 25.9999 21.45C26.9193 21.45 27.8011 21.8152 28.4512 22.4654C29.1013 23.1155 29.4666 23.9972 29.4666 24.9167C29.4666 25.8361 29.1013 26.7178 28.4512 27.368C27.8011 28.0181 26.9193 28.3833 25.9999 28.3833Z" fill="black"/>
<path fill-rule="evenodd" clip-rule="evenodd" d="M41.2305 9.55387C36.4197 7.4927 31.2334 6.45278 25.9999 6.49995C20.7663 6.45312 15.58 7.49341 10.7693 9.55495L10.7531 9.56253C10.1301 9.84106 9.60078 10.2936 9.22883 10.8658C8.85748 11.4356 8.66195 12.1021 8.66658 12.7822V25.2427C8.66658 28.4472 9.3805 32.2605 11.6588 35.8648C13.9446 39.4809 17.7579 42.8089 23.8224 45.1024C25.2259 45.6313 26.7739 45.6313 28.1774 45.1024C34.2408 42.8122 38.0531 39.4701 40.3389 35.8474C42.6183 32.2367 43.3333 28.4212 43.3333 25.2427V12.7833C43.3378 12.1027 43.1419 11.4358 42.7699 10.8658C42.3983 10.2938 41.8694 9.84124 41.2468 9.56253L41.2305 9.55387ZM13.4907 34.7067C11.4768 31.5217 10.8333 28.1341 10.8333 25.2427V12.7789H9.74992L10.8333 12.7714C10.8311 12.5157 10.9048 12.2622 11.0467 12.0444C11.1875 11.8278 11.3901 11.6512 11.6328 11.5407C16.1682 9.59972 21.0571 8.62142 25.9902 8.6677H26.0097C30.9427 8.62142 35.8317 9.59972 40.3671 11.5407C40.6098 11.6512 40.8123 11.8267 40.9521 12.0434C41.0951 12.2622 41.1688 12.5146 41.1666 12.7714V25.2416C41.1666 28.1049 40.522 31.4968 38.507 34.6904C36.4985 37.8722 33.0838 40.9326 27.4115 43.0754C26.5016 43.4178 25.4983 43.4178 24.5883 43.0754C18.9117 40.9283 15.497 37.8809 13.4907 34.7067Z" fill="black"/>
</svg>
