<svg width="48" height="48" viewBox="0 0 48 48" fill="none" xmlns="http://www.w3.org/2000/svg">
<path d="M22.596 4.38999C23.3852 4.0947 24.2476 4.0562 25.06 4.27999L25.404 4.38999L39.404 9.63999C40.1139 9.90617 40.7335 10.3686 41.1906 10.9734C41.6477 11.5782 41.9236 12.3004 41.986 13.056L42 13.386V24.112C41.9999 27.3528 41.1249 30.5335 39.4672 33.3184C37.8095 36.1032 35.4308 38.3888 32.582 39.934L32.05 40.212L25.342 43.566C24.9726 43.7504 24.5692 43.8566 24.1569 43.8779C23.7447 43.8993 23.3324 43.8353 22.946 43.69L22.658 43.566L15.95 40.212C13.0512 38.7626 10.5976 36.5574 8.84801 33.8292C7.09847 31.1011 6.11796 27.9511 6.01 24.712L6 24.112V13.386C6.00001 12.6283 6.21525 11.8861 6.62067 11.2459C7.02608 10.6058 7.60499 10.0939 8.29 9.76999L8.596 9.63999L22.596 4.38999ZM24 8.13599L10 13.386V24.112C10.0001 26.622 10.6749 29.0858 11.9539 31.2456C13.2329 33.4053 15.069 35.1814 17.27 36.388L17.74 36.634L24 39.764L30.26 36.634C32.5055 35.5115 34.4078 33.8058 35.7677 31.6957C37.1277 29.5856 37.8952 27.1486 37.99 24.64L38 24.112V13.386L24 8.13599ZM30.866 17.258C31.2259 16.8993 31.7089 16.691 32.2168 16.6755C32.7247 16.66 33.2194 16.8384 33.6006 17.1745C33.9817 17.5106 34.2206 17.9791 34.2688 18.4849C34.317 18.9908 34.1708 19.496 33.86 19.898L33.694 20.086L23.226 30.556C22.8447 30.9372 22.3366 31.1652 21.7983 31.1965C21.26 31.2279 20.729 31.0604 20.306 30.726L20.114 30.556L15.306 25.748C14.9435 25.3889 14.7319 24.9049 14.7146 24.3949C14.6973 23.8849 14.8756 23.3877 15.2129 23.0048C15.5503 22.622 16.0212 22.3826 16.5292 22.3356C17.0373 22.2886 17.5442 22.4375 17.946 22.752L18.134 22.918L21.67 26.454L30.866 17.258Z" fill="white"/>
</svg>
