<svg width="13" height="13" viewBox="0 0 13 13" fill="none" xmlns="http://www.w3.org/2000/svg">
<path d="M11.6556 1.34291H12.1562L12.1555 0.842981L11.6556 0.842273V1.34291ZM0.6954 11.596C0.601632 11.6897 0.548953 11.8169 0.548953 11.9495C0.548952 12.0821 0.601631 12.2093 0.6954 12.3031C0.789168 12.3968 0.916344 12.4495 1.04895 12.4495C1.18156 12.4495 1.30874 12.3968 1.40251 12.3031L0.6954 11.596ZM12.1562 9.82819L12.1562 1.34291H11.1549L11.1549 9.82819H12.1562ZM11.6556 0.842273L3.17027 0.842273V1.84354L11.6556 1.84354V0.842273ZM11.302 0.989352L0.6954 11.596L1.40251 12.3031L12.0091 1.69646L11.302 0.989352Z" fill="#FFFFFF"/>
</svg>
