<svg width="48" height="48" viewBox="0 0 48 48" fill="none" xmlns="http://www.w3.org/2000/svg">
<path d="M22.9286 2.74013H23.0121H24.918H25.0015V2.82363V4.44716C25.0015 4.76316 25.1879 5.00871 25.4986 5.07107C25.4987 5.0711 25.4989 5.07113 25.4991 5.07117L25.4827 5.15304L22.9286 2.74013ZM22.9286 2.74013V2.82363M22.9286 2.74013V2.82363M22.9286 2.82363V4.37657C22.9286 4.69257 22.7422 4.93812 22.4315 5.00048C21.2904 5.21451 20.2915 5.64271 19.3646 6.28439L19.3645 6.28434L19.362 6.28624C19.2408 6.37716 19.0864 6.40942 18.9356 6.39353C18.784 6.37758 18.6439 6.31382 18.5535 6.22341L17.4241 5.094L17.3651 5.03496L17.306 5.094L15.9648 6.43518L15.9058 6.49422L15.9648 6.55326L17.09 7.6784L22.9286 2.82363ZM30.6356 5.10555L30.6947 5.16459L32.0359 6.50577L32.0949 6.56481L32.0359 6.62385L30.9064 7.75326C30.816 7.84367 30.7523 7.98375 30.7363 8.13531C30.7204 8.28619 30.7527 8.44054 30.8436 8.56177L30.8455 8.5643L30.8455 8.56434C31.4879 9.49232 31.9156 10.5621 32.1294 11.7018C32.1917 12.0126 32.4373 12.199 32.7533 12.199H34.3768H34.4603V12.2825V14.1177V14.2012H34.3768H30.565H30.4581L30.484 14.0975C30.5517 13.8271 30.5521 13.4852 30.5521 13.2001C30.5521 9.64621 27.6248 6.71889 24.0709 6.71889C21.0048 6.71889 18.4266 8.80868 17.729 11.7356C17.6984 11.8906 17.7294 12.064 17.8086 12.2066C17.888 12.3494 18.0109 12.4535 18.1579 12.4829C18.3133 12.514 18.4874 12.483 18.6304 12.4036C18.7732 12.3242 18.8773 12.2013 18.9067 12.0543L18.9074 12.051L18.9074 12.051C19.4809 9.68546 21.5605 7.96366 24.0709 7.96366C26.9406 7.96366 29.3074 10.3305 29.3074 13.2001C29.3074 13.3819 29.2892 13.545 29.2715 13.6952L29.2687 13.7186C29.252 13.8608 29.2368 13.9895 29.2368 14.1177V14.2012H29.1533H13.6239H13.5404V14.1177V12.2119V12.1284H13.6239H15.2474C15.5634 12.1284 15.809 11.942 15.8713 11.6312C15.8714 11.6311 15.8714 11.6309 15.8714 11.6308L30.6356 5.10555ZM30.6356 5.10555L30.5766 5.16459M30.6356 5.10555L30.5766 5.16459M30.5766 5.16459L29.4515 6.28973L30.5766 5.16459ZM2.82387 17.153C2.82387 18.0258 3.52619 18.707 4.32361 18.7715L2.82387 17.153ZM2.82387 17.153C2.82387 16.2354 3.52976 15.5295 4.4474 15.5295M2.82387 17.153L4.4474 15.5295M4.4474 15.5295H38.0474M4.4474 15.5295H38.0474M38.0474 15.5295C38.4709 15.5295 38.7533 15.2472 38.7533 14.8236M38.0474 15.5295L38.7533 14.8236M38.7533 14.8236C38.7533 14.4001 38.4709 14.1177 38.0474 14.1177M38.7533 14.8236L38.0474 14.1177M38.0474 14.1177H35.9427H38.0474ZM21.6897 3.89322L21.7544 3.87829V3.81187V2.11775C21.7544 1.92496 21.8183 1.77079 21.9241 1.66502C22.0299 1.55926 22.184 1.49536 22.3768 1.49536H25.6945C25.8873 1.49536 26.0414 1.55926 26.1472 1.66502C26.2529 1.77079 26.3168 1.92496 26.3168 2.11775V3.81187V3.87829L26.3816 3.89322C27.2902 4.10291 28.1284 4.45222 28.8967 4.94113L28.9484 4.97404L28.9953 4.93456L30.3365 3.80514L30.3367 3.80538L30.3417 3.80032C30.5915 3.55057 30.9621 3.55057 31.2119 3.80032L33.5413 6.12973C33.791 6.37948 33.791 6.75014 33.5413 6.99988L32.3413 8.19988L32.2939 8.24724L32.3299 8.30375C32.8188 9.07203 33.1681 9.91025 33.3778 10.8189L33.3927 10.8836H33.4592H35.1533C35.3461 10.8836 35.5002 10.9475 35.606 11.0533C35.7118 11.159 35.7757 11.3132 35.7757 11.506V14.1177V14.2012H35.8592H38.0474C38.2402 14.2012 38.3944 14.2651 38.5001 14.3709C38.6059 14.4767 38.6698 14.6308 38.6698 14.8236C38.6698 15.0164 38.6059 15.1706 38.5001 15.2764C38.3944 15.3821 38.2402 15.446 38.0474 15.446H4.4474C3.48364 15.446 2.74038 16.1893 2.74038 17.153C2.74038 18.0742 3.48239 18.7906 4.32359 18.8553C4.32359 18.8569 4.32359 18.8585 4.32359 18.8601H4.32399H4.32414H4.32535H4.32565H4.32768H4.3281H4.33098H4.3315H4.33524H4.33584H4.34048H4.34111H4.34671H4.34732H4.35391H4.35446H4.3621H4.36253H4.37128H4.37151H4.38141H4.38146H4.39223H4.39264H4.40396H4.40482H4.41659H4.418H4.43013H4.43219H4.44456H4.4474H4.45989H4.47611H4.49321H4.5112H4.53007H4.54981H4.57043H4.59191H4.61426H4.63746H4.66152H4.68644H4.7122H4.73881H4.76625H4.79454H4.82366H4.8536H4.88437H4.91597H4.94838H4.9816H5.01563H5.05047H5.08612H5.12256H5.15979H5.19782H5.23663H5.27622H5.3166H5.35774H5.39966H5.44235H5.4858H5.53001H5.57498H5.6207H5.66716H5.71437H5.76232H5.81101H5.86043H5.91058H5.96146H6.01305H6.06537H6.11839H6.17213H6.22657H6.28171H6.33755H6.39409H6.45132H6.50923H6.56783H6.6271H6.68705H6.74767H6.80896H6.87091H6.93352H6.99678H7.0607H7.12527H7.19048H7.25633H7.32281H7.38993H7.45768H7.52605H7.59505H7.66466H7.73488H7.80572H7.87716H7.9492H8.02184H8.09507H8.16889H8.2433H8.31829H8.39386H8.47001H8.54673H8.62401H8.70186H8.78026H8.85922H8.93874H9.0188H9.0994H9.18055H9.26223H9.34444H9.42718H9.51045H9.59424H9.67854H9.76336H9.84869H9.93452H10.0209H10.1077H10.195H10.2828H10.3711H10.4599H10.5492H10.6389H10.7291H10.8198H10.9109H11.0025H11.0946H11.1871H11.28H11.3734H11.4673H11.5615H11.6562H11.7514H11.8469H11.9429H12.0393H12.1361H12.2333H12.3309H12.429H12.5274H12.6262H12.7254H12.825H12.925H13.0253H13.126H13.2271H13.3286H13.4304H13.5326H13.6351H13.738H13.8413H13.9448H14.0488H14.153H14.2576H14.3625H14.4678H14.5733H14.6792H14.7854H14.8919H14.9987H15.1058H15.2132H15.3209H15.4289H15.5371H15.6457H15.7545H15.8636H15.973H16.0827H16.1926H16.3027H16.4131H16.5238H16.6347H16.7459H16.8573H16.9689H17.0808H17.1929H17.3052H17.4178H17.5305H17.6435H17.7567H17.8701H17.9836H18.0974H18.2114H18.3256H18.4399H18.5544H18.6692H18.784H18.8991H19.0143H19.1297H19.2452H19.3609H19.4768H19.5928H19.7089H19.8252H19.9416H20.0581H20.1748H20.2916H20.4085H20.5256H20.6427H20.76H20.8773H20.9948H21.1123H21.23H21.3477H21.4655H21.5835H21.7014H21.8195H21.9376H22.0558H22.1741H22.2924H22.4108H22.5292H22.6476H22.7662H22.8847H23.0033H23.1219H23.2405H23.3592H23.4779H23.5966H23.7153H23.834H23.9528H24.0715H24.1902H24.3089H24.4277H24.5463H24.665H24.7837H24.9023H25.0209H25.1395H25.258H25.3765H25.4949H25.6133H25.7316H25.8499H25.9681H26.0863H26.2043H26.3224H26.4403H26.5581H26.6759H26.7936H26.9112H27.0287H27.1461H27.2634H27.3805H27.4976H27.6146H27.7314H27.8481H27.9647H28.0812H28.1975H28.3137H28.4297H28.5456H28.6614H28.777H28.8924H29.0077H29.1228H29.2378H29.3525H29.4671H29.5815H29.6958H29.8098H29.9237H30.0373H30.1508H30.264H30.3771H30.4899H30.6025H30.7149H30.8271H30.9391H31.0508H31.1623H31.2735H31.3845H31.4953H31.6058H31.716H31.826H31.9358H32.0452H32.1544H32.2634H32.372H32.4804H32.5885H32.6963H32.8038H32.911H33.0179H33.1245H33.2308H33.3368H33.4425H33.5478H33.6529H33.7576H33.8619H33.966H34.0697H34.173H34.2761H34.3787H34.481H34.583H34.6846H34.7858H34.8867H34.9871H35.0872H35.187H35.2863H35.3853H35.4838H35.582H35.6797H35.7771H35.8741H35.9706H36.0667H36.1624H36.2577H36.3526H36.447H36.541H36.6345H36.7276H36.8203H36.9125H37.0043H37.0956H37.1864H37.2768H37.3667H37.4561H37.5451H37.6335H37.7215H37.809H37.896H37.9825H38.0686H38.1541H38.2391H38.3235H38.4075H38.491H38.5739H38.6563H38.7382H38.8195H38.9003H38.9805H39.0603H39.1394H39.218H39.2961H39.3735H39.4505H39.5268H39.6026H39.6778H39.7524H39.8264H39.8999H39.9727H40.045H40.1166H40.1877H40.2581H40.3279H40.3972H40.4657H40.5337H40.6011H40.6678H40.7338H40.7993H40.8641H40.9282H40.9917H41.0546H41.1167H41.1783H41.2391H41.2993H41.3588H41.4177H41.4758H41.5333H41.5901H41.6462H41.7015H41.7562H41.8102H41.8635H41.9161H41.9679H42.019H42.0695H42.1191H42.1681H42.2163H42.2638H42.3105H42.3565H42.4017H42.4462H42.4899H42.5329H42.5751H42.6165H42.6571H42.697H42.7361H42.7744H42.8119H42.8486H42.8846H42.9197H42.954H42.9875H43.0202H43.0521H43.0831H43.1134H43.1428H43.1714H43.1991H43.226H43.2521H43.2773H43.3017H43.3252H43.3478H43.3696H43.3905H43.4106H43.4298H43.4481H43.4655H43.482H43.4977H43.5124H43.5263H43.5392H43.5513H43.5624H43.5726H43.5819H43.5903H43.5978H43.6043H43.6099H43.6146H43.6184H43.6211H43.623H43.6239C44.5876 18.8601 45.3309 18.1168 45.3309 17.153C45.3309 16.1869 44.5147 15.446 43.6239 15.446H41.5768C41.384 15.446 41.2299 15.3821 41.1241 15.2764C41.0183 15.1706 40.9544 15.0164 40.9544 14.8236C40.9544 14.6308 41.0183 14.4767 41.1241 14.3709C41.2299 14.2651 41.384 14.2012 41.5768 14.2012H43.6239C45.2079 14.2012 46.5757 15.3702 46.5757 17.0119C46.5757 18.6586 45.2026 19.9637 43.6239 19.9637H42.8474H42.8099L42.785 19.9917L28.7379 35.8035L28.7168 35.8272V35.8589V43.2707C28.7168 43.5915 28.5255 43.8357 28.286 43.8956L28.2859 43.8954L28.2807 43.8971L20.163 46.5088L20.1622 46.5091C19.7961 46.6311 19.3544 46.3232 19.3544 45.8825V35.9295V35.8978L19.3334 35.8741L5.28629 20.0623L5.26138 20.0343H5.22387H4.4474C2.80065 20.0343 1.49561 18.6611 1.49561 17.0825C1.49561 15.5063 2.79811 14.2012 4.4474 14.2012H12.2827H12.3662V14.1177V11.4354C12.3662 11.2426 12.4301 11.0884 12.5359 10.9827C12.6416 10.8769 12.7958 10.813 12.9886 10.813H14.7533H14.8197L14.8346 10.7483C15.0443 9.83966 15.3936 9.00144 15.8826 8.23316L15.9185 8.17666L15.8711 8.1293L14.6712 6.92929C14.4214 6.67955 14.4214 6.30889 14.6712 6.05914L17.0006 3.72973C17.2503 3.47998 17.621 3.47998 17.8707 3.72973L19.0707 4.92973L19.1181 4.97709L19.1746 4.94113C19.9429 4.45222 20.7811 4.10291 21.6897 3.89322ZM27.7415 35.0248H27.779L27.8039 34.9968L41.0039 20.1733L41.1277 20.0343H40.9415H7.05917H6.87215L6.997 20.1735L20.4624 35.1898C20.464 35.197 20.4658 35.2037 20.4676 35.2097C20.4725 35.2263 20.4791 35.2439 20.4861 35.2613C20.4904 35.272 20.4951 35.2834 20.5 35.2951C20.5031 35.3023 20.5062 35.3097 20.5093 35.3171C20.5175 35.3366 20.5261 35.3569 20.5346 35.3782C20.5691 35.4645 20.5992 35.558 20.5992 35.6472V35.6707V35.6941V35.7173V35.7404V35.7635V35.7863V35.8091V35.8317V35.8542V35.8766V35.8989V35.9211V35.9431V35.965V35.9868V36.0084V36.03V36.0514V36.0728V36.094V36.1151V36.136V36.1569V36.1776V36.1983V36.2188V36.2392V36.2595V36.2797V36.2998V36.3198V36.3396V36.3594V36.379V36.3986V36.418V36.4374V36.4566V36.4757V36.4947V36.5136V36.5325V36.5512V36.5698V36.5883V36.6067V36.625V36.6433V36.6614V36.6794V36.6973V36.7152V36.7329V36.7505V36.7681V36.7855V36.8029V36.8202V36.8373V36.8544V36.8714V36.8883V36.9052V36.9219V36.9385V36.9551V36.9715V36.9879V37.0042V37.0204V37.0366V37.0526V37.0686V37.0845V37.1003V37.116V37.1316V37.1472V37.1627V37.1781V37.1934V37.2086V37.2238V37.2389V37.2539V37.2689V37.2837V37.2985V37.3133V37.3279V37.3425V37.357V37.3715V37.3858V37.4001V37.4144V37.4285V37.4426V37.4567V37.4706V37.4846V37.4984V37.5122V37.5259V37.5395V37.5531V37.5666V37.5801V37.5935V37.6069V37.6201V37.6334V37.6465V37.6597V37.6727V37.6857V37.6987V37.7115V37.7244V37.7372V37.7499V37.7626V37.7752V37.7878V37.8003V37.8128V37.8252V37.8376V37.8499V37.8622V37.8745V37.8866V37.8988V37.9109V37.923V37.935V37.9469V37.9589V37.9708V37.9826V37.9944V38.0062V38.0179V38.0296V38.0413V38.0529V38.0645V38.076V38.0875V38.099V38.1105V38.1219V38.1332V38.1446V38.1559V38.1672V38.1784V38.1897V38.2008V38.212V38.2231V38.2343V38.2453V38.2564V38.2674V38.2784V38.2894V38.3004V38.3113V38.3222V38.3331V38.344V38.3549V38.3657V38.3765V38.3873V38.3981V38.4089V38.4196V38.4303V38.441V38.4517V38.4624V38.4731V38.4838V38.4944V38.5051V38.5157V38.5263V38.5369V38.5475V38.5581V38.5687V38.5793V38.5898V38.6004V38.6109V38.6215V38.632V38.6426V38.6531V38.6637V38.6742V38.6847V38.6953V38.7058V38.7164V38.7269V38.7375V38.748V38.7585V38.7691V38.7797V38.7902V38.8008V38.8114V38.822V38.8326V38.8432V38.8538V38.8644V38.875V38.8857V38.8963V38.907V38.9177V38.9284V38.9391V38.9498V38.9605V38.9713V38.982V38.9928V39.0036V39.0145V39.0253V39.0362V39.0471V39.058V39.0689V39.0798V39.0908V39.1018V39.1128V39.1239V39.1349V39.146V39.1571V39.1683V39.1795V39.1907V39.2019V39.2132V39.2245V39.2358V39.2472V39.2585V39.27V39.2814V39.2929V39.3044V39.316V39.3276V39.3392V39.3509V39.3626V39.3744V39.3862V39.398V39.4098V39.4218V39.4337V39.4457V39.4577V39.4698V39.4819V39.4941V39.5063V39.5186V39.5309V39.5432V39.5556V39.5681V39.5806V39.5931V39.6057V39.6184V39.6311V39.6438V39.6566V39.6695V39.6824V39.6954V39.7084V39.7215V39.7346V39.7478V39.7611V39.7744V39.7878V39.8012V39.8147V39.8282V39.8419V39.8555V39.8693V39.8831V39.8969V39.9109V39.9249V39.9389V39.9531V39.9673V39.9815V39.9959V40.0103V40.0247V40.0393V40.0539V40.0686V40.0833V40.0982V40.1131V40.128V40.1431V40.1582V40.1734V40.1887V40.2041V40.2195V40.235V40.2506V40.2663V40.282V40.2979V40.3138V40.3298V40.3459V40.362V40.3783V40.3946V40.4111V40.4276V40.4442V40.4608V40.4776V40.4945V40.5114V40.5284V40.5456V40.5628V40.5801V40.5975V40.615V40.6326V40.6503V40.668V40.6859V40.7039V40.7219V40.7401V40.7584V40.7767V40.7952V40.8137V40.8324V40.8512V40.87V40.889V40.908V40.9272V40.9465V40.9659V40.9854V41.0049V41.0246V41.0444V41.0644V41.0844V41.1045V41.1247V41.1451V41.1656V41.1861V41.2068V41.2276V41.2485V41.2695V41.2907V41.3119V41.3333V41.3548V41.3764V41.3981V41.42V41.4419V41.464V41.4862V41.5085V41.531V41.5535V41.5762V41.599V41.622V41.6451V41.6682V41.6915V41.715V41.7386V41.7622V41.7861V41.81V41.8341V41.8583V41.8827V41.9071V41.9317V41.9565V41.9814V42.0064V42.0315V42.0568V42.0822V42.1078V42.1334V42.1593V42.1852V42.2113V42.2376V42.264V42.2905V42.3172V42.344V42.3709V42.398V42.4253V42.4526V42.4802V42.5079V42.5357V42.5636V42.5918V42.62V42.6484V42.677V42.7057V42.7346V42.7636V42.7928V42.8221V42.8516V42.8812V42.911V42.9409V42.971V43.0013V43.0317V43.0623V43.093V43.1239V43.1549V43.1861V43.2175V43.249V43.2807V43.3126V43.3446V43.3768V43.4091V43.4416V43.4743V43.5072V43.5402V43.5734V43.6067V43.6402V43.6739V43.7078V43.7418V43.776V43.8104V43.8449V43.8796V43.9145V43.9496V43.9849V44.0203V44.0559V44.0916V44.1276V44.1637V44.2V44.2365V44.2732V44.31V44.3471V44.3843V44.4217V44.4593V44.497V44.535V44.5731V44.6114V44.6499V44.6886V44.7275V44.7666V44.8059V44.8453V44.8849V44.9248V44.9648V45.0787L20.7078 45.0444L27.4137 42.9268L27.4721 42.9083V42.8472V36.353V36.2695H27.3886H24.2121C24.0193 36.2695 23.8651 36.2056 23.7594 36.0999C23.6536 35.9941 23.5897 35.8399 23.5897 35.6472C23.5897 35.4544 23.6536 35.3002 23.7594 35.1944C23.8651 35.0887 24.0193 35.0248 24.2121 35.0248H27.7415Z" fill="#1782C5" stroke="#1782C5" stroke-width="0.166992"/>
<path d="M32.2698 27.1175L32.2696 27.1174L32.2661 27.1214L28.6679 31.2134C28.4187 31.4609 28.0464 31.4627 27.7954 31.2779C27.5377 31.0168 27.4911 30.65 27.729 30.412L27.7291 30.4122L27.7327 30.4081L31.3309 26.3161C31.5921 26.0563 31.9605 26.0087 32.1992 26.2473C32.4606 26.5087 32.509 26.8783 32.2698 27.1175Z" fill="#1782C5" stroke="#1782C5" stroke-width="0.166992"/>
<path d="M33.9591 25.0057L33.9591 25.0057L33.9585 25.0064C33.8306 25.1663 33.6754 25.2412 33.5254 25.2487C33.3749 25.2562 33.2207 25.1963 33.0945 25.0701L33.0951 25.0695L33.0856 25.0624C32.9661 24.9728 32.8873 24.8194 32.8716 24.6536C32.8558 24.4887 32.9033 24.3206 33.0239 24.2L33.0242 24.2003L33.0295 24.1938L34.2974 22.6441C34.5586 22.3853 34.9263 22.3381 35.1647 22.5764L35.1641 22.577L35.1736 22.5842C35.2931 22.6738 35.3719 22.8272 35.3877 22.993C35.4034 23.1579 35.3559 23.3259 35.2353 23.4466L35.235 23.4463L35.2297 23.4528L33.9591 25.0057Z" fill="#1782C5" stroke="#1782C5" stroke-width="0.166992"/>
<path d="M39.6833 10.1538L39.8258 10.2963V10.0947V4.23591C39.8258 4.04312 39.8897 3.88895 39.9955 3.78319C40.1013 3.67742 40.2554 3.61353 40.4482 3.61353C40.641 3.61353 40.7952 3.67742 40.901 3.78319C41.0067 3.88895 41.0706 4.04312 41.0706 4.23591V10.0947V10.3039L41.2146 10.1522L42.5551 8.74127C42.8048 8.49227 43.175 8.49251 43.4245 8.74201C43.6742 8.99176 43.6742 9.36242 43.4245 9.61216L43.4237 9.61298L40.8825 12.2247L40.882 12.2243L40.8756 12.2329C40.789 12.3482 40.6403 12.4112 40.4747 12.4112C40.3095 12.4112 40.1373 12.3481 40.0132 12.2239L37.472 9.68275C37.2222 9.43301 37.2222 9.06234 37.472 8.8126C37.7217 8.56285 38.0924 8.56285 38.3421 8.8126L39.6833 10.1538Z" fill="#1782C5" stroke="#1782C5" stroke-width="0.166992"/>
<path d="M6.78878 8.74149L6.93131 8.88403V8.68245V2.11775C6.93131 1.92496 6.99521 1.77079 7.10098 1.66502C7.20674 1.55926 7.36091 1.49536 7.5537 1.49536C7.86605 1.49536 8.17609 1.74566 8.17609 2.11775V8.68245V8.89157L8.32012 8.73996L9.66054 7.32899C9.91028 7.07998 10.2805 7.08023 10.53 7.32973C10.7797 7.57947 10.7797 7.95014 10.53 8.19988L10.5291 8.2007L7.98797 10.8125L7.98748 10.812L7.98102 10.8206C7.89449 10.936 7.74579 10.999 7.58017 10.999C7.415 10.999 7.24277 10.9358 7.11862 10.8116L4.57745 8.27047C4.3277 8.02073 4.3277 7.65006 4.57745 7.40032C4.82719 7.15057 5.19785 7.15057 5.4476 7.40032L6.78878 8.74149Z" fill="#1782C5" stroke="#1782C5" stroke-width="0.166992"/>
</svg>
