<svg width="44" height="46" viewBox="0 0 44 46" fill="none" xmlns="http://www.w3.org/2000/svg">
<path d="M42.2745 38.3028C41.5317 38.3028 40.7889 38.5617 40.2222 39.0795L37.5686 41.5038C36.4351 42.5394 34.5974 42.5394 33.4638 41.5038L30.8105 39.0796C29.6769 38.044 27.8393 38.044 26.7056 39.0796L24.0523 41.5038C22.9188 42.5394 21.0811 42.5394 19.9475 41.5038L17.2942 39.0796C16.1606 38.044 14.323 38.044 13.1893 39.0796L10.536 41.5038C9.40246 42.5394 7.56479 42.5394 6.43116 41.5038L3.77764 39.0795C3.21087 38.5617 2.46814 38.3028 1.72532 38.3028M43 4.97779V1H1V22.3917" stroke="#1782C5" stroke-width="1.167" stroke-miterlimit="10" stroke-linecap="round" stroke-linejoin="round"/>
<path d="M1 25.0438V44.9327H43V7.62988M43 38.303H1M43 35.6512H1" stroke="#1782C5" stroke-width="1.167" stroke-miterlimit="10" stroke-linecap="round" stroke-linejoin="round"/>
<path d="M42.2745 31.6733C41.5317 31.6733 40.7889 31.9323 40.2222 32.4501L37.5686 34.8743C36.4351 35.91 34.5974 35.91 33.4638 34.8743L30.8105 32.4502C29.6769 31.4145 27.8393 31.4145 26.7056 32.4502L24.0523 34.8743C22.9188 35.91 21.0811 35.91 19.9475 34.8743L17.2942 32.4502C16.1606 31.4145 14.323 31.4145 13.1893 32.4502L10.536 34.8743C9.40246 35.91 7.56479 35.91 6.43116 34.8743L3.77764 32.4501C3.21087 31.9323 2.46814 31.6733 1.72532 31.6733M43 31.6733H1M43 29.0215H1M43 42.2808H1" stroke="#1782C5" stroke-width="1.167" stroke-miterlimit="10" stroke-linecap="round" stroke-linejoin="round"/>
</svg>
