<svg width="48" height="48" viewBox="0 0 48 48" fill="none" xmlns="http://www.w3.org/2000/svg">
<path d="M21.6384 2.80529C15.2076 5.46426 8.77332 8.12164 2.34094 10.7792C0.332814 11.5701 0.162837 14.6279 2.16342 15.5093C8.77418 18.2002 15.4561 21.0144 21.1161 23.3175C23.0611 24.04 25.1403 24.0479 26.9773 23.3116C30.0794 22.0378 33.182 20.7564 36.2835 19.478C39.3855 20.7593 42.5327 22.0574 45.1876 23.1561C45.9451 23.4544 46.0453 24.7897 45.3108 25.1133L26.4184 32.8995C24.9467 33.4892 23.2602 33.4904 21.6384 32.8877L2.76789 25.1133C2.00908 24.7513 2.1463 23.4387 2.9014 23.1503L8.43549 20.8659C9.44007 20.5192 8.81997 19.0167 7.8633 19.4795L2.34094 21.7579C0.332814 22.5488 0.162837 25.6066 2.16342 26.488C4.7163 27.5388 7.27144 28.5928 9.82488 29.6453L2.34094 32.7381C0.332814 33.529 0.162837 36.5868 2.16342 37.4682C8.76253 40.1969 15.4622 42.9514 21.1161 45.2764C23.0611 45.9988 25.1403 46.0068 26.9773 45.2705C33.5772 42.5581 40.2697 39.7987 45.9153 37.4682C47.9159 36.5868 47.7459 33.529 45.7378 32.7381L39.2941 30.0767C38.334 29.6063 37.7103 31.1214 38.7233 31.4632C40.8789 32.3503 43.0311 33.2556 45.1876 34.1348C45.9451 34.4332 46.0453 35.7684 45.3108 36.092L26.4184 43.8782C24.9518 44.4658 23.2711 44.4686 21.6545 43.8723L2.76789 36.092C2.03339 35.7684 2.13218 34.4332 2.88966 34.1348C5.85779 32.9169 8.8269 31.6839 11.7938 30.4567C14.9017 31.7339 18.0078 33.025 21.1161 34.2962C23.0611 35.0187 25.1403 35.0266 26.9773 34.2903C33.5781 31.588 40.2655 28.8038 45.9153 26.488C47.9159 25.6066 47.7459 22.5488 45.7378 21.7579C43.2421 20.7267 40.7474 19.6973 38.2524 18.6667C40.8067 17.6154 43.3613 16.5578 45.9153 15.5094C47.9159 14.6279 47.7459 11.5701 45.7378 10.7793C39.3181 8.09708 32.8575 5.50167 26.4462 2.80529C24.6808 2.07214 23.3422 2.12323 21.6384 2.80529ZM25.874 4.19614C32.5983 6.97806 39.4306 9.79631 45.1876 12.176C45.9451 12.4743 46.0453 13.811 45.3108 14.1346L26.4184 21.9193C24.9467 22.509 23.2602 22.5103 21.6384 21.9076L2.76789 14.1332C2.00493 13.8002 2.15461 12.4462 2.9014 12.1701L22.193 4.20201C23.7746 3.55606 24.4848 3.63831 25.874 4.19614Z" fill="#1782C5"/>
</svg>
