<svg width="48" height="48" viewBox="0 0 48 48" fill="none" xmlns="http://www.w3.org/2000/svg">
<path d="M37.5315 41.2498C37.1168 41.2498 36.7815 41.5858 36.7815 41.9998V45.1003C36.7815 45.8721 36.1538 46.4998 35.382 46.4998C35.0483 46.4998 34.7213 46.3851 34.461 46.1751L18.4328 33.2818C18.1103 33.0223 17.637 33.0733 17.3783 33.3958C17.1188 33.7191 17.1705 34.1908 17.4923 34.4503L33.5205 47.3436C34.0455 47.7666 34.707 47.9998 35.382 47.9998C36.981 47.9998 38.2815 46.6993 38.2815 45.1003V41.9998C38.2815 41.5858 37.9463 41.2498 37.5315 41.2498Z" fill="#1782C5"/>
<path d="M12.7832 32.25C13.198 32.25 13.5332 31.914 13.5332 31.5C13.5332 31.086 13.198 30.75 12.7832 30.75H7.5332C6.2927 30.75 5.2832 29.7405 5.2832 28.5V19.5C5.2832 18.2595 6.2927 17.25 7.5332 17.25H14.2727V24C14.2727 24.414 14.608 24.75 15.0227 24.75C15.4375 24.75 15.7727 24.414 15.7727 24V16.8592L34.4627 1.824C34.723 1.61475 35.0492 1.5 35.3837 1.5C36.1555 1.5 36.7832 2.12775 36.7832 2.8995V6.75C36.7832 7.164 37.1185 7.5 37.5332 7.5C37.948 7.5 38.2832 7.164 38.2832 6.75V2.8995C38.2832 1.3005 36.9827 0 35.3837 0C34.7095 0 34.048 0.23325 33.523 0.6555L14.7587 15.75H7.5332C5.46545 15.75 3.7832 17.4323 3.7832 19.5V28.5C3.7832 30.5677 5.46545 32.25 7.5332 32.25H12.7832Z" fill="#1782C5"/>
<path d="M43.9933 3.96994C43.7001 3.67669 43.2261 3.67669 42.9328 3.96994L6.93283 39.9699C6.63958 40.2632 6.63958 40.7372 6.93283 41.0304C7.07908 41.1767 7.27108 41.2502 7.46308 41.2502C7.65508 41.2502 7.84708 41.1767 7.99333 41.0304L43.9933 5.03044C44.2866 4.73719 44.2866 4.26319 43.9933 3.96994Z" fill="#1782C5"/>
<path d="M31.0026 35.7764L34.0026 38.7802C34.1488 38.9264 34.3416 38.9999 34.5336 38.9999C34.7256 38.9999 34.9176 38.9264 35.0638 38.7809C35.3571 38.4884 35.3571 38.0137 35.0646 37.7204L32.5933 35.2469L35.0646 32.7734C35.3571 32.4802 35.3571 32.0062 35.0638 31.7129L32.5948 29.2447L35.0638 26.7772C35.2048 26.6362 35.2836 26.4457 35.2836 26.2462C35.2836 26.0467 35.2048 25.8562 35.0638 25.7152L32.5948 23.2484L35.0638 20.7802C35.3571 20.4869 35.3571 20.0122 35.0638 19.7189C34.7706 19.4257 34.2966 19.4264 34.0033 19.7189L31.0033 22.7174C30.8623 22.8584 30.7836 23.0489 30.7836 23.2484C30.7836 23.4479 30.8623 23.6384 31.0033 23.7794L33.4723 26.2462L31.0033 28.7137C30.8623 28.8547 30.7836 29.0452 30.7836 29.2447C30.7836 29.4442 30.8623 29.6347 31.0033 29.7757L33.4731 32.2439L31.0026 34.7174C30.7101 35.0092 30.7101 35.4839 31.0026 35.7764Z" fill="#1782C5"/>
<path d="M42.5638 31.7117L40.0948 29.2435L42.5638 26.776C42.7048 26.635 42.7836 26.4445 42.7836 26.245C42.7836 26.0455 42.7048 25.855 42.5638 25.714L40.0948 23.2472L42.5638 20.779C42.8571 20.4857 42.8571 20.011 42.5638 19.7177C42.2706 19.4245 41.7966 19.4252 41.5033 19.7177L38.5033 22.7162C38.3623 22.8572 38.2836 23.0477 38.2836 23.2472C38.2836 23.4467 38.3623 23.6372 38.5033 23.7782L40.9723 26.245L38.5033 28.7125C38.3623 28.8535 38.2836 29.044 38.2836 29.2435C38.2836 29.443 38.3623 29.6335 38.5033 29.7745L40.9731 32.2427L38.5026 34.7162C38.2101 35.0087 38.2101 35.4835 38.5026 35.776L41.5026 38.7797C41.6488 38.926 41.8416 38.9995 42.0336 38.9995C42.2256 38.9995 42.4176 38.926 42.5638 38.7805C42.8571 38.488 42.8571 38.0132 42.5646 37.72L40.0933 35.2465L42.5646 32.773C42.8571 32.479 42.8571 32.0042 42.5638 31.7117Z" fill="#1782C5"/>
</svg>
