<svg width="52" height="52" viewBox="0 0 52 52" fill="none" xmlns="http://www.w3.org/2000/svg">
<path d="M42.9293 20.673L39.3837 17.1279L39.5006 16.6373L43.3775 15.4904C43.672 15.4034 43.8744 15.1326 43.8744 14.8255C43.8744 14.5183 43.672 14.2476 43.3775 14.1606L39.5006 13.0136L38.6556 9.46497C38.581 9.15245 38.3021 8.93214 37.9811 8.93214C37.6601 8.93214 37.3812 9.15245 37.3067 9.46497L36.4624 13.0136L35.542 13.2859L30.0043 7.74897C28.9806 6.72492 27.6189 6.16089 26.1714 6.16089C24.7232 6.16089 23.3622 6.72492 22.3385 7.74897L9.41371 20.673C7.29991 22.7865 7.29991 26.2261 9.41371 28.3396L10.0609 28.9868L9.29983 31.688C8.90029 33.7914 6.45681 37.408 6.43237 37.4443C6.24552 37.7195 6.28001 38.0889 6.51557 38.3241L14.2033 46.0118C14.3372 46.1458 14.5147 46.2149 14.6934 46.2149C14.8234 46.2149 14.9548 46.1784 15.0699 46.1035L19.2008 43.4296C20.2616 42.7429 21.2772 41.9846 22.2496 41.1751L22.3383 41.2637C23.362 42.2877 24.723 42.8514 26.1712 42.8514C27.6189 42.8514 28.9804 42.2877 30.0041 41.2637L42.9289 28.3396C45.0424 26.2258 45.0424 22.7868 42.9293 20.673ZM37.2403 14.2296C37.4786 14.1592 37.6608 13.9668 37.7183 13.7252L37.9811 12.6205L38.2446 13.7252C38.3021 13.967 38.4843 14.1592 38.7226 14.2296L40.7369 14.8255L38.7226 15.4214C38.4843 15.4918 38.3021 15.6842 38.2446 15.9258L37.9811 17.0304L37.7183 15.9258C37.6608 15.684 37.4786 15.4918 37.2403 15.4214L35.226 14.8255L37.2403 14.2296ZM18.4471 42.2659L14.7876 44.635L7.89548 37.7429C8.60909 36.6343 10.2965 33.8689 10.6485 32.0056L13.6047 21.5128C13.7205 20.9048 14.2601 20.4871 14.8884 20.5488C15.2088 20.5793 15.4972 20.7335 15.7003 20.9835C15.896 21.2239 15.9888 21.5238 15.9631 21.8313L14.5846 27.8052C14.5156 28.1068 14.6536 28.4176 14.9245 28.5675C15.1933 28.7175 15.5312 28.6705 15.7506 28.4514L25.7044 18.4979C26.0924 18.1103 26.7647 18.1115 27.1514 18.4979C27.3443 18.6912 27.4513 18.9482 27.4513 19.2214C27.4513 19.4949 27.3443 19.752 27.1514 19.9452C27.1514 19.9452 27.1514 19.9454 27.1513 19.9454L19.8281 27.2689C19.5573 27.5396 19.5573 27.9785 19.8281 28.2493C20.0988 28.52 20.5377 28.52 20.8085 28.2493L30.1549 18.9024C30.5545 18.5036 31.2031 18.5036 31.6026 18.9024C31.7955 19.0957 31.902 19.3528 31.902 19.6263C31.902 19.8995 31.7957 20.1565 31.6026 20.3498L29.1597 22.7926C29.1593 22.7929 29.1588 22.7933 29.1583 22.7936L22.2555 29.6964C21.9847 29.9672 21.9847 30.4061 22.2555 30.6768C22.3908 30.8122 22.5683 30.88 22.7456 30.88C22.923 30.88 23.1005 30.8122 23.2358 30.6768L30.1395 23.7735C30.5472 23.3665 31.2102 23.3666 31.6189 23.774C32.0266 24.182 32.0266 24.8462 31.6189 25.2541L29.6284 27.2446L24.3438 32.5289C24.073 32.7996 24.073 33.2385 24.3438 33.5092C24.6145 33.78 25.0534 33.78 25.3241 33.5092L25.6956 33.1378C25.6959 33.1374 25.6963 33.1374 25.6965 33.1371L30.6087 28.2248C30.9859 27.8473 31.6447 27.8463 32.0231 28.2252C32.2121 28.4138 32.3162 28.6649 32.3162 28.932C32.3162 29.1991 32.2119 29.4503 32.0231 29.6392L23.4105 38.252C21.9044 39.7579 20.2347 41.1084 18.4471 42.2659ZM41.9487 27.3592L29.0239 40.2833C28.2616 41.0453 27.2487 41.4647 26.1714 41.4647C25.0934 41.4647 24.0807 41.0453 23.3189 40.2829L23.3017 40.2658C23.6721 39.929 24.0371 39.5865 24.3907 39.2327L33.0033 30.62C33.4543 30.1689 33.7027 29.5697 33.7027 28.9324C33.7027 28.2945 33.4542 27.6953 33.0033 27.2452C32.7532 26.9945 32.4492 26.8208 32.1244 26.7094L32.5991 26.2346C33.5478 25.286 33.5478 23.7423 32.5991 22.7933C32.333 22.5277 32.0183 22.3445 31.6851 22.2278L32.5828 21.3302C33.0378 20.8752 33.2883 20.2699 33.2883 19.6263C33.2883 18.9824 33.0378 18.3771 32.5828 17.9217C31.6409 16.9816 30.1135 16.9833 29.1744 17.9221L28.6882 18.4083C28.5721 18.0834 28.3915 17.777 28.1318 17.5175C27.2225 16.6072 25.6348 16.6058 24.7241 17.5175L16.48 25.7616L17.325 22.0996C17.3311 22.0732 17.3352 22.0467 17.3385 22.0204C17.4149 21.3281 17.216 20.6493 16.7766 20.1087C16.3372 19.5684 15.7135 19.2342 15.0202 19.1682C13.6822 19.0422 12.4926 19.9379 12.2564 21.1953L10.4924 27.457L10.3944 27.359C8.8216 25.7859 8.8216 23.2264 10.3944 21.6532L23.3192 8.72917C24.081 7.96719 25.0938 7.54738 26.1717 7.54738C27.249 7.54738 28.262 7.96719 29.0243 8.72917L34.0289 13.7333L32.5851 14.1604C32.2906 14.2474 32.0881 14.5182 32.0881 14.8253C32.0881 15.1324 32.2906 15.4032 32.5851 15.4902L36.4627 16.6372L37.307 20.1858C37.3816 20.4983 37.6604 20.7186 37.9815 20.7186C38.3025 20.7186 38.5814 20.4983 38.6559 20.1858L39.0069 18.7114L41.9492 21.6534C43.521 23.2266 43.521 25.786 41.9487 27.3592Z" fill="#1782C5"/>
<path d="M10.2246 8.55947C10.6078 8.55947 10.9179 8.24903 10.9179 7.86613V6.47947C10.9179 6.09657 10.6078 5.78613 10.2246 5.78613C9.84134 5.78613 9.53125 6.09657 9.53125 6.47947V7.86613C9.53125 8.24903 9.84134 8.55947 10.2246 8.55947Z" fill="#1782C5"/>
<path d="M10.2246 9.94629C9.84134 9.94629 9.53125 10.2567 9.53125 10.6396V12.0263C9.53125 12.4092 9.84134 12.7196 10.2246 12.7196C10.6078 12.7196 10.9179 12.4092 10.9179 12.0263V10.6396C10.9179 10.2567 10.6078 9.94629 10.2246 9.94629Z" fill="#1782C5"/>
<path d="M7.45115 9.94624H8.83781C9.22105 9.94624 9.53115 9.6358 9.53115 9.2529C9.53115 8.87001 9.22105 8.55957 8.83781 8.55957H7.45115C7.06791 8.55957 6.75781 8.87001 6.75781 9.2529C6.75781 9.6358 7.06791 9.94624 7.45115 9.94624Z" fill="#1782C5"/>
<path d="M11.6113 9.94624H12.998C13.3812 9.94624 13.6913 9.6358 13.6913 9.2529C13.6913 8.87001 13.3812 8.55957 12.998 8.55957H11.6113C11.2281 8.55957 10.918 8.87001 10.918 9.2529C10.918 9.6358 11.2281 9.94624 11.6113 9.94624Z" fill="#1782C5"/>
<path d="M39.6903 39.7598C38.3524 39.7598 37.2637 40.8485 37.2637 42.1864C37.2637 43.5244 38.3524 44.6131 39.6903 44.6131C41.0283 44.6131 42.117 43.5244 42.117 42.1864C42.117 40.8485 41.0283 39.7598 39.6903 39.7598ZM39.6903 43.2264C39.1168 43.2264 38.6503 42.76 38.6503 42.1864C38.6503 41.6129 39.1168 41.1464 39.6903 41.1464C40.2639 41.1464 40.7303 41.6129 40.7303 42.1864C40.7303 42.76 40.2637 43.2264 39.6903 43.2264Z" fill="#1782C5"/>
<path d="M44.9482 35.2727C44.5388 35.2727 44.207 35.6046 44.207 36.0139C44.207 36.4233 44.5388 36.7552 44.9482 36.7552C45.3576 36.7552 45.6894 36.4233 45.6894 36.0139C45.6896 35.6045 45.3576 35.2727 44.9482 35.2727Z" fill="#1782C5"/>
</svg>
