<svg width="48" height="48" viewBox="0 0 48 48" fill="none" xmlns="http://www.w3.org/2000/svg">
<path d="M26.7608 2.58816C26.4947 2.41529 26.1591 2.38866 25.8691 2.51757L13.2129 8.14262C12.8744 8.29299 12.6562 8.62881 12.6562 8.99931V11.3431C12.6562 11.8608 13.0761 12.2806 13.5938 12.2806C14.1114 12.2806 14.5313 11.8608 14.5313 11.3431V9.6086L25.3124 4.8169V43.182L14.5313 38.3902V36.6558C14.5313 36.1381 14.1114 35.7183 13.5938 35.7183C13.0761 35.7183 12.6562 36.1381 12.6562 36.6558V38.9995C12.6562 39.37 12.8744 39.7057 13.2129 39.8561L25.8691 45.4813C26.1582 45.6099 26.494 45.584 26.7608 45.4107C27.0268 45.2377 27.1874 44.9419 27.1874 44.6246V3.37427C27.1874 3.05692 27.0268 2.76114 26.7608 2.58816Z" fill="#1782C5"/>
<path d="M5.15662 6.18677H5.15597C4.63828 6.18677 4.21875 6.60658 4.21875 7.12427C4.21875 7.64196 4.63884 8.06177 5.15662 8.06177C5.67441 8.06177 6.09412 7.64196 6.09412 7.12427C6.09412 6.60658 5.67431 6.18677 5.15662 6.18677Z" fill="#1782C5"/>
<path d="M5.15662 14.6243H5.15597C4.63828 14.6243 4.21875 15.0441 4.21875 15.5618C4.21875 16.0795 4.63884 16.4993 5.15662 16.4993C5.67441 16.4993 6.09412 16.0795 6.09412 15.5618C6.09412 15.0441 5.67431 14.6243 5.15662 14.6243Z" fill="#1782C5"/>
<path d="M22.0316 16.4993C22.5493 16.4993 22.9691 16.0795 22.9691 15.5618C22.9691 15.0441 22.5493 14.6243 22.0316 14.6243H22.0309C21.5132 14.6243 21.0938 15.0441 21.0938 15.5618C21.0938 16.0795 21.5139 16.4993 22.0316 16.4993Z" fill="#1782C5"/>
<path d="M0.937875 10.4055H0.937125C0.419438 10.4055 0 10.8253 0 11.343C0 11.8607 0.420094 12.2805 0.937875 12.2805C1.45566 12.2805 1.87538 11.8607 1.87538 11.343C1.87538 10.8253 1.45556 10.4055 0.937875 10.4055Z" fill="#1782C5"/>
<path d="M9.37537 10.4055H9.37472C8.85703 10.4055 8.4375 10.8253 8.4375 11.343C8.4375 11.8607 8.85759 12.2805 9.37537 12.2805C9.89316 12.2805 10.3129 11.8607 10.3129 11.343C10.3129 10.8253 9.89306 10.4055 9.37537 10.4055Z" fill="#1782C5"/>
<path d="M17.8129 12.2805C18.3306 12.2805 18.7504 11.8607 18.7504 11.343C18.7504 10.8253 18.3306 10.4055 17.8129 10.4055H17.8122C17.2945 10.4055 16.875 10.8253 16.875 11.343C16.875 11.8607 17.2952 12.2805 17.8129 12.2805Z" fill="#1782C5"/>
<path d="M5.15662 23.0618H5.15597C4.63828 23.0618 4.21875 23.4816 4.21875 23.9993C4.21875 24.517 4.63884 24.9368 5.15662 24.9368C5.67441 24.9368 6.09412 24.517 6.09412 23.9993C6.09412 23.4816 5.67431 23.0618 5.15662 23.0618Z" fill="#1782C5"/>
<path d="M22.0316 24.9368C22.5493 24.9368 22.9691 24.517 22.9691 23.9993C22.9691 23.4816 22.5493 23.0618 22.0316 23.0618H22.0309C21.5132 23.0618 21.0938 23.4816 21.0938 23.9993C21.0938 24.517 21.5139 24.9368 22.0316 24.9368Z" fill="#1782C5"/>
<path d="M0.937875 18.843H0.937125C0.419438 18.843 0 19.2628 0 19.7805C0 20.2982 0.420094 20.718 0.937875 20.718C1.45566 20.718 1.87538 20.2982 1.87538 19.7805C1.87538 19.2628 1.45556 18.843 0.937875 18.843Z" fill="#1782C5"/>
<path d="M9.37537 18.843H9.37472C8.85703 18.843 8.4375 19.2628 8.4375 19.7805C8.4375 20.2982 8.85759 20.718 9.37537 20.718C9.89316 20.718 10.3129 20.2982 10.3129 19.7805C10.3129 19.2628 9.89306 18.843 9.37537 18.843Z" fill="#1782C5"/>
<path d="M17.8129 20.718C18.3306 20.718 18.7504 20.2982 18.7504 19.7805C18.7504 19.2628 18.3306 18.843 17.8129 18.843H17.8122C17.2945 18.843 16.875 19.2628 16.875 19.7805C16.875 20.2982 17.2952 20.718 17.8129 20.718Z" fill="#1782C5"/>
<path d="M5.15662 31.4993H5.15597C4.63828 31.4993 4.21875 31.9191 4.21875 32.4368C4.21875 32.9545 4.63884 33.3743 5.15662 33.3743C5.67441 33.3743 6.09412 32.9545 6.09412 32.4368C6.09412 31.9191 5.67431 31.4993 5.15662 31.4993Z" fill="#1782C5"/>
<path d="M22.0316 33.3743C22.5493 33.3743 22.9691 32.9545 22.9691 32.4368C22.9691 31.9191 22.5493 31.4993 22.0316 31.4993H22.0309C21.5132 31.4993 21.0938 31.9191 21.0938 32.4368C21.0938 32.9545 21.5139 33.3743 22.0316 33.3743Z" fill="#1782C5"/>
<path d="M0.937875 27.2805H0.937125C0.419438 27.2805 0 27.7003 0 28.218C0 28.7357 0.420094 29.1555 0.937875 29.1555C1.45566 29.1555 1.87538 28.7357 1.87538 28.218C1.87538 27.7003 1.45556 27.2805 0.937875 27.2805Z" fill="#1782C5"/>
<path d="M9.37537 27.2805H9.37472C8.85703 27.2805 8.4375 27.7003 8.4375 28.218C8.4375 28.7357 8.85759 29.1555 9.37537 29.1555C9.89316 29.1555 10.3129 28.7357 10.3129 28.218C10.3129 27.7003 9.89306 27.2805 9.37537 27.2805Z" fill="#1782C5"/>
<path d="M17.8129 29.1555C18.3306 29.1555 18.7504 28.7357 18.7504 28.218C18.7504 27.7003 18.3306 27.2805 17.8129 27.2805H17.8122C17.2945 27.2805 16.875 27.7003 16.875 28.218C16.875 28.7357 17.2952 29.1555 17.8129 29.1555Z" fill="#1782C5"/>
<path d="M5.15662 39.9368H5.15597C4.63828 39.9368 4.21875 40.3566 4.21875 40.8743C4.21875 41.392 4.63884 41.8118 5.15662 41.8118C5.67441 41.8118 6.09412 41.392 6.09412 40.8743C6.09412 40.3566 5.67431 39.9368 5.15662 39.9368Z" fill="#1782C5"/>
<path d="M0.937875 35.718H0.937125C0.419438 35.718 0 36.1378 0 36.6555C0 37.1732 0.420094 37.593 0.937875 37.593C1.45566 37.593 1.87538 37.1732 1.87538 36.6555C1.87538 36.1378 1.45556 35.718 0.937875 35.718Z" fill="#1782C5"/>
<path d="M9.37537 35.718H9.37472C8.85703 35.718 8.4375 36.1378 8.4375 36.6555C8.4375 37.1732 8.85759 37.593 9.37537 37.593C9.89316 37.593 10.3129 37.1732 10.3129 36.6555C10.3129 36.1378 9.89306 35.718 9.37537 35.718Z" fill="#1782C5"/>
<path d="M17.8129 37.593C18.3306 37.593 18.7504 37.1732 18.7504 36.6555C18.7504 36.1378 18.3306 35.718 17.8129 35.718H17.8122C17.2945 35.718 16.875 36.1378 16.875 36.6555C16.875 37.1732 17.2952 37.593 17.8129 37.593Z" fill="#1782C5"/>
<path d="M47.0623 23.7649C46.4607 23.7649 46.1732 23.5562 45.738 23.2405C45.1966 22.8476 44.5227 22.3586 43.3124 22.3586C42.1021 22.3586 41.4282 22.8476 40.8869 23.2405C40.4516 23.5562 40.1642 23.7649 39.5624 23.7649C38.9607 23.7649 38.6732 23.5562 38.2381 23.2405C37.6966 22.8476 37.0228 22.3586 35.8124 22.3586C34.6021 22.3586 33.9282 22.8476 33.3868 23.2405C32.9516 23.5562 32.6642 23.7649 32.0625 23.7649C31.5448 23.7649 31.125 24.1847 31.125 24.7024C31.125 25.2201 31.5448 25.6399 32.0625 25.6399C33.2728 25.6399 33.9467 25.1509 34.4881 24.7581C34.9233 24.4423 35.2108 24.2337 35.8124 24.2337C36.4141 24.2337 36.7016 24.4423 37.1368 24.7581C37.6782 25.1509 38.3521 25.6399 39.5624 25.6399C40.7727 25.6399 41.4467 25.1509 41.9881 24.7581C42.4233 24.4423 42.7107 24.2337 43.3124 24.2337C43.9141 24.2337 44.2015 24.4423 44.6367 24.7581C45.1781 25.1509 45.852 25.6399 47.0623 25.6399C47.58 25.6399 47.9999 25.2201 47.9999 24.7024C47.9999 24.1847 47.5801 23.7649 47.0623 23.7649Z" fill="#1782C5"/>
<path d="M30 16.4993C31.2102 16.4993 31.8841 16.0103 32.4255 15.6175C32.8607 15.3017 33.1483 15.093 33.7499 15.093C34.3516 15.093 34.6391 15.3017 35.0743 15.6175C35.6157 16.0103 36.2896 16.4993 37.4999 16.4993C38.7102 16.4993 39.3841 16.0103 39.9255 15.6175C40.3607 15.3017 40.6481 15.093 41.2498 15.093C41.8516 15.093 42.139 15.3017 42.5743 15.6175C43.1156 16.0103 43.7895 16.4993 44.9998 16.4993C45.5175 16.4993 45.9374 16.0795 45.9374 15.5618C45.9374 15.0441 45.5175 14.6243 44.9998 14.6243C44.3982 14.6243 44.1107 14.4156 43.6755 14.0998C43.1341 13.707 42.4601 13.218 41.2498 13.218C40.0396 13.218 39.3657 13.707 38.8243 14.0998C38.3891 14.4156 38.1016 14.6243 37.4999 14.6243C36.8982 14.6243 36.6107 14.4156 36.1756 14.0998C35.6341 13.707 34.9603 13.218 33.7499 13.218C32.5396 13.218 31.8657 13.707 31.3243 14.0998C30.8891 14.4156 30.6017 14.6243 30 14.6243C29.4823 14.6243 29.0625 15.0441 29.0625 15.5618C29.0625 16.0795 29.4823 16.4993 30 16.4993Z" fill="#1782C5"/>
<path d="M44.9998 32.9055C44.3982 32.9055 44.1107 32.6968 43.6755 32.3811C43.1341 31.9883 42.4601 31.4993 41.2498 31.4993C40.0396 31.4993 39.3657 31.9883 38.8243 32.3811C38.3891 32.6968 38.1016 32.9055 37.4999 32.9055C36.8982 32.9055 36.6107 32.6968 36.1756 32.3811C35.6341 31.9883 34.9603 31.4993 33.7499 31.4993C32.5396 31.4993 31.8657 31.9883 31.3243 32.3811C30.8891 32.6968 30.6017 32.9055 30 32.9055C29.4823 32.9055 29.0625 33.3253 29.0625 33.843C29.0625 34.3607 29.4823 34.7805 30 34.7805C31.2102 34.7805 31.8841 34.2915 32.4255 33.8987C32.8607 33.583 33.1483 33.3743 33.7499 33.3743C34.3516 33.3743 34.6391 33.583 35.0743 33.8987C35.6157 34.2915 36.2896 34.7805 37.4999 34.7805C38.7102 34.7805 39.3841 34.2915 39.9255 33.8987C40.3607 33.583 40.6481 33.3743 41.2498 33.3743C41.8516 33.3743 42.139 33.583 42.5743 33.8987C43.1156 34.2915 43.7895 34.7805 44.9998 34.7805C45.5175 34.7805 45.9374 34.3607 45.9374 33.843C45.9374 33.3253 45.5176 32.9055 44.9998 32.9055Z" fill="#1782C5"/>
<path d="M13.5941 16.4993C14.1118 16.4993 14.5316 16.0795 14.5316 15.5618C14.5316 15.0441 14.1118 14.6243 13.5941 14.6243H13.5934C13.0757 14.6243 12.6562 15.0441 12.6562 15.5618C12.6562 16.0795 13.0764 16.4993 13.5941 16.4993Z" fill="#1782C5"/>
<path d="M13.5941 24.9368C14.1118 24.9368 14.5316 24.517 14.5316 23.9993C14.5316 23.4816 14.1118 23.0618 13.5941 23.0618H13.5934C13.0757 23.0618 12.6562 23.4816 12.6562 23.9993C12.6562 24.517 13.0764 24.9368 13.5941 24.9368Z" fill="#1782C5"/>
<path d="M13.5941 33.3743C14.1118 33.3743 14.5316 32.9545 14.5316 32.4368C14.5316 31.9191 14.1118 31.4993 13.5941 31.4993H13.5934C13.0757 31.4993 12.6562 31.9191 12.6562 32.4368C12.6562 32.9545 13.0764 33.3743 13.5941 33.3743Z" fill="#1782C5"/>
</svg>
