<svg width="48" height="48" viewBox="0 0 48 48" fill="none" xmlns="http://www.w3.org/2000/svg">
<g clip-path="url(#clip0_1342_1475)">
<path d="M27.0459 30.0002C25.1193 30.0002 23.5709 29.0566 23.506 29.0163C23.4974 29.0112 22.3316 28.3127 20.9521 28.3127C19.5726 28.3127 18.4068 29.0112 18.3952 29.0182C17.9539 29.2863 17.3773 29.1482 17.1075 28.7079C16.8377 28.2677 16.973 27.6931 17.4122 27.4216C17.4772 27.3814 19.0256 26.4377 20.9521 26.4377C22.8787 26.4377 24.4271 27.3814 24.492 27.4217C24.5006 27.4268 25.6663 28.1252 27.0459 28.1252C28.4254 28.1252 29.5912 27.4268 29.6028 27.4198C30.044 27.1517 30.6206 27.2899 30.8905 27.7301C31.1603 28.1703 31.025 28.7448 30.5858 29.0164C30.5208 29.0566 28.9724 30.0002 27.0459 30.0002Z" fill="#1782C5"/>
<path d="M27.0478 25.7815C25.1213 25.7815 23.5729 24.8378 23.5079 24.7976C23.4994 24.7924 22.3336 24.094 20.9541 24.094C19.5745 24.094 18.4088 24.7924 18.3971 24.7995C17.9559 25.0676 17.3793 24.9293 17.1095 24.4892C16.8397 24.0489 16.9749 23.4744 17.4142 23.2028C17.4791 23.1627 19.0275 22.219 20.9541 22.219C22.8806 22.219 24.429 23.1627 24.494 23.2029C24.5025 23.2081 25.6683 23.9065 27.0478 23.9065C28.4274 23.9065 29.5931 23.2081 29.6048 23.201C30.0459 22.9329 30.6226 23.0711 30.8924 23.5113C31.1622 23.9516 31.0269 24.5261 30.5877 24.7977C30.5228 24.8378 28.9744 25.7815 27.0478 25.7815Z" fill="#1782C5"/>
<path d="M27.0478 21.5627C25.1213 21.5627 23.5729 20.6191 23.5079 20.5788C23.4994 20.5737 22.3336 19.8752 20.9541 19.8752C19.5745 19.8752 18.4088 20.5737 18.3971 20.5807C17.9559 20.8489 17.3793 20.7106 17.1095 20.2704C16.8397 19.8302 16.9749 19.2557 17.4142 18.9841C17.4791 18.9439 19.0275 18.0002 20.9541 18.0002C22.8806 18.0002 24.429 18.9439 24.494 18.9842C24.5025 18.9893 25.6683 19.6877 27.0478 19.6877C28.4274 19.6877 29.5931 18.9893 29.6048 18.9823C30.0459 18.7141 30.6226 18.8524 30.8924 19.2926C31.1622 19.7328 31.0269 20.3073 30.5877 20.5789C30.5228 20.6191 28.9744 21.5627 27.0478 21.5627Z" fill="#1782C5"/>
<path d="M24.0009 48.0008C23.8429 48.0008 23.685 47.961 23.5423 47.881C23.2465 47.7151 23.0634 47.4024 23.0634 47.0633V45.1684C20.0223 45.0383 17.1109 44.2739 14.3966 42.891C11.5436 41.4375 9.01347 39.3147 7.07979 36.7522C6.92997 36.5536 6.86519 36.3037 6.89969 36.0573C6.93429 35.8109 7.06526 35.5884 7.26391 35.4387L11.0073 32.6178C11.4206 32.3063 12.0082 32.3887 12.3199 32.8019C14.9227 36.2519 18.7985 38.3304 23.0634 38.5968V36.7508C23.0634 36.4118 23.2466 36.099 23.5423 35.9332C23.8381 35.7672 24.2005 35.7741 24.4897 35.9509L32.9272 41.1071C33.2059 41.2774 33.3759 41.5805 33.3759 41.9071C33.3759 42.2337 33.2059 42.5367 32.9272 42.7071L24.4897 47.8633C24.3399 47.9549 24.1705 48.0008 24.0009 48.0008ZM9.15907 36.3583C12.8426 40.7906 18.2 43.3133 24.0009 43.3133C24.5187 43.3133 24.9384 43.7331 24.9384 44.2508V45.3917L30.6406 41.9071L24.9384 38.4224V39.5633C24.9384 40.0811 24.5187 40.5008 24.0009 40.5008C21.3681 40.5008 18.8516 39.899 16.5212 38.7118C14.5768 37.7213 12.8251 36.3317 11.409 34.6629L9.15907 36.3583Z" fill="#1782C5"/>
<path d="M6.09374 33.3753C5.76711 33.3753 5.46411 33.2054 5.29377 32.9267L0.137519 24.4892C-0.0392932 24.1998 -0.0460432 23.8375 0.119801 23.5417C0.285644 23.246 0.598394 23.0628 0.937488 23.0628H2.83246C2.96249 20.0221 3.72674 17.111 5.10936 14.3968C6.56258 11.5437 8.68527 9.01337 11.2477 7.07921C11.4462 6.92931 11.6961 6.86434 11.9426 6.89903C12.1889 6.93353 12.4115 7.0645 12.5612 7.26315L15.3831 11.0066C15.6947 11.4199 15.6123 12.0076 15.199 12.3193C11.749 14.9221 9.67049 18.7979 9.40414 23.0627H11.25C11.5891 23.0627 11.9018 23.2459 12.0677 23.5416C12.2335 23.8374 12.2268 24.1997 12.05 24.4891L6.89371 32.9266C6.72336 33.2054 6.42036 33.3753 6.09374 33.3753ZM2.60905 24.9378L6.09374 30.64L9.57833 24.9378H8.43749C7.91971 24.9378 7.49999 24.5181 7.49999 24.0003C7.49999 21.3676 8.10186 18.851 9.28902 16.5206C10.2795 14.5762 11.6691 12.8246 13.3378 11.4085L11.6418 9.15859C7.20993 12.8425 4.68749 18.1998 4.68749 24.0003C4.68749 24.5181 4.26777 24.9378 3.74999 24.9378H2.60905Z" fill="#1782C5"/>
<path d="M36.43 15.5722C36.1459 15.5722 35.8653 15.4436 35.681 15.1993C33.0782 11.7493 29.2024 9.67077 24.9375 9.40442V11.2503C24.9375 11.5894 24.7543 11.9021 24.4586 12.068C24.1628 12.2339 23.8004 12.227 23.5112 12.0502L15.0737 6.89399C14.795 6.72364 14.625 6.42064 14.625 6.09402C14.625 5.76739 14.795 5.46439 15.0737 5.29405L23.5112 0.137797C23.8006 -0.039109 24.1629 -0.0457652 24.4586 0.120079C24.7543 0.285922 24.9375 0.598672 24.9375 0.937766V2.83273C27.9786 2.96277 30.89 3.7272 33.6043 5.11011C36.4573 6.56361 38.9874 8.68639 40.9211 11.249C41.0709 11.4475 41.1357 11.6975 41.1012 11.9438C41.0666 12.1902 40.9357 12.4127 40.737 12.5624L36.9936 15.3833C36.8246 15.5106 36.6265 15.5722 36.43 15.5722ZM24 7.50027C26.6328 7.50027 29.1493 8.10214 31.4798 9.2893C33.4241 10.2798 35.1758 11.6694 36.5919 13.3382L38.8418 11.6428C35.1582 7.21049 29.8009 4.68777 24 4.68777C23.4822 4.68777 23.0625 4.26805 23.0625 3.75027V2.60933L17.3603 6.09402L23.0625 9.57861V8.43777C23.0625 7.91999 23.4822 7.50027 24 7.50027Z" fill="#1782C5"/>
<path d="M36.1866 41.1106H36.1857C35.8932 41.1106 35.6128 40.9709 35.4366 40.7374L32.6157 36.994C32.3053 36.5815 32.3878 35.9927 32.8003 35.6815C36.2138 33.1043 38.326 29.1884 38.595 24.9377H36.7491C36.4107 24.9377 36.0975 24.754 35.9316 24.4587C35.7657 24.1634 35.7722 23.8006 35.9494 23.5118L41.1057 15.0743C41.2744 14.7968 41.581 14.6252 41.9053 14.6252C42.2297 14.6252 42.5363 14.7968 42.705 15.0743L47.8613 23.5118C47.9531 23.6613 47.9991 23.8307 47.9991 24.0002C47.9991 24.1581 47.9591 24.3163 47.8791 24.4587C47.7141 24.754 47.4 24.9377 47.0616 24.9377H45.166C45.1013 26.4246 44.88 27.9049 44.5088 29.3374C44.401 29.7509 44.0278 30.0396 43.6013 30.0396C43.5225 30.0396 43.4428 30.0293 43.365 30.0096C42.8653 29.8793 42.5635 29.3665 42.6938 28.8659C43.1035 27.2862 43.3116 25.6484 43.3116 24.0002C43.3116 23.7537 43.4119 23.5118 43.5863 23.3374C43.7607 23.1631 44.0025 23.0627 44.2491 23.0627H45.39L41.9053 17.3609L38.4207 23.0627H39.5616C39.8082 23.0627 40.05 23.1631 40.2244 23.3374C40.3988 23.5118 40.4991 23.7537 40.4991 24.0002C40.4991 25.2387 40.3613 26.4743 40.0885 27.6724C39.8241 28.8368 39.4303 29.9759 38.9185 31.0568C38.415 32.1181 37.7963 33.1287 37.0772 34.0615C36.3647 34.9868 35.5519 35.8381 34.6613 36.5927L36.3563 38.8418C37.3707 37.9962 38.3016 37.0437 39.1228 36.0106C39.3019 35.7865 39.57 35.6571 39.8569 35.6571C40.0707 35.6571 40.2722 35.7274 40.44 35.8606C40.845 36.1831 40.9125 36.7737 40.59 37.1777C39.4744 38.5812 38.1825 39.8412 36.751 40.9212C36.5878 41.0449 36.3919 41.1106 36.1866 41.1106ZM42.121 33.9827C41.9747 33.9827 41.8341 33.949 41.7028 33.8834C41.4788 33.7709 41.3119 33.5787 41.2322 33.3406C41.1535 33.1034 41.1713 32.8493 41.2838 32.6252C41.4432 32.3056 41.7647 32.1068 42.1228 32.1068C42.2691 32.1068 42.4097 32.1406 42.541 32.2062C42.765 32.3177 42.9319 32.5109 43.0116 32.7481C43.0903 32.9862 43.0725 33.2402 42.96 33.4643C42.8007 33.784 42.4791 33.9827 42.121 33.9827Z" fill="#1782C5"/>
</g>
<defs>
<clipPath id="clip0_1342_1475">
<rect width="48" height="48" fill="white"/>
</clipPath>
</defs>
</svg>
