<svg width="48" height="48" viewBox="0 0 48 48" fill="none" xmlns="http://www.w3.org/2000/svg">
<g clip-path="url(#clip0_1711_2130)">
<path d="M23.1896 18.3022C23.5023 18.5992 24.0223 18.5391 24.26 18.1806L28.9398 11.1178C29.1544 10.7941 29.0658 10.3576 28.7421 10.143C28.4187 9.92876 27.9822 10.0174 27.7676 10.3407L23.5503 16.7055L21.2069 14.4804C20.9253 14.2131 20.4803 14.2248 20.2126 14.5064C19.9453 14.788 19.957 15.233 20.2386 15.5003C20.2383 15.5003 23.187 18.3 23.1896 18.3022Z" fill="#1782C5"/>
<path d="M23.6681 29.0266C23.8025 29.0881 23.9512 29.1207 24.0992 29.1207H24.105C24.2555 29.12 24.4064 29.0856 24.5412 29.0211C35.2331 23.9363 37.0451 12.9653 37.3454 9.724C37.4142 8.98389 36.9975 8.29468 36.3086 8.00903C34.1802 7.12537 32.7333 5.14929 32.5326 2.85205C32.4708 2.1449 31.8665 1.59375 31.1546 1.59375H31.1462L16.7416 1.67834C16.0154 1.68237 15.4255 2.23425 15.3698 2.96191C15.1926 5.25989 13.7669 7.25025 11.6491 8.15625C10.9672 8.44776 10.5607 9.14063 10.6384 9.88037C10.9767 13.118 12.9173 24.0674 23.6681 29.0266ZM12.2021 9.44898C14.7989 8.33862 16.5483 5.90076 16.7706 3.08423L31.1337 3C31.389 5.8103 33.1633 8.22583 35.7696 9.30762C35.886 9.35633 35.9567 9.47132 35.9454 9.59436C35.6634 12.6321 33.9763 22.8746 24.0966 27.6746C14.1602 22.9915 12.3544 12.7687 12.0365 9.73425C12.0237 9.61157 12.0904 9.49695 12.2021 9.44898Z" fill="#1782C5"/>
<path d="M13.9594 13.3469C14.0443 13.6597 14.441 13.946 14.8225 13.8409C15.1968 13.7377 15.4184 13.3528 15.3166 12.9782C15.1375 12.3182 14.987 11.6492 14.8687 10.9863C16.7788 9.74158 18.1964 7.88379 18.8919 5.71399L29.0462 5.6543C29.7669 7.81531 31.2061 9.65698 33.1309 10.879C33.0207 11.5437 32.8778 12.215 32.7061 12.8774C32.6087 13.2535 32.8346 13.6373 33.2104 13.7347C33.5868 13.8322 33.9703 13.6062 34.0677 13.2301C34.2691 12.4523 34.4331 11.6627 34.5547 10.8834C34.6228 10.448 34.4236 10.0199 34.0479 9.79285C32.2549 8.70996 30.9296 7.01111 30.3162 5.0094C30.1781 4.55933 29.7537 4.24658 29.2828 4.24658H29.2762L18.6451 4.30884C18.1712 4.31177 17.7471 4.63074 17.6142 5.08411C17.0246 7.09277 15.719 8.80701 13.9389 9.91113C13.5657 10.1422 13.372 10.5725 13.4449 11.0076C13.576 11.785 13.7488 12.572 13.9594 13.3469Z" fill="#1782C5"/>
<path d="M32.6463 15.4318C32.2874 15.2831 31.8765 15.4545 31.7282 15.8134C30.1033 19.7516 27.531 22.7457 24.0806 24.7163C20.6034 22.7838 17.9938 19.8149 16.3231 15.8892C16.1708 15.5321 15.7577 15.3659 15.4007 15.5178C15.0432 15.6698 14.877 16.0829 15.029 16.4399C16.8523 20.7239 19.7249 23.9535 23.5668 26.0383C23.7287 26.1266 23.9059 26.1702 24.0828 26.1702C24.2641 26.1702 24.445 26.1244 24.6098 26.0325C28.4228 23.9052 31.255 20.6473 33.0282 16.3495C33.1765 15.9906 33.0055 15.5797 32.6463 15.4318Z" fill="#1782C5"/>
<path d="M4.51111 37.5725C3.13965 37.5725 2.02344 38.6884 2.02344 40.0602C2.02344 41.432 3.13965 42.5479 4.51111 42.5479C5.88293 42.5479 6.99915 41.432 6.99915 40.0602C6.99915 38.6884 5.8833 37.5725 4.51111 37.5725ZM4.51111 41.1416C3.91492 41.1416 3.42969 40.6567 3.42969 40.0602C3.42969 39.464 3.91492 38.9788 4.51111 38.9788C5.10767 38.9788 5.5929 39.464 5.5929 40.0602C5.5929 40.6567 5.10767 41.1416 4.51111 41.1416Z" fill="#1782C5"/>
<path d="M47.4957 30.6888C46.5945 29.3646 44.7799 29.0138 43.4509 29.9066L34.259 36.0586L32.2969 35.9484L32.2467 35.4459C32.0512 33.4783 30.5471 31.9105 28.5894 31.6337C28.5769 31.6318 28.5648 31.6304 28.5524 31.6293L18.6478 30.7614C18.3127 30.709 17.2401 30.401 14.2928 28.7106C12.761 27.832 11.035 27.3362 9.28162 27.2688V25.4293C9.28162 24.5061 8.53088 23.7554 7.60767 23.7554H1.67395C0.751099 23.7554 0 24.5065 0 25.4293V43.5461C0 44.469 0.751099 45.2201 1.67395 45.2201H7.60767C8.53052 45.2201 9.28162 44.469 9.28162 43.5461V43.047L17.9396 46.3257C17.9586 46.333 18.6617 46.596 19.9545 46.474C19.9581 46.4736 34.3403 44.4002 34.3403 44.4002C34.344 44.3998 34.3473 44.3991 34.351 44.3983C35.58 44.2024 36.739 43.6827 37.7033 42.8965C37.712 42.8892 37.7205 42.8818 37.7289 42.8745L47.02 34.5179C48.115 33.5457 48.3197 31.8995 47.4957 30.6888ZM46.0829 33.4695L36.8016 41.8173C36.0333 42.4402 35.1112 42.8522 34.1342 43.0089L19.7589 45.0813C19.7556 45.0817 19.7509 45.0824 19.7465 45.0831C19.7443 45.0835 19.7417 45.0839 19.7395 45.0842C19.3096 45.152 18.8617 45.1234 18.408 44.9993L9.28162 41.5433V33.5134C9.28162 33.1249 8.96668 32.8103 8.57849 32.8103C8.18994 32.8103 7.87537 33.1249 7.87537 33.5134V43.5461C7.87537 43.6937 7.75525 43.8138 7.60767 43.8138H1.67395C1.52637 43.8138 1.40625 43.6937 1.40625 43.5461V25.4293C1.40625 25.2817 1.52637 25.1616 1.67395 25.1616H7.60767C7.75525 25.1616 7.87537 25.2817 7.87537 25.4293V30.3373C7.87537 30.7258 8.19031 31.0404 8.57849 31.0404C8.96704 31.0404 9.28162 30.7255 9.28162 30.3373V28.6765C10.79 28.7432 12.2739 29.1738 13.593 29.9308C17.1478 31.9695 18.1406 32.1101 18.4669 32.1563C18.4794 32.1581 18.4915 32.1592 18.5039 32.1606L28.4095 33.0286C29.7155 33.2216 30.7167 34.2704 30.8474 35.5851L30.8848 35.9597L17.6232 36.7786C17.614 36.7778 17.6049 36.7771 17.5968 36.7764C17.1669 36.7376 16.7787 36.5343 16.5029 36.204C16.2543 35.9055 15.8108 35.8652 15.5127 36.1143C15.2142 36.3629 15.174 36.8064 15.423 37.1045C15.939 37.7234 16.667 38.0936 17.4716 38.1771C17.9059 38.2225 31.6582 37.3209 31.6582 37.3209L34.415 37.4758C34.5674 37.4846 34.7186 37.4429 34.8453 37.3579L44.2343 31.0745C44.9238 30.6112 45.8654 30.7928 46.333 31.4799C46.7604 32.1083 46.6542 32.9623 46.0829 33.4695Z" fill="#1782C5"/>
</g>
<defs>
<clipPath id="clip0_1711_2130">
<rect width="48" height="48" fill="white"/>
</clipPath>
</defs>
</svg>
