<svg width="48" height="48" viewBox="0 0 48 48" fill="none" xmlns="http://www.w3.org/2000/svg">
<path d="M39.6243 19.0821L36.3515 15.8096L36.4594 15.3568L40.0381 14.2981C40.3099 14.2178 40.4968 13.9679 40.4968 13.6844C40.4968 13.4008 40.3099 13.1509 40.0381 13.0706L36.4594 12.0119L35.6793 8.7362C35.6105 8.44772 35.3531 8.24436 35.0568 8.24436C34.7605 8.24436 34.503 8.44772 34.4342 8.7362L33.6549 12.0119L32.8053 12.2632L27.6936 7.1522C26.7486 6.20692 25.4917 5.68628 24.1555 5.68628C22.8187 5.68628 21.5624 6.20692 20.6174 7.1522L8.68687 19.0821C6.73567 21.033 6.73567 24.208 8.68687 26.1589L9.28431 26.7564L8.58175 29.2498C8.21295 31.1914 5.95743 34.5298 5.93487 34.5632C5.76239 34.8173 5.79423 35.1583 6.01167 35.3754L13.108 42.4717C13.2317 42.5954 13.3955 42.6592 13.5605 42.6592C13.6805 42.6592 13.8017 42.6255 13.908 42.5564L17.7211 40.0882C18.7003 39.4543 19.6377 38.7543 20.5353 38.0071L20.6173 38.0888C21.5622 39.0341 22.8185 39.5544 24.1553 39.5544C25.4917 39.5544 26.7485 39.0341 27.6934 38.0888L39.624 26.1589C41.5749 24.2077 41.5749 21.0333 39.6243 19.0821ZM34.3729 13.1343C34.5929 13.0693 34.7611 12.8917 34.8142 12.6687L35.0568 11.649L35.3 12.6687C35.3531 12.8919 35.5213 13.0693 35.7413 13.1343L37.6006 13.6844L35.7413 14.2344C35.5213 14.2994 35.3531 14.477 35.3 14.7L35.0568 15.7197L34.8142 14.7C34.7611 14.4768 34.5929 14.2994 34.3729 14.2344L32.5136 13.6844L34.3729 13.1343ZM17.0254 39.014L13.6473 41.2008L7.28543 34.8389C7.94415 33.8156 9.50175 31.2629 9.82671 29.5429L12.5555 19.8573C12.6624 19.296 13.1605 18.9104 13.7405 18.9674C14.0361 18.9956 14.3024 19.138 14.4899 19.3687C14.6705 19.5906 14.7561 19.8674 14.7325 20.1512L13.46 25.6656C13.3963 25.944 13.5237 26.2309 13.7737 26.3693C14.0219 26.5077 14.3337 26.4644 14.5363 26.2621L23.7245 17.0743C24.0826 16.7165 24.7032 16.7176 25.0601 17.0743C25.2382 17.2527 25.337 17.49 25.337 17.7421C25.337 17.9946 25.2382 18.2319 25.0601 18.4103C25.0601 18.4103 25.0602 18.4104 25.06 18.4104L18.3001 25.1706C18.0502 25.4205 18.0502 25.8256 18.3001 26.0756C18.5501 26.3255 18.9552 26.3255 19.2051 26.0756L27.8326 17.4477C28.2014 17.0796 28.8001 17.0796 29.1689 17.4477C29.347 17.6261 29.4453 17.8634 29.4453 18.1159C29.4453 18.368 29.3472 18.6053 29.1689 18.7837L26.9139 21.0386C26.9136 21.0389 26.9131 21.0392 26.9126 21.0396L20.5408 27.4114C20.2909 27.6613 20.2909 28.0664 20.5408 28.3164C20.6658 28.4413 20.8296 28.5039 20.9933 28.5039C21.1569 28.5039 21.3208 28.4413 21.4457 28.3164L27.8184 21.944C28.1947 21.5684 28.8067 21.5685 29.184 21.9445C29.5603 22.3212 29.5603 22.9343 29.184 23.3108L27.3465 25.1482L22.4685 30.026C22.2185 30.2759 22.2185 30.681 22.4685 30.9309C22.7184 31.1808 23.1235 31.1808 23.3734 30.9309L23.7163 30.588C23.7166 30.5877 23.7169 30.5877 23.7171 30.5874L28.2515 26.053C28.5997 25.7045 29.2078 25.7036 29.5571 26.0533C29.7315 26.2274 29.8277 26.4592 29.8277 26.7058C29.8277 26.9524 29.7313 27.1842 29.5571 27.3586L21.607 35.3088C20.2168 36.6989 18.6755 37.9455 17.0254 39.014ZM38.7192 25.254L26.7886 37.1839C26.0849 37.8872 25.1499 38.2744 24.1555 38.2744C23.1605 38.2744 22.2256 37.8872 21.5224 37.1836L21.5065 37.1677C21.8485 36.8568 22.1854 36.5407 22.5118 36.2141L30.4619 28.2639C30.8782 27.8476 31.1075 27.2944 31.1075 26.7061C31.1075 26.1173 30.8781 25.5642 30.4619 25.1487C30.231 24.9173 29.9504 24.757 29.6505 24.6541L30.0888 24.2159C30.9645 23.3402 30.9645 21.9152 30.0888 21.0392C29.8432 20.7941 29.5526 20.625 29.2451 20.5173L30.0737 19.6887C30.4937 19.2687 30.725 18.71 30.725 18.1159C30.725 17.5215 30.4937 16.9628 30.0737 16.5424C29.2043 15.6746 27.7944 15.6762 26.9275 16.5428L26.4787 16.9916C26.3715 16.6917 26.2048 16.4088 25.9651 16.1693C25.1257 15.329 23.6601 15.3277 22.8195 16.1693L15.2096 23.7792L15.9896 20.3989C15.9952 20.3746 15.999 20.3501 16.0021 20.3258C16.0726 19.6868 15.8889 19.0602 15.4833 18.5612C15.0777 18.0624 14.5021 17.754 13.8621 17.693C12.627 17.5767 11.529 18.4036 11.3109 19.5642L9.68255 25.3442L9.59215 25.2538C8.14031 23.8016 8.14031 21.4391 9.59215 19.9869L21.5227 8.057C22.2259 7.35364 23.1608 6.96612 24.1558 6.96612C25.1502 6.96612 26.0853 7.35364 26.7889 8.057L31.4086 12.6762L30.0758 13.0704C29.804 13.1508 29.6171 13.4007 29.6171 13.6842C29.6171 13.9677 29.804 14.2176 30.0758 14.298L33.6552 15.3567L34.4345 18.6324C34.5033 18.9208 34.7608 19.1242 35.0571 19.1242C35.3534 19.1242 35.6109 18.9208 35.6797 18.6324L36.0037 17.2714L38.7197 19.9871C40.1706 21.4392 40.1705 23.8018 38.7192 25.254Z" fill="#1782C5"/>
<path d="M9.43687 7.90058C9.79063 7.90058 10.0769 7.61402 10.0769 7.26058V5.98058C10.0769 5.62714 9.79063 5.34058 9.43687 5.34058C9.08312 5.34058 8.79688 5.62714 8.79688 5.98058V7.26058C8.79688 7.61402 9.08312 7.90058 9.43687 7.90058Z" fill="#1782C5"/>
<path d="M9.43687 9.18066C9.08312 9.18066 8.79688 9.46722 8.79688 9.82066V11.1007C8.79688 11.4541 9.08312 11.7407 9.43687 11.7407C9.79063 11.7407 10.0769 11.4541 10.0769 11.1007V9.82066C10.0769 9.46722 9.79063 9.18066 9.43687 9.18066Z" fill="#1782C5"/>
<path d="M6.87437 9.18063H8.15437C8.50813 9.18063 8.79437 8.89407 8.79437 8.54063C8.79437 8.18719 8.50813 7.90063 8.15437 7.90063H6.87437C6.52062 7.90063 6.23438 8.18719 6.23438 8.54063C6.23438 8.89407 6.52062 9.18063 6.87437 9.18063Z" fill="#1782C5"/>
<path d="M10.7142 9.18063H11.9942C12.348 9.18063 12.6342 8.89407 12.6342 8.54063C12.6342 8.18719 12.348 7.90063 11.9942 7.90063H10.7142C10.3605 7.90063 10.0742 8.18719 10.0742 8.54063C10.0742 8.89407 10.3605 9.18063 10.7142 9.18063Z" fill="#1782C5"/>
<path d="M36.6345 36.7007C35.3995 36.7007 34.3945 37.7056 34.3945 38.9407C34.3945 40.1757 35.3995 41.1807 36.6345 41.1807C37.8696 41.1807 38.8745 40.1757 38.8745 38.9407C38.8745 37.7056 37.8696 36.7007 36.6345 36.7007ZM36.6345 39.9007C36.1051 39.9007 35.6745 39.4701 35.6745 38.9407C35.6745 38.4112 36.1051 37.9807 36.6345 37.9807C37.164 37.9807 37.5945 38.4112 37.5945 38.9407C37.5945 39.4701 37.1638 39.9007 36.6345 39.9007Z" fill="#1782C5"/>
<path d="M41.4888 32.5591C41.1109 32.5591 40.8047 32.8655 40.8047 33.2432C40.8047 33.6212 41.1109 33.9276 41.4888 33.9276C41.8668 33.9276 42.173 33.6212 42.173 33.2432C42.1732 32.8653 41.8668 32.5591 41.4888 32.5591Z" fill="#1782C5"/>
</svg>
