<svg width="48" height="48" viewBox="0 0 48 48" fill="none" xmlns="http://www.w3.org/2000/svg">
<path d="M3.75 22.604C4.47203 22.604 5.15355 22.5596 5.81175 22.4951V28.0378C5.81175 28.2367 5.89077 28.4275 6.03142 28.5681C6.17207 28.7088 6.36284 28.7878 6.56175 28.7878C6.76066 28.7878 6.95143 28.7088 7.09208 28.5681C7.23273 28.4275 7.31175 28.2367 7.31175 28.0378V22.2879C8.6842 22.0428 10.0149 21.604 11.2639 20.9846C11.4393 20.8949 11.5724 20.7398 11.6343 20.5527C11.6963 20.3657 11.6821 20.1618 11.5949 19.9851C11.5077 19.8085 11.3545 19.6732 11.1684 19.6086C10.9823 19.544 10.7782 19.5552 10.6003 19.6399C9.29789 20.2932 7.89601 20.7256 6.45189 20.9194C5.55694 21.0464 4.65392 21.1081 3.75 21.104C3.55109 21.104 3.36032 21.183 3.21967 21.3236C3.07902 21.4643 3 21.6551 3 21.854C3 22.0529 3.07902 22.2437 3.21967 22.3843C3.36032 22.525 3.55109 22.604 3.75 22.604Z" fill="#1782C5"/>
<path d="M44.1263 26.8308C44.0729 26.6394 43.946 26.4769 43.7732 26.3788C43.6004 26.2806 43.3958 26.2549 43.2041 26.3072L40.1353 27.1538C39.9461 27.2089 39.7862 27.3362 39.6902 27.5083C39.5941 27.6803 39.5696 27.8832 39.6219 28.0731C39.6743 28.2631 39.7993 28.4248 39.9699 28.5233C40.1405 28.6218 40.3431 28.6493 40.5337 28.5996L42.055 28.1798C41.6904 28.9476 41.0934 29.5812 40.3485 29.9906C39.6036 30.4001 38.7487 30.5646 37.905 30.4609V22.5349C38.964 22.6386 40.0302 22.4321 40.9739 21.9406C41.9176 21.449 42.6979 20.6936 43.2198 19.7664L43.5271 20.8792C43.5823 21.0682 43.7096 21.2279 43.8816 21.3238C44.0536 21.4197 44.2563 21.4442 44.4462 21.3919C44.636 21.3395 44.7976 21.2147 44.8961 21.0442C44.9947 20.8737 45.0222 20.6714 44.9728 20.4808L44.1263 17.4126C44.0729 17.2212 43.946 17.0587 43.7732 16.9605C43.6004 16.8624 43.3958 16.8367 43.2041 16.8889L40.1353 17.7356C39.946 17.7907 39.7861 17.918 39.69 18.09C39.5939 18.262 39.5693 18.465 39.6217 18.655C39.6741 18.845 39.7991 19.0067 39.9698 19.1052C40.1404 19.2037 40.343 19.2311 40.5337 19.1814L42.0524 18.7623C41.6883 19.5296 41.0915 20.1626 40.3469 20.5712C39.6023 20.9798 38.7478 21.1432 37.905 21.0381V7.54471C37.903 7.40349 37.8613 7.26567 37.7849 7.14691C37.7084 7.02816 37.6002 6.93322 37.4725 6.87288C37.3448 6.81254 37.2028 6.78923 37.0625 6.80558C36.9222 6.82194 36.7893 6.87731 36.6789 6.96541L29.5012 12.8606C29.4156 12.9309 29.3466 13.0193 29.2992 13.1195C29.2518 13.2197 29.2273 13.3292 29.2273 13.44V17.6106C28.262 17.1356 27.2464 16.7707 26.1995 16.5227V7.54618C26.1975 7.40495 26.1559 7.26712 26.0794 7.14835C26.003 7.02958 25.8947 6.93464 25.767 6.8743C25.6393 6.81396 25.4973 6.79065 25.357 6.80701C25.2167 6.82337 25.0838 6.87876 24.9734 6.96687L17.7927 12.8628C17.707 12.9331 17.638 13.0215 17.5906 13.1217C17.5432 13.2219 17.5187 13.3313 17.5188 13.4422V16.5225C16.4731 16.7608 15.4572 17.1153 14.4903 17.5794V7.54471C14.4903 7.40261 14.4499 7.26344 14.3738 7.1434C14.2978 7.02336 14.1892 6.92739 14.0607 6.86668C13.9323 6.80597 13.7892 6.78302 13.6481 6.80049C13.5071 6.81796 13.374 6.87514 13.2642 6.96537L6.08642 12.868C6.00081 12.9383 5.93184 13.0267 5.88448 13.1269C5.83712 13.2271 5.81254 13.3365 5.8125 13.4473V18.6299C5.81602 18.8265 5.89658 19.0139 6.03685 19.1516C6.17712 19.2894 6.36588 19.3666 6.5625 19.3666C6.75912 19.3666 6.94788 19.2894 7.08815 19.1516C7.22842 19.0139 7.30898 18.8265 7.3125 18.6299V13.8018L12.9902 9.13261V20.9554C12.9929 21.1525 13.0731 21.3407 13.2134 21.4792C13.3538 21.6177 13.543 21.6954 13.7402 21.6954C13.9374 21.6954 14.1267 21.6177 14.267 21.4792C14.4074 21.3407 14.4876 21.1525 14.4902 20.9554V19.2554C14.9254 19.0282 15.3398 18.8269 15.7537 18.6556C16.3272 18.4171 16.9171 18.2201 17.5188 18.0658V25.9465C16.4732 26.1849 15.4574 26.5391 14.4902 27.0025V24.6973C14.4902 24.4984 14.4112 24.3076 14.2706 24.167C14.1299 24.0263 13.9391 23.9473 13.7402 23.9473C13.5413 23.9473 13.3506 24.0263 13.2099 24.167C13.0693 24.3076 12.9902 24.4984 12.9902 24.6973V38.8689L7.3125 34.2056V31.7032C8.6845 31.458 10.0148 31.0197 11.2639 30.4014C11.4395 30.3117 11.5728 30.1565 11.6349 29.9693C11.697 29.7822 11.6829 29.5781 11.5957 29.4012C11.5085 29.2243 11.3552 29.0889 11.169 29.0241C10.9827 28.9594 10.7784 28.9706 10.6003 29.0552C8.46682 30.0841 6.11771 30.5865 3.75 30.5201C3.65149 30.52 3.55394 30.5394 3.46292 30.577C3.3719 30.6147 3.2892 30.6699 3.21954 30.7396C3.14989 30.8093 3.09465 30.892 3.05698 30.983C3.0193 31.074 2.99994 31.1715 3 31.2701C3.06791 32.5279 5.0396 31.8667 5.8125 31.9106V34.5601C5.81246 34.6709 5.83701 34.7804 5.88437 34.8806C5.93174 34.9807 6.00075 35.0692 6.08642 35.1395L13.2642 41.0347C13.3745 41.1229 13.5074 41.1784 13.6478 41.1948C13.7881 41.2113 13.9302 41.188 14.058 41.1276C14.1857 41.0672 14.294 40.9722 14.3704 40.8534C14.4468 40.7345 14.4883 40.5966 14.4902 40.4553V28.672C15.4501 28.1611 16.4666 27.7644 17.5188 27.4901V34.5594C17.5187 34.6702 17.5432 34.7797 17.5906 34.8799C17.6379 34.9801 17.707 35.0685 17.7927 35.1387L24.9734 41.034C25.0838 41.1221 25.2167 41.1775 25.357 41.1939C25.4973 41.2103 25.6394 41.187 25.7671 41.1266C25.8948 41.0663 26.003 40.9713 26.0795 40.8525C26.1559 40.7337 26.1975 40.5958 26.1994 40.4546V27.4893C27.2512 27.7822 28.2668 28.192 29.2273 28.7112V34.5601C29.2272 34.6709 29.2518 34.7804 29.2991 34.8805C29.3465 34.9807 29.4155 35.0692 29.5012 35.1394L31.3916 36.6922C31.5457 36.814 31.7415 36.8705 31.9368 36.8495C32.1322 36.8286 32.3115 36.7318 32.4362 36.58C32.5609 36.4282 32.6211 36.2335 32.6038 36.0378C32.5865 35.8421 32.4931 35.661 32.3437 35.5334L30.7273 34.2056V29.5308C31.8007 30.1607 32.9273 30.6952 34.0942 31.128C34.2818 31.1938 34.4878 31.1825 34.667 31.0966C34.8463 31.0107 34.9841 30.8572 35.0503 30.6698C35.1164 30.4823 35.1055 30.2763 35.0199 30.0969C34.9343 29.9175 34.7811 29.7794 34.5938 29.7129C33.2522 29.1944 31.9585 28.5599 30.7273 27.8165V20.1116C31.7998 20.7442 32.9281 21.2773 34.0979 21.7039C34.2857 21.7692 34.4918 21.7571 34.6708 21.6705C34.8498 21.5838 34.987 21.4296 35.0523 21.2417C35.1175 21.0539 35.1055 20.8478 35.0188 20.6688C34.9322 20.4899 34.7779 20.3527 34.5901 20.2874C33.2473 19.7758 31.9543 19.1422 30.7273 18.3944V13.7945L36.405 9.13114V38.8682L34.7285 37.4905C34.5744 37.3686 34.3786 37.312 34.1832 37.333C33.9878 37.3539 33.8085 37.4507 33.6837 37.6026C33.559 37.7544 33.4988 37.9491 33.5161 38.1449C33.5334 38.3406 33.6269 38.5217 33.7764 38.6493L36.679 41.0347C36.7894 41.1228 36.9222 41.1782 37.0625 41.1945C37.2028 41.2109 37.3449 41.1876 37.4726 41.1272C37.6003 41.0669 37.7085 40.9719 37.7849 40.8532C37.8614 40.7344 37.903 40.5966 37.905 40.4554V31.958C38.9642 32.0604 40.0304 31.853 40.974 31.361C41.9176 30.869 42.698 30.1136 43.2204 29.1865L43.5271 30.2974C43.5824 30.4863 43.7098 30.6459 43.8817 30.7417C44.0536 30.8375 44.2563 30.8619 44.446 30.8096C44.6358 30.7573 44.7974 30.6325 44.8959 30.4622C44.9945 30.2918 45.0221 30.0895 44.9729 29.899L44.1263 26.8308ZM24.6995 38.8682L19.0188 34.2049V27.1653C20.2184 26.9911 21.4318 26.9301 22.6428 26.9832C22.8376 26.9802 23.0236 26.9015 23.1614 26.7637C23.2992 26.626 23.378 26.4401 23.3811 26.2453C23.3843 26.0505 23.3115 25.8621 23.1782 25.72C23.0449 25.5779 22.8615 25.4932 22.6669 25.4839C21.4485 25.4321 20.2278 25.4864 19.0188 25.6462V17.7412C20.2184 17.5668 21.4317 17.5058 22.6428 17.5591C22.8393 17.5588 23.0279 17.4813 23.1678 17.3433C23.3078 17.2053 23.388 17.0179 23.3912 16.8214C23.3944 16.6249 23.3202 16.4349 23.1848 16.2925C23.0493 16.1501 22.8634 16.0666 22.667 16.0599C21.4485 16.0082 20.2278 16.0625 19.0188 16.2221V13.7967L24.6994 9.13261L24.6995 38.8682ZM27.4072 26.2837C27.0325 26.1591 26.6255 26.05 26.1995 25.9467V18.0652C27.2512 18.3582 28.2667 18.768 29.2273 19.2868V27.0346C28.636 26.7486 28.0282 26.4978 27.4072 26.2837Z" fill="#1782C5"/>
</svg>
