<svg width="48" height="48" viewBox="0 0 48 48" fill="none" xmlns="http://www.w3.org/2000/svg">
<g clip-path="url(#clip0_1711_2119)">
<path d="M15.4805 30.2288C16.8702 28.8391 16.8702 26.5774 15.4805 25.1876C14.807 24.5145 13.912 24.1435 12.9598 24.1435C12.4094 24.1435 11.8784 24.268 11.3983 24.5028C9.70532 22.0807 8.8136 19.2462 8.8136 16.2649C8.8136 8.63487 14.774 2.31408 22.3828 1.87463C22.9002 1.8446 23.295 1.40112 23.2654 0.884028C23.2353 0.366573 22.7918 -0.0271033 22.2748 0.00146104C13.6743 0.498409 6.9375 7.64207 6.9375 16.2649C6.9375 19.705 7.98889 22.9727 9.98217 25.7483C9.07141 27.1311 9.22375 29.0134 10.4392 30.2288C11.1127 30.9019 12.0077 31.2729 12.9598 31.2729C13.912 31.2729 14.807 30.9019 15.4805 30.2288ZM11.7656 26.5144C12.0948 26.1851 12.5273 26.0203 12.9598 26.0203C13.392 26.0203 13.8245 26.1851 14.1537 26.5144C14.8121 27.1724 14.8121 28.244 14.1537 28.9021C13.4952 29.5605 12.4241 29.5605 11.7656 28.9021C11.1075 28.244 11.1075 27.1728 11.7656 26.5144Z" fill="#1782C5"/>
<path d="M37.6914 32.5002C37.0985 32.5002 36.5411 32.6547 36.0573 32.9257C35.6285 31.566 34.3555 30.5772 32.8559 30.5772C31.9071 30.5772 31.049 30.9731 30.4382 31.6081C30.2686 31.4323 30.08 31.2752 29.8761 31.1393C32.0382 30.1714 33.9838 28.7337 35.5582 26.9125C38.1121 23.9572 39.5188 20.1757 39.5188 16.265C39.5188 12.8266 38.4674 9.55709 36.4744 6.78121C37.3852 5.3984 37.2329 3.51645 36.017 2.30063C34.6273 0.910859 32.3659 0.910859 30.9758 2.30063C29.586 3.6904 29.586 5.95211 30.9758 7.34188C31.6709 8.03695 32.5835 8.38448 33.4964 8.38448C34.0315 8.38448 34.5658 8.264 35.0568 8.02523C36.7506 10.4481 37.6427 13.2847 37.6427 16.265C37.6427 23.0508 33.0361 28.7868 26.5406 30.2978V25.2485C30.2606 23.8752 32.8021 20.2794 32.8021 16.265C32.8021 10.986 28.5072 6.69112 23.2279 6.69112C17.949 6.69112 13.654 10.9857 13.654 16.265C13.654 18.3483 14.3121 20.3295 15.5565 21.9936C16.642 23.4449 18.1438 24.5721 19.8287 25.2151V39.0136L18.6502 37.0804C17.66 35.4548 15.5928 34.9274 13.9444 35.8788C12.3767 36.7841 11.7651 38.7704 12.5565 40.4088L16.0556 47.4778C16.2193 47.8085 16.5519 48 16.8972 48C17.0371 48 17.1788 47.9689 17.3125 47.9026C17.7768 47.6726 17.9669 47.1098 17.7373 46.6458L14.2418 39.5849C13.8796 38.8345 14.1609 37.9204 14.8827 37.5037C15.6286 37.073 16.6002 37.321 17.0484 38.0567L19.9657 42.8434C20.1847 43.2023 20.6157 43.3719 21.0204 43.2583C21.425 43.1448 21.7048 42.7757 21.7048 42.3549V20.832C21.7048 20.0161 22.3687 19.3525 23.1847 19.3525C24.0006 19.3525 24.6645 20.0161 24.6645 20.832V24.5424C24.6642 24.549 24.6645 24.5556 24.6645 24.5626V38.6477C24.6645 39.1659 25.0842 39.5856 25.6024 39.5856C26.1206 39.5856 26.5406 39.1659 26.5406 38.6477V33.9332C26.5406 33.1172 27.2042 32.4533 28.0201 32.4533C28.836 32.4533 29.5 33.1172 29.5 33.9332V38.9891C29.5 39.5072 29.92 39.9273 30.4378 39.9273C30.956 39.9273 31.3761 39.5072 31.3761 38.9891V33.9332C31.3761 33.1172 32.04 32.4533 32.8559 32.4533C33.6718 32.4533 34.3354 33.1172 34.3354 33.9332V39.0524C34.3354 39.5706 34.7554 39.9906 35.2736 39.9906C35.7918 39.9906 36.2115 39.5706 36.2115 39.0524V35.8561C36.2115 35.0402 36.8754 34.3763 37.6914 34.3763C38.5073 34.3763 39.1712 35.0402 39.1712 35.8561V47.0614C39.1712 47.5796 39.5909 47.9997 40.1091 47.9997C40.6273 47.9997 41.0473 47.5796 41.0473 47.0614V35.8561C41.0473 34.0057 39.5418 32.5002 37.6914 32.5002ZM32.3026 6.01547C31.6441 5.35702 31.6441 4.28585 32.3026 3.62741C32.6318 3.29818 33.0639 3.13376 33.4964 3.13376C33.9289 3.13376 34.3614 3.29818 34.6906 3.62741C35.3487 4.28585 35.3487 5.35702 34.6906 6.01547C34.0322 6.67355 32.9607 6.67355 32.3026 6.01547ZM15.5301 16.265C15.5301 12.0202 18.9835 8.56685 23.2282 8.56685C27.4726 8.56685 30.926 12.0202 30.926 16.265C30.926 19.254 29.1744 21.9548 26.5406 23.2149V20.832C26.5406 20.3054 26.4183 19.8066 26.2008 19.3624C27.0328 18.5604 27.5246 17.4423 27.5246 16.265C27.5246 13.8956 25.5973 11.9682 23.2282 11.9682C20.8589 11.9682 18.9315 13.8956 18.9315 16.265C18.9315 17.4079 19.397 18.5062 20.1971 19.3067C19.9624 19.7645 19.8287 20.283 19.8287 20.832V23.1754C17.2165 21.8987 15.5301 19.2514 15.5301 16.265ZM21.4825 17.9415C21.05 17.494 20.8076 16.9011 20.8076 16.265C20.8076 14.9301 21.8934 13.8443 23.2279 13.8443C24.5627 13.8443 25.6485 14.9301 25.6485 16.265C25.6485 16.9102 25.3863 17.5247 24.9403 17.9737C24.429 17.6584 23.8277 17.4764 23.1847 17.4764C22.5636 17.4764 21.982 17.6463 21.4825 17.9415Z" fill="#1782C5"/>
<path d="M26.5511 2.21032C26.798 2.21032 27.04 2.10998 27.2144 1.9353C27.389 1.76098 27.4894 1.51892 27.4894 1.27209C27.4894 1.02563 27.389 0.783569 27.2144 0.608886C27.04 0.43457 26.798 0.334229 26.5511 0.334229C26.3047 0.334229 26.0626 0.43457 25.8883 0.608886C25.7136 0.783569 25.6133 1.02563 25.6133 1.27209C25.6133 1.51892 25.7136 1.76098 25.8883 1.9353C26.0626 2.10998 26.3047 2.21032 26.5511 2.21032Z" fill="#1782C5"/>
</g>
<defs>
<clipPath id="clip0_1711_2119">
<rect width="48" height="48" fill="white"/>
</clipPath>
</defs>
</svg>
