<svg width="48" height="48" viewBox="0 0 48 48" fill="none" xmlns="http://www.w3.org/2000/svg">
<g clip-path="url(#clip0_1711_2123)">
<path d="M24.1707 30.5404C20.5808 30.5404 17.6602 27.5992 17.6602 23.9845C17.6602 20.3694 20.5808 17.4282 24.1707 17.4282C27.7607 17.4282 30.6813 20.3694 30.6813 23.9845C30.6813 27.5992 27.7607 30.5404 24.1707 30.5404ZM24.1707 18.9766C21.4343 18.9766 19.2085 21.2229 19.2085 23.9845C19.2085 26.7456 21.4343 28.992 24.1707 28.992C26.9071 28.992 29.1329 26.7456 29.1329 23.9845C29.1329 21.2233 26.9071 18.9766 24.1707 18.9766Z" fill="#1782C5"/>
<path d="M26.1229 40.3777H22.2186C21.7909 40.3777 21.444 40.0312 21.444 39.6035V36.7901C19.9084 36.4583 18.4297 35.8409 17.107 34.9788L15.1367 36.9639C14.839 37.2639 14.335 37.2639 14.0369 36.9639L11.2766 34.1826C10.9769 33.8806 10.9769 33.3941 11.2766 33.0921L13.2535 31.1005C12.3949 29.7654 11.7798 28.2728 11.4508 26.7228H8.66521C8.23746 26.7228 7.89062 26.3764 7.89062 25.9486V22.015C7.89062 21.5876 8.23746 21.2408 8.66521 21.2408H11.4508C11.7802 19.6908 12.3949 18.1982 13.2535 16.8631L11.2766 14.8715C10.9769 14.5696 10.9769 14.083 11.2766 13.781L14.0369 10.9997C14.3277 10.7067 14.8456 10.7067 15.1367 10.9997L17.107 12.9848C18.4297 12.1227 19.9084 11.5053 21.444 11.1736V8.36013C21.444 7.93278 21.7909 7.58594 22.2186 7.58594H26.1229C26.5506 7.58594 26.8975 7.93239 26.8975 8.36013V11.1736C28.4331 11.5053 29.9118 12.1227 31.2345 12.9848L33.2048 10.9997C33.4955 10.7067 34.0135 10.7067 34.3046 10.9997L37.0649 13.781C37.3646 14.083 37.3646 14.5696 37.0649 14.8715L35.088 16.8631C35.9466 18.1982 36.5617 19.6908 36.8908 21.2408H39.6763C40.104 21.2408 40.4509 21.5872 40.4509 22.015V25.9483C40.4509 26.3756 40.104 26.7225 39.6763 26.7225H36.8908C36.5613 28.2724 35.9466 29.765 35.088 31.1001L37.0649 33.0917C37.3646 33.3937 37.3646 33.8803 37.0649 34.1822L34.3046 36.9635C34.0139 37.2565 33.4959 37.2565 33.2048 36.9635L31.2345 34.9785C29.9118 35.8405 28.4331 36.4579 26.8975 36.7897V39.6031C26.8971 40.0308 26.5506 40.3777 26.1229 40.3777ZM22.9932 38.8293H25.3487V36.1486C25.3487 35.7689 25.6243 35.4449 25.9994 35.3845C27.746 35.1023 29.4314 34.3982 30.8722 33.3488C31.1811 33.1243 31.6084 33.1576 31.8778 33.4289L33.7541 35.3195L35.4237 33.6372L33.5389 31.7381C33.2726 31.4698 33.2389 31.0486 33.4595 30.7417C34.5024 29.2885 35.2015 27.5888 35.4821 25.8267C35.5417 25.4508 35.8661 25.1745 36.247 25.1745H38.9017V22.7892H36.247C35.8661 22.7892 35.5421 22.5124 35.4821 22.1369C35.2019 20.3748 34.5024 18.6755 33.4595 17.2219C33.2393 16.915 33.2726 16.4938 33.5389 16.2256L35.4237 14.3265L33.7541 12.6441L31.8778 14.5347C31.6084 14.8068 31.1811 14.8405 30.8722 14.6148C29.431 13.565 27.746 12.8613 25.9994 12.5791C25.6243 12.5183 25.3487 12.1947 25.3487 11.815V9.13432H22.9932V11.815C22.9932 12.1947 22.7176 12.5187 22.3425 12.5791C20.5959 12.8613 18.9105 13.5654 17.4697 14.6148C17.1608 14.8401 16.7339 14.8065 16.464 14.5347L14.5878 12.6441L12.9182 14.3265L14.803 16.2256C15.0693 16.4938 15.103 16.915 14.8824 17.2219C13.8395 18.6755 13.14 20.3748 12.8598 22.1369C12.8002 22.5128 12.4758 22.7892 12.0949 22.7892H9.44017V25.1745H12.0949C12.4758 25.1745 12.7998 25.4512 12.8598 25.8267C13.1404 27.5892 13.8395 29.2885 14.8824 30.7417C15.1026 31.0486 15.0693 31.4698 14.803 31.7381L12.9182 33.6372L14.5878 35.3195L16.464 33.4289C16.7339 33.1576 17.1612 33.1235 17.4697 33.3488C18.9109 34.3986 20.5959 35.1023 22.3425 35.3845C22.7176 35.4453 22.9932 35.7689 22.9932 36.1486V38.8293Z" fill="#1782C5"/>
<path d="M45.0564 8.22348C45.0478 7.23058 43.4995 7.23639 43.5076 8.23587L43.5161 9.28258C38.8659 3.65613 31.4197 0 24.2762 0C16.8873 0 10.0496 3.36271 5.51713 9.22645C4.90784 10.0154 6.13145 10.9626 6.74268 10.1733C10.9798 4.692 17.3704 1.54839 24.2762 1.54839C31.2293 1.54839 38.4912 5.2471 42.8062 10.8739H40.664C39.6668 10.8739 39.6649 12.4223 40.664 12.4223H44.3093C44.732 12.4223 45.0873 12.0646 45.0838 11.6419L45.0564 8.22348Z" fill="#1782C5"/>
<path d="M48 23.7878C48 20.8474 47.4712 17.9767 46.4284 15.2558C46.0719 14.3249 44.6249 14.8769 44.9822 15.8098C45.9569 18.3534 46.4512 21.0375 46.4512 23.7878C46.4512 32.4329 40.5283 40.7326 32.0903 44.2997L32.6876 43.3707C33.2268 42.5322 31.925 41.6941 31.3847 42.5338L29.5378 45.4068C29.2858 45.7985 29.4472 46.3412 29.8723 46.5313L32.9837 47.9264C33.8954 48.3352 34.5275 46.9215 33.6174 46.5139L32.263 45.9065C41.4863 42.2047 48 33.1896 48 23.7878Z" fill="#1782C5"/>
<path d="M25.1961 46.0088C24.8918 46.0211 24.5857 46.0273 24.2783 46.0273C12.0522 46.0273 2.10578 36.0507 2.10578 23.7878C2.10578 21.6162 3.0023 18.9038 3.85662 16.6138L4.53752 18.1455C4.94243 19.0552 6.35881 18.4297 5.95275 17.5165L4.50888 14.2691C4.33197 13.8708 3.83959 13.6958 3.44978 13.8937L0.410684 15.4409C-0.477703 15.8934 0.222942 17.2722 1.11365 16.8205L2.36397 16.1841C1.47752 18.569 0.556619 21.4006 0.556619 23.7878C0.556619 36.9046 11.1979 47.5757 24.2779 47.5757C24.6066 47.5757 24.9336 47.5691 25.2588 47.556C26.2548 47.5149 26.1956 45.9704 25.1961 46.0088C25.6289 45.9921 24.8915 46.0215 25.1961 46.0088Z" fill="#1782C5"/>
</g>
<defs>
<clipPath id="clip0_1711_2123">
<rect width="48" height="48" fill="white"/>
</clipPath>
</defs>
</svg>
