<svg width="48" height="48" viewBox="0 0 48 48" fill="none" xmlns="http://www.w3.org/2000/svg">
<path fill-rule="evenodd" clip-rule="evenodd" d="M35.4608 33.2978H28.8498C28.6168 33.2988 28.3936 33.3919 28.2288 33.5567C28.0641 33.7214 27.971 33.9446 27.9699 34.1776V38.9948C27.971 39.2278 28.0641 39.4509 28.2288 39.6157C28.3936 39.7805 28.6168 39.8735 28.8498 39.8746H35.4608V33.2978ZM26.7723 37.6675V35.5049H2.69766V37.6675H26.7723ZM35.4608 21.8101H29.3944C29.017 21.8116 28.6556 21.9621 28.3888 22.2289C28.1219 22.4957 27.9714 22.8572 27.9699 23.2345V25.3754C27.9714 25.7527 28.122 26.1142 28.3888 26.381C28.6556 26.6478 29.017 26.7984 29.3944 26.7998H35.4608V21.8101ZM26.7724 25.3863V23.2236H2.69766V25.3863H26.7724ZM36.6585 23.2236V25.3863H39.4389V23.2236H36.6585ZM36.6585 39.0563H40.7903V34.1156H36.6585V39.0563V39.0563ZM35.4608 10.0859H24.0482C23.7286 10.0872 23.4224 10.2147 23.1964 10.4407C22.9704 10.6667 22.8428 10.9729 22.8415 11.2925V13.2029C22.8429 13.5225 22.9704 13.8286 23.1964 14.0546C23.4224 14.2806 23.7286 14.4082 24.0482 14.4095H35.4608V10.0859ZM21.6515 13.3987C21.6462 13.334 21.6436 13.2688 21.6435 13.2029V11.2925C21.6435 11.2737 21.6437 11.255 21.6442 11.2362H2.69766V13.3988L21.6515 13.3987ZM38.2151 35.0767H38.814V36.2743H37.6001V35.0767H38.2151ZM38.2151 36.9723H38.814V38.1699H37.6001V36.9723H38.2151ZM39.8597 12.7791V11.7163H36.6585V12.7791H39.8597ZM42.1088 12.7791V11.7163H41.0573V12.7791H42.1088ZM43.3065 11.7163V12.7791H44.8182C45.2804 12.7791 45.3713 12.2948 45.2572 12.0009C45.2236 11.9131 45.1629 11.8383 45.0841 11.7872C45.0052 11.7361 44.9121 11.7114 44.8182 11.7166L43.3065 11.7163ZM3.90534 10.0382V5.421C3.90794 4.38223 4.32174 3.38674 5.05626 2.6522C5.79078 1.91767 6.78626 1.50384 7.82503 1.50122H12.6813C13.7201 1.50372 14.7157 1.91749 15.4504 2.65204C16.185 3.38659 16.5988 4.38215 16.6014 5.421V10.0383H21.9988C22.2137 9.68743 22.5148 9.3975 22.8736 9.19617C23.2324 8.99484 23.6368 8.88883 24.0482 8.88825H36.0596C36.2185 8.88825 36.3708 8.95135 36.4831 9.06366C36.5954 9.17597 36.6585 9.3283 36.6585 9.48713V10.5184H44.8182C46.1722 10.5184 46.7803 11.8671 46.3706 12.9249C46.2566 13.242 46.0448 13.5147 45.7658 13.7037C45.4868 13.8927 45.155 13.9882 44.8182 13.9764H36.6585V15.0077C36.6585 15.1665 36.5954 15.3188 36.4831 15.4311C36.3708 15.5434 36.2184 15.6065 36.0596 15.6065H24.0482C23.665 15.6061 23.2875 15.5142 22.9471 15.3383C22.6067 15.1625 22.3132 14.9079 22.0912 14.5957H16.6014V22.0253H27.0689C27.2905 21.5998 27.6244 21.2431 28.0344 20.9939C28.4443 20.7448 28.9146 20.6126 29.3944 20.6117H36.06C36.2188 20.6117 36.3712 20.6748 36.4835 20.7871C36.5958 20.8994 36.6589 21.0517 36.6589 21.2106V22.0253H40.038C40.1968 22.0253 40.3491 22.0884 40.4614 22.2007C40.5737 22.313 40.6368 22.4653 40.6368 22.6241V25.9844C40.6368 26.1432 40.5737 26.2955 40.4614 26.4078C40.3491 26.5202 40.1968 26.5833 40.038 26.5833H36.6585V27.398C36.6585 27.5568 36.5954 27.7091 36.4831 27.8214C36.3708 27.9338 36.2185 27.9968 36.0596 27.9968H29.394C28.9143 27.996 28.4439 27.8638 28.034 27.6146C27.6241 27.3654 27.2902 27.0087 27.0685 26.5833H16.6014V34.3065H26.7723V34.1769C26.7735 33.6263 26.9927 33.0986 27.3821 32.7092C27.7714 32.3199 28.2992 32.1006 28.8498 32.0994H36.0592C36.218 32.0994 36.3703 32.1625 36.4826 32.2748C36.5949 32.3872 36.658 32.5395 36.658 32.6983V32.9177H41.3889C41.5478 32.9177 41.7001 32.9808 41.8124 33.0931C41.9247 33.2054 41.9878 33.3577 41.9878 33.5165V39.6546C41.9878 39.8134 41.9247 39.9657 41.8124 40.078C41.7001 40.1903 41.5478 40.2533 41.3889 40.2533H36.6585V40.4727C36.6585 40.6316 36.5954 40.7839 36.4831 40.8962C36.3708 41.0085 36.2185 41.0716 36.0596 41.0716H28.8503C28.2996 41.0704 27.7719 40.8511 27.3825 40.4618C26.9932 40.0724 26.7739 39.5447 26.7727 38.9941V38.8645H16.6014V42.5783C16.5988 43.6171 16.185 44.6126 15.4505 45.3471C14.716 46.0817 13.7205 46.4955 12.6817 46.4981H7.8255C6.78672 46.4955 5.79125 46.0817 5.05673 45.3471C4.32221 44.6126 3.90841 43.6171 3.90581 42.5783V38.8652H2.09888C1.94004 38.8652 1.78772 38.8021 1.67541 38.6898C1.5631 38.5775 1.5 38.4251 1.5 38.2663V34.906C1.5 34.7472 1.5631 34.5949 1.67541 34.4826C1.78772 34.3703 1.94004 34.3072 2.09888 34.3072H3.90534V26.5839H2.09888C1.94004 26.5839 1.78772 26.5208 1.67541 26.4085C1.5631 26.2962 1.5 26.1439 1.5 25.9851V22.6248C1.5 22.466 1.5631 22.3136 1.67541 22.2013C1.78772 22.089 1.94004 22.0259 2.09888 22.0259H3.90534V14.5963H2.09888C1.94004 14.5963 1.78772 14.5332 1.67541 14.4209C1.5631 14.3086 1.5 14.1563 1.5 13.9974V10.6372C1.5 10.5585 1.51549 10.4806 1.54559 10.408C1.57568 10.3353 1.6198 10.2693 1.67541 10.2137C1.73102 10.1581 1.79704 10.114 1.8697 10.0839C1.94235 10.0538 2.02023 10.0383 2.09888 10.0383L3.90534 10.0382ZM6.11559 22.0259V14.5963H5.103V22.0259H6.11559ZM6.11559 34.3072V26.5839H5.103V34.3072H6.11559ZM7.31325 38.8652C7.31325 39.8043 7.23928 40.629 7.79916 41.4006C8.05856 41.7582 8.39916 41.9802 8.75859 41.9802H11.7482C12.1074 41.9802 12.4482 41.7582 12.7076 41.4006C13.2674 40.629 13.1934 39.8043 13.1934 38.8652H7.31325ZM14.3914 38.8652V39.7617C14.4024 40.5973 14.1524 41.4155 13.6762 42.1023C13.1947 42.7659 12.5138 43.1779 11.7484 43.1779H8.75859C7.99359 43.1779 7.31222 42.7659 6.83072 42.1023C6.35456 41.4155 6.10457 40.5973 6.11559 39.7617V38.8652H5.103V42.579C5.1055 43.3002 5.39308 43.9911 5.90302 44.501C6.41296 45.011 7.10387 45.2985 7.82503 45.301H12.6813C13.4024 45.2985 14.0933 45.0109 14.6033 44.501C15.1132 43.9911 15.4008 43.3002 15.4033 42.579V38.8652H14.3914ZM13.1936 34.3072V26.5839H7.31325V34.3072H13.1936ZM14.3914 26.5839V34.3072H15.4039V26.5839H14.3914ZM13.1936 22.0259V14.5963H7.31325V22.0259H13.1936ZM14.3914 14.5963V22.0259H15.4039V14.5963H14.3914ZM13.1936 10.0383V8.23828C13.2057 7.65481 13.036 7.08204 12.7078 6.59944C12.4484 6.24178 12.1078 6.01978 11.7484 6.01978H8.75859C8.39934 6.01978 8.05856 6.24178 7.79916 6.59944C7.47094 7.08201 7.30111 7.6548 7.31325 8.23828V10.0383H13.1936ZM6.1155 10.0383V8.23828C6.10448 7.40268 6.35447 6.58447 6.83063 5.89772C7.31213 5.23406 7.99313 4.82213 8.7585 4.82213H11.7481C12.5131 4.82213 13.1945 5.23406 13.676 5.89772C14.1521 6.58449 14.4021 7.40269 14.3911 8.23828V10.0383H15.4036V5.421C15.4011 4.69988 15.1135 4.00901 14.6036 3.49909C14.0937 2.98916 13.4029 2.70154 12.6817 2.69897H7.8255C7.10426 2.70134 6.41323 2.98887 5.90319 3.49883C5.39315 4.00878 5.1055 4.69976 5.103 5.421V10.0383H6.1155Z" fill="#1782C5"/>
</svg>
