<svg width="48" height="48" viewBox="0 0 48 48" fill="none" xmlns="http://www.w3.org/2000/svg">
<path d="M21.669 3.81187C20.7513 4.02363 19.9043 4.37657 19.1278 4.87069L17.9278 3.67069C17.6455 3.38834 17.2219 3.38834 16.9396 3.67069L14.6102 6.0001C14.3278 6.28245 14.3278 6.70598 14.6102 6.98834L15.8102 8.18834C15.316 8.96481 14.9631 9.81186 14.7513 10.7295H12.9866C12.5631 10.7295 12.2807 11.0119 12.2807 11.4354V14.1177H4.44545C2.75133 14.1177 1.41016 15.4589 1.41016 17.0825C1.41016 18.706 2.75133 20.1177 4.44545 20.1177H5.22192L19.269 35.9295V45.8825C19.269 46.3766 19.7631 46.7295 20.1866 46.5883L28.3043 43.9766C28.5866 43.906 28.7984 43.6236 28.7984 43.2707V35.8589L42.8455 20.0472H43.6219C45.2454 20.0472 46.6572 18.706 46.6572 17.0119C46.6572 15.3177 45.2454 14.1177 43.6219 14.1177H41.5749C41.1513 14.1177 40.869 14.4001 40.869 14.8236C40.869 15.2472 41.1513 15.5295 41.5749 15.5295H43.6219C44.469 15.5295 45.2454 16.2354 45.2454 17.153C45.2454 18.0707 44.5396 18.7766 43.6219 18.7766C43.5513 18.7766 1.7631 18.7766 4.44545 18.7766C3.59839 18.7766 2.82192 18.0707 2.82192 17.153C2.82192 16.2354 3.5278 15.5295 4.44545 15.5295H38.0455C38.469 15.5295 38.7513 15.2472 38.7513 14.8236C38.7513 14.4001 38.469 14.1177 38.0455 14.1177H35.8572V11.506C35.8572 11.0825 35.5749 10.8001 35.1513 10.8001H33.4572C33.2455 9.88245 32.8925 9.03539 32.3984 8.25892L33.5984 7.05892C33.8807 6.77657 33.8807 6.35304 33.5984 6.07069L31.269 3.74128C30.9866 3.45892 30.5631 3.45892 30.2807 3.74128L28.9396 4.87069C28.1631 4.37657 27.316 4.02363 26.3984 3.81187V2.11775C26.3984 1.69422 26.116 1.41187 25.6925 1.41187H22.3749C21.9513 1.41187 21.669 1.69422 21.669 2.11775V3.81187ZM27.7396 34.9413H24.2102C23.7866 34.9413 23.5043 35.2236 23.5043 35.6472C23.5043 36.0707 23.7866 36.353 24.2102 36.353H27.3866V42.8472L20.6807 44.9648C20.6807 38.1177 20.6807 39.6707 20.6807 35.6472C20.6807 35.4354 20.5396 35.2236 20.5396 35.153L7.05722 20.1177H40.9396L27.7396 34.9413ZM22.4454 5.08245C22.7984 5.01186 23.0102 4.72951 23.0102 4.37657V2.82363H24.916V4.44716C24.916 4.8001 25.1278 5.08245 25.4807 5.15304C26.6102 5.36481 27.669 5.78834 28.5866 6.42363C28.869 6.63539 29.2219 6.56481 29.5043 6.35304L30.6337 5.22363L31.9749 6.56481L30.8455 7.69422C30.6337 7.90598 30.5631 8.32951 30.7749 8.61186C31.4102 9.52951 31.8337 10.5883 32.0455 11.7177C32.116 12.0707 32.3984 12.2825 32.7513 12.2825H34.3749V14.1177H30.5631C30.6337 13.8354 30.6337 13.4825 30.6337 13.2001C30.6337 9.6001 27.669 6.63539 24.069 6.63539C20.9631 6.63539 18.3513 8.75304 17.6455 11.7177C17.5749 12.0707 17.7866 12.4942 18.1396 12.5648C18.4925 12.6354 18.916 12.4236 18.9866 12.0707C19.5513 9.74128 21.5984 8.04716 24.069 8.04716C26.8925 8.04716 29.2219 10.3766 29.2219 13.2001C29.2219 13.553 29.1513 13.8354 29.1513 14.1177H13.6219V12.2119H15.2455C15.5984 12.2119 15.8807 12.0001 15.9513 11.6472C16.1631 10.5177 16.5866 9.45892 17.2219 8.54128C17.4337 8.25892 17.3631 7.90598 17.1513 7.62363L16.0219 6.49422L17.3631 5.15304L18.4925 6.28245C18.7043 6.49422 19.1278 6.56481 19.4102 6.35304C20.3278 5.71775 21.316 5.29422 22.4454 5.08245Z" fill="#1782C5"/>
<path d="M28.7269 31.2706L32.3268 27.1765C32.6092 26.8942 32.5386 26.4706 32.2563 26.1883C31.9739 25.9059 31.5504 25.9765 31.268 26.2589L27.668 30.353C27.3857 30.6353 27.4563 31.0589 27.7386 31.3412C28.021 31.553 28.4445 31.553 28.7269 31.2706Z" fill="#1782C5"/>
<path d="M34.0237 25.0589L35.2943 23.506C35.5767 23.2236 35.5061 22.7295 35.2237 22.5178C34.9414 22.2354 34.5178 22.306 34.2355 22.5883L32.9649 24.1413C32.6825 24.4236 32.7531 24.9178 33.0355 25.1295C33.3178 25.4119 33.7414 25.4119 34.0237 25.0589Z" fill="#1782C5"/>
<path d="M40.4463 3.52954C40.0227 3.52954 39.7404 3.81189 39.7404 4.23542V10.0942L38.3992 8.75307C38.1169 8.47072 37.6933 8.47072 37.411 8.75307C37.1286 9.03542 37.1286 9.45895 37.411 9.74131L39.9522 12.2825C40.2345 12.5648 40.7286 12.5648 40.9404 12.2825L43.4816 9.67072C43.7639 9.38836 43.7639 8.96484 43.4816 8.68248C43.1992 8.40013 42.7757 8.40013 42.4933 8.68248L41.1522 10.0942V4.23542C41.1522 3.81189 40.8698 3.52954 40.4463 3.52954Z" fill="#1782C5"/>
<path d="M7.55175 1.41187C7.12822 1.41187 6.84586 1.69422 6.84586 2.11775V8.68245L5.50469 7.34128C5.22233 7.05892 4.79881 7.05892 4.51645 7.34128C4.2341 7.62363 4.2341 8.04716 4.51645 8.32951L7.05763 10.8707C7.33998 11.153 7.8341 11.153 8.04586 10.8707L10.587 8.25892C10.8694 7.97657 10.8694 7.55304 10.587 7.27069C10.3047 6.98834 9.88116 6.98834 9.5988 7.27069L8.25763 8.68245V2.11775C8.25763 1.69422 7.90469 1.41187 7.55175 1.41187Z" fill="#1782C5"/>
</svg>
