<svg width="48" height="48" viewBox="0 0 48 48" fill="none" xmlns="http://www.w3.org/2000/svg">
<g clip-path="url(#clip0_1711_2045)">
<path d="M47.1562 21.7501V26.2499C47.1562 27.4268 46.1989 28.3841 45.022 28.3841C43.2427 28.3841 41.7137 29.4074 41.0314 31.0545C40.3492 32.7017 40.7068 34.5066 41.965 35.7647C42.7971 36.5968 42.7971 37.9508 41.965 38.783L38.7831 41.9649C38.38 42.368 37.844 42.59 37.2738 42.59C36.7037 42.59 36.1676 42.368 35.7646 41.9648C34.2463 40.4466 32.3167 40.4955 31.0171 41.0477C30.6839 41.1895 30.2981 41.034 30.1565 40.7003C30.0147 40.3668 30.1702 39.9815 30.5038 39.8397C32.6647 38.9215 35.0363 39.3803 36.6927 41.0369C36.8478 41.1921 37.0541 41.2776 37.2737 41.2776C37.4933 41.2776 37.6997 41.1921 37.8548 41.037L41.0368 37.855C41.3572 37.5347 41.3572 37.0132 41.0367 36.6929C39.3961 35.0523 38.9293 32.6993 39.8187 30.5524C40.7079 28.4055 42.7017 27.0718 45.0219 27.0718C45.475 27.0718 45.8437 26.7032 45.8437 26.2501V21.7503C45.8437 21.2972 45.475 20.9286 45.0219 20.9286C42.7017 20.9286 40.7079 19.5949 39.8187 17.448C38.9294 15.301 39.3961 12.9481 41.0367 11.3075C41.3572 10.9871 41.3572 10.4657 41.0367 10.1453L37.8548 6.96338C37.6997 6.80822 37.4933 6.72281 37.2737 6.72281C37.0541 6.72281 36.8478 6.80822 36.6927 6.96338C35.0521 8.604 32.6992 9.07078 30.5521 8.18147C28.4052 7.29216 27.0715 5.29847 27.0715 2.97825C27.0715 2.52516 26.7029 2.15653 26.2498 2.15653H21.75C21.2969 2.15653 20.9283 2.52516 20.9283 2.97825C20.9283 5.29847 19.5946 7.29225 17.4477 8.18147C15.3006 9.07088 12.9477 8.604 11.3071 6.96338C11.152 6.80822 10.9456 6.72281 10.726 6.72281C10.5065 6.72281 10.3001 6.80822 10.1451 6.96338L6.96309 10.1453C6.64266 10.4657 6.64266 10.9871 6.96309 11.3075C8.60372 12.9481 9.0705 15.301 8.18109 17.448C7.29187 19.5949 5.29809 20.9286 2.97787 20.9286C2.52478 20.9286 2.15616 21.2972 2.15616 21.7503V26.2501C2.15616 26.7032 2.52478 27.0718 2.97787 27.0718C5.29809 27.0718 7.29187 28.4055 8.18109 30.5524C9.07041 32.6993 8.60372 35.0523 6.963 36.6929C6.64266 37.0132 6.64266 37.5347 6.96309 37.855L10.1451 41.037C10.3001 41.1922 10.5065 41.2777 10.726 41.2777C10.9456 41.2777 11.1519 41.1922 11.3071 41.037C12.4073 39.9367 13.8499 39.3483 15.3677 39.3775C16.9206 39.4084 18.4135 40.0783 19.4638 41.2156C19.7097 41.4818 19.6931 41.8971 19.4269 42.143C19.1606 42.389 18.7454 42.3723 18.4995 42.106C17.6903 41.2298 16.5393 40.7136 15.3414 40.6898C14.5221 40.6738 13.3186 40.8815 12.235 41.9651C11.8319 42.3682 11.2959 42.5902 10.7257 42.5902C10.1556 42.5902 9.61959 42.3682 9.21656 41.965L6.03459 38.7832C5.20256 37.951 5.20256 36.597 6.03459 35.7649C7.29281 34.5068 7.65047 32.702 6.96825 31.0547C6.28594 29.4075 4.75678 28.3843 2.97759 28.3843C1.80112 28.3841 0.84375 27.4268 0.84375 26.2499V21.7501C0.84375 20.5733 1.80112 19.6159 2.97797 19.6159C4.75725 19.6159 6.28631 18.5926 6.96863 16.9455C7.65084 15.2983 7.29319 13.4934 6.03497 12.2353C5.20294 11.4032 5.20294 10.0492 6.03497 9.21703L9.21694 6.03506C9.62006 5.63203 10.156 5.41003 10.7261 5.41003C11.2962 5.41003 11.8323 5.63203 12.2353 6.03506C13.4935 7.29319 15.2981 7.65112 16.9456 6.96863C18.5927 6.28641 19.6159 4.75725 19.6159 2.97797C19.6159 1.80112 20.5732 0.84375 21.7501 0.84375H26.2499C27.4268 0.84375 28.3841 1.80112 28.3841 2.97797C28.3841 4.75725 29.4073 6.28641 31.0544 6.96863C32.7019 7.65103 34.5066 7.29319 35.7646 6.03506C36.1677 5.63203 36.7037 5.41003 37.2738 5.41003C37.844 5.41003 38.3799 5.63203 38.7831 6.03506L41.965 9.21703C42.7971 10.0492 42.7971 11.4032 41.965 12.2353C40.7068 13.4934 40.3492 15.2983 41.0314 16.9455C41.7137 18.5926 43.2428 19.6159 45.022 19.6159C46.1989 19.6159 47.1562 20.5733 47.1562 21.7501ZM35.6516 24C35.6516 17.5753 30.4247 12.3484 24 12.3484C17.5753 12.3484 12.3484 17.5753 12.3484 24C12.3484 28.389 14.7753 32.3625 18.682 34.3698C18.7779 34.4191 18.8804 34.4424 18.9814 34.4424C19.2195 34.4424 19.4493 34.3123 19.5656 34.086C19.7313 33.7636 19.6042 33.368 19.2818 33.2024C15.8148 31.421 13.6609 27.8948 13.6609 24C13.6609 18.299 18.2991 13.6609 24 13.6609C29.7009 13.6609 34.3391 18.299 34.3391 24C34.3391 27.7081 32.3353 31.153 29.1096 32.9905C28.7947 33.17 28.6848 33.5707 28.8642 33.8856C29.0436 34.2005 29.4443 34.3103 29.7593 34.131C33.3937 32.0605 35.6516 28.1786 35.6516 24ZM29.5493 35.4074C29.6785 35.5377 29.7472 35.7161 29.7388 35.8995C29.7305 36.0828 29.6457 36.2542 29.5052 36.3722L27.7082 37.8803L29.2783 39.2407C29.4136 39.3578 29.4952 39.5253 29.5041 39.704C29.513 39.8827 29.4485 40.0574 29.3255 40.1874L27.7994 41.8016V43.2913C27.7994 43.4631 27.7321 43.6279 27.6119 43.7505L24.4688 46.9592C24.3454 47.0852 24.1764 47.1562 24 47.1562C23.8236 47.1562 23.6546 47.0852 23.5312 46.9592L20.3881 43.7505C20.2679 43.6278 20.2006 43.463 20.2006 43.2913V31.3036C17.4947 29.8933 15.7686 27.0718 15.7686 24C15.7686 19.4611 19.4613 15.7685 24.0001 15.7685C28.5389 15.7685 32.2316 19.4611 32.2316 24C32.2316 27.0718 30.5055 29.8933 27.7996 31.3036V33.6427L29.5493 35.4074ZM28.1152 35.8252L26.6771 34.375C26.5553 34.2521 26.4869 34.086 26.4869 33.9129V30.8941C26.4869 30.6372 26.6369 30.4039 26.8705 30.2972C29.3299 29.1741 30.919 26.7022 30.919 24C30.919 20.1848 27.8153 17.081 24 17.081C20.1847 17.081 17.081 20.1848 17.081 24C17.081 26.7023 18.67 29.1741 21.1294 30.2972C21.3631 30.4039 21.5131 30.6371 21.5131 30.8941V43.0235L24 45.5622L26.4869 43.0235V41.5406C26.4869 41.3729 26.5511 41.2117 26.6663 41.0898L27.9009 39.7839L26.2672 38.3685C26.1218 38.2427 26.0391 38.0595 26.0406 37.8674C26.0422 37.6752 26.1277 37.4934 26.2749 37.3699L28.1152 35.8252ZM26.2423 21.018C26.2423 22.3866 25.2365 23.4999 24 23.4999C22.7636 23.4999 21.7578 22.3866 21.7578 21.018C21.7578 19.6494 22.7636 18.5361 24 18.5361C25.2364 18.5361 26.2423 19.6495 26.2423 21.018ZM24.9298 21.018C24.9298 20.3732 24.5127 19.8486 24 19.8486C23.4873 19.8486 23.0703 20.3732 23.0703 21.018C23.0703 21.6628 23.4873 22.1874 24 22.1874C24.5127 22.1874 24.9298 21.6629 24.9298 21.018Z" fill="#1782C5"/>
</g>
<defs>
<clipPath id="clip0_1711_2045">
<rect width="48" height="48" fill="white"/>
</clipPath>
</defs>
</svg>
