<svg width="48" height="48" viewBox="0 0 48 48" fill="none" xmlns="http://www.w3.org/2000/svg">
<path d="M39.7934 37.9537H8.20809C6.42969 37.954 4.71965 37.2686 3.43373 36.0401C2.1478 34.8117 1.38501 33.1348 1.30405 31.3582C1.22308 29.5816 1.83018 27.8423 2.99903 26.502C4.16789 25.1616 5.8085 24.3236 7.57955 24.1621C7.67599 22.744 8.09733 21.367 8.81099 20.1377C9.52464 18.9085 10.5115 17.8598 11.6952 17.0729C12.8789 16.286 14.2277 15.7819 15.6374 15.5996C17.0471 15.4173 18.4798 15.5617 19.8247 16.0216C21.1084 13.5774 23.2492 11.6933 25.8366 10.7306C28.424 9.76791 31.2757 9.79441 33.8448 10.805C36.4139 11.8157 38.5193 13.7393 39.7573 16.2068C40.9953 18.6743 41.2786 21.5121 40.553 24.1757C42.3097 24.3692 43.9256 25.2284 45.0682 26.5767C46.2109 27.925 46.7935 29.6599 46.6962 31.4246C46.599 33.1893 45.8292 34.8497 44.5452 36.0642C43.2613 37.2787 41.5608 37.9545 39.7934 37.9537ZM16.8176 16.822C14.707 16.8244 12.6835 17.6639 11.1911 19.1563C9.69864 20.6488 8.85914 22.6722 8.85674 24.7828C8.85674 24.9549 8.7884 25.1199 8.66675 25.2415C8.54511 25.3632 8.38012 25.4315 8.20809 25.4315C6.71949 25.4315 5.29186 26.0228 4.23927 27.0754C3.18667 28.128 2.59533 29.5557 2.59533 31.0443C2.59533 32.5329 3.18667 33.9605 4.23927 35.0131C5.29186 36.0657 6.71949 36.657 8.20809 36.657H39.7934C40.5305 36.657 41.2603 36.5118 41.9413 36.2298C42.6223 35.9477 43.241 35.5343 43.7622 35.0131C44.2834 34.4919 44.6968 33.8731 44.9789 33.1922C45.261 32.5112 45.4061 31.7813 45.4061 31.0443C45.4061 30.3072 45.261 29.5773 44.9789 28.8963C44.6968 28.2154 44.2834 27.5966 43.7622 27.0754C43.241 26.5542 42.6223 26.1408 41.9413 25.8587C41.2603 25.5767 40.5305 25.4315 39.7934 25.4315H39.687C39.5836 25.4314 39.4817 25.4066 39.3898 25.3592C39.2979 25.3117 39.2187 25.243 39.1588 25.1587C39.0988 25.0744 39.0599 24.977 39.0453 24.8746C39.0307 24.7722 39.0408 24.6678 39.0747 24.5701C39.4499 23.5073 39.6442 22.3891 39.6494 21.262C39.6509 19.0011 38.8795 16.8077 37.4631 15.0455C36.0467 13.2833 34.0704 12.0583 31.8621 11.5736C29.6538 11.089 27.3462 11.3739 25.322 12.381C23.2979 13.3881 21.6788 15.0569 20.7335 17.1106C20.6627 17.2629 20.5356 17.3818 20.3789 17.4423C20.2223 17.5028 20.0483 17.5001 19.8935 17.435C18.9194 17.0273 17.8735 16.8189 16.8176 16.822Z" fill="#1782C5"/>
<path d="M20.4918 29.708L21.6016 29.9882C21.4277 30.8038 20.9858 31.5377 20.3465 32.073C19.7129 32.5614 18.9296 32.8152 18.13 32.791C17.3569 32.8252 16.5905 32.6334 15.9246 32.239C15.3411 31.8502 14.8902 31.2926 14.6319 30.6408C14.3337 29.9293 14.183 29.1646 14.1888 28.3932C14.1704 27.6024 14.3421 26.8187 14.6896 26.108C15.0024 25.4798 15.5005 24.9627 16.1166 24.6265C16.7402 24.2871 17.4402 24.113 18.1501 24.1206C18.9068 24.0954 19.6505 24.3207 20.266 24.7614C20.854 25.212 21.2747 25.8459 21.4615 26.5627L20.3692 26.8222C20.2331 26.3013 19.9384 25.8357 19.5259 25.4899C19.1198 25.2001 18.6292 25.0532 18.1307 25.0721C17.5566 25.0514 16.9908 25.2136 16.5149 25.5353C16.0847 25.8408 15.7648 26.2772 15.6029 26.7794C15.4277 27.298 15.3387 27.8419 15.3395 28.3893C15.3265 29.0258 15.4323 29.6591 15.6515 30.2568C15.8301 30.7527 16.1721 31.1732 16.6213 31.449C17.0513 31.7099 17.5453 31.8465 18.0483 31.8434C18.6221 31.8599 19.1826 31.6689 19.6271 31.3056C20.0879 30.8863 20.3927 30.3231 20.4918 29.708Z" fill="#1782C5"/>
<path d="M18.1283 32.8747C17.3396 32.908 16.5582 32.7117 15.8788 32.3098C15.2825 31.9112 14.8213 31.3409 14.5562 30.6745C14.2544 29.9528 14.1015 29.1775 14.1067 28.3952C14.0891 27.5916 14.2636 26.7955 14.6159 26.073C14.9364 25.4317 15.4445 24.9032 16.0727 24.5578C16.7092 24.211 17.4236 24.0324 18.1484 24.0388C18.9227 24.0146 19.6834 24.2454 20.3136 24.6959C20.9138 25.1592 21.343 25.8088 21.5337 26.5426L21.5577 26.6244L20.3084 26.9182L20.2857 26.8468C20.1534 26.3429 19.8684 25.8922 19.4697 25.5567C19.0773 25.2783 18.6039 25.1372 18.1231 25.1552C17.566 25.1354 17.0169 25.292 16.554 25.6027C16.1386 25.8991 15.8293 26.3212 15.6719 26.8066C15.4997 27.317 15.4121 27.852 15.4124 28.3906C15.4001 29.0168 15.5039 29.6399 15.7186 30.2283C15.8912 30.7069 16.2209 31.113 16.6539 31.3803C17.0706 31.6328 17.5489 31.7655 18.0362 31.7636C18.5909 31.7791 19.1327 31.5949 19.5631 31.2447C20.0128 30.8385 20.3118 30.2921 20.4115 29.6944L20.4291 29.6127L21.6985 29.9331L21.6784 30.0116C21.4993 30.8443 21.0475 31.5935 20.3947 32.1405C19.7462 32.6386 18.9457 32.898 18.1283 32.8747ZM18.1452 24.2043C17.449 24.1976 16.7625 24.3684 16.1506 24.7005C15.5506 25.0302 15.0655 25.535 14.7599 26.1476C14.4194 26.847 14.2511 27.6176 14.2688 28.3952C14.2637 29.1559 14.4124 29.9098 14.706 30.6116C14.9586 31.2479 15.3986 31.7924 15.9677 32.1729C16.6206 32.5576 17.3711 32.7448 18.1283 32.7119C18.9095 32.7345 19.6747 32.4871 20.2948 32.0114C20.8988 31.5052 21.3218 30.8163 21.5 30.0486L20.551 29.8086C20.4349 30.4104 20.1242 30.9573 19.6669 31.3653C19.2073 31.7397 18.6288 31.937 18.0362 31.9212C17.5195 31.9232 17.0123 31.7827 16.5702 31.5152C16.1063 31.2307 15.7523 30.7974 15.5661 30.286C15.3436 29.6789 15.2361 29.0358 15.249 28.3893C15.2484 27.8331 15.3386 27.2805 15.5162 26.7534C15.6842 26.2355 16.0144 25.7854 16.458 25.4698C16.9479 25.1389 17.5298 24.9716 18.1205 24.9917C18.6366 24.9732 19.1444 25.1255 19.5651 25.425C19.9738 25.7623 20.2711 26.2151 20.418 26.7243L21.354 26.5037C21.1633 25.8366 20.7631 25.2485 20.2124 24.8263C19.6103 24.398 18.8843 24.1792 18.1458 24.2036L18.1452 24.2043Z" fill="#1782C5"/>
<path d="M22.6289 28.5671C22.5587 27.3722 22.9616 26.1976 23.7505 25.2973C24.122 24.907 24.572 24.5999 25.0709 24.3963C25.5698 24.1927 26.1062 24.0972 26.6447 24.1161C27.3801 24.1058 28.1042 24.2976 28.7379 24.6707C29.3547 25.0349 29.8497 25.5737 30.1604 26.219C30.4955 26.9213 30.663 27.6918 30.6495 28.4698C30.663 29.2608 30.4863 30.0433 30.1345 30.7518C29.816 31.3972 29.307 31.9293 28.6763 32.2761C28.0531 32.6202 27.3521 32.7988 26.6402 32.795C25.8951 32.807 25.1618 32.6087 24.5243 32.2229C23.9114 31.8512 23.4204 31.3085 23.1115 30.6616C22.7923 30.0097 22.6271 29.2931 22.6289 28.5671ZM23.7725 28.584C23.7235 29.4555 24.0157 30.3119 24.5872 30.9717C24.8532 31.2482 25.1724 31.4681 25.5255 31.6181C25.8787 31.768 26.2586 31.8449 26.6423 31.8441C27.026 31.8433 27.4056 31.7648 27.7581 31.6135C28.1107 31.4621 28.429 31.2409 28.6938 30.9632C29.2723 30.2638 29.5619 29.3698 29.5033 28.464C29.5171 27.8505 29.3992 27.2411 29.1576 26.677C28.9462 26.1898 28.5938 25.777 28.1457 25.4919C27.698 25.2106 27.1786 25.0647 26.6499 25.0716C26.2752 25.0659 25.9031 25.1345 25.5551 25.2735C25.2071 25.4124 24.89 25.6189 24.6222 25.8811C24.0562 26.4208 23.7725 27.3217 23.7725 28.584Z" fill="#1782C5"/>
<path d="M26.6407 32.8748C25.8806 32.886 25.1327 32.6837 24.482 32.291C23.8565 31.9104 23.3551 31.3563 23.0387 30.696C22.7153 30.033 22.5482 29.3047 22.5503 28.5671C22.4822 27.3522 22.8924 26.1589 23.6932 25.2428C24.0728 24.8452 24.5321 24.5322 25.0411 24.3243C25.55 24.1164 26.097 24.0182 26.6465 24.0363C27.3964 24.027 28.1345 24.2228 28.7812 24.6026C29.4104 24.975 29.9156 25.5249 30.2335 26.1833C30.5735 26.8969 30.7438 27.6795 30.731 28.4698C30.7436 29.2734 30.5641 30.0684 30.2076 30.7887C29.8803 31.4474 29.3598 31.9905 28.7157 32.3455C28.0803 32.6955 27.3661 32.8777 26.6407 32.8748ZM26.6465 24.1984C26.1192 24.1808 25.5941 24.2747 25.1055 24.4738C24.617 24.673 24.1759 24.9731 23.8112 25.3543C23.0397 26.2408 22.6456 27.3939 22.7131 28.5671C22.7114 29.28 22.8729 29.9838 23.1853 30.6246C23.4884 31.2569 23.9686 31.7876 24.5676 32.1522C25.1934 32.5294 25.9126 32.7234 26.6432 32.712C27.3411 32.7153 28.0282 32.5407 28.6398 32.2047C29.2564 31.8645 29.7544 31.344 30.0668 30.7128C30.4117 30.0154 30.5849 29.2457 30.5721 28.4679C30.5849 27.7023 30.4204 26.9441 30.0915 26.2527C29.7871 25.6227 29.3039 25.0963 28.7021 24.7394C28.079 24.375 27.3682 24.1879 26.6465 24.1984ZM26.6348 31.9251C26.2404 31.9338 25.8487 31.8583 25.4858 31.7035C25.1229 31.5486 24.7973 31.3182 24.5306 31.0274C23.9462 30.3518 23.6463 29.476 23.6938 28.584C23.6938 27.3048 23.9883 26.3786 24.5689 25.8233C24.8444 25.5545 25.1702 25.3426 25.5277 25.1999C25.8853 25.0572 26.2674 24.9865 26.6523 24.9917C27.1961 24.9853 27.7302 25.1355 28.1909 25.4244C28.652 25.718 29.0151 26.1423 29.234 26.6432C29.4794 27.2182 29.5997 27.8389 29.5868 28.464C29.6445 29.39 29.3477 30.3032 28.7565 31.0183C28.4891 31.3132 28.1611 31.5469 27.795 31.7034C27.429 31.8599 27.0328 31.9355 26.6348 31.9251ZM26.6517 25.1539C26.2874 25.149 25.9258 25.216 25.5874 25.351C25.249 25.486 24.9406 25.6864 24.6798 25.9407C24.133 26.4596 23.8554 27.3509 23.8554 28.5846C23.8083 29.4354 24.0929 30.2712 24.6493 30.9165C24.9076 31.1849 25.2175 31.3982 25.5604 31.5437C25.9033 31.6892 26.2721 31.7638 26.6446 31.7631C27.0171 31.7623 27.3855 31.6863 27.7279 31.5395C28.0702 31.3926 28.3793 31.1781 28.6365 30.9087C29.1991 30.2229 29.4805 29.3492 29.424 28.464C29.4368 27.8628 29.3214 27.2657 29.0854 26.7126C28.8795 26.2408 28.5379 25.8409 28.104 25.5639C27.6695 25.2906 27.1656 25.1481 26.6523 25.1533L26.6517 25.1539Z" fill="#1782C5"/>
<path d="M35.88 32.5173V33.0745H32.7587C32.7531 32.9372 32.7751 32.8003 32.8235 32.6717C32.9133 32.4419 33.0424 32.2294 33.2049 32.0438C33.4365 31.7844 33.6902 31.5456 33.9632 31.3303C34.3455 31.0368 34.6937 30.7013 35.001 30.3301C35.1633 30.1325 35.2581 29.8881 35.2715 29.6328C35.2739 29.5236 35.2532 29.4151 35.2107 29.3145C35.1682 29.2139 35.105 29.1234 35.025 29.049C34.939 28.969 34.8379 28.9069 34.7277 28.8663C34.6174 28.8257 34.5002 28.8073 34.3829 28.8122C34.26 28.8065 34.1373 28.8258 34.0221 28.869C33.9069 28.9121 33.8017 28.9782 33.7128 29.0633C33.6261 29.1562 33.5589 29.2657 33.5152 29.3851C33.4715 29.5046 33.4522 29.6316 33.4585 29.7586L32.8631 29.6976C32.8768 29.3116 33.0423 28.9466 33.3236 28.6818C33.6254 28.4366 34.0075 28.312 34.3958 28.3322C34.79 28.3111 35.1766 28.4465 35.4713 28.7091C35.6005 28.8275 35.703 28.972 35.7721 29.133C35.8412 29.2941 35.8753 29.4679 35.8722 29.6431C35.8716 29.8348 35.8321 30.0244 35.7561 30.2003C35.6597 30.412 35.5298 30.6067 35.3714 30.777C35.0918 31.0731 34.7933 31.3506 34.4776 31.6079C34.1316 31.8998 33.9083 32.0978 33.8075 32.2021C33.7153 32.2979 33.6333 32.4031 33.563 32.516L35.88 32.5173Z" fill="#1782C5"/>
<path d="M36.0394 33.2369H32.6015L32.5944 33.0812C32.5892 32.9223 32.6159 32.7639 32.6729 32.6155C32.7682 32.3683 32.9058 32.1396 33.0796 31.9396C33.3171 31.6721 33.5775 31.426 33.858 31.204C34.2305 30.9184 34.5699 30.592 34.8698 30.231C35.0112 30.0609 35.095 29.8504 35.1092 29.6297C35.1115 29.543 35.0954 29.4569 35.0618 29.3769C35.0283 29.2969 34.9781 29.225 34.9146 29.166C34.8438 29.0997 34.7604 29.0484 34.6693 29.015C34.5783 28.9815 34.4815 28.9667 34.3847 28.9714C34.2832 28.9656 34.1816 28.9806 34.0862 29.0157C33.9908 29.0507 33.9037 29.1049 33.8301 29.175C33.7579 29.2533 33.7023 29.3454 33.6667 29.4457C33.6312 29.5461 33.6163 29.6526 33.6231 29.7588V29.9372L32.6904 29.8444L32.7047 29.6849C32.7221 29.2573 32.9074 28.8539 33.2203 28.5621C33.5516 28.2911 33.9715 28.1525 34.3989 28.1729C34.8347 28.1518 35.2611 28.3033 35.586 28.5945C35.7301 28.7285 35.8443 28.8915 35.9212 29.0726C35.9981 29.2538 36.0359 29.4492 36.0322 29.6459C36.0312 29.8593 35.9871 30.0702 35.9025 30.2661C35.7989 30.494 35.6594 30.7038 35.4893 30.8875C35.2053 31.1892 34.902 31.4722 34.5812 31.7346C34.2407 32.02 34.0195 32.2159 33.9241 32.3184L33.8865 32.3586H36.0387L36.0394 33.2369ZM32.9258 32.9125H35.715V32.6797H33.2742L33.4234 32.4332C33.4995 32.3104 33.5884 32.196 33.6887 32.092C33.7937 31.9811 34.0175 31.7826 34.373 31.4849C34.6822 31.2325 34.9749 30.9606 35.2493 30.6708C35.3958 30.5137 35.5163 30.3341 35.6061 30.1389C35.6733 29.983 35.7084 29.8151 35.7092 29.6453C35.7132 29.4924 35.6845 29.3404 35.6248 29.1995C35.5652 29.0586 35.4761 28.9322 35.3635 28.8287C35.2327 28.7126 35.0802 28.6236 34.915 28.5666C34.7497 28.5096 34.5747 28.4858 34.4002 28.4965C34.0514 28.4775 33.7078 28.5877 33.435 28.806C33.221 29.0018 33.0841 29.2678 33.0491 29.5558L33.3086 29.583C33.3307 29.3454 33.4335 29.1225 33.5998 28.9512C33.7035 28.851 33.8265 28.7728 33.9613 28.7215C34.0961 28.6702 34.2399 28.6469 34.384 28.6529C34.5223 28.6478 34.6601 28.6701 34.7897 28.7185C34.9193 28.7669 35.038 28.8405 35.139 28.935C35.2344 29.0242 35.3101 29.1324 35.361 29.2526C35.412 29.3728 35.4371 29.5024 35.4348 29.633C35.4217 29.923 35.3157 30.2011 35.1326 30.4263C34.8173 30.8092 34.4591 31.1546 34.0649 31.4557C33.7994 31.6655 33.5526 31.8979 33.3274 32.1504C33.1771 32.3219 33.0578 32.518 32.9745 32.7303C32.9526 32.7892 32.9369 32.8503 32.9278 32.9125H32.9258Z" fill="#1782C5"/>
</svg>
