<svg width="48" height="48" viewBox="0 0 48 48" fill="none" xmlns="http://www.w3.org/2000/svg">
<path d="M30.5625 24C30.045 24 29.625 24.42 29.625 24.9375C29.625 25.455 30.045 25.875 30.5625 25.875C31.08 25.875 31.5 25.455 31.5 24.9375C31.5 24.42 31.08 24 30.5625 24Z" fill="#1782C5"/>
<path d="M39 39H37.8801L34.828 21.8887C34.2599 18.7663 31.5443 16.5 28.3706 16.5H19.6294C16.4552 16.5 13.7398 18.7664 13.1723 21.8918L10.1199 39H9C7.44919 39 6.1875 40.2617 6.1875 41.8125V45.5625C6.1875 46.0802 6.60722 46.5 7.125 46.5H40.875C41.3927 46.5 41.8125 46.0802 41.8125 45.5625V41.8125C41.8125 40.2617 40.5508 39 39 39ZM15.0177 22.224C15.4226 19.9938 17.3621 18.375 19.6294 18.375H28.3706C30.6376 18.375 32.5775 19.9939 32.9827 22.2211L35.9754 39H12.0246L15.0177 22.224ZM39.9375 44.625H8.0625V41.8125C8.0625 41.2956 8.48306 40.875 9 40.875C11.1068 40.875 37.7234 40.875 39 40.875C39.5169 40.875 39.9375 41.2956 39.9375 41.8125V44.625Z" fill="#1782C5"/>
<path d="M33.583 36.02L32.2077 28.4497C32.1152 27.9401 31.6263 27.6018 31.1178 27.6948C30.6083 27.7874 30.2704 28.2753 30.3629 28.7848L31.7382 36.3551C31.8314 36.8685 32.3234 37.2022 32.8282 37.11C33.3377 37.0174 33.6757 36.5294 33.583 36.02Z" fill="#1782C5"/>
<path d="M47.0625 24H39C38.4823 24 38.0625 24.4198 38.0625 24.9375C38.0625 25.4552 38.4823 25.875 39 25.875H47.0625C47.5802 25.875 48 25.4552 48 24.9375C48 24.4198 47.5802 24 47.0625 24Z" fill="#1782C5"/>
<path d="M9 24H0.9375C0.419719 24 0 24.4198 0 24.9375C0 25.4552 0.419719 25.875 0.9375 25.875H9C9.51778 25.875 9.9375 25.4552 9.9375 24.9375C9.9375 24.4198 9.51778 24 9 24Z" fill="#1782C5"/>
<path d="M40.5719 8.36434C40.2057 7.99834 39.6123 7.99834 39.246 8.36434L33.9425 13.6678C33.5764 14.0339 33.5764 14.6275 33.9425 14.9937C34.3088 15.3598 34.9022 15.3597 35.2684 14.9937L40.5719 9.69025C40.9381 9.32406 40.9381 8.73044 40.5719 8.36434Z" fill="#1782C5"/>
<path d="M14.0563 13.6678L8.75282 8.36438C8.38663 7.99838 7.7931 7.99829 7.42691 8.36438C7.06082 8.73047 7.06082 9.3241 7.42691 9.69028L12.7304 14.9937C13.0966 15.3598 13.6901 15.3598 14.0563 14.9937C14.4224 14.6276 14.4224 14.034 14.0563 13.6678Z" fill="#1782C5"/>
<path d="M24 1.5C23.4823 1.5 23.0625 1.91981 23.0625 2.4375V9.9375C23.0625 10.4552 23.4823 10.875 24 10.875C24.5177 10.875 24.9375 10.4552 24.9375 9.9375V2.4375C24.9375 1.91981 24.5177 1.5 24 1.5Z" fill="#1782C5"/>
</svg>
