<svg width="48" height="48" viewBox="0 0 48 48" fill="none" xmlns="http://www.w3.org/2000/svg">
<g clip-path="url(#clip0_1712_2472)">
<path d="M18.8649 41.5258C18.9735 41.5758 19.0879 41.6 19.2013 41.6C19.452 41.6 19.6965 41.4821 19.8509 41.2676L34.2509 21.2676C34.4263 21.0239 34.4505 20.7024 34.3138 20.4352C34.1767 20.168 33.902 20 33.6016 20H26.4337L29.5778 7.39376C29.6708 7.02147 29.4864 6.6356 29.1383 6.47426C28.7883 6.31329 28.3758 6.42072 28.1523 6.73244L13.7523 26.7324C13.5769 26.9762 13.5527 27.2976 13.6894 27.5648C13.8265 27.832 14.1012 28 14.4015 28H21.5695L18.4253 40.6063C18.3325 40.9785 18.5169 41.3644 18.8649 41.5258ZM23.37 27.3937C23.4299 27.1547 23.3759 26.9015 23.2244 26.7074C23.0729 26.5132 22.84 26.4 22.5939 26.4H15.9634L27.0177 11.0468L24.6332 20.6062C24.5734 20.8453 24.6274 21.0984 24.7789 21.2926C24.9304 21.4867 25.1633 21.6 25.4094 21.6H32.0399L20.9856 36.9531L23.37 27.3937Z" fill="#1782C5"/>
<path d="M47.2 23.2001C46.7582 23.2001 46.4 23.5583 46.4 24C46.4 36.3516 36.3516 46.4 24.0001 46.4C17.3863 46.4 11.094 43.4336 6.85628 38.4H11.2C11.6418 38.4 12 38.0418 12 37.6001C12 37.1582 11.6418 36.8001 11.2 36.8001H4.79997C4.35813 36.8001 4 37.1583 4 37.6001V44.0001C4 44.4419 4.35822 44.8001 4.79997 44.8001C5.24172 44.8001 5.59994 44.4419 5.59994 44.0001V39.3927C10.1401 44.8079 16.897 48 24 48C37.2335 48 48 37.2336 48 24C48 23.5582 47.6418 23.2001 47.2 23.2001Z" fill="#1782C5"/>
<path d="M24 1.60003C30.6138 1.60003 36.9061 4.56647 41.1438 9.6H36.8001C36.3582 9.6 36.0001 9.95822 36.0001 10.4C36.0001 10.8417 36.3583 11.1999 36.8001 11.1999H43.2C43.6418 11.1999 44 10.8417 44 10.4V4.00003C44 3.55819 43.6418 3.20006 43.2 3.20006C42.7582 3.20006 42.4 3.55828 42.4 4.00003V8.60747C37.8599 3.19219 31.103 0 24 0C10.7664 0 0 10.7664 0 24C0 24.4418 0.358219 24.8 0.799969 24.8C1.24172 24.8 1.59994 24.4417 1.59994 24C1.60003 11.6484 11.6484 1.60003 24 1.60003Z" fill="#1782C5"/>
</g>
<defs>
<clipPath id="clip0_1712_2472">
<rect width="48" height="48" fill="white"/>
</clipPath>
</defs>
</svg>
