<svg width="48" height="48" viewBox="0 0 48 48" fill="none" xmlns="http://www.w3.org/2000/svg">
<path d="M45.0938 35.6016C44.9552 35.6016 44.8181 35.6288 44.6901 35.6818C44.5622 35.7348 44.4459 35.8125 44.3479 35.9104C44.25 36.0084 44.1723 36.1247 44.1193 36.2526C44.0663 36.3806 44.0391 36.5177 44.0391 36.6562V44.0391H36.6562C36.3765 44.0391 36.1083 44.1502 35.9105 44.348C35.7127 44.5458 35.6016 44.814 35.6016 45.0938C35.6016 45.3735 35.7127 45.6417 35.9105 45.8395C36.1083 46.0373 36.3765 46.1484 36.6562 46.1484H45.0938C45.2323 46.1484 45.3694 46.1212 45.4974 46.0682C45.6253 46.0152 45.7416 45.9375 45.8396 45.8396C45.9375 45.7416 46.0152 45.6253 46.0682 45.4974C46.1212 45.3694 46.1484 45.2323 46.1484 45.0938V36.6562C46.1484 36.5177 46.1212 36.3806 46.0682 36.2526C46.0152 36.1247 45.9375 36.0084 45.8396 35.9104C45.7416 35.8125 45.6253 35.7348 45.4974 35.6818C45.3694 35.6288 45.2323 35.6016 45.0938 35.6016Z" fill="#1782C5"/>
<path d="M11.3438 44.0391H3.96094V36.6562C3.96094 36.3765 3.84982 36.1083 3.65203 35.9105C3.45423 35.7127 3.18597 35.6016 2.90625 35.6016C2.62653 35.6016 2.35827 35.7127 2.16047 35.9105C1.96268 36.1083 1.85156 36.3765 1.85156 36.6562V45.0938C1.85155 45.2323 1.87882 45.3694 1.93182 45.4974C1.98482 45.6253 2.06251 45.7416 2.16045 45.8396C2.25839 45.9375 2.37466 46.0152 2.50263 46.0682C2.63059 46.1212 2.76774 46.1484 2.90625 46.1484H11.3438C11.6235 46.1484 11.8917 46.0373 12.0895 45.8395C12.2873 45.6417 12.3984 45.3735 12.3984 45.0938C12.3984 44.814 12.2873 44.5458 12.0895 44.348C11.8917 44.1502 11.6235 44.0391 11.3438 44.0391Z" fill="#1782C5"/>
<path d="M45.0938 1.85156H36.6562C36.3765 1.85156 36.1083 1.96268 35.9105 2.16047C35.7127 2.35827 35.6016 2.62653 35.6016 2.90625C35.6016 3.18597 35.7127 3.45423 35.9105 3.65203C36.1083 3.84982 36.3765 3.96094 36.6562 3.96094H44.0391V11.3438C44.0391 11.6235 44.1502 11.8917 44.348 12.0895C44.5458 12.2873 44.814 12.3984 45.0938 12.3984C45.3735 12.3984 45.6417 12.2873 45.8395 12.0895C46.0373 11.8917 46.1484 11.6235 46.1484 11.3438V2.90625C46.1484 2.76774 46.1212 2.63059 46.0682 2.50263C46.0152 2.37466 45.9375 2.25839 45.8396 2.16045C45.7416 2.06251 45.6253 1.98482 45.4974 1.93182C45.3694 1.87882 45.2323 1.85155 45.0938 1.85156Z" fill="#1782C5"/>
<path d="M11.3438 1.85156H2.90625C2.76774 1.85155 2.63059 1.87882 2.50263 1.93182C2.37466 1.98482 2.25839 2.06251 2.16045 2.16045C2.06251 2.25839 1.98482 2.37466 1.93182 2.50263C1.87882 2.63059 1.85155 2.76774 1.85156 2.90625V11.3438C1.85156 11.6235 1.96268 11.8917 2.16047 12.0895C2.35827 12.2873 2.62653 12.3984 2.90625 12.3984C3.18597 12.3984 3.45423 12.2873 3.65203 12.0895C3.84982 11.8917 3.96094 11.6235 3.96094 11.3438V3.96094H11.3438C11.6235 3.96094 11.8917 3.84982 12.0895 3.65203C12.2873 3.45423 12.3984 3.18597 12.3984 2.90625C12.3984 2.62653 12.2873 2.35827 12.0895 2.16047C11.8917 1.96268 11.6235 1.85156 11.3438 1.85156Z" fill="#1782C5"/>
<path d="M25.0555 21.5537C25.0555 21.274 24.9444 21.0057 24.7466 20.8079C24.5488 20.6101 24.2805 20.499 24.0008 20.499C23.7211 20.499 23.4528 20.6101 23.255 20.8079C23.0572 21.0057 22.9461 21.274 22.9461 21.5537V25.091C22.9499 26.4791 22.6783 27.8541 22.147 29.1365C21.6158 30.4189 20.8355 31.5832 19.8513 32.562L17.9306 34.4835C17.8325 34.5814 17.7547 34.6977 17.7016 34.8257C17.6485 34.9536 17.6212 35.0908 17.6211 35.2294C17.621 35.368 17.6483 35.5052 17.7013 35.6332C17.7543 35.7612 17.832 35.8776 17.93 35.9755C18.0279 36.0735 18.1443 36.1512 18.2723 36.2042C18.4003 36.2572 18.5375 36.2845 18.6761 36.2844C18.8147 36.2843 18.9519 36.257 19.0798 36.2039C19.2078 36.1508 19.3241 36.073 19.422 35.9749L21.3427 34.0534C22.5235 32.8793 23.4596 31.4826 24.0969 29.9442C24.7342 28.4058 25.06 26.7562 25.0555 25.091V21.5537Z" fill="#1782C5"/>
<path d="M30.1186 21.5537C30.1186 21.274 30.0074 21.0057 29.8097 20.8079C29.6119 20.6101 29.3436 20.499 29.0639 20.499C28.7842 20.499 28.5159 20.6101 28.3181 20.8079C28.1203 21.0057 28.0092 21.274 28.0092 21.5537V25.091C28.0186 29.1687 26.4247 33.0866 23.5713 35.9996C23.4733 36.0985 23.3958 36.2158 23.3434 36.3447C23.2909 36.4736 23.2645 36.6117 23.2657 36.7508C23.2668 36.89 23.2955 37.0276 23.3501 37.1557C23.4047 37.2837 23.484 37.3997 23.5837 37.4969C23.6833 37.5941 23.8011 37.6707 23.9305 37.7221C24.0598 37.7736 24.198 37.7989 24.3372 37.7967C24.4764 37.7944 24.6137 37.7647 24.7414 37.7091C24.869 37.6535 24.9843 37.5733 25.0808 37.4729C28.3198 34.1666 30.1292 29.7195 30.1186 25.091V21.5537Z" fill="#1782C5"/>
<path d="M17.8828 23.406C17.8828 23.6857 17.9939 23.954 18.1917 24.1518C18.3895 24.3496 18.6578 24.4607 18.9375 24.4607C19.2172 24.4607 19.4855 24.3496 19.6833 24.1518C19.8811 23.954 19.9922 23.6857 19.9922 23.406V21.5537C19.9934 20.4911 20.416 19.4724 21.1674 18.7211C21.9187 17.9697 22.9374 17.5471 24 17.5459C24.6492 17.5436 25.289 17.7009 25.863 18.004C25.9856 18.0685 26.1197 18.1082 26.2577 18.1209C26.3956 18.1336 26.5347 18.1189 26.667 18.0778C26.7993 18.0368 26.9222 17.97 27.0287 17.8814C27.1352 17.7928 27.2232 17.6841 27.2877 17.5616C27.3521 17.439 27.3919 17.3049 27.4045 17.1669C27.4172 17.029 27.4026 16.8899 27.3615 16.7576C27.3204 16.6253 27.2536 16.5024 27.1651 16.3959C27.0765 16.2894 26.9678 16.2014 26.8452 16.1369C25.9127 15.6477 24.8697 15.4075 23.8172 15.4393C22.7647 15.4712 21.7382 15.7741 20.837 16.3188C19.9358 16.8635 19.1904 17.6315 18.6729 18.5485C18.1553 19.4656 17.8832 20.5007 17.8828 21.5537V23.406Z" fill="#1782C5"/>
<path d="M18.8794 29.0608C18.953 28.9428 19.0026 28.8113 19.0252 28.674C19.0478 28.5367 19.043 28.3963 19.0111 28.2609C18.9792 28.1255 18.9208 27.9977 18.8393 27.8849C18.7579 27.7721 18.6549 27.6766 18.5363 27.6037C18.4177 27.5309 18.2859 27.4823 18.1485 27.4606C18.0111 27.439 17.8707 27.4447 17.7355 27.4775C17.6003 27.5103 17.4729 27.5695 17.3607 27.6518C17.2484 27.734 17.1536 27.8377 17.0816 27.9567C16.8526 28.3291 16.5807 28.6734 16.2716 28.9826L14.4267 30.8275C14.3286 30.9253 14.2508 31.0416 14.1977 31.1696C14.1446 31.2976 14.1172 31.4348 14.1172 31.5733C14.1171 31.7119 14.1444 31.8491 14.1974 31.9771C14.2504 32.1052 14.3281 32.2215 14.4261 32.3195C14.524 32.4174 14.6404 32.4952 14.7684 32.5482C14.8964 32.6012 15.0336 32.6284 15.1722 32.6283C15.3108 32.6283 15.448 32.6009 15.5759 32.5478C15.7039 32.4947 15.8202 32.4169 15.9181 32.3188L17.763 30.474C18.189 30.0481 18.5637 29.5739 18.8794 29.0608Z" fill="#1782C5"/>
<path d="M34.1252 25.5615C33.9867 25.5615 33.8496 25.5888 33.7216 25.6418C33.5936 25.6948 33.4774 25.7725 33.3794 25.8704C33.2815 25.9683 33.2038 26.0846 33.1508 26.2126C33.0978 26.3406 33.0705 26.4777 33.0705 26.6162C33.0702 27.903 32.7962 29.1751 32.2668 30.3479C31.7373 31.5207 30.9645 32.5676 29.9996 33.4189C29.7906 33.6043 29.6636 33.8649 29.6465 34.1437C29.6294 34.4225 29.7236 34.6967 29.9084 34.9062C30.0932 35.1156 30.3535 35.2432 30.6323 35.261C30.9111 35.2788 31.1855 35.1853 31.3954 35.001C32.5845 33.9515 33.5368 32.6611 34.1893 31.2156C34.8418 29.77 35.1794 28.2022 35.1799 26.6162C35.1799 26.4777 35.1527 26.3406 35.0997 26.2126C35.0467 26.0846 34.969 25.9683 34.871 25.8704C34.7731 25.7725 34.6568 25.6948 34.5289 25.6418C34.4009 25.5888 34.2637 25.5615 34.1252 25.5615Z" fill="#1782C5"/>
<path d="M24.001 10.374C23.0083 10.3732 22.0199 10.5045 21.0618 10.7646C20.9279 10.8006 20.8023 10.8628 20.6924 10.9474C20.5825 11.0321 20.4903 11.1376 20.4213 11.2579C20.3522 11.3782 20.3075 11.511 20.2898 11.6486C20.2722 11.7862 20.2818 11.926 20.3182 12.0598C20.3547 12.1937 20.4171 12.3191 20.5021 12.4288C20.5871 12.5384 20.6928 12.6303 20.8133 12.699C20.9339 12.7678 21.0667 12.8121 21.2044 12.8294C21.3421 12.8466 21.4818 12.8366 21.6156 12.7998C22.9612 12.435 24.3727 12.3849 25.7408 12.6535C27.1089 12.9221 28.3967 13.5021 29.5045 14.3486C30.6123 15.1952 31.5103 16.2854 32.1288 17.5349C32.7473 18.7844 33.0698 20.1595 33.0713 21.5537C33.0713 21.8334 33.1824 22.1017 33.3802 22.2995C33.578 22.4973 33.8462 22.6084 34.126 22.6084C34.4057 22.6084 34.6739 22.4973 34.8717 22.2995C35.0695 22.1017 35.1806 21.8334 35.1806 21.5537C35.1772 18.5897 33.9982 15.7482 31.9023 13.6523C29.8065 11.5565 26.9649 10.3775 24.001 10.374Z" fill="#1782C5"/>
<path d="M14.9297 26.6162V21.5537C14.9312 20.3015 15.1913 19.0631 15.6937 17.9161C16.196 16.769 16.9298 15.7381 17.8491 14.8878C17.9513 14.794 18.034 14.6809 18.0925 14.5551C18.151 14.4292 18.1841 14.2931 18.1899 14.1545C18.1956 14.0158 18.174 13.8774 18.1262 13.7471C18.0784 13.6169 18.0054 13.4973 17.9113 13.3953C17.8172 13.2933 17.7039 13.2109 17.5779 13.1527C17.4519 13.0946 17.3157 13.0619 17.177 13.0565C17.0384 13.0511 16.9 13.0731 16.7699 13.1212C16.6398 13.1693 16.5204 13.2427 16.4186 13.3371C15.2858 14.3853 14.3814 15.6562 13.7623 17.07C13.1431 18.4838 12.8224 20.0103 12.8203 21.5537V26.6162C12.8203 26.896 12.9314 27.1642 13.1292 27.362C13.327 27.5598 13.5953 27.6709 13.875 27.6709C14.1547 27.6709 14.423 27.5598 14.6208 27.362C14.8186 27.1642 14.9297 26.896 14.9297 26.6162Z" fill="#1782C5"/>
</svg>
