<svg width="48" height="48" viewBox="0 0 48 48" fill="none" xmlns="http://www.w3.org/2000/svg">
<g clip-path="url(#clip0_1712_2368)">
<path d="M24.8315 43.0892C24.6516 43.0892 24.4716 43.0206 24.3342 42.8833L22.3455 40.8946C22.0709 40.6199 22.0709 40.1748 22.3455 39.9003L24.3342 37.9115C24.6087 37.6368 25.054 37.6368 25.3286 37.9114C25.6031 38.186 25.6032 38.6312 25.3286 38.9057L24.5402 39.6942H47.2968C47.6852 39.6942 47.9999 40.0089 47.9999 40.3974C47.9999 40.7858 47.6852 41.1005 47.2968 41.1005H24.5402L25.3286 41.8888C25.6032 42.1635 25.6032 42.6086 25.3286 42.8832C25.1914 43.0206 25.0114 43.0892 24.8315 43.0892ZM20.0303 41.1006H0.703198C0.314792 41.1006 7.40802e-05 40.7859 7.40802e-05 40.3974C7.40802e-05 40.009 0.314792 39.6943 0.703198 39.6943H20.0303C20.4187 39.6943 20.7334 40.009 20.7334 40.3974C20.7334 40.7859 20.4186 41.1006 20.0303 41.1006ZM43.5512 37.3202C43.3713 37.3202 43.1913 37.2516 43.0539 37.1143L41.0652 35.1256C40.7906 34.8509 40.7906 34.4058 41.0652 34.1313L43.0539 32.1425C43.3287 31.8677 43.7739 31.868 44.0482 32.1424C44.3229 32.417 44.3229 32.8622 44.0483 33.1367L43.2599 33.9252H47.2968C47.6852 33.9252 47.9999 34.24 47.9999 34.6284C47.9999 35.0168 47.6852 35.3315 47.2968 35.3315H43.2599L44.0483 36.1198C44.3229 36.3945 44.3229 36.8396 44.0483 37.1142C43.9111 37.2516 43.7311 37.3202 43.5512 37.3202ZM38.7501 35.3315H0.703198C0.314792 35.3315 7.40802e-05 35.0168 7.40802e-05 34.6284C7.40802e-05 34.24 0.314792 33.9252 0.703198 33.9252H38.7501C39.1385 33.9252 39.4532 34.24 39.4532 34.6284C39.4532 35.0168 39.1384 35.3315 38.7501 35.3315ZM5.31119 31.7609C5.13128 31.7609 4.95128 31.6923 4.81394 31.5551L2.99435 29.7354C2.14919 29.6279 1.3916 29.5625 0.703198 29.5625C0.314792 29.5625 7.40802e-05 29.2478 7.40802e-05 28.8594C7.40802e-05 28.471 0.314792 28.1562 0.703198 28.1562C1.43163 28.1562 2.21191 28.2207 3.06972 28.3274L4.81394 26.5832C5.08853 26.3085 5.53375 26.3084 5.80825 26.5831C6.08294 26.8577 6.08294 27.3029 5.80834 27.5774L4.80925 28.5766C5.26609 28.6481 5.74394 28.7257 6.24522 28.8072C10.217 29.4525 15.6566 30.3364 23.9999 30.3364C34.4932 30.3364 40.2743 29.2764 43.7285 28.6431C45.2695 28.3604 46.383 28.1563 47.2968 28.1563C47.6852 28.1563 47.9999 28.4711 47.9999 28.8595C47.9999 29.2479 47.6852 29.5626 47.2968 29.5626C46.5109 29.5626 45.4502 29.757 43.982 30.0263C40.4809 30.6683 34.621 31.7427 23.9999 31.7427C15.5431 31.7427 10.0388 30.8484 6.01975 30.1953C5.785 30.1572 5.55559 30.1198 5.33125 30.0837L5.80834 30.5607C6.08294 30.8354 6.08294 31.2806 5.80834 31.5551C5.67109 31.6923 5.49119 31.7609 5.31119 31.7609ZM35.6962 27.5239H25.6553C25.2669 27.5239 24.9522 27.2092 24.9522 26.8208C24.9522 26.4324 25.2669 26.1177 25.6553 26.1177H35.6962C36.5578 26.1177 37.2801 25.6479 37.628 24.8611C37.8982 24.2501 37.9422 23.3279 37.255 22.5722C35.2976 20.4195 31.5939 18.9732 28.0387 18.9732C22.5627 18.9732 16.1258 21.7654 9.98555 24.7829C9.51952 25.0119 9.58018 25.4465 9.6099 25.5743C9.63943 25.7017 9.7764 26.1177 10.2946 26.1177H22.8427C23.2311 26.1177 23.5458 26.4324 23.5458 26.8208C23.5458 27.2092 23.2311 27.5239 22.8427 27.5239H10.2947C9.29274 27.5239 8.46709 26.8684 8.24031 25.8927C8.01334 24.9163 8.46549 23.9631 9.36549 23.5208C15.6581 20.4285 22.2756 17.5669 28.0389 17.5669C31.9661 17.5669 36.0879 19.1982 38.2956 21.6261C39.2505 22.6762 39.4875 24.1337 38.9142 25.4299C38.3429 26.7216 37.1097 27.5239 35.6962 27.5239ZM0.702354 23.7935C0.343386 23.7935 0.0369178 23.5199 0.00307407 23.1554C-0.0329259 22.7687 0.251417 22.4262 0.638042 22.3903C3.01254 22.1696 6.81034 20.4921 10.8312 18.716C15.3557 16.7175 20.4839 14.4523 24.9149 13.6532C25.2972 13.5838 25.6628 13.8381 25.7317 14.2203C25.8006 14.6025 25.5466 14.9682 25.1645 15.0371C20.8986 15.8064 15.8519 18.0356 11.3994 20.0024C7.0915 21.9053 3.37104 23.5486 0.768354 23.7905C0.746135 23.7925 0.724104 23.7935 0.702354 23.7935ZM47.2969 23.7935C46.0786 23.7935 44.617 22.6756 42.5942 21.1286C39.4278 18.7067 35.1994 15.4726 29.8397 14.8576L30.5248 15.5428C30.7994 15.8175 30.7994 16.2626 30.5248 16.5372C30.2501 16.8117 29.805 16.8117 29.5304 16.5372L27.5417 14.5485C27.2671 14.2738 27.2671 13.8287 27.5417 13.5541L29.5304 11.5653C29.8051 11.2908 30.2502 11.2908 30.5248 11.5653C30.7994 11.84 30.7994 12.2852 30.5248 12.5597L29.6584 13.4261C35.5851 13.997 40.2682 17.579 43.4486 20.0115C45.0459 21.2332 46.5547 22.3872 47.297 22.3872C47.6854 22.3872 48.0001 22.7019 48.0001 23.0903C48.0001 23.4787 47.6852 23.7935 47.2969 23.7935ZM2.69182 20.0133C2.51182 20.0133 2.33191 19.9447 2.19457 19.8074L0.205949 17.8186C-0.0686445 17.544 -0.0686445 17.0988 0.205949 16.8242L2.19466 14.8355C2.46935 14.561 2.91447 14.561 3.18907 14.8355C3.46366 15.1102 3.46366 15.5553 3.18907 15.8299L2.6066 16.4123C5.08966 15.9458 8.14881 14.7526 11.351 13.5034C16.6068 11.4532 22.5639 9.12954 28.0388 9.12954C34.0175 9.12954 38.9053 12.1328 42.4742 14.3258C44.4762 15.556 46.2053 16.6184 47.2968 16.6184C47.6852 16.6184 47.9999 16.9331 47.9999 17.3215C47.9999 17.7099 47.6852 18.0246 47.2968 18.0246C45.8077 18.0246 44.0118 16.9211 41.738 15.5239C38.1212 13.3016 33.62 10.5358 28.0388 10.5358C22.8284 10.5358 17.0023 12.8084 11.8621 14.8136C8.35215 16.1827 5.00913 17.4868 2.27023 17.8942L3.18907 18.8131C3.46366 19.0877 3.46366 19.533 3.18897 19.8075C3.05172 19.9446 2.87172 20.0133 2.69182 20.0133ZM46.6947 13.9634C46.5147 13.9634 46.3348 13.8947 46.1974 13.7575L44.351 11.9109C42.0984 11.3929 40.0468 10.3676 38.0433 9.36616C35.0438 7.8671 31.9421 6.31704 28.0389 6.31704C23.2912 6.31704 19.2824 7.55773 15.2544 8.94007C14.8871 9.06644 14.4871 8.8706 14.3611 8.50329C14.2351 8.13598 14.4306 7.73604 14.7979 7.61004C18.943 6.18757 23.0746 4.91089 28.0389 4.91089C32.274 4.91089 35.5265 6.53642 38.6719 8.10841C40.6144 9.0791 42.4825 10.0128 44.4831 10.5002L46.1974 8.78576C46.4721 8.51107 46.9174 8.51116 47.1918 8.78566C47.4664 9.06026 47.4664 9.50547 47.1919 9.77997L46.1784 10.7934C46.545 10.8302 46.9174 10.8496 47.2968 10.8496C47.6852 10.8496 47.9999 11.1643 47.9999 11.5527C47.9999 11.9411 47.6852 12.2558 47.2968 12.2558C47.0853 12.2558 46.876 12.2504 46.6684 12.2398L47.1919 12.7632C47.4664 13.0379 47.4664 13.483 47.1919 13.7576C47.0546 13.8947 46.8746 13.9634 46.6947 13.9634ZM0.703198 12.2556C0.314792 12.2556 7.40802e-05 11.9409 7.40802e-05 11.5525C7.40802e-05 11.1641 0.314792 10.8494 0.703198 10.8494C4.90872 10.8494 8.67287 9.69691 11.871 8.61682C12.2387 8.4926 12.6378 8.68994 12.7621 9.05791C12.8864 9.42588 12.6889 9.82488 12.321 9.9491C9.01693 11.065 5.12191 12.2556 0.703198 12.2556Z" fill="#1782C5"/>
</g>
<defs>
<clipPath id="clip0_1712_2368">
<rect width="48" height="48" fill="white"/>
</clipPath>
</defs>
</svg>
