<svg width="48" height="48" viewBox="0 0 48 48" fill="none" xmlns="http://www.w3.org/2000/svg">
<g clip-path="url(#clip0_1711_2173)">
<path d="M34.9828 31.0943H28.8629V28.8578C31.2969 27.2508 32.9791 24.4761 33.2082 21.2766H35.3119C36.6119 21.2766 37.6694 20.1706 37.6694 18.8112V16.1278C37.6694 14.8261 36.6997 13.7576 35.4763 13.669C35.1135 7.27627 30.1059 2.19324 24.0015 2.19324C17.897 2.19324 12.8894 7.27627 12.5267 13.669C11.3032 13.7577 10.3336 14.8261 10.3336 16.1278V18.8112C10.3336 20.1706 11.3911 21.2766 12.691 21.2766H14.7948C15.0238 24.4761 16.706 27.2508 19.1401 28.8578V31.0943H13.0203C8.53112 31.0943 4.87891 34.9694 4.87891 39.7325V45.057C4.87891 45.4712 5.21472 45.807 5.62891 45.807H42.3744C42.7886 45.807 43.1244 45.4712 43.1244 45.057V39.7325C43.1242 34.9694 39.472 31.0943 34.9828 31.0943ZM36.1693 16.1277V18.8111C36.1693 19.3345 35.7767 19.7765 35.3118 19.7765H33.2349V15.1622H35.3118C35.7767 15.1622 36.1693 15.6044 36.1693 16.1277ZM24.0014 3.69314C29.2784 3.69314 33.613 8.10033 33.9733 13.6622H33.2082C32.8462 8.60546 28.8552 4.60852 24.0015 4.60852C19.1477 4.60852 15.1566 8.60555 14.7947 13.6622H14.0296C14.3897 8.10033 18.7243 3.69314 24.0014 3.69314ZM31.7043 13.6784C31.6547 13.68 31.606 13.6815 31.5543 13.6831C29.0044 13.7643 24.7371 13.8999 23.0895 10.6701C22.9628 10.4218 22.7088 10.2642 22.43 10.261C22.149 10.2552 21.8937 10.4094 21.7613 10.6548C20.9085 12.2355 19.3015 13.1002 16.3092 13.5509C16.7118 9.37543 20.0078 6.10852 24.0014 6.10852C28.0353 6.10842 31.3572 9.44208 31.7043 13.6784ZM11.8335 18.8111V16.1277C11.8335 15.6043 12.2261 15.1622 12.6909 15.1622H14.7678V19.7765H12.6909C12.2261 19.7765 11.8335 19.3344 11.8335 18.8111ZM16.2678 20.5265V15.0726C19.3086 14.648 21.1998 13.8283 22.4031 12.3785C24.3359 14.8685 27.6554 15.2118 30.1427 15.2118C30.6743 15.2118 31.1683 15.1962 31.6021 15.1823C31.648 15.1808 31.6907 15.1796 31.7349 15.1782V20.5265C31.7349 21.3921 31.6108 22.2271 31.3808 23.0122H25.7153C25.3011 23.0122 24.9653 23.348 24.9653 23.7622C24.9653 24.1764 25.3011 24.5122 25.7153 24.5122H30.784C29.4682 27.0835 26.9213 28.8302 24.0014 28.8302C19.7371 28.8302 16.2678 25.1052 16.2678 20.5265ZM24.0014 30.3302C25.1867 30.3302 26.3207 30.0915 27.3628 29.6576V34.8517C27.3628 36.8576 25.8549 38.4895 24.0014 38.4895C22.1478 38.4895 20.6399 36.8576 20.6399 34.8517V29.6576C21.6821 30.0916 22.816 30.3302 24.0014 30.3302ZM41.6242 44.307H35.5549V39.8798C35.5549 39.4656 35.2191 39.1298 34.8049 39.1298C34.3907 39.1298 34.0549 39.4656 34.0549 39.8798V44.307H13.9479V39.8798C13.9479 39.4656 13.6121 39.1298 13.1979 39.1298C12.7837 39.1298 12.4479 39.4656 12.4479 39.8798V44.307H6.37872V39.7324C6.37872 35.7964 9.358 32.5942 13.0202 32.5942H19.1399V34.8516C19.1399 37.6845 21.3208 39.9894 24.0014 39.9894C26.682 39.9894 28.8628 37.6846 28.8628 34.8516V32.5942H34.9827C38.6447 32.5942 41.6241 35.7964 41.6241 39.7324V44.307H41.6242Z" fill="#1782C5"/>
</g>
<defs>
<clipPath id="clip0_1711_2173">
<rect width="48" height="48" fill="white"/>
</clipPath>
</defs>
</svg>
